
<?xml version="1.0" encoding="utf-8"?>
<svg viewBox="0 0 94.601 56.601" width="94.601px" height="56.601px" xmlns="http://www.w3.org/2000/svg">
  <ellipse style="fill: rgb(216, 216, 216); stroke: rgb(0, 0, 0); fill-opacity: 0; paint-order: stroke;" cx="10.319" cy="16.357" rx="5.71" ry="5.71" transform="matrix(1, 0, 0, 1, 0, 1.7763568394002505e-15)"/>
  <ellipse style="fill: rgb(216, 216, 216); stroke: rgb(0, 0, 0); fill-opacity: 0; paint-order: stroke;" cx="18.053" cy="6.769" rx="5.128" ry="5.128" transform="matrix(1, 0, 0, 1, 0, 1.7763568394002505e-15)"/>
  <ellipse style="fill: rgb(216, 216, 216); stroke: rgb(0, 0, 0); fill-opacity: 0; paint-order: stroke;" cx="28.841" cy="5.412" rx="4.563" ry="4.563" transform="matrix(1, 0, 0, 1, 0, 1.7763568394002505e-15)"/>
  <ellipse style="fill: rgb(216, 216, 216); stroke: rgb(0, 0, 0); fill-opacity: 0; paint-order: stroke;" cx="39.375" cy="8.9" rx="5.128" ry="5.128" transform="matrix(1, 0, 0, 1, 0, 1.7763568394002505e-15)"/>
  <ellipse style="fill: rgb(216, 216, 216); stroke: rgb(0, 0, 0); fill-opacity: 0; paint-order: stroke;" cx="40.776" cy="19.989" rx="4.884" ry="4.884" transform="matrix(1, 0, 0, 1, 0, 1.7763568394002505e-15)"/>
  <ellipse style="fill: rgb(216, 216, 216); stroke: rgb(0, 0, 0); fill-opacity: 0; paint-order: stroke;" cx="31.346" cy="26.857" rx="4.79" ry="4.79" transform="matrix(1, 0, 0, 1, 0, 1.7763568394002505e-15)"/>
  <ellipse style="fill: rgb(216, 216, 216); stroke: rgb(0, 0, 0); fill-opacity: 0; paint-order: stroke;" cx="39.492" cy="31.796" rx="3.356" ry="3.356" transform="matrix(1, 0, 0, 1, 0, 1.7763568394002505e-15)"/>
  <ellipse style="fill: rgb(216, 216, 216); stroke: rgb(0, 0, 0); fill-opacity: 0; paint-order: stroke;" cx="44.55" cy="42.676" rx="6.682" ry="6.682" transform="matrix(1, 0, 0, 1, 0, 1.7763568394002505e-15)"/>
  <ellipse style="fill: rgb(216, 216, 216); stroke: rgb(0, 0, 0); fill-opacity: 0; paint-order: stroke;" cx="33.705" cy="50.354" rx="5.219" ry="5.219" transform="matrix(1, 0, 0, 1, 0, 1.7763568394002505e-15)"/>
  <ellipse style="fill: rgb(216, 216, 216); stroke: rgb(0, 0, 0); fill-opacity: 0; paint-order: stroke;" cx="22.167" cy="50.166" rx="5.031" ry="5.031" transform="matrix(1, 0, 0, 1, 0, 1.7763568394002505e-15)"/>
  <ellipse style="fill: rgb(216, 216, 216); stroke: rgb(0, 0, 0); fill-opacity: 0; paint-order: stroke;" cx="11.288" cy="45.388" rx="5.128" ry="5.128" transform="matrix(1, 0, 0, 1, 0, 1.7763568394002505e-15)"/>
  <ellipse style="fill: rgb(216, 216, 216); stroke: rgb(0, 0, 0); fill-opacity: 0; paint-order: stroke;" cx="5.956" cy="39.123" rx="1.807" ry="1.807" transform="matrix(1, 0, 0, 1, 0, 1.7763568394002505e-15)"/>
  <path d="M 5.155 32.919 L 6.16 35.152 L 4.149 35.152 L 5.155 32.919 Z" style="fill: rgb(216, 216, 216); stroke: rgb(0, 0, 0);" transform="matrix(1, 0, 0, 1, 0, 1.7763568394002505e-15)"/>
  <ellipse style="fill: rgb(216, 216, 216); stroke: rgb(0, 0, 0); fill-opacity: 0; paint-order: stroke;" cx="52.251" cy="8.709" rx="4.937" ry="4.937" transform="matrix(1, 0, 0, 1, 0, 1.7763568394002505e-15)"/>
  <ellipse style="fill: rgb(216, 216, 216); stroke: rgb(0, 0, 0); fill-opacity: 0; paint-order: stroke;" cx="63.473" cy="5.977" rx="5.128" ry="5.128" transform="matrix(1, 0, 0, 1, 0, 1.7763568394002505e-15)"/>
  <ellipse style="fill: rgb(216, 216, 216); stroke: rgb(0, 0, 0); fill-opacity: 0; paint-order: stroke;" cx="75.055" cy="7.748" rx="5.128" ry="5.128" transform="matrix(1, 0, 0, 1, 0, 1.7763568394002505e-15)"/>
  <ellipse style="fill: rgb(216, 216, 216); stroke: rgb(0, 0, 0); fill-opacity: 0; paint-order: stroke;" cx="85.12" cy="14.912" rx="4.937" ry="4.937" transform="matrix(1, 0, 0, 1, 0, 1.7763568394002505e-15)"/>
  <ellipse style="fill: rgb(216, 216, 216); stroke: rgb(0, 0, 0); fill-opacity: 0; paint-order: stroke;" cx="88.395" cy="26.519" rx="5.128" ry="5.128" transform="matrix(1, 0, 0, 1, 0, 1.7763568394002505e-15)"/>
  <ellipse style="fill: rgb(216, 216, 216); stroke: rgb(0, 0, 0); fill-opacity: 0; paint-order: stroke;" cx="86.733" cy="38.165" rx="5.128" ry="5.128" transform="matrix(1, 0, 0, 1, 0, 1.7763568394002505e-15)"/>
  <ellipse style="fill: rgb(216, 216, 216); stroke: rgb(0, 0, 0); fill-opacity: 0; paint-order: stroke;" cx="79.342" cy="47.074" rx="4.899" ry="4.899" transform="matrix(1, 0, 0, 1, 0, 1.7763568394002505e-15)"/>
  <ellipse style="fill: rgb(216, 216, 216); stroke: rgb(0, 0, 0); fill-opacity: 0; paint-order: stroke;" cx="68.617" cy="50.459" rx="5.114" ry="5.114" transform="matrix(1, 0, 0, 1, 0, 1.7763568394002505e-15)"/>
  <ellipse style="fill: rgb(216, 216, 216); stroke: rgb(0, 0, 0); fill-opacity: 0; paint-order: stroke;" cx="59.09" cy="50.082" rx="3.036" ry="3.036" transform="matrix(1, 0, 0, 1, 0, 1.7763568394002505e-15)"/>
  <ellipse style="fill: rgb(216, 216, 216); stroke: rgb(0, 0, 0); fill-opacity: 0; paint-order: stroke;" cx="62.585" cy="40.005" rx="4.011" ry="4.011" transform="matrix(1, 0, 0, 1, 0, 1.7763568394002505e-15)"/>
  <ellipse style="fill: rgb(216, 216, 216); stroke: rgb(0, 0, 0); fill-opacity: 0; paint-order: stroke;" cx="67.914" cy="32.327" rx="3.667" ry="3.667" transform="matrix(1, 0, 0, 1, 0, 1.7763568394002505e-15)"/>
  <ellipse style="fill: rgb(216, 216, 216); stroke: rgb(0, 0, 0); fill-opacity: 0; paint-order: stroke;" cx="76.481" cy="27.142" rx="3.702" ry="3.702" transform="matrix(1, 0, 0, 1, 0, 1.7763568394002505e-15)"/>
  <path d="M 73.611 18.74 L 74.443 21.391 L 72.779 21.391 L 73.611 18.74 Z" style="fill: rgb(216, 216, 216); stroke: rgb(0, 0, 0);" transform="matrix(1, 0, 0, 1, 0, 1.7763568394002505e-15)"/>
</svg>