<?xml version="1.0" encoding="utf-8"?>
<svg viewBox="0 0 60.801 56.801" width="60.801px" height="56.801px" xmlns="http://www.w3.org/2000/svg">
  <ellipse style="fill: rgb(216, 216, 216); stroke: rgb(0, 0, 0); fill-opacity: 0; paint-order: stroke;" cx="13.654" cy="7.509" rx="7.498" ry="7.498" transform="matrix(1, 0, 0, 1, 0, 1.7763568394002505e-15)"/>
  <ellipse style="fill: rgb(216, 216, 216); stroke: rgb(0, 0, 0); fill-opacity: 0; paint-order: stroke;" cx="10.857" cy="14.116" rx="7.498" ry="7.498" transform="matrix(1, 0, 0, 1, 0, 1.7763568394002505e-15)"/>
  <ellipse style="fill: rgb(216, 216, 216); stroke: rgb(0, 0, 0); fill-opacity: 0; paint-order: stroke;" cx="9.069" cy="18.078" rx="7.109" ry="7.109" transform="matrix(1, 0, 0, 1, 0, 1.7763568394002505e-15)"/>
  <ellipse style="fill: rgb(216, 216, 216); stroke: rgb(0, 0, 0); fill-opacity: 0; paint-order: stroke;" cx="8.138" cy="22.274" rx="6.954" ry="6.954" transform="matrix(1, 0, 0, 1, 0, 1.7763568394002505e-15)"/>
  <ellipse style="fill: rgb(216, 216, 216); stroke: rgb(0, 0, 0); fill-opacity: 0; paint-order: stroke;" cx="7.748" cy="25.537" rx="6.876" ry="6.876" transform="matrix(1, 0, 0, 1, 0, 1.7763568394002505e-15)"/>
  <ellipse style="fill: rgb(216, 216, 216); stroke: rgb(0, 0, 0); fill-opacity: 0; paint-order: stroke;" cx="7.438" cy="28.957" rx="6.644" ry="6.644" transform="matrix(1, 0, 0, 1, 0, 1.7763568394002505e-15)"/>
  <ellipse style="fill: rgb(216, 216, 216); stroke: rgb(0, 0, 0); fill-opacity: 0; paint-order: stroke;" cx="7.787" cy="31.872" rx="6.761" ry="6.761" transform="matrix(1, 0, 0, 1, 0, 1.7763568394002505e-15)"/>
  <ellipse style="fill: rgb(216, 216, 216); stroke: rgb(0, 0, 0); fill-opacity: 0; paint-order: stroke;" cx="8.447" cy="35.484" rx="6.761" ry="6.761" transform="matrix(1, 0, 0, 1, 0, 1.7763568394002505e-15)"/>
  <ellipse style="fill: rgb(216, 216, 216); stroke: rgb(0, 0, 0); fill-opacity: 0; paint-order: stroke;" cx="9.381" cy="38.593" rx="6.761" ry="6.761" transform="matrix(1, 0, 0, 1, 0, 1.7763568394002505e-15)"/>
  <ellipse style="fill: rgb(216, 216, 216); stroke: rgb(0, 0, 0); fill-opacity: 0; paint-order: stroke;" cx="11.246" cy="41.39" rx="6.761" ry="6.761" transform="matrix(1, 0, 0, 1, 0, 1.7763568394002505e-15)"/>
  <ellipse style="fill: rgb(216, 216, 216); stroke: rgb(0, 0, 0); fill-opacity: 0; paint-order: stroke;" cx="13.422" cy="43.877" rx="6.217" ry="6.217" transform="matrix(1, 0, 0, 1, 0, 1.7763568394002505e-15)"/>
  <ellipse style="fill: rgb(216, 216, 216); stroke: rgb(0, 0, 0); fill-opacity: 0; paint-order: stroke;" cx="16.14" cy="46.518" rx="5.828" ry="5.828" transform="matrix(1, 0, 0, 1, 0, 1.7763568394002505e-15)"/>
  <ellipse style="fill: rgb(216, 216, 216); stroke: rgb(0, 0, 0); fill-opacity: 0; paint-order: stroke;" cx="19.093" cy="48.461" rx="5.595" ry="5.595" transform="matrix(1, 0, 0, 1, 0, 1.7763568394002505e-15)"/>
  <ellipse style="fill: rgb(216, 216, 216); stroke: rgb(0, 0, 0); fill-opacity: 0; paint-order: stroke;" cx="22.201" cy="49.548" rx="5.517" ry="5.517" transform="matrix(1, 0, 0, 1, 0, 1.7763568394002505e-15)"/>
  <ellipse style="fill: rgb(216, 216, 216); stroke: rgb(0, 0, 0); fill-opacity: 0; paint-order: stroke;" cx="25.31" cy="50.361" rx="5.517" ry="5.517" transform="matrix(1, 0, 0, 1, 0, 1.7763568394002505e-15)"/>
  <ellipse style="fill: rgb(216, 216, 216); stroke: rgb(0, 0, 0); fill-opacity: 0; paint-order: stroke;" cx="27.991" cy="50.633" rx="5.4" ry="5.4" transform="matrix(1, 0, 0, 1, 0, 1.7763568394002505e-15)"/>
  <ellipse style="fill: rgb(216, 216, 216); stroke: rgb(0, 0, 0); fill-opacity: 0; paint-order: stroke;" cx="29.894" cy="50.827" rx="5.4" ry="5.4" transform="matrix(1, 0, 0, 1, 0, 1.7763568394002505e-15)"/>
  <path d="M 28.497 40.947 L 29.502 43.18 L 27.491 43.18 L 28.497 40.947 Z" style="fill: rgb(216, 216, 216); stroke: rgb(0, 0, 0);" transform="matrix(1, 0, 0, 1, 0, 1.7763568394002505e-15)"/>
  <ellipse style="fill: rgb(216, 216, 216); stroke: rgb(0, 0, 0); fill-opacity: 0; paint-order: stroke;" cx="47.067" cy="7.096" rx="7.187" ry="7.187" transform="matrix(1, 0, 0, 1, 0, 1.7763568394002505e-15)"/>
  <ellipse style="fill: rgb(216, 216, 216); stroke: rgb(0, 0, 0); fill-opacity: 0; paint-order: stroke;" cx="49.788" cy="13.778" rx="7.498" ry="7.498" transform="matrix(1, 0, 0, 1, 0, 1.7763568394002505e-15)"/>
  <ellipse style="fill: rgb(216, 216, 216); stroke: rgb(0, 0, 0); fill-opacity: 0; paint-order: stroke;" cx="52.08" cy="18.324" rx="6.915" ry="6.915" transform="matrix(1, 0, 0, 1, 0, 1.7763568394002505e-15)"/>
  <ellipse style="fill: rgb(216, 216, 216); stroke: rgb(0, 0, 0); fill-opacity: 0; paint-order: stroke;" cx="52.973" cy="22.87" rx="6.915" ry="6.915" transform="matrix(1, 0, 0, 1, 0, 1.7763568394002505e-15)"/>
  <ellipse style="fill: rgb(216, 216, 216); stroke: rgb(0, 0, 0); fill-opacity: 0; paint-order: stroke;" cx="53.207" cy="27.999" rx="6.915" ry="6.915" transform="matrix(1, 0, 0, 1, 0, 1.7763568394002505e-15)"/>
  <ellipse style="fill: rgb(216, 216, 216); stroke: rgb(0, 0, 0); fill-opacity: 0; paint-order: stroke;" cx="52.818" cy="32.738" rx="6.915" ry="6.915" transform="matrix(1, 0, 0, 1, 0, 1.7763568394002505e-15)"/>
  <ellipse style="fill: rgb(216, 216, 216); stroke: rgb(0, 0, 0); fill-opacity: 0; paint-order: stroke;" cx="51.653" cy="36.935" rx="6.915" ry="6.915" transform="matrix(1, 0, 0, 1, 0, 1.7763568394002505e-15)"/>
  <ellipse style="fill: rgb(216, 216, 216); stroke: rgb(0, 0, 0); fill-opacity: 0; paint-order: stroke; transform-origin: 49.322px 41.907px;" cx="49.322" cy="41.907" rx="6.682" ry="6.682"/>
  <ellipse style="fill: rgb(216, 216, 216); stroke: rgb(0, 0, 0); fill-opacity: 0; paint-order: stroke; transform-origin: 46.097px 45.6px;" cx="46.097" cy="45.6" rx="6.177" ry="6.177"/>
  <ellipse style="fill: rgb(216, 216, 216); stroke: rgb(0, 0, 0); fill-opacity: 0; paint-order: stroke; transform-origin: 41.589px 48.475px;" cx="41.589" cy="48.475" rx="5.905" ry="5.905"/>
  <ellipse style="fill: rgb(216, 216, 216); stroke: rgb(0, 0, 0); fill-opacity: 0; paint-order: stroke; transform-origin: 36.966px 50.223px;" cx="36.966" cy="50.223" rx="5.361" ry="5.361"/>
  <ellipse style="fill: rgb(216, 216, 216); stroke: rgb(0, 0, 0); fill-opacity: 0; paint-order: stroke; transform-origin: 33.936px 50.689px;" cx="33.936" cy="50.689" rx="5.361" ry="5.361"/>
  <ellipse style="fill: rgb(216, 216, 216); stroke: rgb(0, 0, 0); fill-opacity: 0; paint-order: stroke; transform-origin: 30.905px 50.844px;" cx="30.905" cy="50.844" rx="5.361" ry="5.361"/>
  <path d="M 31.449 40.792 L 32.454 43.103 L 30.443 43.103 L 31.449 40.792 Z" style="fill: rgb(216, 216, 216); stroke: rgb(0, 0, 0);" transform="matrix(1, 0, 0, 1, 0, 1.7763568394002505e-15)"/>
  <ellipse style="fill: rgb(216, 216, 216); stroke: rgb(0, 0, 0); fill-opacity: 0; paint-order: stroke;" cx="12.722" cy="10.904" rx="7.498" ry="7.498" transform="matrix(1, 0, 0, 1, 0, 1.7763568394002505e-15)"/>
  <ellipse style="fill: rgb(216, 216, 216); stroke: rgb(0, 0, 0); fill-opacity: 0; paint-order: stroke;" cx="14.859" cy="12.965" rx="6.605" ry="6.605" transform="matrix(1, 0, 0, 1, 0, 1.7763568394002505e-15)"/>
  <ellipse style="fill: rgb(216, 216, 216); stroke: rgb(0, 0, 0); fill-opacity: 0; paint-order: stroke;" cx="17.811" cy="15.527" rx="5.322" ry="5.322" transform="matrix(1, 0, 0, 1, 0, 1.7763568394002505e-15)"/>
  <ellipse style="fill: rgb(216, 216, 216); stroke: rgb(0, 0, 0); fill-opacity: 0; paint-order: stroke;" cx="21.775" cy="18.947" rx="5.05" ry="5.05" transform="matrix(1, 0, 0, 1, 0, 1.7763568394002505e-15)"/>
  <ellipse style="fill: rgb(216, 216, 216); stroke: rgb(0, 0, 0); fill-opacity: 0; paint-order: stroke;" cx="25.039" cy="20.811" rx="5.167" ry="5.167" transform="matrix(1, 0, 0, 1, 0, 1.7763568394002505e-15)"/>
  <ellipse style="fill: rgb(216, 216, 216); stroke: rgb(0, 0, 0); fill-opacity: 0; paint-order: stroke;" cx="29.235" cy="21.51" rx="5.4" ry="5.4" transform="matrix(1, 0, 0, 1, 0, 1.7763568394002505e-15)"/>
  <ellipse style="fill: rgb(216, 216, 216); stroke: rgb(0, 0, 0); fill-opacity: 0; paint-order: stroke;" cx="32.77" cy="21.395" rx="5.555" ry="5.555" transform="matrix(1, 0, 0, 1, 0, 1.7763568394002505e-15)"/>
  <ellipse style="fill: rgb(216, 216, 216); stroke: rgb(0, 0, 0); fill-opacity: 0; paint-order: stroke;" cx="36.811" cy="20.229" rx="5.555" ry="5.555" transform="matrix(1, 0, 0, 1, 0, 1.7763568394002505e-15)"/>
  <ellipse style="fill: rgb(216, 216, 216); stroke: rgb(0, 0, 0); fill-opacity: 0; paint-order: stroke;" cx="39.608" cy="18.829" rx="5.244" ry="5.244" transform="matrix(1, 0, 0, 1, 0, 1.7763568394002505e-15)"/>
  <ellipse style="fill: rgb(216, 216, 216); stroke: rgb(0, 0, 0); fill-opacity: 0; paint-order: stroke;" cx="42.251" cy="16.809" rx="5.244" ry="5.244" transform="matrix(1, 0, 0, 1, 0, 1.7763568394002505e-15)"/>
  <ellipse style="fill: rgb(216, 216, 216); stroke: rgb(0, 0, 0); fill-opacity: 0; paint-order: stroke;" cx="45.514" cy="14.711" rx="5.244" ry="5.244" transform="matrix(1, 0, 0, 1, 0, 1.7763568394002505e-15)"/>
  <ellipse style="fill: rgb(216, 216, 216); stroke: rgb(0, 0, 0); fill-opacity: 0; paint-order: stroke;" cx="50.37" cy="12.186" rx="6.215" ry="6.215" transform="matrix(1, 0, 0, 1, 0, 1.7763568394002505e-15)"/>
  <path d="M 32.537 9.127 L 33.542 11.438 L 31.531 11.438 L 32.537 9.127 Z" style="fill: rgb(216, 216, 216); stroke: rgb(0, 0, 0);" transform="matrix(1, 0, 0, 1, 0, 1.7763568394002505e-15)"/>
</svg>