<?xml version="1.0" encoding="utf-8"?>
<svg viewBox="0 0 102.301 56.601" width="102.301px" height="56.601px" xmlns="http://www.w3.org/2000/svg">
  <ellipse style="fill: rgb(216, 216, 216); fill-opacity: 0; paint-order: stroke; stroke: rgb(33, 61, 186);" cx="10.813" cy="11.358" rx="5.717" ry="5.717" transform="matrix(1, 0, 0, 1, 3.552713678800501e-15, 1.7763568394002505e-15)"/>
  <ellipse style="fill: rgb(216, 216, 216); fill-opacity: 0; paint-order: stroke; stroke: rgb(33, 61, 186);" cx="18.221" cy="7.246" rx="5.717" ry="5.717" transform="matrix(1, 0, 0, 1, 3.552713678800501e-15, 1.7763568394002505e-15)"/>
  <ellipse style="fill: rgb(216, 216, 216); fill-opacity: 0; paint-order: stroke; stroke: rgb(33, 61, 186);" cx="24.564" cy="6.505" rx="5.717" ry="5.717" transform="matrix(1, 0, 0, 1, -8.881784197001252e-16, 8.881784197001252e-16)"/>
  <ellipse style="fill: rgb(216, 216, 216); fill-opacity: 0; paint-order: stroke; stroke: rgb(33, 61, 186);" cx="34.351" cy="7.079" rx="5.717" ry="5.717" transform="matrix(1, 0, 0, 1, 3.552713678800501e-15, 1.7763568394002505e-15)"/>
  <ellipse style="fill: rgb(216, 216, 216); fill-opacity: 0; paint-order: stroke; stroke: rgb(33, 61, 186);" cx="39.257" cy="9.324" rx="5.717" ry="5.717" transform="matrix(1, 0, 0, 1, 3.552713678800501e-15, 1.7763568394002505e-15)"/>
  <ellipse style="fill: rgb(216, 216, 216); fill-opacity: 0; paint-order: stroke; stroke: rgb(33, 61, 186);" cx="45.284" cy="14.935" rx="6.008" ry="6.008" transform="matrix(1, 0, 0, 1, 3.552713678800501e-15, 1.7763568394002505e-15)"/>
  <ellipse style="fill: rgb(216, 216, 216); fill-opacity: 0; paint-order: stroke; stroke: rgb(33, 61, 186);" cx="48.61" cy="21.005" rx="6.34" ry="6.34" transform="matrix(1, 0, 0, 1, 3.552713678800501e-15, 1.7763568394002505e-15)"/>
  <ellipse style="fill: rgb(216, 216, 216); fill-opacity: 0; paint-order: stroke; stroke: rgb(33, 61, 186);" cx="49.15" cy="28.557" rx="6.34" ry="6.34" transform="matrix(1, 0, 0, 1, 3.552713678800501e-15, 1.7763568394002505e-15)"/>
  <ellipse style="fill: rgb(216, 216, 216); fill-opacity: 0; paint-order: stroke; stroke: rgb(33, 61, 186);" cx="48.901" cy="32.132" rx="6.506" ry="6.506" transform="matrix(1, 0, 0, 1, 3.552713678800501e-15, 1.7763568394002505e-15)"/>
  <ellipse style="fill: rgb(216, 216, 216); fill-opacity: 0; paint-order: stroke; stroke: rgb(33, 61, 186);" cx="46.323" cy="39.781" rx="6.173" ry="6.173" transform="matrix(1, 0, 0, 1, 3.552713678800501e-15, 1.7763568394002505e-15)"/>
  <ellipse style="fill: rgb(216, 216, 216); fill-opacity: 0; paint-order: stroke; stroke: rgb(33, 61, 186);" cx="43.788" cy="43.205" rx="5.966" ry="5.966" transform="matrix(1, 0, 0, 1, 3.552713678800501e-15, 1.7763568394002505e-15)"/>
  <ellipse style="fill: rgb(216, 216, 216); fill-opacity: 0; paint-order: stroke; stroke: rgb(33, 61, 186);" cx="37.053" cy="48.341" rx="5.799" ry="5.799" transform="matrix(1, 0, 0, 1, 3.552713678800501e-15, 1.7763568394002505e-15)"/>
  <ellipse style="fill: rgb(216, 216, 216); fill-opacity: 0; paint-order: stroke; stroke: rgb(33, 61, 186);" cx="28.864" cy="50.276" rx="5.259" ry="5.259" transform="matrix(1, 0, 0, 1, 3.552713678800501e-15, 1.7763568394002505e-15)"/>
  <ellipse style="fill: rgb(216, 216, 216); fill-opacity: 0; paint-order: stroke; stroke: rgb(33, 61, 186);" cx="23.21" cy="50.276" rx="5.259" ry="5.259" transform="matrix(1, 0, 0, 1, 3.552713678800501e-15, 1.7763568394002505e-15)"/>
  <ellipse style="fill: rgb(216, 216, 216); fill-opacity: 0; paint-order: stroke; stroke: rgb(33, 61, 186);" cx="15.895" cy="48.363" rx="5.508" ry="5.508" transform="matrix(1, 0, 0, 1, 3.552713678800501e-15, 1.7763568394002505e-15)"/>
  <ellipse style="fill: rgb(216, 216, 216); fill-opacity: 0; paint-order: stroke; stroke: rgb(33, 61, 186);" cx="10.447" cy="44.996" rx="5.966" ry="5.966" transform="matrix(1, 0, 0, 1, 3.552713678800501e-15, 1.7763568394002505e-15)"/>
  <path d="M 28.698 30.369 L 29.703 32.602 L 27.692 32.602 L 28.698 30.369 Z" style="fill: rgb(216, 216, 216); stroke: rgb(0, 0, 0);" transform="matrix(1, 0, 0, 1, 3.552713678800501e-15, 1.7763568394002505e-15)"/>
  <ellipse style="fill: rgb(216, 216, 216); fill-opacity: 0; paint-order: stroke; stroke: rgb(91, 186, 33);" cx="48.591" cy="18.155" rx="7.047" ry="7.047" transform="matrix(1, 0, 0, 1, 3.552713678800501e-15, 1.7763568394002505e-15)"/>
  <ellipse style="fill: rgb(216, 216, 216); fill-opacity: 0; paint-order: stroke; stroke: rgb(91, 186, 33);" cx="53.909" cy="13.187" rx="5.797" ry="5.797" transform="matrix(1, 0, 0, 1, 3.552713678800501e-15, 1.7763568394002505e-15)"/>
  <ellipse style="fill: rgb(216, 216, 216); fill-opacity: 0; paint-order: stroke; stroke: rgb(91, 186, 33);" cx="57.643" cy="10.084" rx="5.797" ry="5.797" transform="matrix(1, 0, 0, 1, 3.552713678800501e-15, 1.7763568394002505e-15)"/>
  <ellipse style="fill: rgb(216, 216, 216); fill-opacity: 0; paint-order: stroke; stroke: rgb(91, 186, 33);" cx="67.584" cy="6.138" rx="5.429" ry="5.429" transform="matrix(1, 0, 0, 1, 3.552713678800501e-15, 1.7763568394002505e-15)"/>
  <ellipse style="fill: rgb(216, 216, 216); fill-opacity: 0; paint-order: stroke; stroke: rgb(91, 186, 33);" cx="75.21" cy="6.296" rx="5.797" ry="5.797" transform="matrix(1, 0, 0, 1, 3.552713678800501e-15, 1.7763568394002505e-15)"/>
  <ellipse style="fill: rgb(216, 216, 216); fill-opacity: 0; paint-order: stroke; stroke: rgb(91, 186, 33);" cx="78.892" cy="7.138" rx="5.797" ry="5.797" transform="matrix(1, 0, 0, 1, 3.552713678800501e-15, 1.7763568394002505e-15)"/>
  <ellipse style="fill: rgb(216, 216, 216); fill-opacity: 0; paint-order: stroke; stroke: rgb(91, 186, 33);" cx="87.15" cy="10.872" rx="6.165" ry="6.165" transform="matrix(1, 0, 0, 1, 3.552713678800501e-15, 1.7763568394002505e-15)"/>
  <ellipse style="fill: rgb(216, 216, 216); fill-opacity: 0; paint-order: stroke; stroke: rgb(91, 186, 33);" cx="89.832" cy="13.554" rx="6.428" ry="6.428" transform="matrix(1, 0, 0, 1, 3.552713678800501e-15, 1.7763568394002505e-15)"/>
  <ellipse style="fill: rgb(216, 216, 216); fill-opacity: 0; paint-order: stroke; stroke: rgb(91, 186, 33);" cx="93.514" cy="21.338" rx="6.533" ry="6.533" transform="matrix(1, 0, 0, 1, 3.552713678800501e-15, 1.7763568394002505e-15)"/>
  <ellipse style="fill: rgb(216, 216, 216); fill-opacity: 0; paint-order: stroke; stroke: rgb(91, 186, 33);" cx="94.198" cy="33.02" rx="6.691" ry="6.691" transform="matrix(1, 0, 0, 1, 3.552713678800501e-15, 1.7763568394002505e-15)"/>
  <ellipse style="fill: rgb(216, 216, 216); fill-opacity: 0; paint-order: stroke; stroke: rgb(91, 186, 33);" cx="91.376" cy="41.138" rx="6.691" ry="6.691" transform="matrix(1, 0, 0, 1, 3.552713678800501e-15, 1.7763568394002505e-15)"/>
  <ellipse style="fill: rgb(216, 216, 216); fill-opacity: 0; paint-order: stroke; stroke: rgb(91, 186, 33);" cx="84.569" cy="47.666" rx="6.043" ry="6.043" transform="matrix(1, 0, 0, 1, 3.552713678800501e-15, 1.7763568394002505e-15)"/>
  <ellipse style="fill: rgb(216, 216, 216); fill-opacity: 0; paint-order: stroke; stroke: rgb(91, 186, 33);" cx="76.384" cy="49.935" rx="5.719" ry="5.719" transform="matrix(1, 0, 0, 1, 3.552713678800501e-15, 1.7763568394002505e-15)"/>
  <ellipse style="fill: rgb(216, 216, 216); fill-opacity: 0; paint-order: stroke; stroke: rgb(91, 186, 33);" cx="69.415" cy="49.853" rx="5.719" ry="5.719" transform="matrix(1, 0, 0, 1, 3.552713678800501e-15, 1.7763568394002505e-15)"/>
  <path d="M 33.165 31.051 L 34.17 33.284 L 32.159 33.284 L 33.165 31.051 Z" style="fill: rgb(216, 216, 216); stroke: rgb(0, 0, 0);" transform="matrix(1, 0, 0, 1, 3.552713678800501e-15, 1.7763568394002505e-15)"/>
</svg>