<?xml version="1.0" encoding="utf-8"?>
<svg viewBox="0 0 59.702 56.601" width="59.702px" height="56.601px" xmlns="http://www.w3.org/2000/svg">
  <ellipse style="fill: rgb(216, 216, 216); fill-opacity: 0; paint-order: stroke; stroke: rgb(33, 61, 186);" cx="10.682" cy="17.773" rx="5.717" ry="5.717" transform="matrix(1, 0, 0, 1, -1.7763568394002505e-15, 8.881784197001252e-16)"/>
  <ellipse style="fill: rgb(216, 216, 216); fill-opacity: 0; paint-order: stroke; stroke: rgb(33, 61, 186);" cx="11.503" cy="11.807" rx="5.717" ry="5.717" transform="matrix(1, 0, 0, 1, -1.7763568394002505e-15, 8.881784197001252e-16)"/>
  <ellipse style="fill: rgb(216, 216, 216); fill-opacity: 0; paint-order: stroke; stroke: rgb(33, 61, 186);" cx="14.933" cy="8.451" rx="5.344" ry="5.344" transform="matrix(1, 0, 0, 1, -1.7763568394002505e-15, 8.881784197001252e-16)"/>
  <ellipse style="fill: rgb(216, 216, 216); fill-opacity: 0; paint-order: stroke; stroke: rgb(33, 61, 186);" cx="21.57" cy="6.215" rx="5.12" ry="5.12" transform="matrix(1, 0, 0, 1, -1.7763568394002505e-15, 8.881784197001252e-16)"/>
  <ellipse style="fill: rgb(216, 216, 216); fill-opacity: 0; paint-order: stroke; stroke: rgb(33, 61, 186);" cx="25.225" cy="5.692" rx="5.12" ry="5.12" transform="matrix(1, 0, 0, 1, -1.7763568394002505e-15, 8.881784197001252e-16)"/>
  <ellipse style="fill: rgb(216, 216, 216); fill-opacity: 0; paint-order: stroke; stroke: rgb(33, 61, 186);" cx="34.62" cy="5.618" rx="5.12" ry="5.12" transform="matrix(1, 0, 0, 1, -1.7763568394002505e-15, 8.881784197001252e-16)"/>
  <ellipse style="fill: rgb(216, 216, 216); fill-opacity: 0; paint-order: stroke; stroke: rgb(33, 61, 186);" cx="40.736" cy="6.439" rx="5.12" ry="5.12" transform="matrix(1, 0, 0, 1, -1.7763568394002505e-15, 8.881784197001252e-16)"/>
  <ellipse style="fill: rgb(216, 216, 216); fill-opacity: 0; paint-order: stroke; stroke: rgb(33, 61, 186);" cx="46.105" cy="8.601" rx="5.12" ry="5.12" transform="matrix(1, 0, 0, 1, -1.7763568394002505e-15, 8.881784197001252e-16)"/>
  <ellipse style="fill: rgb(216, 216, 216); fill-opacity: 0; paint-order: stroke; stroke: rgb(33, 61, 186);" cx="48.193" cy="10.167" rx="5.12" ry="5.12" transform="matrix(1, 0, 0, 1, -1.7763568394002505e-15, 8.881784197001252e-16)"/>
  <ellipse style="fill: rgb(216, 216, 216); fill-opacity: 0; paint-order: stroke; stroke: rgb(33, 61, 186);" cx="49.461" cy="16.282" rx="5.12" ry="5.12" transform="matrix(1, 0, 0, 1, -1.7763568394002505e-15, 8.881784197001252e-16)"/>
  <ellipse style="fill: rgb(216, 216, 216); fill-opacity: 0; paint-order: stroke; stroke: rgb(33, 61, 186);" cx="48.342" cy="19.265" rx="5.12" ry="5.12" transform="matrix(1, 0, 0, 1, -1.7763568394002505e-15, 8.881784197001252e-16)"/>
  <ellipse style="fill: rgb(216, 216, 216); fill-opacity: 0; paint-order: stroke; stroke: rgb(33, 61, 186);" cx="42.002" cy="23.44" rx="3.442" ry="3.442" transform="matrix(1, 0, 0, 1, -1.7763568394002505e-15, 8.881784197001252e-16)"/>
  <ellipse style="fill: rgb(216, 216, 216); fill-opacity: 0; paint-order: stroke; stroke: rgb(33, 61, 186);" cx="34.546" cy="26.946" rx="4.523" ry="4.523" transform="matrix(1, 0, 0, 1, -1.7763568394002505e-15, 8.881784197001252e-16)"/>
  <ellipse style="fill: rgb(216, 216, 216); fill-opacity: 0; paint-order: stroke; stroke: rgb(33, 61, 186);" cx="36.187" cy="27.692" rx="4.225" ry="4.225" transform="matrix(1, 0, 0, 1, -1.7763568394002505e-15, 8.881784197001252e-16)"/>
  <ellipse style="fill: rgb(216, 216, 216); fill-opacity: 0; paint-order: stroke; stroke: rgb(33, 61, 186);" cx="42.488" cy="30.041" rx="3.442" ry="3.442" transform="matrix(1, 0, 0, 1, -1.7763568394002505e-15, 8.881784197001252e-16)"/>
  <ellipse style="fill: rgb(216, 216, 216); fill-opacity: 0; paint-order: stroke; stroke: rgb(33, 61, 186);" cx="47.372" cy="32.24" rx="3.442" ry="3.442" transform="matrix(1, 0, 0, 1, -1.7763568394002505e-15, 8.881784197001252e-16)"/>
  <ellipse style="fill: rgb(216, 216, 216); fill-opacity: 0; paint-order: stroke; stroke: rgb(33, 61, 186);" cx="52.294" cy="36.342" rx="4.858" ry="4.858" transform="matrix(1, 0, 0, 1, -1.7763568394002505e-15, 8.881784197001252e-16)"/>
  <ellipse style="fill: rgb(216, 216, 216); fill-opacity: 0; paint-order: stroke; stroke: rgb(33, 61, 186);" cx="52.63" cy="40.912" rx="6.275" ry="6.275" transform="matrix(1, 0, 0, 1, -1.7763568394002505e-15, 8.881784197001252e-16)"/>
  <ellipse style="fill: rgb(216, 216, 216); fill-opacity: 0; paint-order: stroke; stroke: rgb(33, 61, 186);" cx="47.82" cy="46.932" rx="5.716" ry="5.716" transform="matrix(1, 0, 0, 1, -1.7763568394002505e-15, 8.881784197001252e-16)"/>
  <ellipse style="fill: rgb(216, 216, 216); fill-opacity: 0; paint-order: stroke; stroke: rgb(33, 61, 186);" cx="44.092" cy="48.796" rx="5.716" ry="5.716" transform="matrix(1, 0, 0, 1, -1.7763568394002505e-15, 8.881784197001252e-16)"/>
  <ellipse style="fill: rgb(216, 216, 216); fill-opacity: 0; paint-order: stroke; stroke: rgb(33, 61, 186);" cx="35.068" cy="50.545" rx="4.896" ry="4.896" transform="matrix(1, 0, 0, 1, -1.7763568394002505e-15, 8.881784197001252e-16)"/>
  <ellipse style="fill: rgb(216, 216, 216); fill-opacity: 0; paint-order: stroke; stroke: rgb(33, 61, 186);" cx="29.848" cy="50.901" rx="4.896" ry="4.896" transform="matrix(1, 0, 0, 1, -1.7763568394002505e-15, 8.881784197001252e-16)"/>
  <ellipse style="fill: rgb(216, 216, 216); fill-opacity: 0; paint-order: stroke; stroke: rgb(33, 61, 186);" cx="22.614" cy="49.798" rx="4.896" ry="4.896" transform="matrix(1, 0, 0, 1, -1.7763568394002505e-15, 8.881784197001252e-16)"/>
  <ellipse style="fill: rgb(216, 216, 216); fill-opacity: 0; paint-order: stroke; stroke: rgb(33, 61, 186);" cx="16.425" cy="47.784" rx="5.418" ry="5.418" transform="matrix(1, 0, 0, 1, -1.7763568394002505e-15, 8.881784197001252e-16)"/>
  <ellipse style="fill: rgb(216, 216, 216); fill-opacity: 0; paint-order: stroke; stroke: rgb(33, 61, 186);" cx="11.13" cy="44.503" rx="5.418" ry="5.418" transform="matrix(1, 0, 0, 1, -1.7763568394002505e-15, 8.881784197001252e-16)"/>
  <ellipse style="fill: rgb(216, 216, 216); fill-opacity: 0; paint-order: stroke; stroke: rgb(33, 61, 186);" cx="7.923" cy="41.463" rx="5.418" ry="5.418" transform="matrix(1, 0, 0, 1, -1.7763568394002505e-15, 8.881784197001252e-16)"/>
  <path d="M 22.839 30.428 L 23.844 32.661 L 21.833 32.661 L 22.839 30.428 Z" style="fill: rgb(216, 216, 216); stroke: rgb(0, 0, 0);" transform="matrix(1, 0, 0, 1, -1.7763568394002505e-15, 8.881784197001252e-16)"/>
</svg>