<?xml version="1.0" encoding="utf-8"?>
<svg viewBox="0 0 59.702 56.601" width="59.702px" height="56.601px" xmlns="http://www.w3.org/2000/svg">
  <ellipse style="fill: rgb(216, 216, 216); fill-opacity: 0; paint-order: stroke; stroke: rgb(33, 61, 186);" cx="10.682" cy="17.773" rx="5.717" ry="5.717" transform="matrix(1, 0, 0, 1, -8.881784197001252e-16, -4.440892098500626e-16)"/>
  <ellipse style="fill: rgb(216, 216, 216); fill-opacity: 0; paint-order: stroke; stroke: rgb(33, 61, 186);" cx="10.235" cy="15.536" rx="5.717" ry="5.717" transform="matrix(1, 0, 0, 1, -8.881784197001252e-16, -4.440892098500626e-16)"/>
  <ellipse style="fill: rgb(216, 216, 216); fill-opacity: 0; paint-order: stroke; stroke: rgb(33, 61, 186);" cx="11.503" cy="11.807" rx="5.717" ry="5.717" transform="matrix(1, 0, 0, 1, -8.881784197001252e-16, -4.440892098500626e-16)"/>
  <ellipse style="fill: rgb(216, 216, 216); fill-opacity: 0; paint-order: stroke; stroke: rgb(33, 61, 186);" cx="14.933" cy="8.451" rx="5.344" ry="5.344" transform="matrix(1, 0, 0, 1, -8.881784197001252e-16, -4.440892098500626e-16)"/>
  <ellipse style="fill: rgb(216, 216, 216); fill-opacity: 0; paint-order: stroke; stroke: rgb(33, 61, 186);" cx="18.29" cy="6.959" rx="5.12" ry="5.12" transform="matrix(1, 0, 0, 1, -8.881784197001252e-16, -4.440892098500626e-16)"/>
  <ellipse style="fill: rgb(216, 216, 216); fill-opacity: 0; paint-order: stroke; stroke: rgb(33, 61, 186);" cx="21.57" cy="6.215" rx="5.12" ry="5.12" transform="matrix(1, 0, 0, 1, -8.881784197001252e-16, -4.440892098500626e-16)"/>
  <ellipse style="fill: rgb(216, 216, 216); fill-opacity: 0; paint-order: stroke; stroke: rgb(33, 61, 186);" cx="25.225" cy="5.692" rx="5.12" ry="5.12" transform="matrix(1, 0, 0, 1, -8.881784197001252e-16, -4.440892098500626e-16)"/>
  <ellipse style="fill: rgb(216, 216, 216); fill-opacity: 0; paint-order: stroke; stroke: rgb(33, 61, 186);" cx="28.879" cy="5.469" rx="5.12" ry="5.12" transform="matrix(1, 0, 0, 1, -8.881784197001252e-16, -4.440892098500626e-16)"/>
  <ellipse style="fill: rgb(216, 216, 216); fill-opacity: 0; paint-order: stroke; stroke: rgb(33, 61, 186);" cx="31.414" cy="5.543" rx="5.12" ry="5.12" transform="matrix(1, 0, 0, 1, -8.881784197001252e-16, -4.440892098500626e-16)"/>
  <ellipse style="fill: rgb(216, 216, 216); fill-opacity: 0; paint-order: stroke; stroke: rgb(33, 61, 186);" cx="34.62" cy="5.618" rx="5.12" ry="5.12" transform="matrix(1, 0, 0, 1, -8.881784197001252e-16, -4.440892098500626e-16)"/>
  <ellipse style="fill: rgb(216, 216, 216); fill-opacity: 0; paint-order: stroke; stroke: rgb(33, 61, 186);" cx="37.902" cy="6.065" rx="5.12" ry="5.12" transform="matrix(1, 0, 0, 1, -8.881784197001252e-16, -4.440892098500626e-16)"/>
  <ellipse style="fill: rgb(216, 216, 216); fill-opacity: 0; paint-order: stroke; stroke: rgb(33, 61, 186);" cx="40.736" cy="6.439" rx="5.12" ry="5.12" transform="matrix(1, 0, 0, 1, -8.881784197001252e-16, -4.440892098500626e-16)"/>
  <ellipse style="fill: rgb(216, 216, 216); fill-opacity: 0; paint-order: stroke; stroke: rgb(33, 61, 186);" cx="43.57" cy="7.407" rx="5.12" ry="5.12" transform="matrix(1, 0, 0, 1, -8.881784197001252e-16, -4.440892098500626e-16)"/>
  <ellipse style="fill: rgb(216, 216, 216); fill-opacity: 0; paint-order: stroke; stroke: rgb(33, 61, 186);" cx="46.105" cy="8.601" rx="5.12" ry="5.12" transform="matrix(1, 0, 0, 1, -8.881784197001252e-16, -4.440892098500626e-16)"/>
  <ellipse style="fill: rgb(216, 216, 216); fill-opacity: 0; paint-order: stroke; stroke: rgb(33, 61, 186);" cx="48.193" cy="10.167" rx="5.12" ry="5.12" transform="matrix(1, 0, 0, 1, -8.881784197001252e-16, -4.440892098500626e-16)"/>
  <ellipse style="fill: rgb(216, 216, 216); fill-opacity: 0; paint-order: stroke; stroke: rgb(33, 61, 186);" cx="49.387" cy="13.001" rx="5.12" ry="5.12" transform="matrix(1, 0, 0, 1, -8.881784197001252e-16, -4.440892098500626e-16)"/>
  <ellipse style="fill: rgb(216, 216, 216); fill-opacity: 0; paint-order: stroke; stroke: rgb(33, 61, 186);" cx="49.461" cy="16.282" rx="5.12" ry="5.12" transform="matrix(1, 0, 0, 1, -8.881784197001252e-16, -4.440892098500626e-16)"/>
  <ellipse style="fill: rgb(216, 216, 216); fill-opacity: 0; paint-order: stroke; stroke: rgb(33, 61, 186);" cx="48.342" cy="19.265" rx="5.12" ry="5.12" transform="matrix(1, 0, 0, 1, -8.881784197001252e-16, -4.440892098500626e-16)"/>
  <ellipse style="fill: rgb(216, 216, 216); fill-opacity: 0; paint-order: stroke; stroke: rgb(33, 61, 186);" cx="45.248" cy="21.912" rx="3.964" ry="3.964" transform="matrix(1, 0, 0, 1, -8.881784197001252e-16, -4.440892098500626e-16)"/>
  <ellipse style="fill: rgb(216, 216, 216); fill-opacity: 0; paint-order: stroke; stroke: rgb(33, 61, 186);" cx="42.002" cy="23.44" rx="3.442" ry="3.442" transform="matrix(1, 0, 0, 1, -8.881784197001252e-16, -4.440892098500626e-16)"/>
  <ellipse style="fill: rgb(216, 216, 216); fill-opacity: 0; paint-order: stroke; stroke: rgb(33, 61, 186);" cx="39.692" cy="24.932" rx="3.666" ry="3.666" transform="matrix(1, 0, 0, 1, -8.881784197001252e-16, -4.440892098500626e-16)"/>
  <ellipse style="fill: rgb(216, 216, 216); fill-opacity: 0; paint-order: stroke; stroke: rgb(33, 61, 186);" cx="36.821" cy="26.089" rx="4.076" ry="4.076" transform="matrix(1, 0, 0, 1, -8.881784197001252e-16, -4.440892098500626e-16)"/>
  <ellipse style="fill: rgb(216, 216, 216); fill-opacity: 0; paint-order: stroke; stroke: rgb(33, 61, 186);" cx="34.546" cy="26.946" rx="4.523" ry="4.523" transform="matrix(1, 0, 0, 1, -8.881784197001252e-16, -4.440892098500626e-16)"/>
  <ellipse style="fill: rgb(216, 216, 216); fill-opacity: 0; paint-order: stroke; stroke: rgb(33, 61, 186);" cx="36.187" cy="27.692" rx="4.225" ry="4.225" transform="matrix(1, 0, 0, 1, -8.881784197001252e-16, -4.440892098500626e-16)"/>
  <ellipse style="fill: rgb(216, 216, 216); fill-opacity: 0; paint-order: stroke; stroke: rgb(33, 61, 186);" cx="39.02" cy="28.512" rx="3.852" ry="3.852" transform="matrix(1, 0, 0, 1, -8.881784197001252e-16, -4.440892098500626e-16)"/>
  <ellipse style="fill: rgb(216, 216, 216); fill-opacity: 0; paint-order: stroke; stroke: rgb(33, 61, 186);" cx="42.488" cy="30.041" rx="3.442" ry="3.442" transform="matrix(1, 0, 0, 1, -8.881784197001252e-16, -4.440892098500626e-16)"/>
  <ellipse style="fill: rgb(216, 216, 216); fill-opacity: 0; paint-order: stroke; stroke: rgb(33, 61, 186);" cx="45.136" cy="31.123" rx="3.442" ry="3.442" transform="matrix(1, 0, 0, 1, -8.881784197001252e-16, -4.440892098500626e-16)"/>
  <ellipse style="fill: rgb(216, 216, 216); fill-opacity: 0; paint-order: stroke; stroke: rgb(33, 61, 186);" cx="47.372" cy="32.24" rx="3.442" ry="3.442" transform="matrix(1, 0, 0, 1, -8.881784197001252e-16, -4.440892098500626e-16)"/>
  <ellipse style="fill: rgb(216, 216, 216); fill-opacity: 0; paint-order: stroke; stroke: rgb(33, 61, 186);" cx="50.058" cy="34.478" rx="3.889" ry="3.889" transform="matrix(1, 0, 0, 1, -8.881784197001252e-16, -4.440892098500626e-16)"/>
  <ellipse style="fill: rgb(216, 216, 216); fill-opacity: 0; paint-order: stroke; stroke: rgb(33, 61, 186);" cx="52.294" cy="36.342" rx="4.858" ry="4.858" transform="matrix(1, 0, 0, 1, -8.881784197001252e-16, -4.440892098500626e-16)"/>
  <ellipse style="fill: rgb(216, 216, 216); fill-opacity: 0; paint-order: stroke; stroke: rgb(33, 61, 186);" cx="52.63" cy="40.912" rx="6.275" ry="6.275" transform="matrix(1, 0, 0, 1, -8.881784197001252e-16, -4.440892098500626e-16)"/>
  <ellipse style="fill: rgb(216, 216, 216); fill-opacity: 0; paint-order: stroke; stroke: rgb(33, 61, 186);" cx="51.399" cy="44.246" rx="6.089" ry="6.089" transform="matrix(1, 0, 0, 1, -8.881784197001252e-16, -4.440892098500626e-16)"/>
  <ellipse style="fill: rgb(216, 216, 216); fill-opacity: 0; paint-order: stroke; stroke: rgb(33, 61, 186);" cx="47.82" cy="46.932" rx="5.716" ry="5.716" transform="matrix(1, 0, 0, 1, -8.881784197001252e-16, -4.440892098500626e-16)"/>
  <ellipse style="fill: rgb(216, 216, 216); fill-opacity: 0; paint-order: stroke; stroke: rgb(33, 61, 186);" cx="44.092" cy="48.796" rx="5.716" ry="5.716" transform="matrix(1, 0, 0, 1, -8.881784197001252e-16, -4.440892098500626e-16)"/>
  <ellipse style="fill: rgb(216, 216, 216); fill-opacity: 0; paint-order: stroke; stroke: rgb(33, 61, 186);" cx="38.722" cy="50.262" rx="5.343" ry="5.343" transform="matrix(1, 0, 0, 1, -8.881784197001252e-16, -4.440892098500626e-16)"/>
  <ellipse style="fill: rgb(216, 216, 216); fill-opacity: 0; paint-order: stroke; stroke: rgb(33, 61, 186);" cx="35.068" cy="50.545" rx="4.896" ry="4.896" transform="matrix(1, 0, 0, 1, -8.881784197001252e-16, -4.440892098500626e-16)"/>
  <ellipse style="fill: rgb(216, 216, 216); fill-opacity: 0; paint-order: stroke; stroke: rgb(33, 61, 186);" cx="29.848" cy="50.901" rx="4.896" ry="4.896" transform="matrix(1, 0, 0, 1, -8.881784197001252e-16, -4.440892098500626e-16)"/>
  <ellipse style="fill: rgb(216, 216, 216); fill-opacity: 0; paint-order: stroke; stroke: rgb(33, 61, 186);" cx="26.342" cy="50.395" rx="4.896" ry="4.896" transform="matrix(1, 0, 0, 1, -8.881784197001252e-16, -4.440892098500626e-16)"/>
  <ellipse style="fill: rgb(216, 216, 216); fill-opacity: 0; paint-order: stroke; stroke: rgb(33, 61, 186);" cx="22.614" cy="49.798" rx="4.896" ry="4.896" transform="matrix(1, 0, 0, 1, -8.881784197001252e-16, -4.440892098500626e-16)"/>
  <ellipse style="fill: rgb(216, 216, 216); fill-opacity: 0; paint-order: stroke; stroke: rgb(33, 61, 186);" cx="19.259" cy="48.978" rx="5.418" ry="5.418" transform="matrix(1, 0, 0, 1, -8.881784197001252e-16, -4.440892098500626e-16)"/>
  <ellipse style="fill: rgb(216, 216, 216); fill-opacity: 0; paint-order: stroke; stroke: rgb(33, 61, 186);" cx="16.425" cy="47.784" rx="5.418" ry="5.418" transform="matrix(1, 0, 0, 1, -8.881784197001252e-16, -4.440892098500626e-16)"/>
  <ellipse style="fill: rgb(216, 216, 216); fill-opacity: 0; paint-order: stroke; stroke: rgb(33, 61, 186);" cx="13.591" cy="46.07" rx="5.418" ry="5.418" transform="matrix(1, 0, 0, 1, -8.881784197001252e-16, -4.440892098500626e-16)"/>
  <ellipse style="fill: rgb(216, 216, 216); fill-opacity: 0; paint-order: stroke; stroke: rgb(33, 61, 186);" cx="11.13" cy="44.503" rx="5.418" ry="5.418" transform="matrix(1, 0, 0, 1, -8.881784197001252e-16, -4.440892098500626e-16)"/>
  <ellipse style="fill: rgb(216, 216, 216); fill-opacity: 0; paint-order: stroke; stroke: rgb(33, 61, 186);" cx="9.489" cy="42.714" rx="5.418" ry="5.418" transform="matrix(1, 0, 0, 1, -8.881784197001252e-16, -4.440892098500626e-16)"/>
  <ellipse style="fill: rgb(216, 216, 216); fill-opacity: 0; paint-order: stroke; stroke: rgb(33, 61, 186);" cx="7.923" cy="41.463" rx="5.418" ry="5.418" transform="matrix(1, 0, 0, 1, -8.881784197001252e-16, -4.440892098500626e-16)"/>
  <path d="M 22.839 30.428 L 23.844 32.661 L 21.833 32.661 L 22.839 30.428 Z" style="fill: rgb(216, 216, 216); stroke: rgb(0, 0, 0);" transform="matrix(1, 0, 0, 1, -8.881784197001252e-16, -4.440892098500626e-16)"/>
</svg>