<?xml version="1.0" encoding="utf-8"?>
<svg viewBox="0 0 61.1 102.301" width="61.1px" height="102.301px" xmlns="http://www.w3.org/2000/svg">
  <ellipse style="fill: rgb(216, 216, 216); fill-opacity: 0; paint-order: stroke; stroke: rgb(33, 61, 186);" cx="9.881" cy="11.341" rx="5.814" ry="5.814" transform="matrix(0.9999999999999999, 0, 0, 0.9999999999999999, 3.552713678800501e-15, -7.105427357601002e-15)"/>
  <ellipse style="fill: rgb(216, 216, 216); fill-opacity: 0; paint-order: stroke; stroke: rgb(33, 61, 186);" cx="15.478" cy="7.481" rx="5.814" ry="5.814" transform="matrix(0.9999999999999999, 0, 0, 0.9999999999999999, 3.552713678800501e-15, -7.105427357601002e-15)"/>
  <ellipse style="fill: rgb(216, 216, 216); fill-opacity: 0; paint-order: stroke; stroke: rgb(33, 61, 186);" cx="22.041" cy="6.131" rx="5.814" ry="5.814" transform="matrix(0.9999999999999999, 0, 0, 0.9999999999999999, 3.552713678800501e-15, -7.105427357601002e-15)"/>
  <ellipse style="fill: rgb(216, 216, 216); fill-opacity: 0; paint-order: stroke; stroke: rgb(33, 61, 186);" cx="28.603" cy="6.612" rx="5.814" ry="5.814" transform="matrix(0.9999999999999999, 0, 0, 0.9999999999999999, 3.552713678800501e-15, -7.105427357601002e-15)"/>
  <ellipse style="fill: rgb(216, 216, 216); fill-opacity: 0; paint-order: stroke; stroke: rgb(33, 61, 186);" cx="35.648" cy="8.929" rx="5.814" ry="5.814" transform="matrix(0.9999999999999999, 0, 0, 0.9999999999999999, 3.552713678800501e-15, -7.105427357601002e-15)"/>
  <ellipse style="fill: rgb(216, 216, 216); fill-opacity: 0; paint-order: stroke; stroke: rgb(33, 61, 186);" cx="43.9" cy="17.566" rx="6.441" ry="6.441" transform="matrix(0.9999999999999999, 0, 0, 0.9999999999999999, 3.552713678800501e-15, -7.105427357601002e-15)"/>
  <ellipse style="fill: rgb(216, 216, 216); fill-opacity: 0; paint-order: stroke; stroke: rgb(33, 61, 186);" cx="45.668" cy="26.037" rx="6.731" ry="6.731" transform="matrix(0.9999999999999999, 0, 0, 0.9999999999999999, 1.7763568394002505e-15, 0)"/>
  <ellipse style="fill: rgb(216, 216, 216); fill-opacity: 0; paint-order: stroke; stroke: rgb(33, 61, 186);" cx="46.071" cy="31.63" rx="6.731" ry="6.731" transform="matrix(0.9999999999999999, 0, 0, 0.9999999999999999, 3.552713678800501e-15, -7.105427357601002e-15)"/>
  <ellipse style="fill: rgb(216, 216, 216); fill-opacity: 0; paint-order: stroke; stroke: rgb(33, 61, 186);" cx="42.694" cy="41.292" rx="6.731" ry="6.731" transform="matrix(0.9999999999999999, 0, 0, 0.9999999999999999, 3.552713678800501e-15, -7.105427357601002e-15)"/>
  <ellipse style="fill: rgb(216, 216, 216); fill-opacity: 0; paint-order: stroke; stroke: rgb(33, 61, 186);" cx="37.532" cy="47.003" rx="6.104" ry="6.104" transform="matrix(0.9999999999999999, 0, 0, 0.9999999999999999, 3.552713678800501e-15, -7.105427357601002e-15)"/>
  <ellipse style="fill: rgb(216, 216, 216); fill-opacity: 0; paint-order: stroke; stroke: rgb(33, 61, 186);" cx="34.009" cy="49.152" rx="5.766" ry="5.766" transform="matrix(0.9999999999999999, 0, 0, 0.9999999999999999, 3.552713678800501e-15, -7.105427357601002e-15)"/>
  <ellipse style="fill: rgb(216, 216, 216); fill-opacity: 0; paint-order: stroke; stroke: rgb(33, 61, 186);" cx="26.799" cy="50.4" rx="5.515" ry="5.515" transform="matrix(0.9999999999999999, 0, 0, 0.9999999999999999, 3.552713678800501e-15, -7.105427357601002e-15)"/>
  <ellipse style="fill: rgb(216, 216, 216); fill-opacity: 0; paint-order: stroke; stroke: rgb(33, 61, 186);" cx="21.837" cy="50.333" rx="5.25" ry="5.25" transform="matrix(0.9999999999999999, 0, 0, 0.9999999999999999, 3.552713678800501e-15, -7.105427357601002e-15)"/>
  <ellipse style="fill: rgb(216, 216, 216); fill-opacity: 0; paint-order: stroke; stroke: rgb(33, 61, 186);" cx="15.021" cy="48.166" rx="5.25" ry="5.25" transform="matrix(0.9999999999999999, 0, 0, 0.9999999999999999, 3.552713678800501e-15, -7.105427357601002e-15)"/>
  <ellipse style="fill: rgb(216, 216, 216); fill-opacity: 0; paint-order: stroke; stroke: rgb(33, 61, 186);" cx="9.881" cy="46.013" rx="5.25" ry="5.25" transform="matrix(0.9999999999999999, 0, 0, 0.9999999999999999, 3.552713678800501e-15, -7.105427357601002e-15)"/>
  <ellipse style="fill: rgb(216, 216, 216); fill-opacity: 0; paint-order: stroke; stroke: rgb(101, 186, 33);" cx="7.565" cy="44.227" rx="5.25" ry="5.25" transform="matrix(0.9999999999999999, 0, 0, 0.9999999999999999, 3.552713678800501e-15, -7.105427357601002e-15)"/>
  <ellipse style="fill: rgb(216, 216, 216); fill-opacity: 0; paint-order: stroke; stroke: rgb(101, 186, 33);" cx="7.491" cy="50.004" rx="5.25" ry="5.25" transform="matrix(0.9999999999999999, 0, 0, 0.9999999999999999, 3.552713678800501e-15, -7.105427357601002e-15)"/>
  <ellipse style="fill: rgb(216, 216, 216); fill-opacity: 0; paint-order: stroke; stroke: rgb(101, 186, 33);" cx="7.343" cy="56.298" rx="5.25" ry="5.25" transform="matrix(0.9999999999999999, 0, 0, 0.9999999999999999, 3.552713678800501e-15, -7.105427357601002e-15)"/>
  <ellipse style="fill: rgb(216, 216, 216); fill-opacity: 0; paint-order: stroke; stroke: rgb(101, 186, 33);" cx="7.269" cy="61.186" rx="5.25" ry="5.25" transform="matrix(0.9999999999999999, 0, 0, 0.9999999999999999, 3.552713678800501e-15, -7.105427357601002e-15)"/>
  <ellipse style="fill: rgb(216, 216, 216); fill-opacity: 0; paint-order: stroke; stroke: rgb(101, 186, 33);" cx="7.047" cy="65.999" rx="5.25" ry="5.25" transform="matrix(0.9999999999999999, 0, 0, 0.9999999999999999, 3.552713678800501e-15, -7.105427357601002e-15)"/>
  <ellipse style="fill: rgb(216, 216, 216); fill-opacity: 0; paint-order: stroke; stroke: rgb(101, 186, 33);" cx="15.109" cy="67.851" rx="5.593" ry="5.593" transform="matrix(0.9999999999999999, 0, 0, 0.9999999999999999, 3.552713678800501e-15, -7.105427357601002e-15)"/>
  <ellipse style="fill: rgb(216, 216, 216); fill-opacity: 0; paint-order: stroke; stroke: rgb(101, 186, 33);" cx="23.99" cy="68.932" rx="5.672" ry="5.672" transform="matrix(0.9999999999999999, 0, 0, 0.9999999999999999, 3.552713678800501e-15, -7.105427357601002e-15)"/>
  <ellipse style="fill: rgb(216, 216, 216); fill-opacity: 0; paint-order: stroke; stroke: rgb(101, 186, 33);" cx="32.319" cy="68.809" rx="5.672" ry="5.672" transform="matrix(0.9999999999999999, 0, 0, 0.9999999999999999, 3.552713678800501e-15, -7.105427357601002e-15)"/>
  <ellipse style="fill: rgb(216, 216, 216); fill-opacity: 0; paint-order: stroke; stroke: rgb(101, 186, 33);" cx="40.911" cy="67.492" rx="5.672" ry="5.672" transform="matrix(0.9999999999999999, 0, 0, 0.9999999999999999, 3.552713678800501e-15, -7.105427357601002e-15)"/>
  <ellipse style="fill: rgb(216, 216, 216); fill-opacity: 0; paint-order: stroke; stroke: rgb(101, 186, 33);" cx="43.925" cy="66.116" rx="5.672" ry="5.672" transform="matrix(0.9999999999999999, 0, 0, 0.9999999999999999, 3.552713678800501e-15, -7.105427357601002e-15)"/>
  <ellipse style="fill: rgb(216, 216, 216); fill-opacity: 0; paint-order: stroke; stroke: rgb(101, 186, 33);" cx="44.162" cy="73.559" rx="5.672" ry="5.672" transform="matrix(0.9999999999999999, 0, 0, 0.9999999999999999, 3.552713678800501e-15, -7.105427357601002e-15)"/>
  <ellipse style="fill: rgb(216, 216, 216); fill-opacity: 0; paint-order: stroke; stroke: rgb(101, 186, 33);" cx="43.922" cy="79.547" rx="5.672" ry="5.672" transform="matrix(0.9999999999999999, 0, 0, 0.9999999999999999, 3.552713678800501e-15, -7.105427357601002e-15)"/>
  <ellipse style="fill: rgb(216, 216, 216); fill-opacity: 0; paint-order: stroke; stroke: rgb(101, 186, 33);" cx="43.834" cy="87.734" rx="5.672" ry="5.672" transform="matrix(0.9999999999999999, 0, 0, 0.9999999999999999, 3.552713678800501e-15, -7.105427357601002e-15)"/>
  <ellipse style="fill: rgb(216, 216, 216); fill-opacity: 0; paint-order: stroke; stroke: rgb(101, 186, 33);" cx="44.322" cy="95.958" rx="5.672" ry="5.672" transform="matrix(0.9999999999999999, 0, 0, 0.9999999999999999, 3.552713678800501e-15, -7.105427357601002e-15)"/>
  <ellipse style="fill: rgb(216, 216, 216); fill-opacity: 0; paint-order: stroke; stroke: rgb(101, 186, 33);" cx="49.511" cy="96.197" rx="5.672" ry="5.672" transform="matrix(0.9999999999999999, 0, 0, 0.9999999999999999, 3.552713678800501e-15, -7.105427357601002e-15)"/>
  <ellipse style="fill: rgb(216, 216, 216); fill-opacity: 0; paint-order: stroke; stroke: rgb(101, 186, 33);" cx="54.939" cy="96.156" rx="5.672" ry="5.672" transform="matrix(0.9999999999999999, 0, 0, 0.9999999999999999, 3.552713678800501e-15, -7.105427357601002e-15)"/>
  <path d="M 57.814 69.692 L 58.819 71.925 L 56.808 71.925 L 57.814 69.692 Z" style="fill: rgb(216, 216, 216); stroke: rgb(0, 0, 0);" transform="matrix(0.9999999999999999, 0, 0, 0.9999999999999999, 3.552713678800501e-15, -7.105427357601002e-15)"/>
</svg>