<?xml version="1.0" encoding="utf-8"?>
<svg viewBox="0 0 62.001 56.701" width="62.001px" height="56.701px" xmlns="http://www.w3.org/2000/svg">
  <g id="svgGroup" stroke-linecap="round" fill-rule="nonzero" font-size="9pt" stroke="#000" stroke-width="0.25mm" fill="none" style="stroke:#000;stroke-width:0.25mm;fill:none" transform="matrix(1, 0, 0, 1, -7.105427357601002e-15, 0)">
    <path d="M 7.5 16.1 L 0 8.4 Q 2.8 4.2 6.8 2.1 Q 10.8 0 15.4 0 Q 20.393 0 23.707 1.807 A 11.129 11.129 0 0 1 26.1 3.551 A 11.873 11.873 0 0 1 29.762 11.584 A 16.055 16.055 0 0 1 29.8 12.701 A 15.34 15.34 0 0 1 29.258 16.852 A 12.888 12.888 0 0 1 27.85 20.101 A 21.793 21.793 0 0 1 25.21 23.558 A 29.311 29.311 0 0 1 22.4 26.201 A 34.047 34.047 0 0 0 20.81 27.559 Q 19.283 28.955 18.454 30.136 A 8.216 8.216 0 0 0 18.15 30.601 A 7.744 7.744 0 0 0 17.19 33.139 A 10.675 10.675 0 0 0 17 35.2 Q 17 39.1 20.65 41.9 Q 23.632 44.188 28.517 44.607 A 26.76 26.76 0 0 0 30.8 44.7 A 25.174 25.174 0 0 0 35.959 44.204 Q 39.144 43.537 41.576 41.973 A 14.093 14.093 0 0 0 43.7 40.301 A 14.59 14.59 0 0 0 47.994 32.062 A 20.997 20.997 0 0 0 48.3 28.4 Q 48.3 23.8 46.3 19.65 Q 44.519 15.954 40.358 12.853 A 29.976 29.976 0 0 0 39.3 12.1 L 46.7 0.1 A 29.899 29.899 0 0 1 57.429 10.225 A 35.008 35.008 0 0 1 57.7 10.65 A 26.177 26.177 0 0 1 60.857 18.237 Q 62 22.78 62 28.4 A 33.089 33.089 0 0 1 61.193 35.882 A 25.074 25.074 0 0 1 58 43.651 Q 54 50 47 53.35 A 33.695 33.695 0 0 1 37.423 56.224 A 44.386 44.386 0 0 1 30.8 56.701 Q 21.9 56.7 15.4 54.15 A 26.722 26.722 0 0 1 10.287 51.517 A 19.868 19.868 0 0 1 5.4 46.95 A 17.422 17.422 0 0 1 1.908 36.681 A 21.586 21.586 0 0 1 1.9 36.1 A 18.713 18.713 0 0 1 2.339 31.958 A 14.651 14.651 0 0 1 3.9 27.901 Q 5.9 24.4 9.3 21.5 Q 11.855 19.358 13.493 18.132 A 36.775 36.775 0 0 1 14.15 17.65 A 5.577 5.577 0 0 0 15.015 16.899 Q 15.484 16.39 15.704 15.832 A 2.784 2.784 0 0 0 15.9 14.801 A 1.756 1.756 0 0 0 15.733 14.008 Q 15.366 13.272 14.192 13.133 A 5.041 5.041 0 0 0 13.6 13.101 Q 12 13.1 10.4 14.05 Q 8.8 15 7.5 16.1 Z" vector-effect="non-scaling-stroke"/>
  </g>
  <ellipse style="fill: rgb(216, 216, 216); fill-opacity: 0; paint-order: stroke; stroke: rgb(33, 61, 186);" cx="8.309" cy="8.501" rx="5.25" ry="5.25" transform="matrix(1, 0, 0, 1, -7.105427357601002e-15, 0)"/>
  <ellipse style="fill: rgb(216, 216, 216); fill-opacity: 0; paint-order: stroke; stroke: rgb(33, 61, 186);" cx="10.032" cy="7.394" rx="5.25" ry="5.25" transform="matrix(1, 0, 0, 1, -7.105427357601002e-15, 0)"/>
  <ellipse style="fill: rgb(216, 216, 216); fill-opacity: 0; paint-order: stroke; stroke: rgb(33, 61, 186);" cx="13.155" cy="6.379" rx="5.25" ry="5.25" transform="matrix(1, 0, 0, 1, -7.105427357601002e-15, 0)"/>
  <ellipse style="fill: rgb(216, 216, 216); fill-opacity: 0; paint-order: stroke; stroke: rgb(33, 61, 186);" cx="17.09" cy="6.217" rx="5.25" ry="5.25" transform="matrix(1, 0, 0, 1, -7.105427357601002e-15, 0)"/>
  <ellipse style="fill: rgb(216, 216, 216); fill-opacity: 0; paint-order: stroke; stroke: rgb(33, 61, 186);" cx="20.213" cy="7.353" rx="5.25" ry="5.25" transform="matrix(1, 0, 0, 1, -7.105427357601002e-15, 0)"/>
  <ellipse style="fill: rgb(216, 216, 216); fill-opacity: 0; paint-order: stroke; stroke: rgb(33, 61, 186);" cx="22.403" cy="9.827" rx="5.25" ry="5.25" transform="matrix(1, 0, 0, 1, -7.105427357601002e-15, 0)"/>
  <ellipse style="fill: rgb(216, 216, 216); fill-opacity: 0; paint-order: stroke; stroke: rgb(33, 61, 186);" cx="23.458" cy="12.22" rx="5.25" ry="5.25" transform="matrix(1, 0, 0, 1, -7.105427357601002e-15, 0)"/>
  <ellipse style="fill: rgb(216, 216, 216); fill-opacity: 0; paint-order: stroke; stroke: rgb(33, 61, 186);" cx="22.832" cy="14.71" rx="5.25" ry="5.25" transform="matrix(1, 0, 0, 1, -7.105427357601002e-15, 0)"/>
  <ellipse style="fill: rgb(216, 216, 216); fill-opacity: 0; paint-order: stroke; stroke: rgb(33, 61, 186);" cx="21.814" cy="17.664" rx="5.25" ry="5.25" transform="matrix(1, 0, 0, 1, -7.105427357601002e-15, 0)"/>
  <ellipse style="fill: rgb(216, 216, 216); fill-opacity: 0; paint-order: stroke; stroke: rgb(33, 61, 186);" cx="19.994" cy="20.11" rx="5.25" ry="5.25" transform="matrix(1, 0, 0, 1, -7.105427357601002e-15, 0)"/>
  <ellipse style="fill: rgb(216, 216, 216); fill-opacity: 0; paint-order: stroke; stroke: rgb(33, 61, 186);" cx="18.06" cy="22.158" rx="5.25" ry="5.25" transform="matrix(1, 0, 0, 1, -7.105427357601002e-15, 0)"/>
  <ellipse style="fill: rgb(216, 216, 216); fill-opacity: 0; paint-order: stroke; stroke: rgb(33, 61, 186);" cx="15.558" cy="24.534" rx="5.25" ry="5.25" transform="matrix(1, 0, 0, 1, -7.105427357601002e-15, 0)"/>
  <ellipse style="fill: rgb(216, 216, 216); fill-opacity: 0; paint-order: stroke; stroke: rgb(33, 61, 186);" cx="13.34" cy="26.809" rx="5.25" ry="5.25" transform="matrix(1, 0, 0, 1, -7.105427357601002e-15, 0)"/>
  <ellipse style="fill: rgb(216, 216, 216); fill-opacity: 0; paint-order: stroke; stroke: rgb(33, 61, 186);" cx="11.747" cy="29.222" rx="5.25" ry="5.25" transform="matrix(1, 0, 0, 1, -7.105427357601002e-15, 0)"/>
  <ellipse style="fill: rgb(216, 216, 216); fill-opacity: 0; paint-order: stroke; stroke: rgb(33, 61, 186);" cx="10.553" cy="31.725" rx="5.25" ry="5.25" transform="matrix(1, 0, 0, 1, -7.105427357601002e-15, 0)"/>
  <ellipse style="fill: rgb(216, 216, 216); fill-opacity: 0; paint-order: stroke; stroke: rgb(33, 61, 186);" cx="9.699" cy="34.38" rx="5.25" ry="5.25" transform="matrix(1, 0, 0, 1, -7.105427357601002e-15, 0)"/>
  <ellipse style="fill: rgb(216, 216, 216); fill-opacity: 0; paint-order: stroke; stroke: rgb(33, 61, 186);" cx="9.814" cy="37.532" rx="5.25" ry="5.25" transform="matrix(1, 0, 0, 1, -7.105427357601002e-15, 0)"/>
  <ellipse style="fill: rgb(216, 216, 216); fill-opacity: 0; paint-order: stroke; stroke: rgb(33, 61, 186);" cx="10.666" cy="40.206" rx="5.25" ry="5.25" transform="matrix(1, 0, 0, 1, -7.105427357601002e-15, 0)"/>
  <ellipse style="fill: rgb(216, 216, 216); fill-opacity: 0; paint-order: stroke; stroke: rgb(33, 61, 186);" cx="12.088" cy="42.936" rx="5.25" ry="5.25" transform="matrix(1, 0, 0, 1, -7.105427357601002e-15, 0)"/>
  <ellipse style="fill: rgb(216, 216, 216); fill-opacity: 0; paint-order: stroke; stroke: rgb(33, 61, 186);" cx="14.193" cy="45.495" rx="5.25" ry="5.25" transform="matrix(1, 0, 0, 1, -7.105427357601002e-15, 0)"/>
  <ellipse style="fill: rgb(216, 216, 216); fill-opacity: 0; paint-order: stroke; stroke: rgb(33, 61, 186);" cx="17.207" cy="47.625" rx="5.25" ry="5.25" transform="matrix(1, 0, 0, 1, -7.105427357601002e-15, 0)"/>
  <ellipse style="fill: rgb(216, 216, 216); fill-opacity: 0; paint-order: stroke; stroke: rgb(33, 61, 186);" cx="20.107" cy="48.99" rx="5.25" ry="5.25" transform="matrix(1, 0, 0, 1, -7.105427357601002e-15, 0)"/>
  <ellipse style="fill: rgb(216, 216, 216); fill-opacity: 0; paint-order: stroke; stroke: rgb(33, 61, 186);" cx="23.35" cy="49.716" rx="5.25" ry="5.25" transform="matrix(1, 0, 0, 1, -7.105427357601002e-15, 0)"/>
  <ellipse style="fill: rgb(216, 216, 216); fill-opacity: 0; paint-order: stroke; stroke: rgb(33, 61, 186);" cx="26.15" cy="50.336" rx="5.25" ry="5.25" transform="matrix(1, 0, 0, 1, -7.105427357601002e-15, 0)"/>
  <ellipse style="fill: rgb(216, 216, 216); fill-opacity: 0; paint-order: stroke; stroke: rgb(33, 61, 186);" cx="29.176" cy="50.378" rx="5.25" ry="5.25" transform="matrix(1, 0, 0, 1, -7.105427357601002e-15, 0)"/>
  <ellipse style="fill: rgb(216, 216, 216); fill-opacity: 0; paint-order: stroke; stroke: rgb(33, 61, 186);" cx="31.416" cy="50.377" rx="5.25" ry="5.25" transform="matrix(1, 0, 0, 1, -7.105427357601002e-15, 0)"/>
  <path d="M 27.103 32.751 L 28.108 34.984 L 26.097 34.984 L 27.103 32.751 Z" style="fill: rgb(216, 216, 216); stroke: rgb(0, 0, 0);" transform="matrix(1, 0, 0, 1, -7.105427357601002e-15, 0)"/>
  <ellipse style="fill: rgb(216, 216, 216); fill-opacity: 0; paint-order: stroke; stroke: rgb(101, 186, 33);" cx="47.718" cy="9.38" rx="6.37" ry="6.37" transform="matrix(1, 0, 0, 1, -7.105427357601002e-15, 0)"/>
  <ellipse style="fill: rgb(216, 216, 216); fill-opacity: 0; paint-order: stroke; stroke: rgb(101, 186, 33);" cx="48.887" cy="10.768" rx="6.37" ry="6.37" transform="matrix(1, 0, 0, 1, -7.105427357601002e-15, 0)"/>
  <ellipse style="fill: rgb(216, 216, 216); fill-opacity: 0; paint-order: stroke; stroke: rgb(101, 186, 33);" cx="51.044" cy="13.588" rx="6.37" ry="6.37" transform="matrix(1, 0, 0, 1, -7.105427357601002e-15, 0)"/>
  <ellipse style="fill: rgb(216, 216, 216); fill-opacity: 0; paint-order: stroke; stroke: rgb(101, 186, 33);" cx="52.952" cy="16.16" rx="6.37" ry="6.37" transform="matrix(1, 0, 0, 1, -7.105427357601002e-15, 0)"/>
  <ellipse style="fill: rgb(216, 216, 216); fill-opacity: 0; paint-order: stroke; stroke: rgb(101, 186, 33);" cx="53.948" cy="19.479" rx="6.37" ry="6.37" transform="matrix(1, 0, 0, 1, -7.105427357601002e-15, 0)"/>
  <ellipse style="fill: rgb(216, 216, 216); fill-opacity: 0; paint-order: stroke; stroke: rgb(101, 186, 33);" cx="54.611" cy="22.383" rx="6.37" ry="6.37" transform="matrix(1, 0, 0, 1, -7.105427357601002e-15, 0)"/>
  <ellipse style="fill: rgb(216, 216, 216); fill-opacity: 0; paint-order: stroke; stroke: rgb(101, 186, 33);" cx="55.109" cy="25.784" rx="6.37" ry="6.37" transform="matrix(1, 0, 0, 1, -7.105427357601002e-15, 0)"/>
  <ellipse style="fill: rgb(216, 216, 216); fill-opacity: 0; paint-order: stroke; stroke: rgb(101, 186, 33);" cx="55.234" cy="29.394" rx="5.997" ry="5.997" transform="matrix(1, 0, 0, 1, -7.105427357601002e-15, 0)"/>
  <ellipse style="fill: rgb(216, 216, 216); fill-opacity: 0; paint-order: stroke; stroke: rgb(101, 186, 33);" cx="54.903" cy="32.13" rx="6.08" ry="6.08" transform="matrix(1, 0, 0, 1, -7.105427357601002e-15, 0)"/>
  <ellipse style="fill: rgb(216, 216, 216); fill-opacity: 0; paint-order: stroke; stroke: rgb(101, 186, 33);" cx="54.445" cy="35.242" rx="6.37" ry="6.37" transform="matrix(1, 0, 0, 1, -7.105427357601002e-15, 0)"/>
  <ellipse style="fill: rgb(216, 216, 216); fill-opacity: 0; paint-order: stroke; stroke: rgb(101, 186, 33);" cx="53.367" cy="38.975" rx="6.37" ry="6.37" transform="matrix(1, 0, 0, 1, -7.105427357601002e-15, 0)"/>
  <ellipse style="fill: rgb(216, 216, 216); fill-opacity: 0; paint-order: stroke; stroke: rgb(101, 186, 33);" cx="50.919" cy="42.389" rx="5.913" ry="5.913" transform="matrix(1, 0, 0, 1, -7.105427357601002e-15, 0)"/>
  <ellipse style="fill: rgb(216, 216, 216); fill-opacity: 0; paint-order: stroke; stroke: rgb(101, 186, 33);" cx="48.057" cy="45.252" rx="5.54" ry="5.54" transform="matrix(1, 0, 0, 1, -7.105427357601002e-15, 0)"/>
  <ellipse style="fill: rgb(216, 216, 216); fill-opacity: 0; paint-order: stroke; stroke: rgb(101, 186, 33);" cx="45.153" cy="47.465" rx="5.54" ry="5.54" transform="matrix(1, 0, 0, 1, -7.105427357601002e-15, 0)"/>
  <ellipse style="fill: rgb(216, 216, 216); fill-opacity: 0; paint-order: stroke; stroke: rgb(101, 186, 33);" cx="42.167" cy="48.709" rx="5.54" ry="5.54" transform="matrix(1, 0, 0, 1, -7.105427357601002e-15, 0)"/>
  <ellipse style="fill: rgb(216, 216, 216); fill-opacity: 0; paint-order: stroke; stroke: rgb(101, 186, 33);" cx="38.516" cy="49.87" rx="5.54" ry="5.54" transform="matrix(1, 0, 0, 1, -7.105427357601002e-15, 0)"/>
  <ellipse style="fill: rgb(216, 216, 216); fill-opacity: 0; paint-order: stroke; stroke: rgb(101, 186, 33);" cx="35.944" cy="50.341" rx="5.54" ry="5.54" transform="matrix(1, 0, 0, 1, -7.105427357601002e-15, 0)"/>
  <ellipse style="fill: rgb(216, 216, 216); fill-opacity: 0; paint-order: stroke; stroke: rgb(101, 186, 33);" cx="33.871" cy="50.258" rx="5.54" ry="5.54" transform="matrix(1, 0, 0, 1, -7.105427357601002e-15, 0)"/>
  <ellipse style="fill: rgb(216, 216, 216); fill-opacity: 0; paint-order: stroke; stroke: rgb(101, 186, 33);" cx="31.299" cy="50.175" rx="5.54" ry="5.54" transform="matrix(1, 0, 0, 1, -7.105427357601002e-15, 0)"/>
  <path d="M 38.019 26.963 L 39.024 29.196 L 37.013 29.196 L 38.019 26.963 Z" style="fill: rgb(216, 216, 216); stroke: rgb(0, 0, 0);" transform="matrix(1, 0, 0, 1, -7.105427357601002e-15, 0)"/>
</svg>