<?xml version="1.0" encoding="utf-8"?>
<svg viewBox="0 0 60.801 56.601" width="60.801px" height="56.601px" xmlns="http://www.w3.org/2000/svg">
  <g id="svgGroup" stroke-linecap="round" fill-rule="nonzero" font-size="9pt" stroke="#000" stroke-width="0.25mm" fill="none" style="stroke:#000;stroke-width:0.25mm;fill:none" transform="matrix(1, 0, 0, 1, 0, -3.552713678800501e-15)">
    <path d="M 22.069 55.708 A 30.171 30.171 0 0 1 14.651 53.001 Q 7.801 49.401 3.901 43.051 Q 0.001 36.701 0.001 28.301 Q 0.001 19.901 3.901 13.501 Q 7.801 7.101 14.651 3.551 A 31.338 31.338 0 0 1 24.567 0.42 A 40.583 40.583 0 0 1 30.501 0.001 A 38.528 38.528 0 0 1 38.583 0.81 A 29.32 29.32 0 0 1 46.501 3.701 Q 53.301 7.401 57.051 13.801 A 27.474 27.474 0 0 1 60.709 25.811 A 33.376 33.376 0 0 1 60.801 28.301 Q 60.801 36.701 56.951 43.051 Q 53.101 49.401 46.251 53.001 A 31.186 31.186 0 0 1 35.863 56.249 A 39.712 39.712 0 0 1 30.501 56.601 A 38.162 38.162 0 0 1 22.069 55.708 Z M 14.401 28.301 A 17.959 17.959 0 0 0 14.452 29.686 A 15.478 15.478 0 0 0 14.501 30.201 A 40.407 40.407 0 0 1 19.362 28.102 A 48.36 48.36 0 0 1 21.801 27.301 A 28.04 28.04 0 0 1 26.868 26.299 A 35.86 35.86 0 0 1 30.701 26.101 A 34.005 34.005 0 0 1 35.429 26.417 A 27.644 27.644 0 0 1 38.801 27.101 A 34.771 34.771 0 0 1 43.936 28.948 A 41.45 41.45 0 0 1 46.301 30.101 Q 46.401 29.201 46.401 28.301 Q 46.401 20.801 41.951 16.401 Q 37.501 12.001 30.401 12.001 A 19.203 19.203 0 0 0 25.341 12.633 A 14.167 14.167 0 0 0 18.751 16.501 A 15.223 15.223 0 0 0 14.673 24.826 A 21.363 21.363 0 0 0 14.401 28.301 Z M 37.609 43.932 A 13.194 13.194 0 0 0 38.551 43.501 Q 41.901 41.801 43.801 38.801 Q 40.801 37.501 37.751 36.751 A 23.341 23.341 0 0 0 35.05 36.265 Q 33.714 36.1 32.193 36.038 A 46.532 46.532 0 0 0 30.301 36.001 Q 26.569 36.001 23.705 36.711 A 18.561 18.561 0 0 0 23.001 36.901 Q 19.901 37.801 17.101 39.101 Q 19.001 42.001 22.251 43.601 A 14.506 14.506 0 0 0 25.638 44.749 Q 27.751 45.201 30.301 45.201 Q 34.533 45.201 37.609 43.932 Z" vector-effect="non-scaling-stroke"/>
  </g>
  <ellipse style="fill: rgb(216, 216, 216); fill-opacity: 0; paint-order: stroke; stroke: rgb(33, 61, 186);" cx="28.842" cy="50.781" rx="5.064" ry="5.064" transform="matrix(1, 0, 0, 1, 0, -3.552713678800501e-15)"/>
  <ellipse style="fill: rgb(216, 216, 216); fill-opacity: 0; paint-order: stroke; stroke: rgb(33, 61, 186);" cx="24.528" cy="50.336" rx="5.064" ry="5.064" transform="matrix(1, 0, 0, 1, 0, -3.552713678800501e-15)"/>
  <ellipse style="fill: rgb(216, 216, 216); fill-opacity: 0; paint-order: stroke; stroke: rgb(33, 61, 186);" cx="19.756" cy="49.069" rx="5.064" ry="5.064" transform="matrix(1, 0, 0, 1, 0, -3.552713678800501e-15)"/>
  <ellipse style="fill: rgb(216, 216, 216); fill-opacity: 0; paint-order: stroke; stroke: rgb(33, 61, 186);" cx="16.001" cy="46.963" rx="5.064" ry="5.064" transform="matrix(1, 0, 0, 1, 0, -3.552713678800501e-15)"/>
  <ellipse style="fill: rgb(216, 216, 216); fill-opacity: 0; paint-order: stroke; stroke: rgb(33, 61, 186);" cx="13.114" cy="44.157" rx="5.593" ry="5.593" transform="matrix(1, 0, 0, 1, 0, -3.552713678800501e-15)"/>
  <ellipse style="fill: rgb(216, 216, 216); fill-opacity: 0; paint-order: stroke; stroke: rgb(33, 61, 186);" cx="10.592" cy="40.903" rx="5.837" ry="5.837" transform="matrix(1, 0, 0, 1, 0, -3.552713678800501e-15)"/>
  <ellipse style="fill: rgb(216, 216, 216); fill-opacity: 0; paint-order: stroke; stroke: rgb(33, 61, 186);" cx="9.047" cy="36.754" rx="6.569" ry="6.569" transform="matrix(1, 0, 0, 1, 0, -3.552713678800501e-15)"/>
  <ellipse style="fill: rgb(216, 216, 216); fill-opacity: 0; paint-order: stroke; stroke: rgb(33, 61, 186);" cx="7.623" cy="32.916" rx="6.569" ry="6.569" transform="matrix(1, 0, 0, 1, 0, -3.552713678800501e-15)"/>
  <ellipse style="fill: rgb(216, 216, 216); fill-opacity: 0; paint-order: stroke; stroke: rgb(33, 61, 186);" cx="7.297" cy="29.5" rx="6.569" ry="6.569" transform="matrix(1, 0, 0, 1, 0, -3.552713678800501e-15)"/>
  <ellipse style="fill: rgb(216, 216, 216); fill-opacity: 0; paint-order: stroke; stroke: rgb(33, 61, 186);" cx="7.46" cy="25.866" rx="6.569" ry="6.569" transform="matrix(1, 0, 0, 1, 0, -3.552713678800501e-15)"/>
  <ellipse style="fill: rgb(216, 216, 216); fill-opacity: 0; paint-order: stroke; stroke: rgb(33, 61, 186);" cx="8.111" cy="22.124" rx="6.569" ry="6.569" transform="matrix(1, 0, 0, 1, 0, -3.552713678800501e-15)"/>
  <ellipse style="fill: rgb(216, 216, 216); fill-opacity: 0; paint-order: stroke; stroke: rgb(33, 61, 186);" cx="9.249" cy="18.057" rx="6.488" ry="6.488" transform="matrix(1, 0, 0, 1, 0, -3.552713678800501e-15)"/>
  <ellipse style="fill: rgb(216, 216, 216); fill-opacity: 0; paint-order: stroke; stroke: rgb(33, 61, 186);" cx="11.69" cy="14.721" rx="6" ry="6" transform="matrix(1, 0, 0, 1, 0, -3.552713678800501e-15)"/>
  <ellipse style="fill: rgb(216, 216, 216); fill-opacity: 0; paint-order: stroke; stroke: rgb(33, 61, 186);" cx="13.926" cy="11.942" rx="6.04" ry="6.04" transform="matrix(1, 0, 0, 1, 0, -3.552713678800501e-15)"/>
  <ellipse style="fill: rgb(216, 216, 216); fill-opacity: 0; paint-order: stroke; stroke: rgb(33, 61, 186);" cx="17.018" cy="9.502" rx="5.796" ry="5.796" transform="matrix(1, 0, 0, 1, 0, -3.552713678800501e-15)"/>
  <ellipse style="fill: rgb(216, 216, 216); fill-opacity: 0; paint-order: stroke; stroke: rgb(33, 61, 186);" cx="20.842" cy="7.386" rx="5.715" ry="5.715" transform="matrix(1, 0, 0, 1, 0, -3.552713678800501e-15)"/>
  <ellipse style="fill: rgb(216, 216, 216); fill-opacity: 0; paint-order: stroke; stroke: rgb(33, 61, 186);" cx="24.176" cy="6.492" rx="5.633" ry="5.633" transform="matrix(1, 0, 0, 1, 0, -3.552713678800501e-15)"/>
  <ellipse style="fill: rgb(216, 216, 216); fill-opacity: 0; paint-order: stroke; stroke: rgb(33, 61, 186);" cx="27.869" cy="6.081" rx="5.661" ry="5.661" transform="matrix(1, 0, 0, 1, 0, -3.552713678800501e-15)"/>
  <ellipse style="fill: rgb(216, 216, 216); fill-opacity: 0; paint-order: stroke; stroke: rgb(33, 61, 186);" cx="31.591" cy="5.859" rx="5.384" ry="5.384" transform="matrix(1, 0, 0, 1, 0, -3.552713678800501e-15)"/>
  <ellipse style="fill: rgb(216, 216, 216); fill-opacity: 0; paint-order: stroke; stroke: rgb(33, 61, 186);" cx="35.461" cy="6.412" rx="5.384" ry="5.384" transform="matrix(1, 0, 0, 1, 0, -3.552713678800501e-15)"/>
  <ellipse style="fill: rgb(216, 216, 216); fill-opacity: 0; paint-order: stroke; stroke: rgb(33, 61, 186);" cx="39.686" cy="7.479" rx="5.502" ry="5.502" transform="matrix(1, 0, 0, 1, 0, -3.552713678800501e-15)"/>
  <ellipse style="fill: rgb(216, 216, 216); fill-opacity: 0; paint-order: stroke; stroke: rgb(33, 61, 186);" cx="42.964" cy="9.176" rx="5.502" ry="5.502" transform="matrix(1, 0, 0, 1, 0, -3.552713678800501e-15)"/>
  <ellipse style="fill: rgb(216, 216, 216); fill-opacity: 0; paint-order: stroke; stroke: rgb(33, 61, 186);" cx="46.36" cy="11.071" rx="5.66" ry="5.66" transform="matrix(1, 0, 0, 1, 0, -3.552713678800501e-15)"/>
  <ellipse style="fill: rgb(216, 216, 216); fill-opacity: 0; paint-order: stroke; stroke: rgb(33, 61, 186);" cx="48.492" cy="13.264" rx="5.976" ry="5.976" transform="matrix(1, 0, 0, 1, 0, -3.552713678800501e-15)"/>
  <ellipse style="fill: rgb(216, 216, 216); fill-opacity: 0; paint-order: stroke; stroke: rgb(33, 61, 186);" cx="50.783" cy="16.547" rx="5.976" ry="5.976" transform="matrix(1, 0, 0, 1, 0, -3.552713678800501e-15)"/>
  <ellipse style="fill: rgb(216, 216, 216); fill-opacity: 0; paint-order: stroke; stroke: rgb(33, 61, 186);" cx="52.283" cy="20.004" rx="6.292" ry="6.292" transform="matrix(1, 0, 0, 1, 0, -3.552713678800501e-15)"/>
  <ellipse style="fill: rgb(216, 216, 216); fill-opacity: 0; paint-order: stroke; stroke: rgb(33, 61, 186);" cx="53.152" cy="23.137" rx="6.292" ry="6.292" transform="matrix(1, 0, 0, 1, 0, -3.552713678800501e-15)"/>
  <ellipse style="fill: rgb(216, 216, 216); fill-opacity: 0; paint-order: stroke; stroke: rgb(33, 61, 186);" cx="53.468" cy="26.278" rx="6.292" ry="6.292" transform="matrix(1, 0, 0, 1, 0, -3.552713678800501e-15)"/>
  <ellipse style="fill: rgb(216, 216, 216); fill-opacity: 0; paint-order: stroke; stroke: rgb(33, 61, 186);" cx="53.666" cy="29.555" rx="6.411" ry="6.411" transform="matrix(1, 0, 0, 1, 0, -3.552713678800501e-15)"/>
  <ellipse style="fill: rgb(216, 216, 216); fill-opacity: 0; paint-order: stroke; stroke: rgb(33, 61, 186);" cx="52.994" cy="33.123" rx="6.411" ry="6.411" transform="matrix(1, 0, 0, 1, 0, -3.552713678800501e-15)"/>
  <ellipse style="fill: rgb(216, 216, 216); fill-opacity: 0; paint-order: stroke; stroke: rgb(33, 61, 186);" cx="52.283" cy="36.958" rx="6.411" ry="6.411" transform="matrix(1, 0, 0, 1, 0, -3.552713678800501e-15)"/>
  <ellipse style="fill: rgb(216, 216, 216); fill-opacity: 0; paint-order: stroke; stroke: rgb(33, 61, 186);" cx="50.506" cy="40.471" rx="5.819" ry="5.819" transform="matrix(1, 0, 0, 1, 0, -3.552713678800501e-15)"/>
  <ellipse style="fill: rgb(216, 216, 216); fill-opacity: 0; paint-order: stroke; stroke: rgb(33, 61, 186);" cx="48.571" cy="43.355" rx="5.819" ry="5.819" transform="matrix(1, 0, 0, 1, 0, -3.552713678800501e-15)"/>
  <ellipse style="fill: rgb(216, 216, 216); fill-opacity: 0; paint-order: stroke; stroke: rgb(33, 61, 186);" cx="45.728" cy="45.952" rx="5.345" ry="5.345" transform="matrix(1, 0, 0, 1, 0, -3.552713678800501e-15)"/>
  <ellipse style="fill: rgb(216, 216, 216); fill-opacity: 0; paint-order: stroke; stroke: rgb(33, 61, 186);" cx="42.964" cy="47.768" rx="5.345" ry="5.345" transform="matrix(1, 0, 0, 1, 0, -3.552713678800501e-15)"/>
  <ellipse style="fill: rgb(216, 216, 216); fill-opacity: 0; paint-order: stroke; stroke: rgb(152, 185, 114);" cx="40.358" cy="49.085" rx="5.345" ry="5.345" transform="matrix(1, 0, 0, 1, 0, -3.552713678800501e-15)"/>
  <ellipse style="fill: rgb(216, 216, 216); fill-opacity: 0; paint-order: stroke; stroke: rgb(152, 185, 114);" cx="36.686" cy="50.229" rx="5.069" ry="5.069" transform="matrix(1, 0, 0, 1, 0, -3.552713678800501e-15)"/>
  <ellipse style="fill: rgb(216, 216, 216); fill-opacity: 0; paint-order: stroke; stroke: rgb(152, 185, 114);" cx="31.908" cy="50.822" rx="5.069" ry="5.069" transform="matrix(1, 0, 0, 1, 0, -3.552713678800501e-15)"/>
  <ellipse style="fill: rgb(216, 216, 216); fill-opacity: 0; paint-order: stroke; stroke: rgb(152, 185, 114);" cx="28.196" cy="50.901" rx="5.069" ry="5.069" transform="matrix(1, 0, 0, 1, 0, -3.552713678800501e-15)"/>
  <ellipse style="fill: rgb(216, 216, 216); fill-opacity: 0; paint-order: stroke; stroke: rgb(152, 185, 114);" cx="24.484" cy="50.427" rx="5.069" ry="5.069" transform="matrix(1, 0, 0, 1, 0, -3.552713678800501e-15)"/>
  <ellipse style="fill: rgb(216, 216, 216); fill-opacity: 0; paint-order: stroke; stroke: rgb(152, 185, 114);" cx="21.719" cy="49.796" rx="5.069" ry="5.069" transform="matrix(1, 0, 0, 1, 0, -3.552713678800501e-15)"/>
  <ellipse style="fill: rgb(216, 216, 216); fill-opacity: 0; paint-order: stroke; stroke: rgb(152, 185, 114);" cx="18.008" cy="47.9" rx="5.069" ry="5.069" transform="matrix(1, 0, 0, 1, 0, -3.552713678800501e-15)"/>
  <ellipse style="fill: rgb(216, 216, 216); fill-opacity: 0; paint-order: stroke; stroke: rgb(152, 185, 114);" cx="15.322" cy="46.4" rx="5.069" ry="5.069" transform="matrix(1, 0, 0, 1, 0, -3.552713678800501e-15)"/>
  <ellipse style="fill: rgb(216, 216, 216); fill-opacity: 0; paint-order: stroke; stroke: rgb(152, 185, 114);" cx="12.794" cy="44.11" rx="5.305" ry="5.305" transform="matrix(1, 0, 0, 1, 0, -3.552713678800501e-15)"/>
  <ellipse style="fill: rgb(216, 216, 216); fill-opacity: 0; paint-order: stroke; stroke: rgb(152, 185, 114);" cx="10.9" cy="41.898" rx="5.542" ry="5.542" transform="matrix(1, 0, 0, 1, 0, -3.552713678800501e-15)"/>
  <ellipse style="fill: rgb(216, 216, 216); fill-opacity: 0; paint-order: stroke; stroke: rgb(152, 185, 114);" cx="9.005" cy="36.844" rx="4.594" ry="4.594" transform="matrix(1, 0, 0, 1, 0, -3.552713678800501e-15)"/>
  <ellipse style="fill: rgb(216, 216, 216); fill-opacity: 0; paint-order: stroke; stroke: rgb(152, 185, 114);" cx="11.69" cy="35.658" rx="4.594" ry="4.594" transform="matrix(1, 0, 0, 1, 0, -3.552713678800501e-15)"/>
  <ellipse style="fill: rgb(216, 216, 216); fill-opacity: 0; paint-order: stroke; stroke: rgb(152, 185, 114);" cx="15.995" cy="34.434" rx="4.16" ry="4.16" transform="matrix(1, 0, 0, 1, 0, -3.552713678800501e-15)"/>
  <ellipse style="fill: rgb(216, 216, 216); fill-opacity: 0; paint-order: stroke; stroke: rgb(152, 185, 114);" cx="20.061" cy="32.895" rx="4.16" ry="4.16" transform="matrix(1, 0, 0, 1, 0, -3.552713678800501e-15)"/>
  <ellipse style="fill: rgb(216, 216, 216); fill-opacity: 0; paint-order: stroke; stroke: rgb(152, 185, 114);" cx="22.983" cy="31.868" rx="4.16" ry="4.16" transform="matrix(1, 0, 0, 1, 0, -3.552713678800501e-15)"/>
  <ellipse style="fill: rgb(216, 216, 216); fill-opacity: 0; paint-order: stroke; stroke: rgb(152, 185, 114);" cx="26.459" cy="31.316" rx="4.16" ry="4.16" transform="matrix(1, 0, 0, 1, 0, -3.552713678800501e-15)"/>
  <ellipse style="fill: rgb(216, 216, 216); fill-opacity: 0; paint-order: stroke; stroke: rgb(152, 185, 114);" cx="29.538" cy="31" rx="4.16" ry="4.16" transform="matrix(1, 0, 0, 1, 0, -3.552713678800501e-15)"/>
  <ellipse style="fill: rgb(216, 216, 216); fill-opacity: 0; paint-order: stroke; stroke: rgb(152, 185, 114);" cx="32.145" cy="31.078" rx="4.16" ry="4.16" transform="matrix(1, 0, 0, 1, 0, -3.552713678800501e-15)"/>
  <ellipse style="fill: rgb(216, 216, 216); fill-opacity: 0; paint-order: stroke; stroke: rgb(152, 185, 114);" cx="34.909" cy="31.158" rx="4.16" ry="4.16" transform="matrix(1, 0, 0, 1, 0, -3.552713678800501e-15)"/>
  <ellipse style="fill: rgb(216, 216, 216); fill-opacity: 0; paint-order: stroke; stroke: rgb(152, 185, 114);" cx="37.91" cy="31.71" rx="4.16" ry="4.16" transform="matrix(1, 0, 0, 1, 0, -3.552713678800501e-15)"/>
  <ellipse style="fill: rgb(216, 216, 216); fill-opacity: 0; paint-order: stroke; stroke: rgb(152, 185, 114);" cx="41.068" cy="32.815" rx="4.16" ry="4.16" transform="matrix(1, 0, 0, 1, 0, -3.552713678800501e-15)"/>
  <ellipse style="fill: rgb(216, 216, 216); fill-opacity: 0; paint-order: stroke; stroke: rgb(152, 185, 114);" cx="43.437" cy="33.605" rx="4.16" ry="4.16" transform="matrix(1, 0, 0, 1, 0, -3.552713678800501e-15)"/>
  <ellipse style="fill: rgb(216, 216, 216); fill-opacity: 0; paint-order: stroke; stroke: rgb(152, 185, 114);" cx="46.202" cy="34.475" rx="4.16" ry="4.16" transform="matrix(1, 0, 0, 1, 0, -3.552713678800501e-15)"/>
  <ellipse style="fill: rgb(216, 216, 216); fill-opacity: 0; paint-order: stroke; stroke: rgb(152, 185, 114);" cx="48.413" cy="35.264" rx="4.16" ry="4.16" transform="matrix(1, 0, 0, 1, 0, -3.552713678800501e-15)"/>
  <path d="M 31.379 17.44 L 32.384 19.673 L 30.373 19.673 L 31.379 17.44 Z" style="fill: rgb(216, 216, 216); stroke: rgb(0, 0, 0);" transform="matrix(1, 0, 0, 1, 0, -3.552713678800501e-15)"/>
</svg>