<?xml version="1.0" encoding="utf-8"?>
<svg viewBox="0 0 60.801 56.601" width="60.801px" height="56.601px" xmlns="http://www.w3.org/2000/svg">
  <ellipse style="fill: rgb(216, 216, 216); fill-opacity: 0; paint-order: stroke; stroke: rgb(33, 61, 186);" cx="28.842" cy="50.781" rx="5.064" ry="5.064" transform="matrix(1, 0, 0, 1, -1.7763568394002505e-15, -2.6645352591003757e-15)"/>
  <ellipse style="fill: rgb(216, 216, 216); fill-opacity: 0; paint-order: stroke; stroke: rgb(33, 61, 186);" cx="19.756" cy="49.069" rx="5.064" ry="5.064" transform="matrix(1, 0, 0, 1, -1.7763568394002505e-15, -2.6645352591003757e-15)"/>
  <ellipse style="fill: rgb(216, 216, 216); fill-opacity: 0; paint-order: stroke; stroke: rgb(33, 61, 186);" cx="13.114" cy="44.157" rx="5.593" ry="5.593" transform="matrix(1, 0, 0, 1, -1.7763568394002505e-15, -2.6645352591003757e-15)"/>
  <ellipse style="fill: rgb(216, 216, 216); fill-opacity: 0; paint-order: stroke; stroke: rgb(33, 61, 186);" cx="9.047" cy="36.754" rx="6.569" ry="6.569" transform="matrix(1, 0, 0, 1, -1.7763568394002505e-15, -2.6645352591003757e-15)"/>
  <ellipse style="fill: rgb(216, 216, 216); fill-opacity: 0; paint-order: stroke; stroke: rgb(33, 61, 186);" cx="7.297" cy="29.5" rx="6.569" ry="6.569" transform="matrix(1, 0, 0, 1, -1.7763568394002505e-15, -2.6645352591003757e-15)"/>
  <ellipse style="fill: rgb(216, 216, 216); fill-opacity: 0; paint-order: stroke; stroke: rgb(33, 61, 186);" cx="8.111" cy="22.124" rx="6.569" ry="6.569" transform="matrix(1, 0, 0, 1, -1.7763568394002505e-15, -2.6645352591003757e-15)"/>
  <ellipse style="fill: rgb(216, 216, 216); fill-opacity: 0; paint-order: stroke; stroke: rgb(33, 61, 186);" cx="11.69" cy="14.721" rx="6" ry="6" transform="matrix(1, 0, 0, 1, -1.7763568394002505e-15, -2.6645352591003757e-15)"/>
  <ellipse style="fill: rgb(216, 216, 216); fill-opacity: 0; paint-order: stroke; stroke: rgb(33, 61, 186);" cx="17.018" cy="9.502" rx="5.796" ry="5.796" transform="matrix(1, 0, 0, 1, -1.7763568394002505e-15, -2.6645352591003757e-15)"/>
  <ellipse style="fill: rgb(216, 216, 216); fill-opacity: 0; paint-order: stroke; stroke: rgb(33, 61, 186);" cx="24.176" cy="6.492" rx="5.633" ry="5.633" transform="matrix(1, 0, 0, 1, -1.7763568394002505e-15, -2.6645352591003757e-15)"/>
  <ellipse style="fill: rgb(216, 216, 216); fill-opacity: 0; paint-order: stroke; stroke: rgb(33, 61, 186);" cx="31.591" cy="5.859" rx="5.384" ry="5.384" transform="matrix(1, 0, 0, 1, -1.7763568394002505e-15, -2.6645352591003757e-15)"/>
  <ellipse style="fill: rgb(216, 216, 216); fill-opacity: 0; paint-order: stroke; stroke: rgb(33, 61, 186);" cx="39.686" cy="7.479" rx="5.502" ry="5.502" transform="matrix(1, 0, 0, 1, -1.7763568394002505e-15, -2.6645352591003757e-15)"/>
  <ellipse style="fill: rgb(216, 216, 216); fill-opacity: 0; paint-order: stroke; stroke: rgb(33, 61, 186);" cx="46.36" cy="11.071" rx="5.66" ry="5.66" transform="matrix(1, 0, 0, 1, -1.7763568394002505e-15, -2.6645352591003757e-15)"/>
  <ellipse style="fill: rgb(216, 216, 216); fill-opacity: 0; paint-order: stroke; stroke: rgb(33, 61, 186);" cx="50.783" cy="16.547" rx="5.976" ry="5.976" transform="matrix(1, 0, 0, 1, -1.7763568394002505e-15, -2.6645352591003757e-15)"/>
  <ellipse style="fill: rgb(216, 216, 216); fill-opacity: 0; paint-order: stroke; stroke: rgb(33, 61, 186);" cx="53.152" cy="23.137" rx="6.292" ry="6.292" transform="matrix(1, 0, 0, 1, -1.7763568394002505e-15, -2.6645352591003757e-15)"/>
  <ellipse style="fill: rgb(216, 216, 216); fill-opacity: 0; paint-order: stroke; stroke: rgb(33, 61, 186);" cx="53.666" cy="29.555" rx="6.411" ry="6.411" transform="matrix(1, 0, 0, 1, -1.7763568394002505e-15, -2.6645352591003757e-15)"/>
  <ellipse style="fill: rgb(216, 216, 216); fill-opacity: 0; paint-order: stroke; stroke: rgb(33, 61, 186);" cx="52.283" cy="36.958" rx="6.411" ry="6.411" transform="matrix(1, 0, 0, 1, -1.7763568394002505e-15, -2.6645352591003757e-15)"/>
  <ellipse style="fill: rgb(216, 216, 216); fill-opacity: 0; paint-order: stroke; stroke: rgb(33, 61, 186);" cx="48.571" cy="43.355" rx="5.819" ry="5.819" transform="matrix(1, 0, 0, 1, -1.7763568394002505e-15, -2.6645352591003757e-15)"/>
  <ellipse style="fill: rgb(216, 216, 216); fill-opacity: 0; paint-order: stroke; stroke: rgb(33, 61, 186);" cx="42.964" cy="47.768" rx="5.345" ry="5.345" transform="matrix(1, 0, 0, 1, -1.7763568394002505e-15, -2.6645352591003757e-15)"/>
  <ellipse style="fill: rgb(216, 216, 216); fill-opacity: 0; paint-order: stroke; stroke: rgb(152, 185, 114);" cx="40.358" cy="49.085" rx="5.345" ry="5.345" transform="matrix(1, 0, 0, 1, -1.7763568394002505e-15, -2.6645352591003757e-15)"/>
  <ellipse style="fill: rgb(216, 216, 216); fill-opacity: 0; paint-order: stroke; stroke: rgb(152, 185, 114);" cx="35.493" cy="50.453" rx="5.069" ry="5.069" transform="matrix(1, 0, 0, 1, -8.881784197001252e-16, 8.881784197001252e-16)"/>
  <ellipse style="fill: rgb(216, 216, 216); fill-opacity: 0; paint-order: stroke; stroke: rgb(152, 185, 114);" cx="28.196" cy="50.901" rx="5.069" ry="5.069" transform="matrix(1, 0, 0, 1, -1.7763568394002505e-15, -2.6645352591003757e-15)"/>
  <ellipse style="fill: rgb(216, 216, 216); fill-opacity: 0; paint-order: stroke; stroke: rgb(152, 185, 114);" cx="19.706" cy="49.125" rx="5.069" ry="5.069" transform="matrix(1, 0, 0, 1, -8.881784197001252e-16, 8.881784197001252e-16)"/>
  <ellipse style="fill: rgb(216, 216, 216); fill-opacity: 0; paint-order: stroke; stroke: rgb(152, 185, 114);" cx="13.271" cy="44.126" rx="5.255" ry="5.255" transform="matrix(1, 0, 0, 1, -8.881784197001252e-16, 8.881784197001252e-16)"/>
  <ellipse style="fill: rgb(216, 216, 216); fill-opacity: 0; paint-order: stroke; stroke: rgb(152, 185, 114);" cx="8.93" cy="36.844" rx="6.235" ry="6.235" transform="matrix(1, 0, 0, 1, -8.881784197001252e-16, 8.881784197001252e-16)"/>
  <ellipse style="fill: rgb(216, 216, 216); fill-opacity: 0; paint-order: stroke; stroke: rgb(152, 185, 114);" cx="11.69" cy="35.658" rx="4.594" ry="4.594" transform="matrix(1, 0, 0, 1, -1.7763568394002505e-15, -2.6645352591003757e-15)"/>
  <ellipse style="fill: rgb(216, 216, 216); fill-opacity: 0; paint-order: stroke; stroke: rgb(152, 185, 114);" cx="20.061" cy="32.895" rx="4.16" ry="4.16" transform="matrix(1, 0, 0, 1, -1.7763568394002505e-15, -2.6645352591003757e-15)"/>
  <ellipse style="fill: rgb(216, 216, 216); fill-opacity: 0; paint-order: stroke; stroke: rgb(152, 185, 114);" cx="26.459" cy="31.316" rx="4.16" ry="4.16" transform="matrix(1, 0, 0, 1, -1.7763568394002505e-15, -2.6645352591003757e-15)"/>
  <ellipse style="fill: rgb(216, 216, 216); fill-opacity: 0; paint-order: stroke; stroke: rgb(152, 185, 114);" cx="32.145" cy="31.078" rx="4.16" ry="4.16" transform="matrix(1, 0, 0, 1, -1.7763568394002505e-15, -2.6645352591003757e-15)"/>
  <ellipse style="fill: rgb(216, 216, 216); fill-opacity: 0; paint-order: stroke; stroke: rgb(152, 185, 114);" cx="37.91" cy="31.71" rx="4.16" ry="4.16" transform="matrix(1, 0, 0, 1, -1.7763568394002505e-15, -2.6645352591003757e-15)"/>
  <ellipse style="fill: rgb(216, 216, 216); fill-opacity: 0; paint-order: stroke; stroke: rgb(152, 185, 114);" cx="43.437" cy="33.605" rx="4.16" ry="4.16" transform="matrix(1, 0, 0, 1, -1.7763568394002505e-15, -2.6645352591003757e-15)"/>
  <ellipse style="fill: rgb(216, 216, 216); fill-opacity: 0; paint-order: stroke; stroke: rgb(152, 185, 114);" cx="48.413" cy="35.264" rx="4.16" ry="4.16" transform="matrix(1, 0, 0, 1, -1.7763568394002505e-15, -2.6645352591003757e-15)"/>
  <path d="M 31.379 17.44 L 32.384 19.673 L 30.373 19.673 L 31.379 17.44 Z" style="fill: rgb(216, 216, 216); stroke: rgb(0, 0, 0);" transform="matrix(1, 0, 0, 1, -1.7763568394002505e-15, -2.6645352591003757e-15)"/>
</svg>