<?xml version="1.0" encoding="utf-8"?>
<svg viewBox="0 0 57.501 56.601" width="57.501px" height="56.601px" xmlns="http://www.w3.org/2000/svg">
  <g id="svgGroup" stroke-linecap="round" fill-rule="nonzero" font-size="9pt" stroke="#000" stroke-width="0.25mm" fill="none" style="stroke:#000;stroke-width:0.25mm;fill:none">
    <path d="M 43.501 56.601 L 36.001 44.601 A 25.574 25.574 0 0 0 38.801 41.106 A 18.597 18.597 0 0 0 40.951 36.751 Q 42.301 32.701 42.301 28.301 Q 42.301 20.501 38.401 16.251 Q 34.501 12.001 27.601 12.001 Q 26.101 12.001 24.701 12.301 Q 29.501 21.101 29.501 29.801 Q 29.501 38.101 26.351 44.551 A 49.471 49.471 0 0 1 18.662 55.875 A 55.598 55.598 0 0 1 18.001 56.601 Q 9.801 53.101 4.901 45.601 A 30.213 30.213 0 0 1 0.098 31.011 A 37.373 37.373 0 0 1 0.001 28.301 A 33.89 33.89 0 0 1 0.845 20.571 A 26.654 26.654 0 0 1 3.601 13.451 Q 7.201 7.101 13.651 3.551 A 28.241 28.241 0 0 1 22.838 0.459 A 37.341 37.341 0 0 1 28.801 0.001 A 36.613 36.613 0 0 1 36.283 0.729 A 27.294 27.294 0 0 1 44.001 3.551 Q 50.401 7.101 53.951 13.501 Q 57.501 19.901 57.501 28.301 A 45.382 45.382 0 0 1 56.857 36.149 Q 56.049 40.752 54.225 44.535 A 27.301 27.301 0 0 1 53.601 45.751 A 30.654 30.654 0 0 1 48.888 52.291 A 25.484 25.484 0 0 1 43.501 56.601 Z M 12.201 28.601 A 26.762 26.762 0 0 0 12.572 33.136 A 22.585 22.585 0 0 0 13.151 35.651 A 15.825 15.825 0 0 0 14.86 39.457 A 20.976 20.976 0 0 0 16.701 42.001 Q 18.401 39.401 19.451 36.551 Q 20.416 33.93 20.494 30.422 A 28.044 28.044 0 0 0 20.501 29.801 A 23.955 23.955 0 0 0 19.33 22.555 Q 18.423 19.687 16.813 16.724 A 40.107 40.107 0 0 0 16.801 16.701 A 14.956 14.956 0 0 0 13.594 21.522 A 17.287 17.287 0 0 0 13.401 22.001 Q 12.201 25.101 12.201 28.601 Z" vector-effect="non-scaling-stroke"/>
  </g>
  <ellipse style="fill: rgb(216, 216, 216); fill-opacity: 0; paint-order: stroke; stroke: rgb(33, 61, 186);" cx="18.598" cy="10.224" rx="3.998" ry="3.998"/>
  <ellipse style="fill: rgb(216, 216, 216); fill-opacity: 0; paint-order: stroke; stroke: rgb(33, 61, 186);" cx="20.187" cy="13.306" rx="3.998" ry="3.998"/>
  <ellipse style="fill: rgb(216, 216, 216); fill-opacity: 0; paint-order: stroke; stroke: rgb(33, 61, 186);" cx="22.524" cy="17.98" rx="3.998" ry="3.998"/>
  <ellipse style="fill: rgb(216, 216, 216); fill-opacity: 0; paint-order: stroke; stroke: rgb(33, 61, 186);" cx="24.082" cy="22.329" rx="3.998" ry="3.998"/>
  <ellipse style="fill: rgb(216, 216, 216); fill-opacity: 0; paint-order: stroke; stroke: rgb(33, 61, 186);" cx="24.926" cy="26.872" rx="3.998" ry="3.998"/>
  <ellipse style="fill: rgb(216, 216, 216); fill-opacity: 0; paint-order: stroke; stroke: rgb(33, 61, 186);" cx="24.925" cy="31.805" rx="3.998" ry="3.998"/>
  <ellipse style="fill: rgb(216, 216, 216); fill-opacity: 0; paint-order: stroke; stroke: rgb(33, 61, 186);" cx="24.276" cy="36.414" rx="3.998" ry="3.998"/>
  <ellipse style="fill: rgb(216, 216, 216); fill-opacity: 0; paint-order: stroke; stroke: rgb(33, 61, 186);" cx="22.524" cy="41.542" rx="3.998" ry="3.998"/>
  <ellipse style="fill: rgb(216, 216, 216); fill-opacity: 0; paint-order: stroke; stroke: rgb(33, 61, 186);" cx="20.414" cy="45.403" rx="4.225" ry="4.225"/>
  <ellipse style="fill: rgb(216, 216, 216); fill-opacity: 0; paint-order: stroke; stroke: rgb(33, 61, 186);" cx="16" cy="49.406" rx="5.588" ry="5.046"/>
  <ellipse style="fill: rgb(216, 216, 216); fill-opacity: 0; paint-order: stroke; stroke: rgb(33, 61, 186);" cx="10.516" cy="43.424" rx="5.588" ry="5.046"/>
  <ellipse style="fill: rgb(216, 216, 216); fill-opacity: 0; paint-order: stroke; stroke: rgb(33, 61, 186);" cx="8.049" cy="38.945" rx="5.588" ry="5.046"/>
  <ellipse style="fill: rgb(216, 216, 216); fill-opacity: 0; paint-order: stroke; stroke: rgb(33, 61, 186);" cx="6.361" cy="32.909" rx="5.588" ry="5.046"/>
  <ellipse style="fill: rgb(216, 216, 216); fill-opacity: 0; paint-order: stroke; stroke: rgb(33, 61, 186);" cx="6.231" cy="26.937" rx="5.588" ry="5.046"/>
  <ellipse style="fill: rgb(216, 216, 216); fill-opacity: 0; paint-order: stroke; stroke: rgb(33, 61, 186);" cx="7.205" cy="21.161" rx="5.588" ry="5.046"/>
  <ellipse style="fill: rgb(216, 216, 216); fill-opacity: 0; paint-order: stroke; stroke: rgb(33, 61, 186); transform-origin: 9.737px 15.319px;" cx="9.737" cy="15.319" rx="5.783" ry="5.222"/>
  <ellipse style="fill: rgb(216, 216, 216); fill-opacity: 0; paint-order: stroke; stroke: rgb(33, 61, 186); transform-origin: 14.474px 10.742px;" cx="14.474" cy="10.742" rx="6.106" ry="5.514"/>
  <ellipse style="fill: rgb(216, 216, 216); fill-opacity: 0; paint-order: stroke; stroke: rgb(33, 61, 186); transform-origin: 20.771px 7.334px;" cx="20.771" cy="7.334" rx="6.106" ry="5.514"/>
  <ellipse style="fill: rgb(216, 216, 216); fill-opacity: 0; paint-order: stroke; stroke: rgb(33, 61, 186); transform-origin: 29.145px 6.166px;" cx="29.145" cy="6.166" rx="6.106" ry="5.514"/>
  <ellipse style="fill: rgb(216, 216, 216); fill-opacity: 0; paint-order: stroke; stroke: rgb(33, 61, 186); transform-origin: 37.583px 7.387px;" cx="37.583" cy="7.387" rx="6.236" ry="5.631"/>
  <ellipse style="fill: rgb(216, 216, 216); fill-opacity: 0; paint-order: stroke; stroke: rgb(33, 61, 186); transform-origin: 43.295px 11.196px;" cx="43.295" cy="11.196" rx="6.559" ry="5.923"/>
  <ellipse style="fill: rgb(216, 216, 216); fill-opacity: 0; paint-order: stroke; stroke: rgb(33, 61, 186); transform-origin: 47.611px 17.271px;" cx="47.611" cy="17.271" rx="6.851" ry="6.187"/>
  <ellipse style="fill: rgb(216, 216, 216); fill-opacity: 0; paint-order: stroke; stroke: rgb(33, 61, 186); transform-origin: 49.559px 23.887px;" cx="49.559" cy="23.887" rx="6.948" ry="6.275"/>
  <ellipse style="fill: rgb(216, 216, 216); fill-opacity: 0; paint-order: stroke; stroke: rgb(33, 61, 186); transform-origin: 49.915px 30.572px;" cx="49.915" cy="30.572" rx="6.948" ry="6.275"/>
  <ellipse style="fill: rgb(216, 216, 216); fill-opacity: 0; paint-order: stroke; stroke: rgb(33, 61, 186); transform-origin: 48.942px 36.681px;" cx="48.942" cy="36.681" rx="6.948" ry="6.275"/>
  <ellipse style="fill: rgb(216, 216, 216); fill-opacity: 0; paint-order: stroke; stroke: rgb(33, 61, 186); transform-origin: 46.443px 42.619px;" cx="46.443" cy="42.619" rx="7.11" ry="6.372"/>
  <ellipse style="fill: rgb(216, 216, 216); fill-opacity: 0; paint-order: stroke; stroke: rgb(33, 61, 186); transform-origin: 43.554px 47.455px;" cx="43.554" cy="47.455" rx="7.11" ry="6.372"/>
  <path d="M 34.857 26.932 L 35.862 29.165 L 33.851 29.165 L 34.857 26.932 Z" style="fill: rgb(216, 216, 216); stroke: rgb(0, 0, 0);"/>
</svg>