<?xml version="1.0" encoding="utf-8"?>
<svg viewBox="0 0 61.402 103.302" width="61.402px" height="103.302px" xmlns="http://www.w3.org/2000/svg">
  <g id="svgGroup" stroke-linecap="round" fill-rule="nonzero" font-size="9pt" stroke="#000" stroke-width="0.25mm" fill="none" style="stroke:#000;stroke-width:0.25mm;fill:none">
    <path d="M 0.701 73.601 L 0.701 73.201 L 15.301 73.201 L 15.301 73.501 Q 15.301 79.238 17.068 83.065 A 12.649 12.649 0 0 0 19.651 86.801 Q 24.001 91.101 31.001 91.101 Q 38.401 91.101 42.601 86.851 A 12.864 12.864 0 0 0 45.472 82.204 Q 46.801 78.62 46.801 73.501 L 46.801 29.801 A 26.086 26.086 0 0 0 46.207 24.077 Q 45.265 19.884 42.825 16.813 A 16.48 16.48 0 0 0 42.401 16.301 A 14.432 14.432 0 0 0 32.549 11.302 A 20.274 20.274 0 0 0 30.501 11.201 A 28.775 28.775 0 0 0 26.823 11.424 Q 24.299 11.75 22.251 12.551 Q 18.801 13.901 17.101 16.201 A 9.553 9.553 0 0 1 19.058 15.627 Q 20.266 15.401 21.701 15.401 Q 26.801 15.401 30.401 18.801 Q 33.351 21.588 33.884 26.86 A 24.325 24.325 0 0 1 34.001 29.301 A 16.478 16.478 0 0 1 32.956 35.26 A 14.892 14.892 0 0 1 29.401 40.601 A 15.421 15.421 0 0 1 21.399 44.705 A 22.22 22.22 0 0 1 17.101 45.101 A 20.071 20.071 0 0 1 11.543 44.369 A 15.338 15.338 0 0 1 4.701 40.301 A 16.201 16.201 0 0 1 0.268 31.248 A 22.707 22.707 0 0 1 0.001 27.701 A 32.628 32.628 0 0 1 0.781 20.4 A 24.872 24.872 0 0 1 3.801 12.901 A 24.621 24.621 0 0 1 13.569 3.892 A 29.939 29.939 0 0 1 14.651 3.351 Q 21.701 0.001 31.301 0.001 A 43.739 43.739 0 0 1 40.095 0.83 Q 45.39 1.918 49.443 4.432 A 23.607 23.607 0 0 1 53.601 7.701 Q 61.401 15.401 61.401 29.801 L 61.401 73.501 Q 61.401 87.701 53.501 95.501 A 25.82 25.82 0 0 1 41.863 102.014 Q 37.11 103.301 31.301 103.301 Q 20.412 103.301 13.259 99.161 A 23.812 23.812 0 0 1 8.601 95.651 A 24.609 24.609 0 0 1 2.107 84.55 Q 0.964 80.59 0.75 75.837 A 49.669 49.669 0 0 1 0.701 73.601 Z M 17.001 34.301 A 6.241 6.241 0 0 0 18.326 34.169 Q 19.175 33.985 19.804 33.541 A 3.477 3.477 0 0 0 20.451 32.951 Q 21.601 31.601 21.601 29.701 A 6.493 6.493 0 0 0 21.464 28.325 Q 21.277 27.464 20.834 26.818 A 3.633 3.633 0 0 0 20.301 26.201 A 4.48 4.48 0 0 0 17.733 25.044 A 6.061 6.061 0 0 0 17.001 25.001 A 4.322 4.322 0 0 0 15.543 25.237 A 3.695 3.695 0 0 0 13.951 26.351 Q 12.801 27.701 12.801 29.701 A 6.723 6.723 0 0 0 12.923 31.026 Q 13.077 31.795 13.428 32.383 A 3.411 3.411 0 0 0 14.051 33.151 Q 15.301 34.301 17.001 34.301 Z" vector-effect="non-scaling-stroke"/>
  </g>
  <ellipse style="fill: rgb(216, 216, 216); fill-opacity: 0; paint-order: stroke; stroke: rgb(33, 61, 186); transform-origin: 10.96px 24.189px;" cx="11.253" cy="21.807" rx="5.018" ry="4.529"/>
  <ellipse style="fill: rgb(216, 216, 216); fill-opacity: 0; paint-order: stroke; stroke: rgb(33, 61, 186); transform-origin: 17.978px 22.816px;" cx="18.243" cy="20.659" rx="4.544" ry="4.101"/>
  <ellipse style="fill: rgb(216, 216, 216); fill-opacity: 0; paint-order: stroke; stroke: rgb(33, 61, 186); transform-origin: 23.946px 24.217px;" cx="24.271" cy="21.559" rx="5.595" ry="5.051"/>
  <ellipse style="fill: rgb(216, 216, 216); fill-opacity: 0; paint-order: stroke; stroke: rgb(33, 61, 186); transform-origin: 27.278px 28.721px;" cx="27.603" cy="26.063" rx="5.595" ry="5.051"/>
  <ellipse style="fill: rgb(216, 216, 216); fill-opacity: 0; paint-order: stroke; stroke: rgb(33, 61, 186); transform-origin: 25.855px 37.25px;" cx="26.18" cy="34.592" rx="5.595" ry="5.051"/>
  <ellipse style="fill: rgb(216, 216, 216); fill-opacity: 0; paint-order: stroke; stroke: rgb(33, 61, 186); transform-origin: 17.327px 42.581px;" cx="17.652" cy="39.923" rx="5.595" ry="5.051"/>
  <ellipse style="fill: rgb(216, 216, 216); fill-opacity: 0; paint-order: stroke; stroke: rgb(33, 61, 186); transform-origin: 7.375px 36.776px;" cx="7.7" cy="34.118" rx="5.595" ry="5.051"/>
  <ellipse style="fill: rgb(216, 216, 216); fill-opacity: 0; paint-order: stroke; stroke: rgb(33, 61, 186); transform-origin: 5.902px 30.887px;" cx="6.239" cy="28.135" rx="5.792" ry="5.229"/>
  <ellipse style="fill: rgb(216, 216, 216); fill-opacity: 0; paint-order: stroke; stroke: rgb(33, 61, 186); transform-origin: 7.142px 24.382px;" cx="7.502" cy="21.443" rx="6.186" ry="5.584"/>
  <ellipse style="fill: rgb(216, 216, 216); fill-opacity: 0; paint-order: stroke; stroke: rgb(33, 61, 186); transform-origin: 9.236px 18.576px;" cx="9.596" cy="15.637" rx="6.186" ry="5.584"/>
  <ellipse style="fill: rgb(216, 216, 216); fill-opacity: 0; paint-order: stroke; stroke: rgb(33, 61, 186); transform-origin: 15.762px 12.214px;" cx="16.111" cy="9.359" rx="6.008" ry="5.424"/>
  <ellipse style="fill: rgb(216, 216, 216); fill-opacity: 0; paint-order: stroke; stroke: rgb(33, 61, 186); transform-origin: 26.086px 8.874px;" cx="26.418" cy="6.16" rx="5.712" ry="5.157"/>
  <ellipse style="fill: rgb(216, 216, 216); fill-opacity: 0; paint-order: stroke; stroke: rgb(33, 61, 186); transform-origin: 37.278px 8.838px;" cx="37.613" cy="6.095" rx="5.771" ry="5.21"/>
  <ellipse style="fill: rgb(216, 216, 216); fill-opacity: 0; paint-order: stroke; stroke: rgb(33, 61, 186); transform-origin: 43.422px 11.562px;" cx="43.774" cy="8.678" rx="6.067" ry="5.477"/>
  <ellipse style="fill: rgb(216, 216, 216); fill-opacity: 0; paint-order: stroke; stroke: rgb(33, 61, 186); transform-origin: 48.735px 16.193px;" cx="49.104" cy="13.091" rx="6.363" ry="5.892"/>
  <ellipse style="fill: rgb(216, 216, 216); fill-opacity: 0; paint-order: stroke; stroke: rgb(33, 61, 186); transform-origin: 52.704px 24.307px;" cx="53.073" cy="21.205" rx="6.363" ry="5.892"/>
  <ellipse style="fill: rgb(216, 216, 216); fill-opacity: 0; paint-order: stroke; stroke: rgb(33, 61, 186); transform-origin: 53.562px 30.113px;" cx="53.954" cy="26.822" rx="6.751" ry="6.251"/>
  <ellipse style="fill: rgb(216, 216, 216); fill-opacity: 0; paint-order: stroke; stroke: rgb(33, 61, 186); transform-origin: 53.949px 41.689px;" cx="54.341" cy="38.398" rx="6.751" ry="6.251"/>
  <ellipse style="fill: rgb(216, 216, 216); fill-opacity: 0; paint-order: stroke; stroke: rgb(33, 61, 186); transform-origin: 54.104px 52.85px;" cx="54.496" cy="49.559" rx="6.751" ry="6.251"/>
  <ellipse style="fill: rgb(216, 216, 216); fill-opacity: 0; paint-order: stroke; stroke: rgb(33, 61, 186); transform-origin: 53.949px 63.08px;" cx="54.341" cy="59.789" rx="6.751" ry="6.251"/>
  <ellipse style="fill: rgb(216, 216, 216); fill-opacity: 0; paint-order: stroke; stroke: rgb(33, 61, 186); transform-origin: 53.949px 74.241px;" cx="54.341" cy="70.95" rx="6.751" ry="6.251"/>
  <ellipse style="fill: rgb(216, 216, 216); fill-opacity: 0; paint-order: stroke; stroke: rgb(33, 61, 186); transform-origin: 52.554px 86.951px;" cx="52.946" cy="83.66" rx="6.751" ry="6.251"/>
  <ellipse style="fill: rgb(216, 216, 216); fill-opacity: 0; paint-order: stroke; stroke: rgb(33, 61, 186); transform-origin: 44.959px 96.338px;" cx="45.351" cy="93.047" rx="6.751" ry="6.251"/>
  <ellipse style="fill: rgb(216, 216, 216); fill-opacity: 0; paint-order: stroke; stroke: rgb(33, 61, 186); transform-origin: 35.057px 100.55px;" cx="35.43" cy="97.422" rx="6.416" ry="5.941"/>
  <ellipse style="fill: rgb(216, 216, 216); fill-opacity: 0; paint-order: stroke; stroke: rgb(33, 61, 186); transform-origin: 26.222px 100.24px;" cx="26.595" cy="97.112" rx="6.416" ry="5.941"/>
  <ellipse style="fill: rgb(216, 216, 216); fill-opacity: 0; paint-order: stroke; stroke: rgb(33, 61, 186); transform-origin: 14.818px 95.088px;" cx="15.196" cy="91.92" rx="6.5" ry="6.019"/>
  <ellipse style="fill: rgb(216, 216, 216); fill-opacity: 0; paint-order: stroke; stroke: rgb(33, 61, 186); transform-origin: 8.362px 83.319px;" cx="8.769" cy="79.906" rx="7.002" ry="6.484"/>
  <path d="M 17.296 58.875 L 18.804 61.338 L 15.786 63.116 L 17.296 58.875 Z" style="fill: rgb(216, 216, 216); stroke: rgb(0, 0, 0);"/>
</svg>