<?xml version="1.0" encoding="utf-8"?>
<svg viewBox="0 0 53.701 102.201" width="53.701px" height="102.201px" xmlns="http://www.w3.org/2000/svg">
  <g id="svgGroup" stroke-linecap="round" fill-rule="nonzero" font-size="9pt" stroke="#000" stroke-width="0.25mm" fill="none" style="stroke:#000;stroke-width:0.25mm;fill:none" transform="matrix(1, 0, 0, 1, 1.4210854715202004e-14, 0)">
    <path d="M 21.701 102.201 L 6.301 102.201 L 22.901 71.201 Q 24.901 67.501 27.301 63.651 Q 29.701 59.801 32.201 56.101 A 11.175 11.175 0 0 1 29.248 56.593 A 12.699 12.699 0 0 1 28.801 56.601 Q 20.401 56.601 13.901 53.051 Q 7.401 49.501 3.701 43.151 A 26.996 26.996 0 0 1 0.362 33.404 A 34.9 34.9 0 0 1 0.001 28.301 A 33.013 33.013 0 0 1 0.869 20.571 A 26.226 26.226 0 0 1 3.701 13.451 Q 7.401 7.101 13.901 3.551 A 29.008 29.008 0 0 1 24.472 0.251 A 36.484 36.484 0 0 1 28.801 0.001 A 30.121 30.121 0 0 1 40.512 2.267 A 29 29 0 0 1 43.101 3.501 A 22.476 22.476 0 0 1 49.133 8.137 A 20.163 20.163 0 0 1 52.501 13.201 L 42.101 19.601 A 25.805 25.805 0 0 0 40.039 16.965 Q 38.904 15.705 37.736 14.82 A 11.359 11.359 0 0 0 35.651 13.551 Q 32.301 12.001 28.701 12.001 A 12.963 12.963 0 0 0 23.609 12.973 A 12.223 12.223 0 0 0 18.951 16.501 Q 15.201 21.001 15.201 28.301 A 23.619 23.619 0 0 0 15.667 33.142 Q 16.306 36.191 17.819 38.522 A 13.51 13.51 0 0 0 19.151 40.251 A 13.064 13.064 0 0 0 27.703 44.495 A 18.288 18.288 0 0 0 29.701 44.601 Q 33.101 44.601 36.101 43.001 A 10.802 10.802 0 0 0 38.163 41.532 Q 39.986 39.915 41.881 37.131 A 39.856 39.856 0 0 0 42.301 36.501 L 53.701 42.601 L 21.701 102.201 Z" vector-effect="non-scaling-stroke"/>
  </g>
  <ellipse style="fill: rgb(216, 216, 216); fill-opacity: 0; paint-order: stroke; stroke: rgb(33, 61, 186); transform-origin: 43.181px 14.578px;" cx="43.55" cy="11.578" rx="6.321" ry="5.705"/>
  <ellipse style="fill: rgb(216, 216, 216); fill-opacity: 0; paint-order: stroke; stroke: rgb(33, 61, 186); transform-origin: 34.466px 9.567px;" cx="34.835" cy="6.567" rx="6.321" ry="5.705"/>
  <ellipse style="fill: rgb(216, 216, 216); fill-opacity: 0; paint-order: stroke; stroke: rgb(33, 61, 186); transform-origin: 22.265px 9.893px;" cx="22.634" cy="6.893" rx="6.321" ry="5.705"/>
  <ellipse style="fill: rgb(216, 216, 216); fill-opacity: 0; paint-order: stroke; stroke: rgb(33, 61, 186); transform-origin: 13.659px 14.36px;" cx="14.028" cy="11.36" rx="6.321" ry="5.705"/>
  <ellipse style="fill: rgb(216, 216, 216); fill-opacity: 0; paint-order: stroke; stroke: rgb(33, 61, 186); transform-origin: 9.118px 21.537px;" cx="9.506" cy="18.382" rx="6.647" ry="6"/>
  <ellipse style="fill: rgb(216, 216, 216); fill-opacity: 0; paint-order: stroke; stroke: rgb(33, 61, 186); transform-origin: 6.972px 32.018px;" cx="7.382" cy="28.682" rx="7.028" ry="6.344"/>
  <ellipse style="fill: rgb(216, 216, 216); fill-opacity: 0; paint-order: stroke; stroke: rgb(33, 61, 186); transform-origin: 8.731px 40.822px;" cx="9.125" cy="37.615" rx="6.756" ry="6.098"/>
  <ellipse style="fill: rgb(216, 216, 216); fill-opacity: 0; paint-order: stroke; stroke: rgb(33, 61, 186); transform-origin: 13.743px 48.339px;" cx="14.137" cy="45.132" rx="6.756" ry="6.098"/>
  <ellipse style="fill: rgb(216, 216, 216); fill-opacity: 0; paint-order: stroke; stroke: rgb(33, 61, 186); transform-origin: 22.138px 52.967px;" cx="22.525" cy="49.817" rx="6.635" ry="5.989"/>
  <ellipse style="fill: rgb(216, 216, 216); fill-opacity: 0; paint-order: stroke; stroke: rgb(33, 61, 186); transform-origin: 32.063px 53.425px;" cx="32.439" cy="50.361" rx="6.454" ry="5.826"/>
  <ellipse style="fill: rgb(216, 216, 216); fill-opacity: 0; paint-order: stroke; stroke: rgb(33, 61, 186); transform-origin: 44.591px 47.869px;" cx="44.967" cy="44.805" rx="6.454" ry="5.826"/>
  <ellipse style="fill: rgb(216, 216, 216); fill-opacity: 0; paint-order: stroke; stroke: rgb(33, 61, 186); transform-origin: 39.996px 54.887px;" cx="40.391" cy="51.668" rx="6.781" ry="6.121"/>
  <ellipse style="fill: rgb(216, 216, 216); fill-opacity: 0; paint-order: stroke; stroke: rgb(33, 61, 186); transform-origin: 37.918px 59.893px;" cx="38.299" cy="56.788" rx="6.54" ry="5.903"/>
  <ellipse style="fill: rgb(216, 216, 216); fill-opacity: 0; paint-order: stroke; stroke: rgb(33, 61, 186); transform-origin: 33.414px 68.838px;" cx="33.795" cy="65.733" rx="6.54" ry="5.903"/>
  <ellipse style="fill: rgb(216, 216, 216); fill-opacity: 0; paint-order: stroke; stroke: rgb(33, 61, 186); transform-origin: 28.947px 77.227px;" cx="29.328" cy="74.122" rx="6.54" ry="5.903"/>
  <ellipse style="fill: rgb(216, 216, 216); fill-opacity: 0; paint-order: stroke; stroke: rgb(33, 61, 186); transform-origin: 24.432px 85.567px;" cx="24.813" cy="82.462" rx="6.54" ry="5.903"/>
  <ellipse style="fill: rgb(216, 216, 216); fill-opacity: 0; paint-order: stroke; stroke: rgb(33, 61, 186); transform-origin: 20.401px 92.975px;" cx="20.782" cy="89.87" rx="6.54" ry="5.903"/>
  <ellipse style="fill: rgb(216, 216, 216); fill-opacity: 0; paint-order: stroke; stroke: rgb(33, 61, 186); transform-origin: 16.479px 99.403px;" cx="16.86" cy="96.298" rx="6.54" ry="5.903"/>
  <path d="M 29.433 35.443 L 30.941 37.906 L 27.923 39.684 L 29.433 35.443 Z" style="fill: rgb(216, 216, 216); stroke: rgb(0, 0, 0);" transform="matrix(1, 0, 0, 1, 1.4210854715202004e-14, 0)"/>
</svg>