<?xml version="1.0" encoding="utf-8"?>
<svg viewBox="0 0 59.901 56.601" width="59.901px" height="56.601px" xmlns="http://www.w3.org/2000/svg">
  <ellipse style="fill: rgb(216, 216, 216); fill-opacity: 0; paint-order: stroke; stroke: rgb(33, 61, 186);" cx="12.92" cy="46.534" rx="6.518" ry="6.518" transform="matrix(1, 0, 0, 1, -8.881784197001252e-16, 8.881784197001252e-16)"/>
  <ellipse style="fill: rgb(216, 216, 216); fill-opacity: 0; paint-order: stroke; stroke: rgb(33, 61, 186);" cx="9.75" cy="39.983" rx="6.742" ry="6.742" transform="matrix(1, 0, 0, 1, -1.7763568394002505e-15, 1.7763568394002505e-15)"/>
  <ellipse style="fill: rgb(216, 216, 216); fill-opacity: 0; paint-order: stroke; stroke: rgb(33, 61, 186);" cx="7.774" cy="32.124" rx="6.742" ry="6.742" transform="matrix(1, 0, 0, 1, -1.7763568394002505e-15, 1.7763568394002505e-15)"/>
  <ellipse style="fill: rgb(216, 216, 216); fill-opacity: 0; paint-order: stroke; stroke: rgb(33, 61, 186);" cx="7.774" cy="24.071" rx="6.742" ry="6.742" transform="matrix(1, 0, 0, 1, -1.7763568394002505e-15, 1.7763568394002505e-15)"/>
  <ellipse style="fill: rgb(216, 216, 216); fill-opacity: 0; paint-order: stroke; stroke: rgb(33, 61, 186);" cx="10.458" cy="16.39" rx="6.742" ry="6.742" transform="matrix(1, 0, 0, 1, -1.7763568394002505e-15, 1.7763568394002505e-15)"/>
  <ellipse style="fill: rgb(216, 216, 216); fill-opacity: 0; paint-order: stroke; stroke: rgb(33, 61, 186);" cx="16.164" cy="10.014" rx="5.959" ry="5.959" transform="matrix(1, 0, 0, 1, -1.7763568394002505e-15, 1.7763568394002505e-15)"/>
  <ellipse style="fill: rgb(216, 216, 216); fill-opacity: 0; paint-order: stroke; stroke: rgb(33, 61, 186);" cx="22.577" cy="6.88" rx="5.586" ry="5.586" transform="matrix(1, 0, 0, 1, -1.7763568394002505e-15, 1.7763568394002505e-15)"/>
  <ellipse style="fill: rgb(216, 216, 216); fill-opacity: 0; paint-order: stroke; stroke: rgb(33, 61, 186);" cx="30.669" cy="6.132" rx="5.325" ry="5.325" transform="matrix(1, 0, 0, 1, -1.7763568394002505e-15, 1.7763568394002505e-15)"/>
  <ellipse style="fill: rgb(216, 216, 216); fill-opacity: 0; paint-order: stroke; stroke: rgb(33, 61, 186); transform-origin: 37.79px 6.989px;" cx="37.79" cy="6.989" rx="5.699" ry="5.699"/>
  <ellipse style="fill: rgb(216, 216, 216); fill-opacity: 0; paint-order: stroke; stroke: rgb(33, 61, 186); transform-origin: 44.875px 10.942px;" cx="44.875" cy="10.942" rx="5.96" ry="5.96"/>
  <ellipse style="fill: rgb(216, 216, 216); fill-opacity: 0; paint-order: stroke; stroke: rgb(33, 61, 186); transform-origin: 49.983px 17.019px;" cx="49.983" cy="17.019" rx="6.706" ry="6.706"/>
  <ellipse style="fill: rgb(216, 216, 216); fill-opacity: 0; paint-order: stroke; stroke: rgb(33, 61, 186); transform-origin: 51.847px 23.284px;" cx="51.847" cy="23.284" rx="6.706" ry="6.706"/>
  <ellipse style="fill: rgb(216, 216, 216); fill-opacity: 0; paint-order: stroke; stroke: rgb(33, 61, 186); transform-origin: 52.593px 30.07px;" cx="52.593" cy="30.07" rx="6.706" ry="6.706"/>
  <ellipse style="fill: rgb(216, 216, 216); fill-opacity: 0; paint-order: stroke; stroke: rgb(33, 61, 186); transform-origin: 51.623px 36.681px;" cx="51.623" cy="36.681" rx="6.706" ry="6.706"/>
  <ellipse style="fill: rgb(216, 216, 216); fill-opacity: 0; paint-order: stroke; stroke: rgb(33, 61, 186); transform-origin: 48.64px 42.896px;" cx="48.64" cy="42.896" rx="6.706" ry="6.706"/>
  <ellipse style="fill: rgb(216, 216, 216); fill-opacity: 0; paint-order: stroke; stroke: rgb(33, 61, 186); transform-origin: 46.702px 46.177px;" cx="46.702" cy="46.177" rx="6.706" ry="6.706"/>
  <path d="M 38.201 32.98 L 39.206 35.213 L 37.195 35.213 L 38.201 32.98 Z" style="fill: rgb(216, 216, 216); stroke: rgb(0, 0, 0);" transform="matrix(1, 0, 0, 1, -1.7763568394002505e-15, 1.7763568394002505e-15)"/>
</svg>