<?xml version="1.0" encoding="utf-8"?>
<svg viewBox="0 0 59.901 56.601" width="59.901px" height="56.601px" xmlns="http://www.w3.org/2000/svg">
  <g id="svgGroup" stroke-linecap="round" fill-rule="nonzero" font-size="9pt" stroke="#000" stroke-width="0.25mm" fill="none" style="stroke:#000;stroke-width:0.25mm;fill:none" transform="matrix(1, 0, 0, 1, -8.881784197001252e-16, -4.440892098500626e-16)">
    <path d="M 22.101 44.601 L 14.601 56.601 Q 8.201 52.901 4.101 45.751 A 29.84 29.84 0 0 1 0.8 36.78 Q 0.051 33.093 0.004 28.867 A 51.103 51.103 0 0 1 0.001 28.301 A 32.516 32.516 0 0 1 0.909 20.454 A 25.995 25.995 0 0 1 3.751 13.451 Q 7.501 7.101 14.251 3.551 A 30.484 30.484 0 0 1 23.823 0.459 A 40.128 40.128 0 0 1 30.001 0.001 Q 39.101 0.001 45.801 3.551 Q 52.501 7.101 56.201 13.451 A 26.996 26.996 0 0 1 59.539 23.198 A 34.9 34.9 0 0 1 59.901 28.301 A 43.224 43.224 0 0 1 59.224 36.149 Q 58.235 41.505 55.801 45.751 A 31.19 31.19 0 0 1 50.628 52.539 A 26.517 26.517 0 0 1 45.301 56.601 L 37.801 44.601 Q 41.701 40.801 43.201 36.851 A 23.357 23.357 0 0 0 44.66 29.792 A 27.278 27.278 0 0 0 44.701 28.301 Q 44.701 20.901 40.601 16.451 A 13.603 13.603 0 0 0 31.141 12.041 A 18.566 18.566 0 0 0 29.901 12.001 A 15.517 15.517 0 0 0 24.829 12.795 A 13.057 13.057 0 0 0 19.251 16.551 A 15.732 15.732 0 0 0 15.53 24.41 A 22.043 22.043 0 0 0 15.201 28.301 A 25.645 25.645 0 0 0 15.729 33.6 A 21.576 21.576 0 0 0 16.701 36.901 A 17.954 17.954 0 0 0 18.717 40.655 Q 20.09 42.641 22.101 44.601 Z" vector-effect="non-scaling-stroke"/>
  </g>
  <ellipse style="fill: rgb(216, 216, 216); fill-opacity: 0; paint-order: stroke; stroke: rgb(33, 61, 186);" cx="13.889" cy="46.832" rx="6.518" ry="6.518" transform="matrix(1, 0, 0, 1, -8.881784197001252e-16, -4.440892098500626e-16)"/>
  <ellipse style="fill: rgb(216, 216, 216); fill-opacity: 0; paint-order: stroke; stroke: rgb(33, 61, 186);" cx="11.54" cy="43.339" rx="6.779" ry="6.779" transform="matrix(1, 0, 0, 1, -8.881784197001252e-16, -4.440892098500626e-16)"/>
  <ellipse style="fill: rgb(216, 216, 216); fill-opacity: 0; paint-order: stroke; stroke: rgb(33, 61, 186);" cx="9.75" cy="39.983" rx="6.742" ry="6.742" transform="matrix(1, 0, 0, 1, -8.881784197001252e-16, -4.440892098500626e-16)"/>
  <ellipse style="fill: rgb(216, 216, 216); fill-opacity: 0; paint-order: stroke; stroke: rgb(33, 61, 186);" cx="8.445" cy="35.92" rx="6.742" ry="6.742" transform="matrix(1, 0, 0, 1, -8.881784197001252e-16, -4.440892098500626e-16)"/>
  <ellipse style="fill: rgb(216, 216, 216); fill-opacity: 0; paint-order: stroke; stroke: rgb(33, 61, 186);" cx="7.774" cy="32.124" rx="6.742" ry="6.742" transform="matrix(1, 0, 0, 1, -8.881784197001252e-16, -4.440892098500626e-16)"/>
  <ellipse style="fill: rgb(216, 216, 216); fill-opacity: 0; paint-order: stroke; stroke: rgb(33, 61, 186);" cx="7.476" cy="27.873" rx="6.742" ry="6.742" transform="matrix(1, 0, 0, 1, -8.881784197001252e-16, -4.440892098500626e-16)"/>
  <ellipse style="fill: rgb(216, 216, 216); fill-opacity: 0; paint-order: stroke; stroke: rgb(33, 61, 186);" cx="7.774" cy="24.071" rx="6.742" ry="6.742" transform="matrix(1, 0, 0, 1, -8.881784197001252e-16, -4.440892098500626e-16)"/>
  <ellipse style="fill: rgb(216, 216, 216); fill-opacity: 0; paint-order: stroke; stroke: rgb(33, 61, 186);" cx="8.818" cy="20.193" rx="6.742" ry="6.742" transform="matrix(1, 0, 0, 1, -8.881784197001252e-16, -4.440892098500626e-16)"/>
  <ellipse style="fill: rgb(216, 216, 216); fill-opacity: 0; paint-order: stroke; stroke: rgb(33, 61, 186);" cx="10.458" cy="16.39" rx="6.742" ry="6.742" transform="matrix(1, 0, 0, 1, -8.881784197001252e-16, -4.440892098500626e-16)"/>
  <ellipse style="fill: rgb(216, 216, 216); fill-opacity: 0; paint-order: stroke; stroke: rgb(33, 61, 186);" cx="13.592" cy="12.437" rx="6.295" ry="6.295" transform="matrix(1, 0, 0, 1, -8.881784197001252e-16, -4.440892098500626e-16)"/>
  <ellipse style="fill: rgb(216, 216, 216); fill-opacity: 0; paint-order: stroke; stroke: rgb(33, 61, 186);" cx="16.164" cy="10.014" rx="5.959" ry="5.959" transform="matrix(1, 0, 0, 1, -8.881784197001252e-16, -4.440892098500626e-16)"/>
  <ellipse style="fill: rgb(216, 216, 216); fill-opacity: 0; paint-order: stroke; stroke: rgb(33, 61, 186);" cx="19.445" cy="8.149" rx="5.81" ry="5.81" transform="matrix(1, 0, 0, 1, -8.881784197001252e-16, -4.440892098500626e-16)"/>
  <ellipse style="fill: rgb(216, 216, 216); fill-opacity: 0; paint-order: stroke; stroke: rgb(33, 61, 186);" cx="22.577" cy="6.88" rx="5.586" ry="5.586" transform="matrix(1, 0, 0, 1, -8.881784197001252e-16, -4.440892098500626e-16)"/>
  <ellipse style="fill: rgb(216, 216, 216); fill-opacity: 0; paint-order: stroke; stroke: rgb(33, 61, 186);" cx="26.418" cy="6.281" rx="5.549" ry="5.549" transform="matrix(1, 0, 0, 1, -8.881784197001252e-16, -4.440892098500626e-16)"/>
  <ellipse style="fill: rgb(216, 216, 216); fill-opacity: 0; paint-order: stroke; stroke: rgb(33, 61, 186);" cx="30.669" cy="6.132" rx="5.325" ry="5.325" transform="matrix(1, 0, 0, 1, -8.881784197001252e-16, -4.440892098500626e-16)"/>
  <ellipse style="fill: rgb(216, 216, 216); fill-opacity: 0; paint-order: stroke; stroke: rgb(33, 61, 186);" cx="34.212" cy="6.32" rx="5.363" ry="5.363" transform="matrix(1, 0, 0, 1, -8.881784197001252e-16, -4.440892098500626e-16)"/>
  <ellipse style="fill: rgb(216, 216, 216); fill-opacity: 0; paint-order: stroke; stroke: rgb(33, 61, 186); transform-origin: 37.79px 6.989px;" cx="37.79" cy="6.989" rx="5.699" ry="5.699"/>
  <ellipse style="fill: rgb(216, 216, 216); fill-opacity: 0; paint-order: stroke; stroke: rgb(33, 61, 186); transform-origin: 41.481px 8.816px;" cx="41.481" cy="8.816" rx="5.699" ry="5.699"/>
  <ellipse style="fill: rgb(216, 216, 216); fill-opacity: 0; paint-order: stroke; stroke: rgb(33, 61, 186); transform-origin: 44.875px 10.942px;" cx="44.875" cy="10.942" rx="5.96" ry="5.96"/>
  <ellipse style="fill: rgb(216, 216, 216); fill-opacity: 0; paint-order: stroke; stroke: rgb(33, 61, 186); transform-origin: 48.044px 13.962px;" cx="48.044" cy="13.962" rx="6.333" ry="6.333"/>
  <ellipse style="fill: rgb(216, 216, 216); fill-opacity: 0; paint-order: stroke; stroke: rgb(33, 61, 186); transform-origin: 49.983px 17.019px;" cx="49.983" cy="17.019" rx="6.706" ry="6.706"/>
  <ellipse style="fill: rgb(216, 216, 216); fill-opacity: 0; paint-order: stroke; stroke: rgb(33, 61, 186); transform-origin: 51.102px 20.003px;" cx="51.102" cy="20.003" rx="6.706" ry="6.706"/>
  <ellipse style="fill: rgb(216, 216, 216); fill-opacity: 0; paint-order: stroke; stroke: rgb(33, 61, 186); transform-origin: 51.847px 23.284px;" cx="51.847" cy="23.284" rx="6.706" ry="6.706"/>
  <ellipse style="fill: rgb(216, 216, 216); fill-opacity: 0; paint-order: stroke; stroke: rgb(33, 61, 186); transform-origin: 52.443px 26.564px;" cx="52.443" cy="26.564" rx="6.706" ry="6.706"/>
  <ellipse style="fill: rgb(216, 216, 216); fill-opacity: 0; paint-order: stroke; stroke: rgb(33, 61, 186); transform-origin: 52.593px 30.07px;" cx="52.593" cy="30.07" rx="6.706" ry="6.706"/>
  <ellipse style="fill: rgb(216, 216, 216); fill-opacity: 0; paint-order: stroke; stroke: rgb(33, 61, 186); transform-origin: 52.22px 33.475px;" cx="52.22" cy="33.475" rx="6.706" ry="6.706"/>
  <ellipse style="fill: rgb(216, 216, 216); fill-opacity: 0; paint-order: stroke; stroke: rgb(33, 61, 186); transform-origin: 51.623px 36.681px;" cx="51.623" cy="36.681" rx="6.706" ry="6.706"/>
  <ellipse style="fill: rgb(216, 216, 216); fill-opacity: 0; paint-order: stroke; stroke: rgb(33, 61, 186); transform-origin: 50.132px 40.584px;" cx="50.132" cy="40.584" rx="6.706" ry="6.706"/>
  <ellipse style="fill: rgb(216, 216, 216); fill-opacity: 0; paint-order: stroke; stroke: rgb(33, 61, 186); transform-origin: 48.64px 42.896px;" cx="48.64" cy="42.896" rx="6.706" ry="6.706"/>
  <ellipse style="fill: rgb(216, 216, 216); fill-opacity: 0; paint-order: stroke; stroke: rgb(33, 61, 186); transform-origin: 47.596px 44.761px;" cx="47.596" cy="44.761" rx="6.706" ry="6.706"/>
  <ellipse style="fill: rgb(216, 216, 216); fill-opacity: 0; paint-order: stroke; stroke: rgb(33, 61, 186); transform-origin: 46.702px 46.177px;" cx="46.702" cy="46.177" rx="6.706" ry="6.706"/>
  <path d="M 38.201 32.98 L 39.206 35.213 L 37.195 35.213 L 38.201 32.98 Z" style="fill: rgb(216, 216, 216); stroke: rgb(0, 0, 0);" transform="matrix(1, 0, 0, 1, -8.881784197001252e-16, -4.440892098500626e-16)"/>
</svg>