<?xml version="1.0" encoding="utf-8"?>
<svg viewBox="0 0 103.401 56.701" width="103.401px" height="56.701px" xmlns="http://www.w3.org/2000/svg">
  <g id="svgGroup" stroke-linecap="round" fill-rule="nonzero" font-size="9pt" stroke="#000" stroke-width="0.25mm" fill="none" style="stroke:#000;stroke-width:0.25mm;fill:none" transform="matrix(0.9999999999999999, 0, 0, 0.9999999999999999, 0, -8.881784197001252e-16)">
    <path d="M 7.5 16.1 L 0 8.4 Q 2.8 4.2 6.8 2.1 Q 10.8 0 15.4 0 Q 20.393 0 23.707 1.807 A 11.129 11.129 0 0 1 26.1 3.551 A 11.873 11.873 0 0 1 29.762 11.584 A 16.055 16.055 0 0 1 29.8 12.701 A 15.34 15.34 0 0 1 29.258 16.852 A 12.888 12.888 0 0 1 27.85 20.101 A 21.793 21.793 0 0 1 25.21 23.558 A 29.311 29.311 0 0 1 22.4 26.201 A 34.047 34.047 0 0 0 20.81 27.559 Q 19.283 28.955 18.454 30.136 A 8.216 8.216 0 0 0 18.15 30.601 A 7.744 7.744 0 0 0 17.19 33.139 A 10.675 10.675 0 0 0 17 35.2 A 8.013 8.013 0 0 0 19.36 40.9 A 11.659 11.659 0 0 0 20.45 41.901 A 12.299 12.299 0 0 0 26.031 44.42 A 17.146 17.146 0 0 0 29.2 44.701 A 20.579 20.579 0 0 0 34.171 44.134 A 14.081 14.081 0 0 0 41 40.301 Q 45.3 35.9 45.3 28.5 Q 45.3 23.9 43.55 19.7 A 16.22 16.22 0 0 0 40.711 15.229 Q 39.269 13.588 37.3 12.1 L 44.7 0.1 A 28.515 28.515 0 0 1 53.356 8.192 A 34.715 34.715 0 0 1 54.95 10.651 A 26.684 26.684 0 0 1 57.789 17.71 Q 59 22.485 59 28.5 Q 59 32.1 58.4 35.3 A 17.732 17.732 0 0 0 63.612 41.513 A 21.099 21.099 0 0 0 64.35 42.05 A 15.108 15.108 0 0 0 70.448 44.504 A 20.475 20.475 0 0 0 74 44.801 A 14.641 14.641 0 0 0 78.844 44.033 A 12.317 12.317 0 0 0 84.35 40.15 A 16.57 16.57 0 0 0 87.944 31.954 A 22.499 22.499 0 0 0 88.2 28.5 A 25.285 25.285 0 0 0 87.823 23.994 Q 87.365 21.468 86.35 19.458 A 12.881 12.881 0 0 0 84.7 16.95 A 11.299 11.299 0 0 0 76.463 12.831 A 14.917 14.917 0 0 0 75.5 12.8 A 26.588 26.588 0 0 0 74.082 12.836 Q 73.411 12.872 72.837 12.944 A 11.145 11.145 0 0 0 71.9 13.1 A 14.687 14.687 0 0 0 71.01 13.325 Q 70.137 13.57 68.947 13.987 A 67.787 67.787 0 0 0 67.8 14.401 L 62.8 3.3 A 12.939 12.939 0 0 1 64.344 2.483 Q 65.157 2.116 66.104 1.803 A 22.696 22.696 0 0 1 66.75 1.6 Q 69.1 0.9 71.55 0.5 A 34.158 34.158 0 0 1 73.588 0.227 Q 74.521 0.132 75.355 0.108 A 19.18 19.18 0 0 1 75.9 0.1 A 29.213 29.213 0 0 1 84.466 1.32 A 25.582 25.582 0 0 1 90 3.751 Q 96.2 7.4 99.8 13.8 A 28.06 28.06 0 0 1 103.175 24.468 A 35.266 35.266 0 0 1 103.4 28.5 A 34.774 34.774 0 0 1 102.651 35.892 A 26.138 26.138 0 0 1 99.75 43.5 Q 96.1 49.8 89.45 53.25 A 30.003 30.003 0 0 1 80.725 56.131 A 40.33 40.33 0 0 1 73.8 56.701 A 39.096 39.096 0 0 1 68.187 56.321 Q 65.26 55.896 62.819 54.994 A 20.412 20.412 0 0 1 60.55 54.001 A 32.703 32.703 0 0 1 56.672 51.675 Q 54.68 50.272 53.193 48.696 A 18.527 18.527 0 0 1 52.4 47.8 A 25.594 25.594 0 0 1 39.865 55.342 Q 35.722 56.488 30.764 56.667 A 51.658 51.658 0 0 1 28.9 56.701 A 41.761 41.761 0 0 1 21.669 56.102 A 31.738 31.738 0 0 1 14.9 54.15 Q 8.8 51.6 5.35 46.95 Q 1.9 42.3 1.9 36.1 A 18.713 18.713 0 0 1 2.339 31.958 A 14.651 14.651 0 0 1 3.9 27.901 Q 5.9 24.4 9.3 21.5 Q 11.855 19.358 13.493 18.132 A 36.775 36.775 0 0 1 14.15 17.65 A 5.577 5.577 0 0 0 15.015 16.899 Q 15.484 16.39 15.704 15.832 A 2.784 2.784 0 0 0 15.9 14.801 A 1.756 1.756 0 0 0 15.733 14.008 Q 15.366 13.272 14.192 13.133 A 5.041 5.041 0 0 0 13.6 13.101 Q 12 13.1 10.4 14.05 Q 8.8 15 7.5 16.1 Z" vector-effect="non-scaling-stroke"/>
  </g>
  <ellipse style="fill: rgb(216, 216, 216); fill-opacity: 0; paint-order: stroke; stroke: rgb(33, 61, 186);" cx="8.258" cy="8.581" rx="5.25" ry="5.25" transform="matrix(0.9999999999999999, 0, 0, 0.9999999999999999, 0, -8.881784197001252e-16)"/>
  <ellipse style="fill: rgb(216, 216, 216); fill-opacity: 0; paint-order: stroke; stroke: rgb(33, 61, 186);" cx="9.714" cy="7.702" rx="5.575" ry="5.575" transform="matrix(0.9999999999999999, 0, 0, 0.9999999999999999, 0, -8.881784197001252e-16)"/>
  <ellipse style="fill: rgb(216, 216, 216); fill-opacity: 0; paint-order: stroke; stroke: rgb(33, 61, 186);" cx="13.22" cy="6.404" rx="5.575" ry="5.575" transform="matrix(0.9999999999999999, 0, 0, 0.9999999999999999, 0, -8.881784197001252e-16)"/>
  <ellipse style="fill: rgb(216, 216, 216); fill-opacity: 0; paint-order: stroke; stroke: rgb(33, 61, 186);" cx="17.569" cy="6.468" rx="5.575" ry="5.575" transform="matrix(0.9999999999999999, 0, 0, 0.9999999999999999, 0, -8.881784197001252e-16)"/>
  <ellipse style="fill: rgb(216, 216, 216); fill-opacity: 0; paint-order: stroke; stroke: rgb(33, 61, 186);" cx="21.139" cy="8.87" rx="5.575" ry="5.575" transform="matrix(0.9999999999999999, 0, 0, 0.9999999999999999, 0, -8.881784197001252e-16)"/>
  <ellipse style="fill: rgb(216, 216, 216); fill-opacity: 0; paint-order: stroke; stroke: rgb(33, 61, 186);" cx="22.633" cy="11.749" rx="5.575" ry="5.575" transform="matrix(0.9999999999999999, 0, 0, 0.9999999999999999, 0, -8.881784197001252e-16)"/>
  <ellipse style="fill: rgb(216, 216, 216); fill-opacity: 0; paint-order: stroke; stroke: rgb(33, 61, 186);" cx="22.698" cy="15.659" rx="5.575" ry="5.575" transform="matrix(0.9999999999999999, 0, 0, 0.9999999999999999, 0, -8.881784197001252e-16)"/>
  <ellipse style="fill: rgb(216, 216, 216); fill-opacity: 0; paint-order: stroke; stroke: rgb(33, 61, 186);" cx="21.27" cy="18.775" rx="5.575" ry="5.575" transform="matrix(0.9999999999999999, 0, 0, 0.9999999999999999, 0, -8.881784197001252e-16)"/>
  <ellipse style="fill: rgb(216, 216, 216); fill-opacity: 0; paint-order: stroke; stroke: rgb(33, 61, 186);" cx="18.77" cy="21.578" rx="5.153" ry="5.153" transform="matrix(0.9999999999999999, 0, 0, 0.9999999999999999, 0, -8.881784197001252e-16)"/>
  <ellipse style="fill: rgb(216, 216, 216); fill-opacity: 0; paint-order: stroke; stroke: rgb(33, 61, 186);" cx="16.466" cy="23.688" rx="5.575" ry="5.575" transform="matrix(0.9999999999999999, 0, 0, 0.9999999999999999, 0, -8.881784197001252e-16)"/>
  <ellipse style="fill: rgb(216, 216, 216); fill-opacity: 0; paint-order: stroke; stroke: rgb(33, 61, 186);" cx="13.348" cy="26.479" rx="5.575" ry="5.575" transform="matrix(0.9999999999999999, 0, 0, 0.9999999999999999, 0, -8.881784197001252e-16)"/>
  <ellipse style="fill: rgb(216, 216, 216); fill-opacity: 0; paint-order: stroke; stroke: rgb(33, 61, 186);" cx="11.726" cy="29.249" rx="5.575" ry="5.575" transform="matrix(0.9999999999999999, 0, 0, 0.9999999999999999, 0, -8.881784197001252e-16)"/>
  <ellipse style="fill: rgb(216, 216, 216); fill-opacity: 0; paint-order: stroke; stroke: rgb(33, 61, 186);" cx="9.648" cy="33.232" rx="6.614" ry="6.614" transform="matrix(0.9999999999999999, 0, 0, 0.9999999999999999, 0, -8.881784197001252e-16)"/>
  <ellipse style="fill: rgb(216, 216, 216); fill-opacity: 0; paint-order: stroke; stroke: rgb(33, 61, 186);" cx="9.486" cy="36.792" rx="6.841" ry="6.841" transform="matrix(0.9999999999999999, 0, 0, 0.9999999999999999, 0, -8.881784197001252e-16)"/>
  <ellipse style="fill: rgb(216, 216, 216); fill-opacity: 0; paint-order: stroke; stroke: rgb(33, 61, 186);" cx="10.083" cy="40.31" rx="6.841" ry="6.841" transform="matrix(0.9999999999999999, 0, 0, 0.9999999999999999, 0, -8.881784197001252e-16)"/>
  <ellipse style="fill: rgb(216, 216, 216); fill-opacity: 0; paint-order: stroke; stroke: rgb(33, 61, 186);" cx="12.034" cy="43.291" rx="6.841" ry="6.841" transform="matrix(0.9999999999999999, 0, 0, 0.9999999999999999, 0, -8.881784197001252e-16)"/>
  <ellipse style="fill: rgb(216, 216, 216); fill-opacity: 0; paint-order: stroke; stroke: rgb(33, 61, 186);" cx="15.494" cy="46.854" rx="6.169" ry="6.169" transform="matrix(0.9999999999999999, 0, 0, 0.9999999999999999, 0, -8.881784197001252e-16)"/>
  <ellipse style="fill: rgb(216, 216, 216); fill-opacity: 0; paint-order: stroke; stroke: rgb(33, 61, 186);" cx="19.936" cy="49.129" rx="5.55" ry="5.55" transform="matrix(0.9999999999999999, 0, 0, 0.9999999999999999, 0, -8.881784197001252e-16)"/>
  <ellipse style="fill: rgb(216, 216, 216); fill-opacity: 0; paint-order: stroke; stroke: rgb(33, 61, 186);" cx="23.811" cy="50.006" rx="5.55" ry="5.55" transform="matrix(0.9999999999999999, 0, 0, 0.9999999999999999, 0, -8.881784197001252e-16)"/>
  <ellipse style="fill: rgb(216, 216, 216); fill-opacity: 0; paint-order: stroke; stroke: rgb(33, 61, 186);" cx="28.099" cy="50.552" rx="5.395" ry="5.395" transform="matrix(0.9999999999999999, 0, 0, 0.9999999999999999, 0, -8.881784197001252e-16)"/>
  <path d="M 69.179 21.01 L 70.184 23.243 L 68.173 23.243 L 69.179 21.01 Z" style="fill: rgb(216, 216, 216); stroke: rgb(0, 0, 0);" transform="matrix(0.9999999999999999, 0, 0, 0.9999999999999999, 0, -8.881784197001252e-16)"/>
  <ellipse style="fill: rgb(216, 216, 216); fill-opacity: 0; paint-order: stroke; stroke: rgb(0, 169, 89);" cx="46.39" cy="9.958" rx="6.438" ry="6.438" transform="matrix(0.9999999999999999, 0, 0, 0.9999999999999999, 0, -8.881784197001252e-16)"/>
  <ellipse style="fill: rgb(216, 216, 216); fill-opacity: 0; paint-order: stroke; stroke: rgb(0, 169, 89);" cx="47.427" cy="11.756" rx="6.438" ry="6.438" transform="matrix(0.9999999999999999, 0, 0, 0.9999999999999999, 0, -8.881784197001252e-16)"/>
  <ellipse style="fill: rgb(216, 216, 216); fill-opacity: 0; paint-order: stroke; stroke: rgb(0, 169, 89);" cx="48.977" cy="14.133" rx="6.438" ry="6.438" transform="matrix(0.9999999999999999, 0, 0, 0.9999999999999999, 0, -8.881784197001252e-16)"/>
  <ellipse style="fill: rgb(216, 216, 216); fill-opacity: 0; paint-order: stroke; stroke: rgb(0, 169, 89);" cx="50.217" cy="17.21" rx="6.438" ry="6.438" transform="matrix(0.9999999999999999, 0, 0, 0.9999999999999999, 0, -8.881784197001252e-16)"/>
  <ellipse style="fill: rgb(216, 216, 216); fill-opacity: 0; paint-order: stroke; stroke: rgb(0, 169, 89);" cx="51.56" cy="21.089" rx="6.438" ry="6.438" transform="matrix(0.9999999999999999, 0, 0, 0.9999999999999999, 0, -8.881784197001252e-16)"/>
  <ellipse style="fill: rgb(216, 216, 216); fill-opacity: 0; paint-order: stroke; stroke: rgb(0, 169, 89);" cx="51.87" cy="24.189" rx="6.438" ry="6.438" transform="matrix(0.9999999999999999, 0, 0, 0.9999999999999999, 0, -8.881784197001252e-16)"/>
  <ellipse style="fill: rgb(216, 216, 216); fill-opacity: 0; paint-order: stroke; stroke: rgb(0, 169, 89);" cx="52.283" cy="27.392" rx="6.438" ry="6.438" transform="matrix(0.9999999999999999, 0, 0, 0.9999999999999999, 0, -8.881784197001252e-16)"/>
  <ellipse style="fill: rgb(216, 216, 216); fill-opacity: 0; paint-order: stroke; stroke: rgb(0, 169, 89);" cx="52.18" cy="30.445" rx="6.438" ry="6.438" transform="matrix(0.9999999999999999, 0, 0, 0.9999999999999999, 0, -8.881784197001252e-16)"/>
  <ellipse style="fill: rgb(216, 216, 216); fill-opacity: 0; paint-order: stroke; stroke: rgb(0, 169, 89);" cx="51.973" cy="33.338" rx="6.438" ry="6.438" transform="matrix(0.9999999999999999, 0, 0, 0.9999999999999999, 0, -8.881784197001252e-16)"/>
  <ellipse style="fill: rgb(216, 216, 216); fill-opacity: 0; paint-order: stroke; stroke: rgb(0, 169, 89);" cx="51.043" cy="36.644" rx="6.438" ry="6.438" transform="matrix(0.9999999999999999, 0, 0, 0.9999999999999999, 0, -8.881784197001252e-16)"/>
  <ellipse style="fill: rgb(216, 216, 216); fill-opacity: 0; paint-order: stroke; stroke: rgb(0, 169, 89);" cx="49.493" cy="40.57" rx="6.438" ry="6.438" transform="matrix(0.9999999999999999, 0, 0, 0.9999999999999999, 0, -8.881784197001252e-16)"/>
  <ellipse style="fill: rgb(216, 216, 216); fill-opacity: 0; paint-order: stroke; stroke: rgb(0, 169, 89);" cx="46.808" cy="43.635" rx="6.438" ry="6.438" transform="matrix(0.9999999999999999, 0, 0, 0.9999999999999999, 0, -8.881784197001252e-16)"/>
  <ellipse style="fill: rgb(216, 216, 216); fill-opacity: 0; paint-order: stroke; stroke: rgb(0, 169, 89);" cx="44.121" cy="46.218" rx="6.025" ry="6.025" transform="matrix(0.9999999999999999, 0, 0, 0.9999999999999999, 0, -8.881784197001252e-16)"/>
  <ellipse style="fill: rgb(216, 216, 216); fill-opacity: 0; paint-order: stroke; stroke: rgb(0, 169, 89);" cx="41.023" cy="48.067" rx="5.715" ry="5.715" transform="matrix(0.9999999999999999, 0, 0, 0.9999999999999999, 0, -8.881784197001252e-16)"/>
  <ellipse style="fill: rgb(216, 216, 216); fill-opacity: 0; paint-order: stroke; stroke: rgb(0, 169, 89);" cx="37.096" cy="49.605" rx="5.302" ry="5.302" transform="matrix(0.9999999999999999, 0, 0, 0.9999999999999999, 0, -8.881784197001252e-16)"/>
  <ellipse style="fill: rgb(216, 216, 216); fill-opacity: 0; paint-order: stroke; stroke: rgb(0, 169, 89);" cx="33.634" cy="50.357" rx="5.353" ry="5.353" transform="matrix(0.9999999999999999, 0, 0, 0.9999999999999999, 0, -8.881784197001252e-16)"/>
  <ellipse style="fill: rgb(216, 216, 216); fill-opacity: 0; paint-order: stroke; stroke: rgb(0, 169, 89);" cx="28.314" cy="50.614" rx="5.611" ry="5.611" transform="matrix(0.9999999999999999, 0, 0, 0.9999999999999999, 0, -8.881784197001252e-16)"/>
  <path d="M 75.662 23.772 L 76.667 26.005 L 74.656 26.005 L 75.662 23.772 Z" style="fill: rgb(216, 216, 216); stroke: rgb(0, 0, 0);" transform="matrix(0.9999999999999999, 0, 0, 0.9999999999999999, 0, -8.881784197001252e-16)"/>
  <ellipse style="fill: rgb(216, 216, 216); fill-opacity: 0; paint-order: stroke; stroke: rgb(169, 0, 137);" cx="71.341" cy="6.755" rx="5.718" ry="5.718" transform="matrix(0.9999999999999999, 0, 0, 0.9999999999999999, 0, -8.881784197001252e-16)"/>
  <ellipse style="fill: rgb(216, 216, 216); fill-opacity: 0; paint-order: stroke; stroke: rgb(169, 0, 137);" cx="73.381" cy="6.545" rx="5.718" ry="5.718" transform="matrix(0.9999999999999999, 0, 0, 0.9999999999999999, 0, -8.881784197001252e-16)"/>
  <ellipse style="fill: rgb(216, 216, 216); fill-opacity: 0; paint-order: stroke; stroke: rgb(169, 0, 137);" cx="77.223" cy="6.305" rx="5.718" ry="5.718" transform="matrix(0.9999999999999999, 0, 0, 0.9999999999999999, 0, -8.881784197001252e-16)"/>
  <ellipse style="fill: rgb(216, 216, 216); fill-opacity: 0; paint-order: stroke; stroke: rgb(169, 0, 137);" cx="80.944" cy="7.145" rx="5.718" ry="5.718" transform="matrix(0.9999999999999999, 0, 0, 0.9999999999999999, 0, -8.881784197001252e-16)"/>
  <ellipse style="fill: rgb(216, 216, 216); fill-opacity: 0; paint-order: stroke; stroke: rgb(169, 0, 137);" cx="85.147" cy="8.8" rx="5.718" ry="5.718" transform="matrix(0.9999999999999999, 0, 0, 0.9999999999999999, 0, -8.881784197001252e-16)"/>
  <ellipse style="fill: rgb(216, 216, 216); fill-opacity: 0; paint-order: stroke; stroke: rgb(169, 0, 137);" cx="87.909" cy="10.48" rx="5.718" ry="5.718" transform="matrix(0.9999999999999999, 0, 0, 0.9999999999999999, 0, -8.881784197001252e-16)"/>
  <ellipse style="fill: rgb(216, 216, 216); fill-opacity: 0; paint-order: stroke; stroke: rgb(169, 0, 137);" cx="90.971" cy="13.422" rx="6.258" ry="6.258" transform="matrix(0.9999999999999999, 0, 0, 0.9999999999999999, 0, -8.881784197001252e-16)"/>
  <ellipse style="fill: rgb(216, 216, 216); fill-opacity: 0; paint-order: stroke; stroke: rgb(169, 0, 137);" cx="93.371" cy="16.97" rx="6.258" ry="6.258" transform="matrix(0.9999999999999999, 0, 0, 0.9999999999999999, 0, -8.881784197001252e-16)"/>
  <ellipse style="fill: rgb(216, 216, 216); fill-opacity: 0; paint-order: stroke; stroke: rgb(169, 0, 137);" cx="95.112" cy="21.113" rx="6.558" ry="6.558" transform="matrix(0.9999999999999999, 0, 0, 0.9999999999999999, 0, -8.881784197001252e-16)"/>
  <ellipse style="fill: rgb(216, 216, 216); fill-opacity: 0; paint-order: stroke; stroke: rgb(169, 0, 137);" cx="95.233" cy="24.595" rx="6.679" ry="6.679" transform="matrix(0.9999999999999999, 0, 0, 0.9999999999999999, 0, -8.881784197001252e-16)"/>
  <ellipse style="fill: rgb(216, 216, 216); fill-opacity: 0; paint-order: stroke; stroke: rgb(169, 0, 137);" cx="95.713" cy="29.585" rx="6.919" ry="6.919" transform="matrix(0.9999999999999999, 0, 0, 0.9999999999999999, 0, -8.881784197001252e-16)"/>
  <ellipse style="fill: rgb(216, 216, 216); fill-opacity: 0; paint-order: stroke; stroke: rgb(169, 0, 137);" cx="95.113" cy="33.64" rx="6.919" ry="6.919" transform="matrix(0.9999999999999999, 0, 0, 0.9999999999999999, 0, -8.881784197001252e-16)"/>
  <ellipse style="fill: rgb(216, 216, 216); fill-opacity: 0; paint-order: stroke; stroke: rgb(169, 0, 137);" cx="93.911" cy="38.202" rx="6.919" ry="6.919" transform="matrix(0.9999999999999999, 0, 0, 0.9999999999999999, 0, -8.881784197001252e-16)"/>
  <ellipse style="fill: rgb(216, 216, 216); fill-opacity: 0; paint-order: stroke; stroke: rgb(169, 0, 137);" cx="91.51" cy="42.496" rx="6.318" ry="6.318" transform="matrix(0.9999999999999999, 0, 0, 0.9999999999999999, 0, -8.881784197001252e-16)"/>
  <ellipse style="fill: rgb(216, 216, 216); fill-opacity: 0; paint-order: stroke; stroke: rgb(169, 0, 137);" cx="88.989" cy="45.366" rx="6.318" ry="6.318" transform="matrix(0.9999999999999999, 0, 0, 0.9999999999999999, 0, -8.881784197001252e-16)"/>
  <ellipse style="fill: rgb(216, 216, 216); fill-opacity: 0; paint-order: stroke; stroke: rgb(169, 0, 137);" cx="85.807" cy="48.068" rx="5.898" ry="5.898" transform="matrix(0.9999999999999999, 0, 0, 0.9999999999999999, 0, -8.881784197001252e-16)"/>
  <ellipse style="fill: rgb(216, 216, 216); fill-opacity: 0; paint-order: stroke; stroke: rgb(169, 0, 137);" cx="81.126" cy="49.629" rx="5.418" ry="5.418" transform="matrix(0.9999999999999999, 0, 0, 0.9999999999999999, 0, -8.881784197001252e-16)"/>
  <ellipse style="fill: rgb(216, 216, 216); fill-opacity: 0; paint-order: stroke; stroke: rgb(169, 0, 137);" cx="76.262" cy="50.769" rx="5.418" ry="5.418" transform="matrix(0.9999999999999999, 0, 0, 0.9999999999999999, 0, -8.881784197001252e-16)"/>
  <ellipse style="fill: rgb(216, 216, 216); fill-opacity: 0; paint-order: stroke; stroke: rgb(169, 0, 137);" cx="71.94" cy="50.769" rx="5.418" ry="5.418" transform="matrix(0.9999999999999999, 0, 0, 0.9999999999999999, 0, -8.881784197001252e-16)"/>
  <ellipse style="fill: rgb(216, 216, 216); fill-opacity: 0; paint-order: stroke; stroke: rgb(169, 0, 137);" cx="67.377" cy="50.168" rx="5.418" ry="5.418" transform="matrix(0.9999999999999999, 0, 0, 0.9999999999999999, 0, -8.881784197001252e-16)"/>
  <ellipse style="fill: rgb(216, 216, 216); fill-opacity: 0; paint-order: stroke; stroke: rgb(169, 0, 137);" cx="63.656" cy="48.848" rx="5.418" ry="5.418" transform="matrix(0.9999999999999999, 0, 0, 0.9999999999999999, 0, -8.881784197001252e-16)"/>
  <ellipse style="fill: rgb(216, 216, 216); fill-opacity: 0; paint-order: stroke; stroke: rgb(169, 0, 137);" cx="60.413" cy="46.686" rx="5.418" ry="5.418" transform="matrix(0.9999999999999999, 0, 0, 0.9999999999999999, 0, -8.881784197001252e-16)"/>
  <ellipse style="fill: rgb(216, 216, 216); fill-opacity: 0; paint-order: stroke; stroke: rgb(169, 0, 137);" cx="57.893" cy="44.645" rx="5.418" ry="5.418" transform="matrix(0.9999999999999999, 0, 0, 0.9999999999999999, 0, -8.881784197001252e-16)"/>
  <ellipse style="fill: rgb(216, 216, 216); fill-opacity: 0; paint-order: stroke; stroke: rgb(169, 0, 137);" cx="55.371" cy="42.844" rx="5.418" ry="5.418" transform="matrix(0.9999999999999999, 0, 0, 0.9999999999999999, 0, -8.881784197001252e-16)"/>
  <ellipse style="fill: rgb(216, 216, 216); fill-opacity: 0; paint-order: stroke; stroke: rgb(169, 0, 137);" cx="53.089" cy="41.043" rx="5.418" ry="5.418" transform="matrix(0.9999999999999999, 0, 0, 0.9999999999999999, 0, -8.881784197001252e-16)"/>
  <ellipse style="fill: rgb(216, 216, 216); fill-opacity: 0; paint-order: stroke; stroke: rgb(169, 0, 137);" cx="51.649" cy="39.723" rx="5.418" ry="5.418" transform="matrix(0.9999999999999999, 0, 0, 0.9999999999999999, 0, -8.881784197001252e-16)"/>
  <path d="M 65.457 31.936 L 66.462 34.169 L 64.451 34.169 L 65.457 31.936 Z" style="fill: rgb(216, 216, 216); stroke: rgb(0, 0, 0);" transform="matrix(0.9999999999999999, 0, 0, 0.9999999999999999, 0, -8.881784197001252e-16)"/>
</svg>