<?xml version="1.0" encoding="utf-8"?>
<svg viewBox="0 0 101.901 56.601" width="101.901px" height="56.601px" xmlns="http://www.w3.org/2000/svg">
  <ellipse style="fill: rgb(216, 216, 216); fill-opacity: 0; paint-order: stroke; stroke: rgb(33, 61, 186);" cx="12.659" cy="11.185" rx="6.747" ry="6.747" transform="matrix(0.9999999999999999, 0, 0, 0.9999999999999999, -1.7763568394002505e-15, -8.881784197001252e-16)"/>
  <ellipse style="fill: rgb(216, 216, 216); fill-opacity: 0; paint-order: stroke; stroke: rgb(33, 61, 186);" cx="10.758" cy="14.468" rx="6.971" ry="6.971" transform="matrix(0.9999999999999999, 0, 0, 0.9999999999999999, -1.7763568394002505e-15, -8.881784197001252e-16)"/>
  <ellipse style="fill: rgb(216, 216, 216); fill-opacity: 0; paint-order: stroke; stroke: rgb(33, 61, 186);" cx="9.34" cy="17.375" rx="6.971" ry="6.971" transform="matrix(0.9999999999999999, 0, 0, 0.9999999999999999, -1.7763568394002505e-15, -8.881784197001252e-16)"/>
  <ellipse style="fill: rgb(216, 216, 216); fill-opacity: 0; paint-order: stroke; stroke: rgb(33, 61, 186);" cx="8.743" cy="19.538" rx="6.971" ry="6.971" transform="matrix(0.9999999999999999, 0, 0, 0.9999999999999999, -1.7763568394002505e-15, -8.881784197001252e-16)"/>
  <ellipse style="fill: rgb(216, 216, 216); fill-opacity: 0; paint-order: stroke; stroke: rgb(33, 61, 186);" cx="8.073" cy="22.073" rx="6.971" ry="6.971" transform="matrix(0.9999999999999999, 0, 0, 0.9999999999999999, -1.7763568394002505e-15, -8.881784197001252e-16)"/>
  <ellipse style="fill: rgb(216, 216, 216); fill-opacity: 0; paint-order: stroke; stroke: rgb(33, 61, 186);" cx="7.774" cy="25.057" rx="6.971" ry="6.971" transform="matrix(0.9999999999999999, 0, 0, 0.9999999999999999, -1.7763568394002505e-15, -8.881784197001252e-16)"/>
  <ellipse style="fill: rgb(216, 216, 216); fill-opacity: 0; paint-order: stroke; stroke: rgb(33, 61, 186);" cx="7.625" cy="27.368" rx="6.971" ry="6.971" transform="matrix(0.9999999999999999, 0, 0, 0.9999999999999999, -1.7763568394002505e-15, -8.881784197001252e-16)"/>
  <ellipse style="fill: rgb(216, 216, 216); fill-opacity: 0; paint-order: stroke; stroke: rgb(33, 61, 186);" cx="7.55" cy="30.128" rx="6.971" ry="6.971" transform="matrix(0.9999999999999999, 0, 0, 0.9999999999999999, -1.7763568394002505e-15, -8.881784197001252e-16)"/>
  <ellipse style="fill: rgb(216, 216, 216); fill-opacity: 0; paint-order: stroke; stroke: rgb(33, 61, 186);" cx="7.848" cy="33.019" rx="6.971" ry="6.971" transform="matrix(0.9999999999999999, 0, 0, 0.9999999999999999, -1.7763568394002505e-15, -8.881784197001252e-16)"/>
  <ellipse style="fill: rgb(216, 216, 216); fill-opacity: 0; paint-order: stroke; stroke: rgb(33, 61, 186);" cx="8.445" cy="35.48" rx="6.971" ry="6.971" transform="matrix(0.9999999999999999, 0, 0, 0.9999999999999999, -1.7763568394002505e-15, -8.881784197001252e-16)"/>
  <ellipse style="fill: rgb(216, 216, 216); fill-opacity: 0; paint-order: stroke; stroke: rgb(33, 61, 186);" cx="9.489" cy="38.016" rx="6.971" ry="6.971" transform="matrix(0.9999999999999999, 0, 0, 0.9999999999999999, -1.7763568394002505e-15, -8.881784197001252e-16)"/>
  <ellipse style="fill: rgb(216, 216, 216); fill-opacity: 0; paint-order: stroke; stroke: rgb(33, 61, 186);" cx="10.906" cy="40.7" rx="6.971" ry="6.971" transform="matrix(0.9999999999999999, 0, 0, 0.9999999999999999, -1.7763568394002505e-15, -8.881784197001252e-16)"/>
  <ellipse style="fill: rgb(216, 216, 216); fill-opacity: 0; paint-order: stroke; stroke: rgb(33, 61, 186);" cx="12.732" cy="43.273" rx="6.486" ry="6.486" transform="matrix(0.9999999999999999, 0, 0, 0.9999999999999999, -1.7763568394002505e-15, -8.881784197001252e-16)"/>
  <ellipse style="fill: rgb(216, 216, 216); fill-opacity: 0; paint-order: stroke; stroke: rgb(33, 61, 186);" cx="14.933" cy="45.697" rx="6.486" ry="6.486" transform="matrix(0.9999999999999999, 0, 0, 0.9999999999999999, -1.7763568394002505e-15, -8.881784197001252e-16)"/>
  <ellipse style="fill: rgb(216, 216, 216); fill-opacity: 0; paint-order: stroke; stroke: rgb(33, 61, 186);" cx="17.804" cy="47.747" rx="6.001" ry="6.001" transform="matrix(0.9999999999999999, 0, 0, 0.9999999999999999, -1.7763568394002505e-15, -8.881784197001252e-16)"/>
  <ellipse style="fill: rgb(216, 216, 216); fill-opacity: 0; paint-order: stroke; stroke: rgb(33, 61, 186);" cx="20.675" cy="48.903" rx="6.001" ry="6.001" transform="matrix(0.9999999999999999, 0, 0, 0.9999999999999999, -1.7763568394002505e-15, -8.881784197001252e-16)"/>
  <ellipse style="fill: rgb(216, 216, 216); fill-opacity: 0; paint-order: stroke; stroke: rgb(33, 61, 186);" cx="23.808" cy="49.873" rx="5.628" ry="5.628" transform="matrix(0.9999999999999999, 0, 0, 0.9999999999999999, -1.7763568394002505e-15, -8.881784197001252e-16)"/>
  <ellipse style="fill: rgb(216, 216, 216); fill-opacity: 0; paint-order: stroke; stroke: rgb(33, 61, 186);" cx="26.865" cy="50.295" rx="5.628" ry="5.628" transform="matrix(0.9999999999999999, 0, 0, 0.9999999999999999, -1.7763568394002505e-15, -8.881784197001252e-16)"/>
  <ellipse style="fill: rgb(216, 216, 216); fill-opacity: 0; paint-order: stroke; stroke: rgb(33, 61, 186);" cx="29.028" cy="50.445" rx="5.628" ry="5.628" transform="matrix(0.9999999999999999, 0, 0, 0.9999999999999999, -1.7763568394002505e-15, -8.881784197001252e-16)"/>
  <path d="M 31.936 29.152 L 32.941 31.385 L 30.93 31.385 L 31.936 29.152 Z" style="fill: rgb(216, 216, 216); stroke: rgb(0, 0, 0);" transform="matrix(0.9999999999999999, 0, 0, 0.9999999999999999, -1.7763568394002505e-15, -8.881784197001252e-16)"/>
  <ellipse style="fill: rgb(216, 216, 216); fill-opacity: 0; paint-order: stroke; stroke: rgb(33, 186, 39);" cx="45.432" cy="10.837" rx="6.747" ry="6.747" transform="matrix(0.9999999999999999, 0, 0, 0.9999999999999999, -1.7763568394002505e-15, -8.881784197001252e-16)"/>
  <ellipse style="fill: rgb(216, 216, 216); fill-opacity: 0; paint-order: stroke; stroke: rgb(33, 186, 39);" cx="47.074" cy="13.506" rx="6.747" ry="6.747" transform="matrix(0.9999999999999999, 0, 0, 0.9999999999999999, -1.7763568394002505e-15, -8.881784197001252e-16)"/>
  <ellipse style="fill: rgb(216, 216, 216); fill-opacity: 0; paint-order: stroke; stroke: rgb(33, 186, 39);" cx="48.193" cy="15.818" rx="6.747" ry="6.747" transform="matrix(0.9999999999999999, 0, 0, 0.9999999999999999, -1.7763568394002505e-15, -8.881784197001252e-16)"/>
  <ellipse style="fill: rgb(216, 216, 216); fill-opacity: 0; paint-order: stroke; stroke: rgb(33, 186, 39);" cx="48.939" cy="17.98" rx="6.747" ry="6.747" transform="matrix(0.9999999999999999, 0, 0, 0.9999999999999999, -1.7763568394002505e-15, -8.881784197001252e-16)"/>
  <ellipse style="fill: rgb(216, 216, 216); fill-opacity: 0; paint-order: stroke; stroke: rgb(33, 186, 39);" cx="50.057" cy="22.082" rx="6.747" ry="6.747" transform="matrix(0.9999999999999999, 0, 0, 0.9999999999999999, -1.7763568394002505e-15, -8.881784197001252e-16)"/>
  <ellipse style="fill: rgb(216, 216, 216); fill-opacity: 0; paint-order: stroke; stroke: rgb(33, 186, 39);" cx="50.728" cy="26.705" rx="7.045" ry="7.045" transform="matrix(0.9999999999999999, 0, 0, 0.9999999999999999, -1.7763568394002505e-15, -8.881784197001252e-16)"/>
  <ellipse style="fill: rgb(216, 216, 216); fill-opacity: 0; paint-order: stroke; stroke: rgb(33, 186, 39);" cx="50.654" cy="29.241" rx="7.045" ry="7.045" transform="matrix(0.9999999999999999, 0, 0, 0.9999999999999999, -1.7763568394002505e-15, -8.881784197001252e-16)"/>
  <ellipse style="fill: rgb(216, 216, 216); fill-opacity: 0; paint-order: stroke; stroke: rgb(33, 186, 39);" cx="50.43" cy="33.268" rx="7.045" ry="7.045" transform="matrix(0.9999999999999999, 0, 0, 0.9999999999999999, -1.7763568394002505e-15, -8.881784197001252e-16)"/>
  <ellipse style="fill: rgb(216, 216, 216); fill-opacity: 0; paint-order: stroke; stroke: rgb(33, 186, 39);" cx="49.46" cy="37.221" rx="7.045" ry="7.045" transform="matrix(0.9999999999999999, 0, 0, 0.9999999999999999, -1.7763568394002505e-15, -8.881784197001252e-16)"/>
  <ellipse style="fill: rgb(216, 216, 216); fill-opacity: 0; paint-order: stroke; stroke: rgb(33, 186, 39);" cx="48.192" cy="40.426" rx="7.045" ry="7.045" transform="matrix(0.9999999999999999, 0, 0, 0.9999999999999999, -1.7763568394002505e-15, -8.881784197001252e-16)"/>
  <ellipse style="fill: rgb(216, 216, 216); fill-opacity: 0; paint-order: stroke; stroke: rgb(33, 186, 39);" cx="45.844" cy="43.373" rx="6.635" ry="6.635" transform="matrix(0.9999999999999999, 0, 0, 0.9999999999999999, -1.7763568394002505e-15, -8.881784197001252e-16)"/>
  <ellipse style="fill: rgb(216, 216, 216); fill-opacity: 0; paint-order: stroke; stroke: rgb(33, 186, 39);" cx="43.942" cy="45.498" rx="6.635" ry="6.635" transform="matrix(0.9999999999999999, 0, 0, 0.9999999999999999, -1.7763568394002505e-15, -8.881784197001252e-16)"/>
  <ellipse style="fill: rgb(216, 216, 216); fill-opacity: 0; paint-order: stroke; stroke: rgb(33, 186, 39);" cx="41.071" cy="47.234" rx="6.374" ry="6.374" transform="matrix(0.9999999999999999, 0, 0, 0.9999999999999999, -1.7763568394002505e-15, -8.881784197001252e-16)"/>
  <ellipse style="fill: rgb(216, 216, 216); fill-opacity: 0; paint-order: stroke; stroke: rgb(33, 186, 39);" cx="37.678" cy="48.911" rx="5.852" ry="5.852" transform="matrix(0.9999999999999999, 0, 0, 0.9999999999999999, -1.7763568394002505e-15, -8.881784197001252e-16)"/>
  <ellipse style="fill: rgb(216, 216, 216); fill-opacity: 0; paint-order: stroke; stroke: rgb(33, 186, 39);" cx="35.142" cy="49.906" rx="5.852" ry="5.852" transform="matrix(0.9999999999999999, 0, 0, 0.9999999999999999, -1.7763568394002505e-15, -8.881784197001252e-16)"/>
  <ellipse style="fill: rgb(216, 216, 216); fill-opacity: 0; paint-order: stroke; stroke: rgb(33, 186, 39);" cx="31.489" cy="50.428" rx="5.852" ry="5.852" transform="matrix(0.9999999999999999, 0, 0, 0.9999999999999999, -1.7763568394002505e-15, -8.881784197001252e-16)"/>
  <ellipse style="fill: rgb(216, 216, 216); fill-opacity: 0; paint-order: stroke; stroke: rgb(33, 186, 39);" cx="28.729" cy="50.428" rx="5.852" ry="5.852" transform="matrix(0.9999999999999999, 0, 0, 0.9999999999999999, -1.7763568394002505e-15, -8.881784197001252e-16)"/>
  <path d="M 37.38 28.754 L 38.385 30.987 L 36.374 30.987 L 37.38 28.754 Z" style="fill: rgb(216, 216, 216); stroke: rgb(0, 0, 0);" transform="matrix(0.9999999999999999, 0, 0, 0.9999999999999999, -1.7763568394002505e-15, -8.881784197001252e-16)"/>
  <ellipse style="fill: rgb(216, 216, 216); fill-opacity: 0; paint-order: stroke; stroke: rgb(186, 33, 184);" cx="49.686" cy="18.71" rx="6.598" ry="6.598" transform="matrix(0.9999999999999999, 0, 0, 0.9999999999999999, -1.7763568394002505e-15, -8.881784197001252e-16)"/>
  <ellipse style="fill: rgb(216, 216, 216); fill-opacity: 0; paint-order: stroke; stroke: rgb(186, 33, 184);" cx="51.474" cy="17.069" rx="6.598" ry="6.598" transform="matrix(0.9999999999999999, 0, 0, 0.9999999999999999, -1.7763568394002505e-15, -8.881784197001252e-16)"/>
  <ellipse style="fill: rgb(216, 216, 216); fill-opacity: 0; paint-order: stroke; stroke: rgb(186, 33, 184);" cx="54.309" cy="14.16" rx="5.927" ry="5.927" transform="matrix(0.9999999999999999, 0, 0, 0.9999999999999999, -1.7763568394002505e-15, -8.881784197001252e-16)"/>
  <ellipse style="fill: rgb(216, 216, 216); fill-opacity: 0; paint-order: stroke; stroke: rgb(186, 33, 184);" cx="57.292" cy="11.774" rx="5.48" ry="5.48" transform="matrix(0.9999999999999999, 0, 0, 0.9999999999999999, -1.7763568394002505e-15, -8.881784197001252e-16)"/>
  <ellipse style="fill: rgb(216, 216, 216); fill-opacity: 0; paint-order: stroke; stroke: rgb(186, 33, 184);" cx="59.752" cy="9.463" rx="5.48" ry="5.48" transform="matrix(0.9999999999999999, 0, 0, 0.9999999999999999, -1.7763568394002505e-15, -8.881784197001252e-16)"/>
  <ellipse style="fill: rgb(216, 216, 216); fill-opacity: 0; paint-order: stroke; stroke: rgb(186, 33, 184);" cx="62.735" cy="7.897" rx="5.48" ry="5.48" transform="matrix(0.9999999999999999, 0, 0, 0.9999999999999999, -1.7763568394002505e-15, -8.881784197001252e-16)"/>
  <ellipse style="fill: rgb(216, 216, 216); fill-opacity: 0; paint-order: stroke; stroke: rgb(186, 33, 184);" cx="65.494" cy="6.878" rx="5.48" ry="5.48" transform="matrix(0.9999999999999999, 0, 0, 0.9999999999999999, -1.7763568394002505e-15, -8.881784197001252e-16)"/>
  <ellipse style="fill: rgb(216, 216, 216); fill-opacity: 0; paint-order: stroke; stroke: rgb(186, 33, 184);" cx="68.104" cy="6.206" rx="5.48" ry="5.48" transform="matrix(0.9999999999999999, 0, 0, 0.9999999999999999, -1.7763568394002505e-15, -8.881784197001252e-16)"/>
  <ellipse style="fill: rgb(216, 216, 216); fill-opacity: 0; paint-order: stroke; stroke: rgb(186, 33, 184);" cx="70.64" cy="5.908" rx="5.48" ry="5.48" transform="matrix(0.9999999999999999, 0, 0, 0.9999999999999999, -1.7763568394002505e-15, -8.881784197001252e-16)"/>
  <ellipse style="fill: rgb(216, 216, 216); fill-opacity: 0; paint-order: stroke; stroke: rgb(186, 33, 184);" cx="73.622" cy="5.983" rx="5.48" ry="5.48" transform="matrix(0.9999999999999999, 0, 0, 0.9999999999999999, -1.7763568394002505e-15, -8.881784197001252e-16)"/>
  <ellipse style="fill: rgb(216, 216, 216); fill-opacity: 0; paint-order: stroke; stroke: rgb(186, 33, 184);" cx="76.381" cy="6.206" rx="5.48" ry="5.48" transform="matrix(0.9999999999999999, 0, 0, 0.9999999999999999, -1.7763568394002505e-15, -8.881784197001252e-16)"/>
  <ellipse style="fill: rgb(216, 216, 216); fill-opacity: 0; paint-order: stroke; stroke: rgb(186, 33, 184);" cx="79.55" cy="6.99" rx="5.517" ry="5.517" transform="matrix(0.9999999999999999, 0, 0, 0.9999999999999999, -1.7763568394002505e-15, -8.881784197001252e-16)"/>
  <ellipse style="fill: rgb(216, 216, 216); fill-opacity: 0; paint-order: stroke; stroke: rgb(186, 33, 184);" cx="83.129" cy="8.332" rx="5.815" ry="5.815" transform="matrix(0.9999999999999999, 0, 0, 0.9999999999999999, -1.7763568394002505e-15, -8.881784197001252e-16)"/>
  <ellipse style="fill: rgb(216, 216, 216); fill-opacity: 0; paint-order: stroke; stroke: rgb(186, 33, 184);" cx="85.479" cy="9.786" rx="5.964" ry="5.964" transform="matrix(0.9999999999999999, 0, 0, 0.9999999999999999, -1.7763568394002505e-15, -8.881784197001252e-16)"/>
  <ellipse style="fill: rgb(216, 216, 216); fill-opacity: 0; paint-order: stroke; stroke: rgb(186, 33, 184);" cx="87.344" cy="11.277" rx="6.337" ry="6.337" transform="matrix(0.9999999999999999, 0, 0, 0.9999999999999999, -1.7763568394002505e-15, -8.881784197001252e-16)"/>
  <ellipse style="fill: rgb(216, 216, 216); fill-opacity: 0; paint-order: stroke; stroke: rgb(186, 33, 184);" cx="89.282" cy="13.291" rx="6.486" ry="6.486" transform="matrix(0.9999999999999999, 0, 0, 0.9999999999999999, -1.7763568394002505e-15, -8.881784197001252e-16)"/>
  <ellipse style="fill: rgb(216, 216, 216); fill-opacity: 0; paint-order: stroke; stroke: rgb(186, 33, 184);" cx="90.886" cy="15.565" rx="6.672" ry="6.672" transform="matrix(0.9999999999999999, 0, 0, 0.9999999999999999, -1.7763568394002505e-15, -8.881784197001252e-16)"/>
  <ellipse style="fill: rgb(216, 216, 216); fill-opacity: 0; paint-order: stroke; stroke: rgb(186, 33, 184);" cx="92.042" cy="17.541" rx="6.672" ry="6.672" transform="matrix(0.9999999999999999, 0, 0, 0.9999999999999999, -1.7763568394002505e-15, -8.881784197001252e-16)"/>
  <ellipse style="fill: rgb(216, 216, 216); fill-opacity: 0; paint-order: stroke; stroke: rgb(186, 33, 184);" cx="93.235" cy="20.077" rx="6.821" ry="6.821" transform="matrix(0.9999999999999999, 0, 0, 0.9999999999999999, -1.7763568394002505e-15, -8.881784197001252e-16)"/>
  <ellipse style="fill: rgb(216, 216, 216); fill-opacity: 0; paint-order: stroke; stroke: rgb(186, 33, 184);" cx="93.757" cy="22.836" rx="6.821" ry="6.821" transform="matrix(0.9999999999999999, 0, 0, 0.9999999999999999, -1.7763568394002505e-15, -8.881784197001252e-16)"/>
  <ellipse style="fill: rgb(216, 216, 216); fill-opacity: 0; paint-order: stroke; stroke: rgb(186, 33, 184);" cx="94.059" cy="25.947" rx="6.977" ry="6.977" transform="matrix(0.9999999999999999, 0, 0, 0.9999999999999999, -1.7763568394002505e-15, -8.881784197001252e-16)"/>
  <ellipse style="fill: rgb(216, 216, 216); fill-opacity: 0; paint-order: stroke; stroke: rgb(186, 33, 184);" cx="94.4" cy="29.188" rx="6.977" ry="6.977" transform="matrix(0.9999999999999999, 0, 0, 0.9999999999999999, -1.7763568394002505e-15, -8.881784197001252e-16)"/>
  <ellipse style="fill: rgb(216, 216, 216); fill-opacity: 0; paint-order: stroke; stroke: rgb(186, 33, 184);" cx="93.9" cy="33.331" rx="6.977" ry="6.977" transform="matrix(0.9999999999999999, 0, 0, 0.9999999999999999, -1.7763568394002505e-15, -8.881784197001252e-16)"/>
  <ellipse style="fill: rgb(216, 216, 216); fill-opacity: 0; paint-order: stroke; stroke: rgb(186, 33, 184);" cx="92.962" cy="37.243" rx="6.977" ry="6.977" transform="matrix(0.9999999999999999, 0, 0, 0.9999999999999999, -1.7763568394002505e-15, -8.881784197001252e-16)"/>
  <ellipse style="fill: rgb(216, 216, 216); fill-opacity: 0; paint-order: stroke; stroke: rgb(186, 33, 184);" cx="91.059" cy="41.028" rx="6.696" ry="6.696" transform="matrix(0.9999999999999999, 0, 0, 0.9999999999999999, -1.7763568394002505e-15, -8.881784197001252e-16)"/>
  <ellipse style="fill: rgb(216, 216, 216); fill-opacity: 0; paint-order: stroke; stroke: rgb(186, 33, 184);" cx="88.678" cy="44.531" rx="6.289" ry="6.289" transform="matrix(0.9999999999999999, 0, 0, 0.9999999999999999, -1.7763568394002505e-15, -8.881784197001252e-16)"/>
  <ellipse style="fill: rgb(216, 216, 216); fill-opacity: 0; paint-order: stroke; stroke: rgb(186, 33, 184);" cx="85.644" cy="47.126" rx="6.289" ry="6.289" transform="matrix(0.9999999999999999, 0, 0, 0.9999999999999999, -1.7763568394002505e-15, -8.881784197001252e-16)"/>
  <ellipse style="fill: rgb(216, 216, 216); fill-opacity: 0; paint-order: stroke; stroke: rgb(186, 33, 184);" cx="82.267" cy="49.036" rx="6.289" ry="6.289" transform="matrix(0.9999999999999999, 0, 0, 0.9999999999999999, -1.7763568394002505e-15, -8.881784197001252e-16)"/>
  <ellipse style="fill: rgb(216, 216, 216); fill-opacity: 0; paint-order: stroke; stroke: rgb(186, 33, 184);" cx="79.233" cy="49.867" rx="6.008" ry="6.008" transform="matrix(0.9999999999999999, 0, 0, 0.9999999999999999, -1.7763568394002505e-15, -8.881784197001252e-16)"/>
  <ellipse style="fill: rgb(216, 216, 216); fill-opacity: 0; paint-order: stroke; stroke: rgb(186, 33, 184);" cx="75.886" cy="50.339" rx="6.008" ry="6.008" transform="matrix(0.9999999999999999, 0, 0, 0.9999999999999999, -1.7763568394002505e-15, -8.881784197001252e-16)"/>
  <ellipse style="fill: rgb(216, 216, 216); fill-opacity: 0; paint-order: stroke; stroke: rgb(186, 33, 184);" cx="73.105" cy="50.12" rx="5.789" ry="5.789" transform="matrix(0.9999999999999999, 0, 0, 0.9999999999999999, -1.7763568394002505e-15, -8.881784197001252e-16)"/>
  <ellipse style="fill: rgb(216, 216, 216); fill-opacity: 0; paint-order: stroke; stroke: rgb(186, 33, 184);" cx="70.802" cy="49.855" rx="5.789" ry="5.789" transform="matrix(0.9999999999999999, 0, 0, 0.9999999999999999, -1.7763568394002505e-15, -8.881784197001252e-16)"/>
  <path d="M 67.18 25.393 L 68.185 27.626 L 66.174 27.626 L 67.18 25.393 Z" style="fill: rgb(216, 216, 216); stroke: rgb(0, 0, 0);" transform="matrix(0.9999999999999999, 0, 0, 0.9999999999999999, -1.7763568394002505e-15, -8.881784197001252e-16)"/>
</svg>