<?xml version="1.0" encoding="utf-8"?>
<svg viewBox="0 0 102.001 56.601" width="102.001px" height="56.601px" xmlns="http://www.w3.org/2000/svg">
  <ellipse style="fill: rgb(216, 216, 216); fill-opacity: 0; paint-order: stroke; stroke: rgb(33, 61, 186); opacity: 0.9;" cx="13.462" cy="46.196" rx="7.008" ry="7.008" transform="matrix(1, 0, 0, 1, -8.881784197001252e-16, 8.881784197001252e-16)"/>
  <ellipse style="fill: rgb(216, 216, 216); fill-opacity: 0; paint-order: stroke; stroke: rgb(33, 61, 186); opacity: 0.9;" cx="10.916" cy="42.283" rx="7.008" ry="7.008" transform="matrix(1, 0, 0, 1, -8.881784197001252e-16, 8.881784197001252e-16)"/>
  <ellipse style="fill: rgb(216, 216, 216); fill-opacity: 0; paint-order: stroke; stroke: rgb(33, 61, 186); opacity: 0.9;" cx="8.916" cy="37.283" rx="7.008" ry="7.008" transform="matrix(1, 0, 0, 1, -8.881784197001252e-16, 8.881784197001252e-16)"/>
  <ellipse style="fill: rgb(216, 216, 216); fill-opacity: 0; paint-order: stroke; stroke: rgb(33, 61, 186); opacity: 0.9;" cx="7.828" cy="31.067" rx="7.008" ry="7.008" transform="matrix(1, 0, 0, 1, -8.881784197001252e-16, 8.881784197001252e-16)"/>
  <ellipse style="fill: rgb(216, 216, 216); fill-opacity: 0; paint-order: stroke; stroke: rgb(33, 61, 186); opacity: 0.9;" cx="7.924" cy="24.535" rx="7.008" ry="7.008" transform="matrix(1, 0, 0, 1, -8.881784197001252e-16, 8.881784197001252e-16)"/>
  <ellipse style="fill: rgb(216, 216, 216); fill-opacity: 0; paint-order: stroke; stroke: rgb(33, 61, 186); opacity: 0.9;" cx="9.974" cy="17.487" rx="6.747" ry="6.747" transform="matrix(1, 0, 0, 1, -8.881784197001252e-16, 8.881784197001252e-16)"/>
  <ellipse style="fill: rgb(216, 216, 216); fill-opacity: 0; paint-order: stroke; stroke: rgb(33, 61, 186); opacity: 0.9;" cx="14.035" cy="11.634" rx="6.449" ry="6.449" transform="matrix(1, 0, 0, 1, -8.881784197001252e-16, 8.881784197001252e-16)"/>
  <ellipse style="fill: rgb(216, 216, 216); fill-opacity: 0; paint-order: stroke; stroke: rgb(33, 61, 186); opacity: 0.9;" cx="21.123" cy="7.249" rx="5.741" ry="5.741" transform="matrix(1, 0, 0, 1, -8.881784197001252e-16, 8.881784197001252e-16)"/>
  <ellipse style="fill: rgb(216, 216, 216); fill-opacity: 0; paint-order: stroke; stroke: rgb(33, 61, 186); opacity: 0.9;" cx="28.506" cy="6.057" rx="5.741" ry="5.741" transform="matrix(1, 0, 0, 1, -8.881784197001252e-16, 8.881784197001252e-16)"/>
  <ellipse style="fill: rgb(216, 216, 216); fill-opacity: 0; paint-order: stroke; stroke: rgb(33, 61, 186); opacity: 0.9;" cx="35.739" cy="6.579" rx="5.741" ry="5.741" transform="matrix(1, 0, 0, 1, -8.881784197001252e-16, 8.881784197001252e-16)"/>
  <ellipse style="fill: rgb(216, 216, 216); fill-opacity: 0; paint-order: stroke; stroke: rgb(33, 61, 186); opacity: 0.9;" cx="42.412" cy="9.75" rx="6.076" ry="6.076" transform="matrix(1, 0, 0, 1, -8.881784197001252e-16, 8.881784197001252e-16)"/>
  <ellipse style="fill: rgb(216, 216, 216); fill-opacity: 0; paint-order: stroke; stroke: rgb(33, 61, 186); opacity: 0.9;" cx="47.335" cy="14.372" rx="6.411" ry="6.411" transform="matrix(1, 0, 0, 1, -8.881784197001252e-16, 8.881784197001252e-16)"/>
  <ellipse style="fill: rgb(216, 216, 216); fill-opacity: 0; paint-order: stroke; stroke: rgb(33, 61, 186); opacity: 0.9;" cx="50.058" cy="19.033" rx="7.045" ry="7.045" transform="matrix(1, 0, 0, 1, -8.881784197001252e-16, 8.881784197001252e-16)"/>
  <ellipse style="fill: rgb(216, 216, 216); fill-opacity: 0; paint-order: stroke; stroke: rgb(33, 61, 186); opacity: 0.9;" cx="50.952" cy="25.893" rx="6.635" ry="6.635" transform="matrix(1, 0, 0, 1, -8.881784197001252e-16, 8.881784197001252e-16)"/>
  <ellipse style="fill: rgb(216, 216, 216); fill-opacity: 0; paint-order: stroke; stroke: rgb(33, 61, 186); opacity: 0.9;" cx="50.728" cy="31.785" rx="6.635" ry="6.635" transform="matrix(1, 0, 0, 1, -8.881784197001252e-16, 8.881784197001252e-16)"/>
  <ellipse style="fill: rgb(216, 216, 216); fill-opacity: 0; paint-order: stroke; stroke: rgb(33, 61, 186); opacity: 0.9;" cx="49.311" cy="38.397" rx="6.635" ry="6.635" transform="matrix(1, 0, 0, 1, -8.881784197001252e-16, 8.881784197001252e-16)"/>
  <ellipse style="fill: rgb(216, 216, 216); fill-opacity: 0; paint-order: stroke; stroke: rgb(33, 61, 186); opacity: 0.9;" cx="44.763" cy="46.301" rx="6.635" ry="6.635" transform="matrix(1, 0, 0, 1, -8.881784197001252e-16, 8.881784197001252e-16)"/>
  <path d="M 29.923 27.644 L 30.928 29.877 L 28.917 29.877 L 29.923 27.644 Z" style="fill: rgb(216, 216, 216); stroke: rgb(0, 0, 0);" transform="matrix(1, 0, 0, 1, -8.881784197001252e-16, 8.881784197001252e-16)"/>
  <ellipse style="fill: rgb(216, 216, 216); fill-opacity: 0; paint-order: stroke; opacity: 0.9; stroke: rgb(40, 186, 33);" cx="50.169" cy="18.01" rx="6.709" ry="6.709" transform="matrix(1, 0, 0, 1, -8.881784197001252e-16, 8.881784197001252e-16)"/>
  <ellipse style="fill: rgb(216, 216, 216); fill-opacity: 0; paint-order: stroke; opacity: 0.9; stroke: rgb(40, 186, 33);" cx="54.532" cy="13.647" rx="6.262" ry="6.262" transform="matrix(1, 0, 0, 1, -8.881784197001252e-16, 8.881784197001252e-16)"/>
  <ellipse style="fill: rgb(216, 216, 216); fill-opacity: 0; paint-order: stroke; opacity: 0.9; stroke: rgb(40, 186, 33);" cx="61.243" cy="8.427" rx="5.703" ry="5.703" transform="matrix(1, 0, 0, 1, -8.881784197001252e-16, 8.881784197001252e-16)"/>
  <ellipse style="fill: rgb(216, 216, 216); fill-opacity: 0; paint-order: stroke; opacity: 0.9; stroke: rgb(40, 186, 33);" cx="67.507" cy="6.157" rx="5.703" ry="5.703" transform="matrix(1, 0, 0, 1, -8.881784197001252e-16, 8.881784197001252e-16)"/>
  <ellipse style="fill: rgb(216, 216, 216); fill-opacity: 0; paint-order: stroke; opacity: 0.9; stroke: rgb(40, 186, 33);" cx="75.487" cy="6.156" rx="5.703" ry="5.703" transform="matrix(1, 0, 0, 1, -8.881784197001252e-16, 8.881784197001252e-16)"/>
  <ellipse style="fill: rgb(216, 216, 216); fill-opacity: 0; paint-order: stroke; opacity: 0.9; stroke: rgb(40, 186, 33);" cx="82.161" cy="8.058" rx="5.815" ry="5.815" transform="matrix(1, 0, 0, 1, -8.881784197001252e-16, 8.881784197001252e-16)"/>
  <ellipse style="fill: rgb(216, 216, 216); fill-opacity: 0; paint-order: stroke; opacity: 0.9; stroke: rgb(40, 186, 33);" cx="88.761" cy="12.561" rx="6.449" ry="6.449" transform="matrix(1, 0, 0, 1, -8.881784197001252e-16, 8.881784197001252e-16)"/>
  <ellipse style="fill: rgb(216, 216, 216); fill-opacity: 0; paint-order: stroke; opacity: 0.9; stroke: rgb(40, 186, 33);" cx="92.601" cy="18.639" rx="6.896" ry="6.896" transform="matrix(1, 0, 0, 1, -8.881784197001252e-16, 8.881784197001252e-16)"/>
  <ellipse style="fill: rgb(216, 216, 216); fill-opacity: 0; paint-order: stroke; opacity: 0.9; stroke: rgb(40, 186, 33);" cx="94.428" cy="26.664" rx="6.896" ry="6.896" transform="matrix(1, 0, 0, 1, -8.881784197001252e-16, 8.881784197001252e-16)"/>
  <ellipse style="fill: rgb(216, 216, 216); fill-opacity: 0; paint-order: stroke; opacity: 0.9; stroke: rgb(40, 186, 33);" cx="93.831" cy="34.362" rx="7.082" ry="7.082" transform="matrix(1, 0, 0, 1, -8.881784197001252e-16, 8.881784197001252e-16)"/>
  <ellipse style="fill: rgb(216, 216, 216); fill-opacity: 0; paint-order: stroke; opacity: 0.9; stroke: rgb(40, 186, 33);" cx="90.887" cy="41.359" rx="6.672" ry="6.672" transform="matrix(1, 0, 0, 1, -8.881784197001252e-16, 8.881784197001252e-16)"/>
  <ellipse style="fill: rgb(216, 216, 216); fill-opacity: 0; paint-order: stroke; opacity: 0.9; stroke: rgb(40, 186, 33);" cx="85.331" cy="47.288" rx="6.672" ry="6.672" transform="matrix(1, 0, 0, 1, -8.881784197001252e-16, 8.881784197001252e-16)"/>
  <ellipse style="fill: rgb(216, 216, 216); fill-opacity: 0; paint-order: stroke; opacity: 0.9; stroke: rgb(40, 186, 33);" cx="78.843" cy="49.856" rx="6.001" ry="6.001" transform="matrix(1, 0, 0, 1, -8.881784197001252e-16, 8.881784197001252e-16)"/>
  <ellipse style="fill: rgb(216, 216, 216); fill-opacity: 0; paint-order: stroke; opacity: 0.9; stroke: rgb(40, 186, 33);" cx="70.118" cy="49.608" rx="6.001" ry="6.001" transform="matrix(1, 0, 0, 1, -8.881784197001252e-16, 8.881784197001252e-16)"/>
  <path d="M 64.525 31.364 L 65.53 33.597 L 63.519 33.597 L 64.525 31.364 Z" style="fill: rgb(216, 216, 216); stroke: rgb(0, 0, 0);" transform="matrix(1, 0, 0, 1, -8.881784197001252e-16, 8.881784197001252e-16)"/>
</svg>