<?xml version="1.0" encoding="utf-8"?>
<svg viewBox="0 0 61.101 56.601" width="61.101px" height="56.601px" xmlns="http://www.w3.org/2000/svg">
  <ellipse style="fill: rgb(216, 216, 216); fill-opacity: 0; paint-order: stroke; stroke: rgb(33, 61, 186); opacity: 0.9;" cx="9.64" cy="9.545" rx="5.479" ry="5.479" transform="matrix(1, 0, 0, 1, -1.7763568394002505e-15, 8.881784197001252e-16)"/>
  <ellipse style="fill: rgb(216, 216, 216); fill-opacity: 0; paint-order: stroke; stroke: rgb(33, 61, 186); opacity: 0.9;" cx="15.754" cy="7.233" rx="5.181" ry="5.181" transform="matrix(1, 0, 0, 1, -1.7763568394002505e-15, 8.881784197001252e-16)"/>
  <ellipse style="fill: rgb(216, 216, 216); fill-opacity: 0; paint-order: stroke; stroke: rgb(33, 61, 186); opacity: 0.9;" cx="23.36" cy="5.742" rx="5.181" ry="5.181" transform="matrix(1, 0, 0, 1, -1.7763568394002505e-15, 8.881784197001252e-16)"/>
  <ellipse style="fill: rgb(216, 216, 216); fill-opacity: 0; paint-order: stroke; stroke: rgb(33, 61, 186); opacity: 0.9;" cx="31.041" cy="5.593" rx="5.181" ry="5.181" transform="matrix(1, 0, 0, 1, -1.7763568394002505e-15, 8.881784197001252e-16)"/>
  <ellipse style="fill: rgb(216, 216, 216); fill-opacity: 0; paint-order: stroke; stroke: rgb(33, 61, 186); opacity: 0.9;" cx="39.617" cy="7.308" rx="5.405" ry="5.405" transform="matrix(1, 0, 0, 1, -1.7763568394002505e-15, 8.881784197001252e-16)"/>
  <ellipse style="fill: rgb(216, 216, 216); fill-opacity: 0; paint-order: stroke; stroke: rgb(33, 61, 186); opacity: 0.9;" cx="47.149" cy="11.708" rx="6.15" ry="6.15" transform="matrix(1, 0, 0, 1, -1.7763568394002505e-15, 8.881784197001252e-16)"/>
  <ellipse style="fill: rgb(216, 216, 216); fill-opacity: 0; paint-order: stroke; stroke: rgb(33, 61, 186); opacity: 0.9;" cx="51.585" cy="18.135" rx="6.933" ry="6.933" transform="matrix(1, 0, 0, 1, -1.7763568394002505e-15, 8.881784197001252e-16)"/>
  <ellipse style="fill: rgb(216, 216, 216); fill-opacity: 0; paint-order: stroke; stroke: rgb(33, 61, 186); opacity: 0.9;" cx="53.338" cy="25.082" rx="6.933" ry="6.933" transform="matrix(1, 0, 0, 1, -1.7763568394002505e-15, 8.881784197001252e-16)"/>
  <ellipse style="fill: rgb(216, 216, 216); fill-opacity: 0; paint-order: stroke; stroke: rgb(33, 61, 186); opacity: 0.9;" cx="53.338" cy="32.555" rx="6.933" ry="6.933" transform="matrix(1, 0, 0, 1, -1.7763568394002505e-15, 8.881784197001252e-16)"/>
  <ellipse style="fill: rgb(216, 216, 216); fill-opacity: 0; paint-order: stroke; stroke: rgb(33, 61, 186); opacity: 0.9;" cx="50.878" cy="40.062" rx="6.486" ry="6.486" transform="matrix(1, 0, 0, 1, -1.7763568394002505e-15, 8.881784197001252e-16)"/>
  <ellipse style="fill: rgb(216, 216, 216); fill-opacity: 0; paint-order: stroke; stroke: rgb(33, 61, 186); opacity: 0.9;" cx="44.949" cy="46.647" rx="5.777" ry="5.777" transform="matrix(1, 0, 0, 1, -1.7763568394002505e-15, 8.881784197001252e-16)"/>
  <ellipse style="fill: rgb(216, 216, 216); fill-opacity: 0; paint-order: stroke; stroke: rgb(33, 61, 186); opacity: 0.9;" cx="36" cy="50.2" rx="5.143" ry="5.143" transform="matrix(1, 0, 0, 1, -1.7763568394002505e-15, 8.881784197001252e-16)"/>
  <ellipse style="fill: rgb(216, 216, 216); fill-opacity: 0; paint-order: stroke; stroke: rgb(33, 61, 186); opacity: 0.9;" cx="28.282" cy="50.726" rx="5.031" ry="5.031" transform="matrix(1, 0, 0, 1, -1.7763568394002505e-15, 8.881784197001252e-16)"/>
  <ellipse style="fill: rgb(216, 216, 216); fill-opacity: 0; paint-order: stroke; stroke: rgb(33, 61, 186); opacity: 0.9;" cx="21.16" cy="49.869" rx="5.143" ry="5.143" transform="matrix(1, 0, 0, 1, -1.7763568394002505e-15, 8.881784197001252e-16)"/>
  <ellipse style="fill: rgb(216, 216, 216); fill-opacity: 0; paint-order: stroke; stroke: rgb(33, 61, 186); opacity: 0.9;" cx="13.442" cy="46.401" rx="5.143" ry="5.143" transform="matrix(1, 0, 0, 1, -1.7763568394002505e-15, 8.881784197001252e-16)"/>
  <ellipse style="fill: rgb(216, 216, 216); fill-opacity: 0; paint-order: stroke; stroke: rgb(33, 61, 186); opacity: 0.9;" cx="9.042" cy="42.382" rx="5.143" ry="5.143" transform="matrix(1, 0, 0, 1, -1.7763568394002505e-15, 8.881784197001252e-16)"/>
  <ellipse style="fill: rgb(216, 216, 216); fill-opacity: 0; paint-order: stroke; stroke: rgb(33, 61, 186); opacity: 0.9;" cx="6.88" cy="37.088" rx="5.329" ry="5.329" transform="matrix(1, 0, 0, 1, -1.7763568394002505e-15, 8.881784197001252e-16)"/>
  <ellipse style="fill: rgb(216, 216, 216); fill-opacity: 0; paint-order: stroke; stroke: rgb(33, 61, 186); opacity: 0.9;" cx="9.415" cy="35.82" rx="5.329" ry="5.329" transform="matrix(1, 0, 0, 1, -1.7763568394002505e-15, 8.881784197001252e-16)"/>
  <ellipse style="fill: rgb(216, 216, 216); fill-opacity: 0; paint-order: stroke; stroke: rgb(33, 61, 186); opacity: 0.9;" cx="16.2" cy="32.838" rx="4.918" ry="4.918" transform="matrix(1, 0, 0, 1, -1.7763568394002505e-15, 8.881784197001252e-16)"/>
  <ellipse style="fill: rgb(216, 216, 216); fill-opacity: 0; paint-order: stroke; stroke: rgb(33, 61, 186); opacity: 0.9;" cx="22.354" cy="31.532" rx="4.806" ry="4.806" transform="matrix(1, 0, 0, 1, -1.7763568394002505e-15, 8.881784197001252e-16)"/>
  <ellipse style="fill: rgb(216, 216, 216); fill-opacity: 0; paint-order: stroke; stroke: rgb(33, 61, 186); opacity: 0.9;" cx="29.401" cy="30.941" rx="4.507" ry="4.507" transform="matrix(1, 0, 0, 1, -1.7763568394002505e-15, 8.881784197001252e-16)"/>
  <ellipse style="fill: rgb(216, 216, 216); fill-opacity: 0; paint-order: stroke; stroke: rgb(33, 61, 186); opacity: 0.9;" cx="36.112" cy="31.685" rx="4.507" ry="4.507" transform="matrix(1, 0, 0, 1, -1.7763568394002505e-15, 8.881784197001252e-16)"/>
  <ellipse style="fill: rgb(216, 216, 216); fill-opacity: 0; paint-order: stroke; stroke: rgb(33, 61, 186); opacity: 0.9;" cx="43.569" cy="34.072" rx="4.507" ry="4.507" transform="matrix(1, 0, 0, 1, -1.7763568394002505e-15, 8.881784197001252e-16)"/>
  <ellipse style="fill: rgb(216, 216, 216); fill-opacity: 0; paint-order: stroke; stroke: rgb(33, 61, 186); opacity: 0.9;" cx="47.298" cy="35.041" rx="4.507" ry="4.507" transform="matrix(1, 0, 0, 1, -1.7763568394002505e-15, 8.881784197001252e-16)"/>
  <path d="M 28.133 19.872 L 29.138 22.105 L 27.127 22.105 L 28.133 19.872 Z" style="fill: rgb(216, 216, 216); stroke: rgb(0, 0, 0);" transform="matrix(1, 0, 0, 1, -1.7763568394002505e-15, 8.881784197001252e-16)"/>
</svg>