<?xml version="1.0" encoding="utf-8"?>
<svg viewBox="0 0 102.001 56.602" width="102.001px" height="56.602px" xmlns="http://www.w3.org/2000/svg">
  <ellipse style="fill: rgb(216, 216, 216); fill-opacity: 0; paint-order: stroke; stroke: rgb(33, 61, 186); opacity: 0.9;" cx="33.093" cy="49.82" rx="5.813" ry="5.813" transform="matrix(1, 0, 0, 1, 1.1102230246251565e-16, 0)"/>
  <ellipse style="fill: rgb(216, 216, 216); fill-opacity: 0; paint-order: stroke; stroke: rgb(33, 61, 186); opacity: 0.9;" cx="30.147" cy="50.114" rx="5.813" ry="5.813" transform="matrix(1, 0, 0, 1, 1.1102230246251565e-16, 0)"/>
  <ellipse style="fill: rgb(216, 216, 216); fill-opacity: 0; paint-order: stroke; stroke: rgb(33, 61, 186); opacity: 0.9;" cx="25.523" cy="50.039" rx="5.813" ry="5.813" transform="matrix(1, 0, 0, 1, 1.1102230246251565e-16, 0)"/>
  <ellipse style="fill: rgb(216, 216, 216); fill-opacity: 0; paint-order: stroke; stroke: rgb(33, 61, 186); opacity: 0.9;" cx="20.153" cy="48.846" rx="6.335" ry="6.335" transform="matrix(1, 0, 0, 1, 1.1102230246251565e-16, 0)"/>
  <ellipse style="fill: rgb(216, 216, 216); fill-opacity: 0; paint-order: stroke; stroke: rgb(33, 61, 186); opacity: 0.9;" cx="16.5" cy="47.354" rx="6.559" ry="6.559" transform="matrix(1, 0, 0, 1, 1.1102230246251565e-16, 0)"/>
  <ellipse style="fill: rgb(216, 216, 216); fill-opacity: 0; paint-order: stroke; stroke: rgb(33, 61, 186); opacity: 0.9;" cx="13.405" cy="44.857" rx="6.895" ry="6.895" transform="matrix(1, 0, 0, 1, 1.1102230246251565e-16, 0)"/>
  <ellipse style="fill: rgb(216, 216, 216); fill-opacity: 0; paint-order: stroke; stroke: rgb(33, 61, 186); opacity: 0.9;" cx="11.205" cy="42.134" rx="6.895" ry="6.895" transform="matrix(1, 0, 0, 1, 1.1102230246251565e-16, 0)"/>
  <ellipse style="fill: rgb(216, 216, 216); fill-opacity: 0; paint-order: stroke; stroke: rgb(33, 61, 186); opacity: 0.9;" cx="9.639" cy="39.243" rx="7.119" ry="7.119" transform="matrix(1, 0, 0, 1, 1.1102230246251565e-16, 0)"/>
  <ellipse style="fill: rgb(216, 216, 216); fill-opacity: 0; paint-order: stroke; stroke: rgb(33, 61, 186); opacity: 0.9;" cx="8.523" cy="36.152" rx="7.119" ry="7.119" transform="matrix(1, 0, 0, 1, 1.1102230246251565e-16, 0)"/>
  <ellipse style="fill: rgb(216, 216, 216); fill-opacity: 0; paint-order: stroke; stroke: rgb(33, 61, 186); opacity: 0.9;" cx="7.851" cy="32.258" rx="7.119" ry="7.119" transform="matrix(1, 0, 0, 1, 1.1102230246251565e-16, 0)"/>
  <ellipse style="fill: rgb(216, 216, 216); fill-opacity: 0; paint-order: stroke; stroke: rgb(33, 61, 186); opacity: 0.9;" cx="7.478" cy="28.082" rx="7.119" ry="7.119" transform="matrix(1, 0, 0, 1, 1.1102230246251565e-16, 0)"/>
  <ellipse style="fill: rgb(216, 216, 216); fill-opacity: 0; paint-order: stroke; stroke: rgb(33, 61, 186); opacity: 0.9;" cx="7.851" cy="24.601" rx="7.119" ry="7.119" transform="matrix(1, 0, 0, 1, 1.1102230246251565e-16, 0)"/>
  <ellipse style="fill: rgb(216, 216, 216); fill-opacity: 0; paint-order: stroke; stroke: rgb(33, 61, 186); opacity: 0.9;" cx="8.597" cy="21.022" rx="7.119" ry="7.119" transform="matrix(1, 0, 0, 1, 1.1102230246251565e-16, 0)"/>
  <ellipse style="fill: rgb(216, 216, 216); fill-opacity: 0; paint-order: stroke; stroke: rgb(33, 61, 186); opacity: 0.9;" cx="9.79" cy="17.459" rx="7.119" ry="7.119" transform="matrix(1, 0, 0, 1, 1.1102230246251565e-16, 0)"/>
  <ellipse style="fill: rgb(216, 216, 216); fill-opacity: 0; paint-order: stroke; stroke: rgb(33, 61, 186); opacity: 0.9;" cx="12.102" cy="13.655" rx="6.672" ry="6.672" transform="matrix(1, 0, 0, 1, 1.1102230246251565e-16, 0)"/>
  <ellipse style="fill: rgb(216, 216, 216); fill-opacity: 0; paint-order: stroke; stroke: rgb(33, 61, 186); opacity: 0.9;" cx="15.159" cy="10.275" rx="6.448" ry="6.448" transform="matrix(1, 0, 0, 1, 1.1102230246251565e-16, 0)"/>
  <ellipse style="fill: rgb(216, 216, 216); fill-opacity: 0; paint-order: stroke; stroke: rgb(33, 61, 186); opacity: 0.9;" cx="18.739" cy="8.038" rx="6.075" ry="6.075" transform="matrix(1, 0, 0, 1, 1.1102230246251565e-16, 0)"/>
  <ellipse style="fill: rgb(216, 216, 216); fill-opacity: 0; paint-order: stroke; stroke: rgb(33, 61, 186); opacity: 0.9;" cx="22.467" cy="6.844" rx="6.075" ry="6.075" transform="matrix(1, 0, 0, 1, 1.1102230246251565e-16, 0)"/>
  <ellipse style="fill: rgb(216, 216, 216); fill-opacity: 0; paint-order: stroke; stroke: rgb(33, 61, 186); opacity: 0.9;" cx="26.643" cy="6.463" rx="6.075" ry="6.075" transform="matrix(1, 0, 0, 1, 1.1102230246251565e-16, 0)"/>
  <ellipse style="fill: rgb(216, 216, 216); fill-opacity: 0; paint-order: stroke; stroke: rgb(33, 61, 186); opacity: 0.9;" cx="31.938" cy="6.762" rx="6.075" ry="6.075" transform="matrix(1, 0, 0, 1, 1.1102230246251565e-16, 0)"/>
  <ellipse style="fill: rgb(216, 216, 216); fill-opacity: 0; paint-order: stroke; stroke: rgb(33, 61, 186); opacity: 0.9;" cx="36.786" cy="8.253" rx="6.299" ry="6.299" transform="matrix(1, 0, 0, 1, 1.1102230246251565e-16, 0)"/>
  <ellipse style="fill: rgb(216, 216, 216); fill-opacity: 0; paint-order: stroke; stroke: rgb(33, 61, 186); opacity: 0.9;" cx="40.254" cy="10.371" rx="6.634" ry="6.634" transform="matrix(1, 0, 0, 1, 1.1102230246251565e-16, 0)"/>
  <ellipse style="fill: rgb(216, 216, 216); fill-opacity: 0; paint-order: stroke; stroke: rgb(33, 61, 186); opacity: 0.9;" cx="42.379" cy="12.347" rx="6.634" ry="6.634" transform="matrix(1, 0, 0, 1, 1.1102230246251565e-16, 0)"/>
  <ellipse style="fill: rgb(216, 216, 216); fill-opacity: 0; paint-order: stroke; stroke: rgb(33, 61, 186); opacity: 0.9;" cx="45.026" cy="15.566" rx="6.82" ry="6.82" transform="matrix(1, 0, 0, 1, 1.1102230246251565e-16, 0)"/>
  <ellipse style="fill: rgb(216, 216, 216); fill-opacity: 0; paint-order: stroke; stroke: rgb(33, 61, 186); opacity: 0.9;" cx="47.003" cy="18.884" rx="6.82" ry="6.82" transform="matrix(1, 0, 0, 1, 1.1102230246251565e-16, 0)"/>
  <ellipse style="fill: rgb(216, 216, 216); fill-opacity: 0; paint-order: stroke; stroke: rgb(33, 61, 186); opacity: 0.9;" cx="48.792" cy="22.463" rx="6.82" ry="6.82" transform="matrix(1, 0, 0, 1, 1.1102230246251565e-16, 0)"/>
  <ellipse style="fill: rgb(216, 216, 216); fill-opacity: 0; paint-order: stroke; stroke: rgb(33, 61, 186); opacity: 0.9;" cx="49.985" cy="25.223" rx="6.82" ry="6.82" transform="matrix(1, 0, 0, 1, 1.1102230246251565e-16, 0)"/>
  <ellipse style="fill: rgb(216, 216, 216); fill-opacity: 0; paint-order: stroke; stroke: rgb(33, 61, 186); opacity: 0.9;" cx="51.03" cy="28.206" rx="6.82" ry="6.82" transform="matrix(1, 0, 0, 1, 1.1102230246251565e-16, 0)"/>
  <path d="M 65.968 21.289 L 66.973 23.522 L 64.962 23.522 L 65.968 21.289 Z" style="fill: rgb(216, 216, 216); stroke: rgb(0, 0, 0);" transform="matrix(1, 0, 0, 1, 1.1102230246251565e-16, 0)"/>
  <ellipse style="fill: rgb(216, 216, 216); fill-opacity: 0; paint-order: stroke; opacity: 0.9; stroke: rgb(33, 186, 53);" cx="68.95" cy="6.596" rx="5.813" ry="5.813" transform="matrix(1, 0, 0, 1, 1.1102230246251565e-16, 0)"/>
  <ellipse style="fill: rgb(216, 216, 216); fill-opacity: 0; paint-order: stroke; opacity: 0.9; stroke: rgb(33, 186, 53);" cx="72.008" cy="6.521" rx="5.813" ry="5.813" transform="matrix(1, 0, 0, 1, 1.1102230246251565e-16, 0)"/>
  <ellipse style="fill: rgb(216, 216, 216); fill-opacity: 0; paint-order: stroke; opacity: 0.9; stroke: rgb(33, 186, 53);" cx="76.333" cy="6.521" rx="5.888" ry="5.888" transform="matrix(1, 0, 0, 1, 1.1102230246251565e-16, 0)"/>
  <ellipse style="fill: rgb(216, 216, 216); fill-opacity: 0; paint-order: stroke; opacity: 0.9; stroke: rgb(33, 186, 53);" cx="81.741" cy="7.527" rx="6.223" ry="6.223" transform="matrix(1, 0, 0, 1, 1.1102230246251565e-16, 0)"/>
  <ellipse style="fill: rgb(216, 216, 216); fill-opacity: 0; paint-order: stroke; opacity: 0.9; stroke: rgb(33, 186, 53);" cx="86.29" cy="9.765" rx="6.708" ry="6.708" transform="matrix(1, 0, 0, 1, 1.1102230246251565e-16, 0)"/>
  <ellipse style="fill: rgb(216, 216, 216); fill-opacity: 0; paint-order: stroke; opacity: 0.9; stroke: rgb(33, 186, 53);" cx="89.869" cy="13.345" rx="6.894" ry="6.894" transform="matrix(1, 0, 0, 1, 1.1102230246251565e-16, 0)"/>
  <ellipse style="fill: rgb(216, 216, 216); fill-opacity: 0; paint-order: stroke; opacity: 0.9; stroke: rgb(33, 186, 53);" cx="93" cy="18.756" rx="7.08" ry="7.08" transform="matrix(1, 0, 0, 1, 1.1102230246251565e-16, 0)"/>
  <ellipse style="fill: rgb(216, 216, 216); fill-opacity: 0; paint-order: stroke; opacity: 0.9; stroke: rgb(33, 186, 53);" cx="93.858" cy="22.72" rx="7.08" ry="7.08" transform="matrix(1, 0, 0, 1, 1.1102230246251565e-16, 0)"/>
  <ellipse style="fill: rgb(216, 216, 216); fill-opacity: 0; paint-order: stroke; opacity: 0.9; stroke: rgb(33, 186, 53);" cx="94.455" cy="26.192" rx="7.08" ry="7.08" transform="matrix(1, 0, 0, 1, 1.1102230246251565e-16, 0)"/>
  <ellipse style="fill: rgb(216, 216, 216); fill-opacity: 0; paint-order: stroke; opacity: 0.9; stroke: rgb(33, 186, 53);" cx="94.305" cy="31.015" rx="7.08" ry="7.08" transform="matrix(1, 0, 0, 1, 1.1102230246251565e-16, 0)"/>
  <ellipse style="fill: rgb(216, 216, 216); fill-opacity: 0; paint-order: stroke; opacity: 0.9; stroke: rgb(33, 186, 53);" cx="93.486" cy="35.903" rx="7.08" ry="7.08" transform="matrix(1, 0, 0, 1, 1.1102230246251565e-16, 0)"/>
  <ellipse style="fill: rgb(216, 216, 216); fill-opacity: 0; paint-order: stroke; opacity: 0.9; stroke: rgb(33, 186, 53);" cx="91.733" cy="40.009" rx="6.819" ry="6.819" transform="matrix(1, 0, 0, 1, 1.1102230246251565e-16, 0)"/>
  <ellipse style="fill: rgb(216, 216, 216); fill-opacity: 0; paint-order: stroke; opacity: 0.9; stroke: rgb(33, 186, 53);" cx="89.756" cy="43.154" rx="6.819" ry="6.819" transform="matrix(1, 0, 0, 1, 1.1102230246251565e-16, 0)"/>
  <ellipse style="fill: rgb(216, 216, 216); fill-opacity: 0; paint-order: stroke; opacity: 0.9; stroke: rgb(33, 186, 53);" cx="86.624" cy="46.187" rx="6.148" ry="6.148" transform="matrix(1, 0, 0, 1, 1.1102230246251565e-16, 0)"/>
  <ellipse style="fill: rgb(216, 216, 216); fill-opacity: 0; paint-order: stroke; opacity: 0.9; stroke: rgb(33, 186, 53);" cx="82.895" cy="48.647" rx="5.924" ry="5.924" transform="matrix(1, 0, 0, 1, 1.1102230246251565e-16, 0)"/>
  <ellipse style="fill: rgb(216, 216, 216); fill-opacity: 0; paint-order: stroke; opacity: 0.9; stroke: rgb(33, 186, 53);" cx="79.018" cy="49.666" rx="5.924" ry="5.924" transform="matrix(1, 0, 0, 1, 1.1102230246251565e-16, 0)"/>
  <ellipse style="fill: rgb(216, 216, 216); fill-opacity: 0; paint-order: stroke; opacity: 0.9; stroke: rgb(33, 186, 53);" cx="74.842" cy="49.949" rx="5.924" ry="5.924" transform="matrix(1, 0, 0, 1, 1.1102230246251565e-16, 0)"/>
  <ellipse style="fill: rgb(216, 216, 216); fill-opacity: 0; paint-order: stroke; opacity: 0.9; stroke: rgb(33, 186, 53);" cx="70.516" cy="49.725" rx="5.924" ry="5.924" transform="matrix(1, 0, 0, 1, 1.1102230246251565e-16, 0)"/>
  <ellipse style="fill: rgb(216, 216, 216); fill-opacity: 0; paint-order: stroke; opacity: 0.9; stroke: rgb(33, 186, 53);" cx="66.191" cy="48.456" rx="6.148" ry="6.148" transform="matrix(1, 0, 0, 1, 1.1102230246251565e-16, 0)"/>
  <ellipse style="fill: rgb(216, 216, 216); fill-opacity: 0; paint-order: stroke; opacity: 0.9; stroke: rgb(33, 186, 53);" cx="62.536" cy="46.593" rx="6.446" ry="6.446" transform="matrix(1, 0, 0, 1, 1.1102230246251565e-16, 0)"/>
  <ellipse style="fill: rgb(216, 216, 216); fill-opacity: 0; paint-order: stroke; opacity: 0.9; stroke: rgb(33, 186, 53);" cx="59.89" cy="44.352" rx="6.707" ry="6.707" transform="matrix(1, 0, 0, 1, 1.1102230246251565e-16, 0)"/>
  <ellipse style="fill: rgb(216, 216, 216); fill-opacity: 0; paint-order: stroke; opacity: 0.9; stroke: rgb(33, 186, 53);" cx="57.54" cy="41.612" rx="7.005" ry="7.005" transform="matrix(1, 0, 0, 1, 1.1102230246251565e-16, 0)"/>
  <ellipse style="fill: rgb(216, 216, 216); fill-opacity: 0; paint-order: stroke; opacity: 0.9; stroke: rgb(33, 186, 53);" cx="55.452" cy="38.522" rx="7.005" ry="7.005" transform="matrix(1, 0, 0, 1, 1.1102230246251565e-16, 0)"/>
  <ellipse style="fill: rgb(216, 216, 216); fill-opacity: 0; paint-order: stroke; opacity: 0.9; stroke: rgb(33, 186, 53);" cx="54.036" cy="35.945" rx="7.005" ry="7.005" transform="matrix(1, 0, 0, 1, 1.1102230246251565e-16, 0)"/>
  <ellipse style="fill: rgb(216, 216, 216); fill-opacity: 0; paint-order: stroke; opacity: 0.9; stroke: rgb(33, 186, 53);" cx="52.767" cy="33.658" rx="7.005" ry="7.005" transform="matrix(1, 0, 0, 1, 1.1102230246251565e-16, 0)"/>
  <ellipse style="fill: rgb(216, 216, 216); fill-opacity: 0; paint-order: stroke; opacity: 0.9; stroke: rgb(33, 186, 53);" cx="51.798" cy="30.749" rx="7.005" ry="7.005" transform="matrix(1, 0, 0, 1, 1.1102230246251565e-16, 0)"/>
  <path d="M 74.32 21.637 L 75.325 23.87 L 73.314 23.87 L 74.32 21.637 Z" style="fill: rgb(216, 216, 216); stroke: rgb(0, 0, 0);" transform="matrix(1, 0, 0, 1, 1.1102230246251565e-16, 0)"/>
</svg>