<?xml version="1.0" encoding="utf-8"?>
<svg viewBox="0 0 53.901 102.201" width="53.901px" height="102.201px" xmlns="http://www.w3.org/2000/svg">
  <ellipse style="fill: rgb(216, 216, 216); fill-opacity: 0; paint-order: stroke; stroke: rgb(33, 61, 186); opacity: 0.9;" cx="43.758" cy="11.159" rx="5.789" ry="5.789" transform="matrix(0.9999999999999999, 0, 0, 0.9999999999999999, -1.4210854715202004e-14, 0)"/>
  <ellipse style="fill: rgb(216, 216, 216); fill-opacity: 0; paint-order: stroke; stroke: rgb(33, 61, 186); opacity: 0.9;" cx="33.484" cy="6.566" rx="5.789" ry="5.789" transform="matrix(0.9999999999999999, 0, 0, 0.9999999999999999, -1.4210854715202004e-14, 0)"/>
  <ellipse style="fill: rgb(216, 216, 216); fill-opacity: 0; paint-order: stroke; stroke: rgb(33, 61, 186); opacity: 0.9;" cx="21.344" cy="7.012" rx="5.521" ry="5.521" transform="matrix(0.9999999999999999, 0, 0, 0.9999999999999999, -1.4210854715202004e-14, 0)"/>
  <ellipse style="fill: rgb(216, 216, 216); fill-opacity: 0; paint-order: stroke; stroke: rgb(33, 61, 186); opacity: 0.9;" cx="12.981" cy="11.861" rx="6.318" ry="6.318" transform="matrix(0.9999999999999999, 0, 0, 0.9999999999999999, -1.4210854715202004e-14, 0)"/>
  <ellipse style="fill: rgb(216, 216, 216); fill-opacity: 0; paint-order: stroke; stroke: rgb(33, 61, 186); opacity: 0.9;" cx="8.93" cy="18.571" rx="6.846" ry="6.846" transform="matrix(0.9999999999999999, 0, 0, 0.9999999999999999, -1.4210854715202004e-14, 0)"/>
  <ellipse style="fill: rgb(216, 216, 216); fill-opacity: 0; paint-order: stroke; stroke: rgb(33, 61, 186); opacity: 0.9;" cx="7.698" cy="26.567" rx="7.066" ry="7.066" transform="matrix(0.9999999999999999, 0, 0, 0.9999999999999999, -1.4210854715202004e-14, 0)"/>
  <ellipse style="fill: rgb(216, 216, 216); fill-opacity: 0; paint-order: stroke; stroke: rgb(33, 61, 186); opacity: 0.9;" cx="9.72" cy="35.617" rx="6.89" ry="6.89" transform="matrix(0.9999999999999999, 0, 0, 0.9999999999999999, -1.4210854715202004e-14, 0)"/>
  <ellipse style="fill: rgb(216, 216, 216); fill-opacity: 0; paint-order: stroke; stroke: rgb(33, 61, 186); opacity: 0.9;" cx="16.485" cy="42.383" rx="6.187" ry="6.187" transform="matrix(0.9999999999999999, 0, 0, 0.9999999999999999, -1.4210854715202004e-14, 0)"/>
  <ellipse style="fill: rgb(216, 216, 216); fill-opacity: 0; paint-order: stroke; stroke: rgb(33, 61, 186); opacity: 0.9;" cx="26.327" cy="45.175" rx="5.748" ry="5.748" transform="matrix(0.9999999999999999, 0, 0, 0.9999999999999999, -1.4210854715202004e-14, 0)"/>
  <ellipse style="fill: rgb(216, 216, 216); fill-opacity: 0; paint-order: stroke; stroke: rgb(33, 61, 186); opacity: 0.9;" cx="35.817" cy="43.945" rx="5.484" ry="5.484" transform="matrix(0.9999999999999999, 0, 0, 0.9999999999999999, -1.4210854715202004e-14, 0)"/>
  <ellipse style="fill: rgb(216, 216, 216); fill-opacity: 0; paint-order: stroke; stroke: rgb(33, 61, 186); opacity: 0.9;" cx="42.495" cy="41.221" rx="5.484" ry="5.484" transform="matrix(0.9999999999999999, 0, 0, 0.9999999999999999, -1.4210854715202004e-14, 0)"/>
  <ellipse style="fill: rgb(216, 216, 216); fill-opacity: 0; paint-order: stroke; stroke: rgb(33, 61, 186); opacity: 0.9;" cx="45.658" cy="39.904" rx="5.484" ry="5.484" transform="matrix(0.9999999999999999, 0, 0, 0.9999999999999999, -1.4210854715202004e-14, 0)"/>
  <ellipse style="fill: rgb(216, 216, 216); fill-opacity: 0; paint-order: stroke; opacity: 0.9; stroke: rgb(33, 186, 60);" cx="45.658" cy="42.864" rx="5.484" ry="5.484" transform="matrix(0.9999999999999999, 0, 0, 0.9999999999999999, -1.4210854715202004e-14, 0)"/>
  <ellipse style="fill: rgb(216, 216, 216); fill-opacity: 0; paint-order: stroke; opacity: 0.9; stroke: rgb(33, 186, 60);" cx="45.932" cy="50.248" rx="5.484" ry="5.484" transform="matrix(0.9999999999999999, 0, 0, 0.9999999999999999, 0, 0)"/>
  <ellipse style="fill: rgb(216, 216, 216); fill-opacity: 0; paint-order: stroke; opacity: 0.9; stroke: rgb(33, 186, 60);" cx="45.574" cy="56.89" rx="5.484" ry="5.484" transform="matrix(0.9999999999999999, 0, 0, 0.9999999999999999, -1.4210854715202004e-14, 0)"/>
  <ellipse style="fill: rgb(216, 216, 216); fill-opacity: 0; paint-order: stroke; opacity: 0.9; stroke: rgb(33, 186, 60);" cx="38.277" cy="59.908" rx="4.957" ry="4.957" transform="matrix(0.9999999999999999, 0, 0, 0.9999999999999999, -1.4210854715202004e-14, 0)"/>
  <ellipse style="fill: rgb(216, 216, 216); fill-opacity: 0; paint-order: stroke; opacity: 0.9; stroke: rgb(33, 186, 60);" cx="29.841" cy="61.138" rx="4.606" ry="4.606" transform="matrix(0.9999999999999999, 0, 0, 0.9999999999999999, -1.4210854715202004e-14, 0)"/>
  <ellipse style="fill: rgb(216, 216, 216); fill-opacity: 0; paint-order: stroke; opacity: 0.9; stroke: rgb(33, 186, 60);" cx="21.581" cy="61.109" rx="4.474" ry="4.474" transform="matrix(0.9999999999999999, 0, 0, 0.9999999999999999, -1.4210854715202004e-14, 0)"/>
  <ellipse style="fill: rgb(216, 216, 216); fill-opacity: 0; paint-order: stroke; opacity: 0.9; stroke: rgb(33, 186, 60);" cx="12.971" cy="59.849" rx="4.474" ry="4.474" transform="matrix(0.9999999999999999, 0, 0, 0.9999999999999999, -1.4210854715202004e-14, 0)"/>
  <ellipse style="fill: rgb(216, 216, 216); fill-opacity: 0; paint-order: stroke; opacity: 0.9; stroke: rgb(33, 186, 60);" cx="7.963" cy="58.355" rx="4.474" ry="4.474" transform="matrix(0.9999999999999999, 0, 0, 0.9999999999999999, -1.4210854715202004e-14, 0)"/>
  <ellipse style="fill: rgb(216, 216, 216); fill-opacity: 0; paint-order: stroke; opacity: 0.9; stroke: rgb(33, 99, 186);" cx="7.795" cy="67.611" rx="4.474" ry="4.474" transform="matrix(0.9999999999999999, 0, 0, 0.9999999999999999, -1.4210854715202004e-14, 0)"/>
  <ellipse style="fill: rgb(216, 216, 216); fill-opacity: 0; paint-order: stroke; opacity: 0.9; stroke: rgb(33, 99, 186);" cx="7.963" cy="72.942" rx="4.474" ry="4.474" transform="matrix(0.9999999999999999, 0, 0, 0.9999999999999999, -1.4210854715202004e-14, 0)"/>
  <ellipse style="fill: rgb(216, 216, 216); fill-opacity: 0; paint-order: stroke; opacity: 0.9; stroke: rgb(33, 99, 186);" cx="8.05" cy="82.822" rx="4.474" ry="4.474" transform="matrix(0.9999999999999999, 0, 0, 0.9999999999999999, -1.4210854715202004e-14, 0)"/>
  <ellipse style="fill: rgb(216, 216, 216); fill-opacity: 0; paint-order: stroke; opacity: 0.9; stroke: rgb(33, 99, 186);" cx="8.314" cy="87.635" rx="4.474" ry="4.474" transform="matrix(0.9999999999999999, 0, 0, 0.9999999999999999, -1.4210854715202004e-14, 0)"/>
  <ellipse style="fill: rgb(216, 216, 216); fill-opacity: 0; paint-order: stroke; opacity: 0.9; stroke: rgb(33, 99, 186);" cx="11.038" cy="94.254" rx="4.474" ry="4.474" transform="matrix(0.9999999999999999, 0, 0, 0.9999999999999999, -1.4210854715202004e-14, 0)"/>
  <ellipse style="fill: rgb(216, 216, 216); fill-opacity: 0; paint-order: stroke; opacity: 0.9; stroke: rgb(33, 99, 186);" cx="17.979" cy="97.417" rx="4.21" ry="4.21" transform="matrix(0.9999999999999999, 0, 0, 0.9999999999999999, -1.4210854715202004e-14, 0)"/>
  <ellipse style="fill: rgb(216, 216, 216); fill-opacity: 0; paint-order: stroke; opacity: 0.9; stroke: rgb(33, 99, 186);" cx="25.272" cy="97.329" rx="4.21" ry="4.21" transform="matrix(0.9999999999999999, 0, 0, 0.9999999999999999, -1.4210854715202004e-14, 0)"/>
  <ellipse style="fill: rgb(216, 216, 216); fill-opacity: 0; paint-order: stroke; opacity: 0.9; stroke: rgb(33, 99, 186);" cx="32.741" cy="97.505" rx="4.21" ry="4.21" transform="matrix(0.9999999999999999, 0, 0, 0.9999999999999999, -1.4210854715202004e-14, 0)"/>
  <ellipse style="fill: rgb(216, 216, 216); fill-opacity: 0; paint-order: stroke; opacity: 0.9; stroke: rgb(33, 99, 186);" cx="39.243" cy="97.154" rx="4.21" ry="4.21" transform="matrix(0.9999999999999999, 0, 0, 0.9999999999999999, -1.4210854715202004e-14, 0)"/>
  <ellipse style="fill: rgb(216, 216, 216); fill-opacity: 0; paint-order: stroke; opacity: 0.9; stroke: rgb(33, 99, 186);" cx="44.778" cy="94.693" rx="4.737" ry="4.737" transform="matrix(0.9999999999999999, 0, 0, 0.9999999999999999, -1.4210854715202004e-14, 0)"/>
  <ellipse style="fill: rgb(216, 216, 216); fill-opacity: 0; paint-order: stroke; opacity: 0.9; stroke: rgb(33, 99, 186);" cx="47.59" cy="89.334" rx="4.913" ry="4.913" transform="matrix(0.9999999999999999, 0, 0, 0.9999999999999999, -1.4210854715202004e-14, 0)"/>
  <ellipse style="fill: rgb(216, 216, 216); fill-opacity: 0; paint-order: stroke; opacity: 0.9; stroke: rgb(33, 99, 186);" cx="48.205" cy="84.676" rx="4.913" ry="4.913" transform="matrix(0.9999999999999999, 0, 0, 0.9999999999999999, -1.4210854715202004e-14, 0)"/>
  <path d="M 38.411 26.961 L 45.618 24.728 L 31.198 24.728 L 38.411 26.961 Z" style="fill: rgb(216, 216, 216); stroke: rgb(0, 0, 0); transform-origin: 38.408px 25.8445px;" transform="matrix(-1, 0, 0, -1, 0.000001144648, -0.000003044471)"/>
</svg>