<?xml version="1.0" encoding="utf-8"?>
<svg viewBox="0 0 60.801 56.601" width="60.801px" height="56.601px" xmlns="http://www.w3.org/2000/svg">

  <ellipse style="fill: rgb(216, 216, 216); stroke: rgb(0, 0, 0); fill-opacity: 0; paint-order: stroke;" cx="13.246" cy="10.123" rx="6.582" ry="6.582" transform="matrix(1, 0, 0, 1, 0, 1.7763568394002505e-15)"/>
  <ellipse style="fill: rgb(216, 216, 216); stroke: rgb(0, 0, 0); fill-opacity: 0; paint-order: stroke;" cx="9.073" cy="17.662" rx="6.894" ry="6.894" transform="matrix(1, 0, 0, 1, 0, 1.7763568394002505e-15)"/>
  <ellipse style="fill: rgb(216, 216, 216); stroke: rgb(0, 0, 0); fill-opacity: 0; paint-order: stroke;" cx="7.266" cy="26.447" rx="6.894" ry="6.894" transform="matrix(1, 0, 0, 1, 0, 1.7763568394002505e-15)"/>
  <ellipse style="fill: rgb(216, 216, 216); stroke: rgb(0, 0, 0); fill-opacity: 0; paint-order: stroke;" cx="8.512" cy="36.041" rx="6.894" ry="6.894" transform="matrix(1, 0, 0, 1, 0, 1.7763568394002505e-15)"/>
  <ellipse style="fill: rgb(216, 216, 216); stroke: rgb(0, 0, 0); fill-opacity: 0; paint-order: stroke;" cx="12.313" cy="43.579" rx="6.084" ry="6.084" transform="matrix(1, 0, 0, 1, 0, 1.7763568394002505e-15)"/>
  <ellipse style="fill: rgb(216, 216, 216); stroke: rgb(0, 0, 0); fill-opacity: 0; paint-order: stroke;" cx="18.91" cy="48.821" rx="5.586" ry="5.586" transform="matrix(1, 0, 0, 1, 0, 1.7763568394002505e-15)"/>
  <ellipse style="fill: rgb(216, 216, 216); stroke: rgb(0, 0, 0); fill-opacity: 0; paint-order: stroke;" cx="26.26" cy="50.937" rx="5.461" ry="5.461" transform="matrix(1, 0, 0, 1, 0, 1.7763568394002505e-15)"/>
  <ellipse style="fill: rgb(216, 216, 216); stroke: rgb(0, 0, 0); fill-opacity: 0; paint-order: stroke;" cx="33.986" cy="51.062" rx="5.461" ry="5.461" transform="matrix(1, 0, 0, 1, 0, 1.7763568394002505e-15)"/>
  <ellipse style="fill: rgb(216, 216, 216); stroke: rgb(0, 0, 0); fill-opacity: 0; paint-order: stroke;" cx="41.836" cy="48.57" rx="5.461" ry="5.461" transform="matrix(1, 0, 0, 1, 0, 1.7763568394002505e-15)"/>
  <ellipse style="fill: rgb(216, 216, 216); stroke: rgb(0, 0, 0); fill-opacity: 0; paint-order: stroke;" cx="48.565" cy="43.462" rx="5.835" ry="5.835" transform="matrix(1, 0, 0, 1, 0, 1.7763568394002505e-15)"/>
  <ellipse style="fill: rgb(216, 216, 216); stroke: rgb(0, 0, 0); fill-opacity: 0; paint-order: stroke;" cx="52.552" cy="36.235" rx="6.333" ry="6.333" transform="matrix(1, 0, 0, 1, 0, 1.7763568394002505e-15)"/>
  <ellipse style="fill: rgb(216, 216, 216); stroke: rgb(0, 0, 0); fill-opacity: 0; paint-order: stroke;" cx="53.798" cy="28.51" rx="6.582" ry="6.582" transform="matrix(1, 0, 0, 1, 0, 1.7763568394002505e-15)"/>
  <ellipse style="fill: rgb(216, 216, 216); stroke: rgb(0, 0, 0); fill-opacity: 0; paint-order: stroke;" cx="52.303" cy="18.541" rx="7.08" ry="7.08" transform="matrix(1, 0, 0, 1, 0, 1.7763568394002505e-15)"/>
  <ellipse style="fill: rgb(216, 216, 216); stroke: rgb(0, 0, 0); fill-opacity: 0; paint-order: stroke;" cx="48.066" cy="10.94" rx="7.08" ry="7.08" transform="matrix(1, 0, 0, 1, 0, 1.7763568394002505e-15)"/>
  <path d="M 23.021 3.095 L 24.026 5.328 L 22.015 5.328 L 23.021 3.095 Z" style="fill: rgb(216, 216, 216); stroke: rgb(0, 0, 0);" transform="matrix(1, 0, 0, 1, 0, 1.7763568394002505e-15)"/>
  <ellipse style="fill: rgb(216, 216, 216); stroke: rgb(0, 0, 0); fill-opacity: 0; paint-order: stroke;" cx="10.997" cy="35.798" rx="6.644" ry="6.644" transform="matrix(1, 0, 0, 1, 0, 1.7763568394002505e-15)"/>
  <ellipse style="fill: rgb(216, 216, 216); stroke: rgb(0, 0, 0); fill-opacity: 0; paint-order: stroke;" cx="19.097" cy="33.431" rx="4.339" ry="4.339" transform="matrix(1, 0, 0, 1, 0, 1.7763568394002505e-15)"/>
  <ellipse style="fill: rgb(216, 216, 216); stroke: rgb(0, 0, 0); fill-opacity: 0; paint-order: stroke;" cx="25.015" cy="31.625" rx="4.339" ry="4.339" transform="matrix(1, 0, 0, 1, 0, 1.7763568394002505e-15)"/>
  <ellipse style="fill: rgb(216, 216, 216); stroke: rgb(0, 0, 0); fill-opacity: 0; paint-order: stroke;" cx="31.805" cy="31.063" rx="4.401" ry="4.401" transform="matrix(1, 0, 0, 1, 0, 1.7763568394002505e-15)"/>
  <ellipse style="fill: rgb(216, 216, 216); stroke: rgb(0, 0, 0); fill-opacity: 0; paint-order: stroke;" cx="38.222" cy="31.873" rx="4.401" ry="4.401" transform="matrix(1, 0, 0, 1, 0, 1.7763568394002505e-15)"/>
  <ellipse style="fill: rgb(216, 216, 216); stroke: rgb(0, 0, 0); fill-opacity: 0; paint-order: stroke;" cx="44.328" cy="33.618" rx="4.401" ry="4.401" transform="matrix(1, 0, 0, 1, 0, 1.7763568394002505e-15)"/>
  <ellipse style="fill: rgb(216, 216, 216); stroke: rgb(0, 0, 0); fill-opacity: 0; paint-order: stroke;" cx="49.874" cy="36.919" rx="5.211" ry="5.211" transform="matrix(1, 0, 0, 1, 0, 1.7763568394002505e-15)"/>
  <path d="M 33.239 3.22 L 34.244 5.453 L 32.233 5.453 L 33.239 3.22 Z" style="fill: rgb(216, 216, 216); stroke: rgb(0, 0, 0);" transform="matrix(1, 0, 0, 1, 0, 1.7763568394002505e-15)"/>
</svg>