<?xml version="1.0" encoding="utf-8"?>
<svg viewBox="0 0 57.301 56.501" width="57.301px" height="56.501px" xmlns="http://www.w3.org/2000/svg">
  <ellipse style="fill: rgb(216, 216, 216); stroke: rgb(0, 0, 0); fill-opacity: 0; paint-order: stroke;" cx="47.523" cy="44.213" rx="5.956" ry="5.956" transform="matrix(1, 0, 0, 1, 3.552713678800501e-15, 0)"/>
  <ellipse style="fill: rgb(216, 216, 216); stroke: rgb(0, 0, 0); fill-opacity: 0; paint-order: stroke;" cx="40.381" cy="49.262" rx="5.956" ry="5.956" transform="matrix(1, 0, 0, 1, 3.552713678800501e-15, 0)"/>
  <ellipse style="fill: rgb(216, 216, 216); stroke: rgb(0, 0, 0); fill-opacity: 0; paint-order: stroke;" cx="32.376" cy="50.493" rx="5.956" ry="5.956" transform="matrix(1, 0, 0, 1, 3.552713678800501e-15, 0)"/>
  <ellipse style="fill: rgb(216, 216, 216); stroke: rgb(0, 0, 0); fill-opacity: 0; paint-order: stroke;" cx="23.142" cy="49.508" rx="5.956" ry="5.956" transform="matrix(1, 0, 0, 1, 3.552713678800501e-15, 0)"/>
  <ellipse style="fill: rgb(216, 216, 216); stroke: rgb(0, 0, 0); fill-opacity: 0; paint-order: stroke;" cx="15.076" cy="45.137" rx="6.387" ry="6.387" transform="matrix(1, 0, 0, 1, 3.552713678800501e-15, 0)"/>
  <ellipse style="fill: rgb(216, 216, 216); stroke: rgb(0, 0, 0); fill-opacity: 0; paint-order: stroke;" cx="9.597" cy="38.303" rx="6.756" ry="6.756" transform="matrix(1, 0, 0, 1, 3.552713678800501e-15, 0)"/>
  <ellipse style="fill: rgb(216, 216, 216); stroke: rgb(0, 0, 0); fill-opacity: 0; paint-order: stroke;" cx="7.627" cy="28.575" rx="7.125" ry="7.125" transform="matrix(1, 0, 0, 1, 3.552713678800501e-15, 0)"/>
  <ellipse style="fill: rgb(216, 216, 216); stroke: rgb(0, 0, 0); fill-opacity: 0; paint-order: stroke;" cx="9.597" cy="18.355" rx="7.125" ry="7.125" transform="matrix(1, 0, 0, 1, 3.552713678800501e-15, 0)"/>
  <ellipse style="fill: rgb(216, 216, 216); stroke: rgb(0, 0, 0); fill-opacity: 0; paint-order: stroke;" cx="15.015" cy="10.966" rx="6.263" ry="6.263" transform="matrix(1, 0, 0, 1, 3.552713678800501e-15, 0)"/>
  <ellipse style="fill: rgb(216, 216, 216); stroke: rgb(0, 0, 0); fill-opacity: 0; paint-order: stroke;" cx="23.141" cy="7.027" rx="6.017" ry="6.017" transform="matrix(1, 0, 0, 1, 3.552713678800501e-15, 0)"/>
  <ellipse style="fill: rgb(216, 216, 216); stroke: rgb(0, 0, 0); fill-opacity: 0; paint-order: stroke;" cx="32.131" cy="6.164" rx="6.017" ry="6.017" transform="matrix(1, 0, 0, 1, 3.552713678800501e-15, 0)"/>
  <ellipse style="fill: rgb(216, 216, 216); stroke: rgb(0, 0, 0); fill-opacity: 0; paint-order: stroke;" cx="39.643" cy="7.642" rx="5.648" ry="5.648" transform="matrix(1, 0, 0, 1, 3.552713678800501e-15, 0)"/>
  <ellipse style="fill: rgb(216, 216, 216); stroke: rgb(0, 0, 0); fill-opacity: 0; paint-order: stroke;" cx="46.661" cy="11.706" rx="5.648" ry="5.648" transform="matrix(1, 0, 0, 1, 3.552713678800501e-15, 0)"/>
  <path d="M 26.713 23.242 L 27.718 25.475 L 25.707 25.475 L 26.713 23.242 Z" style="fill: rgb(216, 216, 216); stroke: rgb(0, 0, 0);" transform="matrix(1, 0, 0, 1, 3.552713678800501e-15, 0)"/>
</svg>