<?xml version="1.0" encoding="utf-8"?>
<svg viewBox="0 0 126.401 56.502" width="126.401px" height="56.502px" xmlns="http://www.w3.org/2000/svg">

  <ellipse style="fill: rgb(216, 216, 216); stroke: rgb(0, 0, 0); fill-opacity: 0; paint-order: stroke;" cx="30.324" cy="50.14" rx="5.86" ry="5.86" transform="matrix(1, 0, 0, 1, 0, 8.881784197001252e-16)"/>
  <ellipse style="fill: rgb(216, 216, 216); stroke: rgb(0, 0, 0); fill-opacity: 0; paint-order: stroke;" cx="21.693" cy="49.014" rx="6.085" ry="6.085" transform="matrix(1, 0, 0, 1, 0, 8.881784197001252e-16)"/>
  <ellipse style="fill: rgb(216, 216, 216); stroke: rgb(0, 0, 0); fill-opacity: 0; paint-order: stroke; transform-origin: 2.24379px 44.8436px;" cx="13.586" cy="44.51" rx="6.761" ry="6.761"/>
  <ellipse style="fill: rgb(216, 216, 216); stroke: rgb(0, 0, 0); fill-opacity: 0; paint-order: stroke; transform-origin: -3.29px 36.228px;" cx="8.556" cy="35.879" rx="7.061" ry="7.061"/>
  <ellipse style="fill: rgb(216, 216, 216); stroke: rgb(0, 0, 0); fill-opacity: 0; paint-order: stroke; transform-origin: -4.516px 26.102px;" cx="7.581" cy="25.746" rx="7.211" ry="7.211"/>
  <ellipse style="fill: rgb(216, 216, 216); stroke: rgb(0, 0, 0); fill-opacity: 0; paint-order: stroke; transform-origin: -1.139px 16.118px;" cx="10.958" cy="15.762" rx="7.211" ry="7.211"/>
  <ellipse style="fill: rgb(216, 216, 216); stroke: rgb(0, 0, 0); fill-opacity: 0; paint-order: stroke; transform-origin: 7.726px 9.254px;" cx="18.689" cy="8.931" rx="6.535" ry="6.535"/>
  <ellipse style="fill: rgb(216, 216, 216); stroke: rgb(0, 0, 0); fill-opacity: 0; paint-order: stroke; transform-origin: 18.165px 6.455px;" cx="28.373" cy="6.155" rx="6.085" ry="6.085"/>
  <ellipse style="fill: rgb(216, 216, 216); stroke: rgb(0, 0, 0); fill-opacity: 0; paint-order: stroke; transform-origin: 27.922px 7.206px;" cx="38.13" cy="6.906" rx="6.085" ry="6.085"/>
  <ellipse style="fill: rgb(216, 216, 216); stroke: rgb(0, 0, 0); fill-opacity: 0; paint-order: stroke; transform-origin: 35.729px 11.859px;" cx="45.937" cy="11.559" rx="6.085" ry="6.085"/>
  <ellipse style="fill: rgb(216, 216, 216); stroke: rgb(0, 0, 0); fill-opacity: 0; paint-order: stroke; transform-origin: 40.983px 19.065px;" cx="51.191" cy="18.765" rx="6.085" ry="6.085"/>
  <ellipse style="fill: rgb(216, 216, 216); stroke: rgb(0, 0, 0); fill-opacity: 0; paint-order: stroke; transform-origin: 43.039px 26.627px;" cx="52.618" cy="26.346" rx="5.71" ry="5.71"/>
  <ellipse style="fill: rgb(216, 216, 216); stroke: rgb(0, 0, 0); fill-opacity: 0; paint-order: stroke; transform-origin: 42.513px 34.658px;" cx="52.092" cy="34.377" rx="5.71" ry="5.71"/>
  <ellipse style="fill: rgb(216, 216, 216); stroke: rgb(0, 0, 0); fill-opacity: 0; paint-order: stroke; transform-origin: 42.512px 41.564px;" cx="52.091" cy="41.283" rx="5.71" ry="5.71"/>
  <ellipse style="fill: rgb(216, 216, 216); stroke: rgb(0, 0, 0); fill-opacity: 0; paint-order: stroke; transform-origin: 42.416px 46.653px;" cx="51.492" cy="46.387" rx="5.41" ry="5.41"/>
  <path d="M 27.172 23.653 L 28.177 25.886 L 26.166 25.886 L 27.172 23.653 Z" style="fill: rgb(216, 216, 216); stroke: rgb(0, 0, 0);" transform="matrix(1, 0, 0, 1, 0, 8.881784197001252e-16)"/>
  <ellipse style="fill: rgb(216, 216, 216); stroke: rgb(0, 0, 0); fill-opacity: 0; paint-order: stroke; transform-origin: 38.801px 13.609px;" cx="49.764" cy="13.286" rx="6.535" ry="6.535"/>
  <ellipse style="fill: rgb(216, 216, 216); stroke: rgb(0, 0, 0); fill-opacity: 0; paint-order: stroke; transform-origin: 47.644px 7.556px;" cx="56.97" cy="7.281" rx="5.559" ry="5.559"/>
  <ellipse style="fill: rgb(216, 216, 216); stroke: rgb(0, 0, 0); fill-opacity: 0; paint-order: stroke; transform-origin: 55.424px 6.137px;" cx="65.002" cy="5.854" rx="5.709" ry="5.709"/>
  <ellipse style="fill: rgb(216, 216, 216); stroke: rgb(0, 0, 0); fill-opacity: 0; paint-order: stroke; transform-origin: 63.38px 9.74px;" cx="72.958" cy="9.457" rx="5.709" ry="5.709"/>
  <ellipse style="fill: rgb(216, 216, 216); stroke: rgb(0, 0, 0); fill-opacity: 0; paint-order: stroke; transform-origin: 67.133px 16.646px;" cx="76.711" cy="16.363" rx="5.709" ry="5.709"/>
  <ellipse style="fill: rgb(216, 216, 216); stroke: rgb(0, 0, 0); fill-opacity: 0; paint-order: stroke; transform-origin: 64.432px 23.401px;" cx="74.01" cy="23.118" rx="5.709" ry="5.709"/>
  <ellipse style="fill: rgb(216, 216, 216); stroke: rgb(0, 0, 0); fill-opacity: 0; paint-order: stroke; transform-origin: 64.281px 30.907px;" cx="73.859" cy="30.624" rx="5.709" ry="5.709"/>
  <ellipse style="fill: rgb(216, 216, 216); stroke: rgb(0, 0, 0); fill-opacity: 0; paint-order: stroke; transform-origin: 65.032px 39.014px;" cx="74.61" cy="38.731" rx="5.709" ry="5.709"/>
  <ellipse style="fill: rgb(216, 216, 216); stroke: rgb(0, 0, 0); fill-opacity: 0; paint-order: stroke; transform-origin: 62.126px 46.985px;" cx="72.207" cy="46.687" rx="6.009" ry="6.009"/>
  <ellipse style="fill: rgb(216, 216, 216); stroke: rgb(0, 0, 0); fill-opacity: 0; paint-order: stroke; transform-origin: 54.921px 50.288px;" cx="65.002" cy="49.99" rx="6.009" ry="6.009"/>
  <ellipse style="fill: rgb(216, 216, 216); stroke: rgb(0, 0, 0); fill-opacity: 0; paint-order: stroke; transform-origin: 46.514px 49.237px;" cx="56.595" cy="48.939" rx="6.009" ry="6.009"/>
  <path d="M 34.828 24.704 L 35.833 26.937 L 33.822 26.937 L 34.828 24.704 Z" style="fill: rgb(216, 216, 216); stroke: rgb(0, 0, 0);" transform="matrix(1, 0, 0, 1, 0, 8.881784197001252e-16)"/>
  <ellipse style="fill: rgb(216, 216, 216); stroke: rgb(0, 0, 0); fill-opacity: 0; paint-order: stroke; transform-origin: 66.72px 13.094px;" cx="78.062" cy="12.76" rx="6.761" ry="6.761"/>
  <ellipse style="fill: rgb(216, 216, 216); stroke: rgb(0, 0, 0); fill-opacity: 0; paint-order: stroke; transform-origin: 75.585px 7.882px;" cx="85.794" cy="7.582" rx="6.086" ry="6.086"/>
  <ellipse style="fill: rgb(216, 216, 216); stroke: rgb(0, 0, 0); fill-opacity: 0; paint-order: stroke; transform-origin: 82.866px 6.154px;" cx="93.075" cy="5.854" rx="6.086" ry="6.086"/>
  <ellipse style="fill: rgb(216, 216, 216); stroke: rgb(0, 0, 0); fill-opacity: 0; paint-order: stroke; transform-origin: 92.473px 7.355px;" cx="102.682" cy="7.055" rx="6.086" ry="6.086"/>
  <ellipse style="fill: rgb(216, 216, 216); stroke: rgb(0, 0, 0); fill-opacity: 0; paint-order: stroke; transform-origin: 99.849px 11.209px;" cx="110.939" cy="10.883" rx="6.611" ry="6.611"/>
  <ellipse style="fill: rgb(216, 216, 216); stroke: rgb(0, 0, 0); fill-opacity: 0; paint-order: stroke; transform-origin: 105.752px 19.549px;" cx="117.094" cy="19.215" rx="6.761" ry="6.761"/>
  <ellipse style="fill: rgb(216, 216, 216); stroke: rgb(0, 0, 0); fill-opacity: 0; paint-order: stroke; transform-origin: 106.495px 29.866px;" cx="118.97" cy="29.499" rx="7.437" ry="7.437"/>
  <ellipse style="fill: rgb(216, 216, 216); stroke: rgb(0, 0, 0); fill-opacity: 0; paint-order: stroke; transform-origin: 105.274px 39.147px;" cx="116.867" cy="38.806" rx="6.912" ry="6.912"/>
  <ellipse style="fill: rgb(216, 216, 216); stroke: rgb(0, 0, 0); fill-opacity: 0; paint-order: stroke; transform-origin: 99.045px 46.878px;" cx="110.638" cy="46.537" rx="6.912" ry="6.912"/>
  <ellipse style="fill: rgb(216, 216, 216); stroke: rgb(0, 0, 0); fill-opacity: 0; paint-order: stroke; transform-origin: 92.647px 50.229px;" cx="103.358" cy="49.914" rx="6.387" ry="6.387"/>
  <ellipse style="fill: rgb(216, 216, 216); stroke: rgb(0, 0, 0); fill-opacity: 0; paint-order: stroke; transform-origin: 85.971px 50.733px;" cx="95.927" cy="50.44" rx="5.937" ry="5.937"/>
  <path d="M 28.974 32.21 L 29.979 34.443 L 27.968 34.443 L 28.974 32.21 Z" style="fill: rgb(216, 216, 216); stroke: rgb(0, 0, 0);" transform="matrix(1, 0, 0, 1, 0, 8.881784197001252e-16)"/>
</svg>