<?xml version="1.0" encoding="utf-8"?>
<svg viewBox="0 0 96.403 102.205" width="96.403px" height="102.205px" xmlns="http://www.w3.org/2000/svg">

  <ellipse style="fill: rgb(216, 216, 216); stroke: rgb(0, 0, 0); fill-opacity: 0; paint-order: stroke;" cx="10.326" cy="11.499" rx="5.827" ry="5.827" transform="matrix(0.9999999999999999, 0, 0, 0.9999999999999999, -1.7763568394002505e-15, -3.552713678800501e-15)"/>
  <ellipse style="fill: rgb(216, 216, 216); stroke: rgb(0, 0, 0); fill-opacity: 0; paint-order: stroke;" cx="17.836" cy="7.041" rx="5.827" ry="5.827" transform="matrix(0.9999999999999999, 0, 0, 0.9999999999999999, -1.7763568394002505e-15, -3.552713678800501e-15)"/>
  <ellipse style="fill: rgb(216, 216, 216); stroke: rgb(0, 0, 0); fill-opacity: 0; paint-order: stroke;" cx="27.223" cy="6.102" rx="5.827" ry="5.827" transform="matrix(0.9999999999999999, 0, 0, 0.9999999999999999, -1.7763568394002505e-15, -3.552713678800501e-15)"/>
  <ellipse style="fill: rgb(216, 216, 216); stroke: rgb(0, 0, 0); fill-opacity: 0; paint-order: stroke;" cx="36.552" cy="8.742" rx="6.12" ry="6.12" transform="matrix(0.9999999999999999, 0, 0, 0.9999999999999999, -1.7763568394002505e-15, -3.552713678800501e-15)"/>
  <ellipse style="fill: rgb(216, 216, 216); stroke: rgb(0, 0, 0); fill-opacity: 0; paint-order: stroke;" cx="43.24" cy="16.721" rx="7" ry="7" transform="matrix(0.9999999999999999, 0, 0, 0.9999999999999999, -1.7763568394002505e-15, -3.552713678800501e-15)"/>
  <ellipse style="fill: rgb(216, 216, 216); stroke: rgb(0, 0, 0); fill-opacity: 0; paint-order: stroke;" cx="45.997" cy="27.575" rx="7.117" ry="7.117" transform="matrix(0.9999999999999999, 0, 0, 0.9999999999999999, -1.7763568394002505e-15, -3.552713678800501e-15)"/>
  <ellipse style="fill: rgb(216, 216, 216); stroke: rgb(0, 0, 0); fill-opacity: 0; paint-order: stroke;" cx="43.651" cy="39.075" rx="7.117" ry="7.117" transform="matrix(0.9999999999999999, 0, 0, 0.9999999999999999, -1.7763568394002505e-15, -3.552713678800501e-15)"/>
  <ellipse style="fill: rgb(216, 216, 216); stroke: rgb(0, 0, 0); fill-opacity: 0; paint-order: stroke;" cx="37.549" cy="46.819" rx="6.296" ry="6.296" transform="matrix(0.9999999999999999, 0, 0, 0.9999999999999999, -1.7763568394002505e-15, -3.552713678800501e-15)"/>
  <ellipse style="fill: rgb(216, 216, 216); stroke: rgb(0, 0, 0); fill-opacity: 0; paint-order: stroke;" cx="29.57" cy="50.457" rx="6.061" ry="6.061" transform="matrix(0.9999999999999999, 0, 0, 0.9999999999999999, -1.7763568394002505e-15, -3.552713678800501e-15)"/>
  <ellipse style="fill: rgb(216, 216, 216); stroke: rgb(0, 0, 0); fill-opacity: 0; paint-order: stroke;" cx="20.242" cy="49.577" rx="5.533" ry="5.533" transform="matrix(0.9999999999999999, 0, 0, 0.9999999999999999, -1.7763568394002505e-15, -3.552713678800501e-15)"/>
  <ellipse style="fill: rgb(216, 216, 216); stroke: rgb(0, 0, 0); fill-opacity: 0; paint-order: stroke;" cx="10.797" cy="44.473" rx="6.002" ry="6.002" transform="matrix(0.9999999999999999, 0, 0, 0.9999999999999999, -1.7763568394002505e-15, -3.552713678800501e-15)"/>
  <ellipse style="fill: rgb(216, 216, 216); stroke: rgb(0, 0, 0); fill-opacity: 0; paint-order: stroke;" cx="5.809" cy="48.99" rx="5.239" ry="5.239" transform="matrix(0.9999999999999999, 0, 0, 0.9999999999999999, -1.7763568394002505e-15, -3.552713678800501e-15)"/>
  <ellipse style="fill: rgb(216, 216, 216); stroke: rgb(0, 0, 0); fill-opacity: 0; paint-order: stroke;" cx="7.427" cy="59.222" rx="6.963" ry="6.963" transform="matrix(0.9999999999999999, 0, 0, 0.9999999999999999, -1.7763568394002505e-15, -3.552713678800501e-15)"/>
  <ellipse style="fill: rgb(216, 216, 216); stroke: rgb(0, 0, 0); fill-opacity: 0; paint-order: stroke; transform-origin: 7.549px 66.9136px;" cx="7.549" cy="69.173" rx="6.963" ry="6.963"/>
  <ellipse style="fill: rgb(216, 216, 216); stroke: rgb(0, 0, 0); fill-opacity: 0; paint-order: stroke; transform-origin: 7.55px 77.545px;" cx="7.55" cy="79.804" rx="6.963" ry="6.963"/>
  <ellipse style="fill: rgb(216, 216, 216); stroke: rgb(0, 0, 0); fill-opacity: 0; paint-order: stroke; transform-origin: 9.277px 87.514px;" cx="9.277" cy="89.773" rx="6.963" ry="6.963"/>
  <ellipse style="fill: rgb(216, 216, 216); stroke: rgb(0, 0, 0); fill-opacity: 0; paint-order: stroke; transform-origin: 16.388px 93.313px;" cx="16.388" cy="95.421" rx="6.498" ry="6.498"/>
  <ellipse style="fill: rgb(216, 216, 216); stroke: rgb(0, 0, 0); fill-opacity: 0; paint-order: stroke; transform-origin: 25.757px 93.95px;" cx="25.757" cy="95.886" rx="5.966" ry="5.966"/>
  <ellipse style="fill: rgb(216, 216, 216); stroke: rgb(0, 0, 0); fill-opacity: 0; paint-order: stroke; transform-origin: 34.928px 94.215px;" cx="34.928" cy="96.151" rx="5.966" ry="5.966"/>
  <ellipse style="fill: rgb(216, 216, 216); stroke: rgb(0, 0, 0); fill-opacity: 0; paint-order: stroke; transform-origin: 44.497px 94.216px;" cx="44.497" cy="96.152" rx="5.966" ry="5.966"/>
  <ellipse style="fill: rgb(216, 216, 216); stroke: rgb(0, 0, 0); fill-opacity: 0; paint-order: stroke; transform-origin: 53.8px 94.083px;" cx="53.8" cy="96.019" rx="5.966" ry="5.966"/>
  <ellipse style="fill: rgb(216, 216, 216); stroke: rgb(0, 0, 0); fill-opacity: 0; paint-order: stroke; transform-origin: 63.635px 93.95px;" cx="63.635" cy="95.886" rx="5.966" ry="5.966"/>
  <ellipse style="fill: rgb(216, 216, 216); stroke: rgb(0, 0, 0); fill-opacity: 0; paint-order: stroke; transform-origin: 73.205px 93.95px;" cx="73.205" cy="95.886" rx="5.966" ry="5.966"/>
  <ellipse style="fill: rgb(216, 216, 216); stroke: rgb(0, 0, 0); fill-opacity: 0; paint-order: stroke; transform-origin: 82.441px 91.825px;" cx="82.441" cy="93.825" rx="6.165" ry="6.165"/>
  <ellipse style="fill: rgb(216, 216, 216); stroke: rgb(0, 0, 0); fill-opacity: 0; paint-order: stroke; transform-origin: 87.824px 82.463px;" cx="87.824" cy="84.722" rx="6.963" ry="6.963"/>
  <path d="M 28.948 70.064 L 29.953 72.297 L 27.942 72.297 L 28.948 70.064 Z" style="fill: rgb(216, 216, 216); stroke: rgb(0, 0, 0);" transform="matrix(0.9999999999999999, 0, 0, 0.9999999999999999, -1.7763568394002505e-15, -3.552713678800501e-15)"/>
  <ellipse style="fill: rgb(216, 216, 216); stroke: rgb(0, 0, 0); fill-opacity: 0; paint-order: stroke; transform-origin: 65.763px 4.722px;" cx="65.763" cy="6.723" rx="6.166" ry="6.166"/>
  <ellipse style="fill: rgb(216, 216, 216); stroke: rgb(0, 0, 0); fill-opacity: 0; paint-order: stroke; transform-origin: 75.464px 5.12px;" cx="75.464" cy="7.121" rx="6.166" ry="6.166"/>
  <ellipse style="fill: rgb(216, 216, 216); stroke: rgb(0, 0, 0); fill-opacity: 0; paint-order: stroke; transform-origin: 83.704px 10.705px;" cx="83.704" cy="12.836" rx="6.565" ry="6.565"/>
  <ellipse style="fill: rgb(216, 216, 216); stroke: rgb(0, 0, 0); fill-opacity: 0; paint-order: stroke; transform-origin: 88.156px 20.944px;" cx="88.156" cy="23.269" rx="7.163" ry="7.163"/>
  <ellipse style="fill: rgb(216, 216, 216); stroke: rgb(0, 0, 0); fill-opacity: 0; paint-order: stroke; transform-origin: 87.957px 32.306px;" cx="87.957" cy="34.631" rx="7.163" ry="7.163"/>
  <ellipse style="fill: rgb(216, 216, 216); stroke: rgb(0, 0, 0); fill-opacity: 0; paint-order: stroke; transform-origin: 83.106px 41.519px;" cx="83.106" cy="43.736" rx="6.831" ry="6.831"/>
  <ellipse style="fill: rgb(216, 216, 216); stroke: rgb(0, 0, 0); fill-opacity: 0; paint-order: stroke; transform-origin: 75.398px 47.428px;" cx="75.398" cy="49.451" rx="6.233" ry="6.233"/>
  <ellipse style="fill: rgb(216, 216, 216); stroke: rgb(0, 0, 0); fill-opacity: 0; paint-order: stroke; transform-origin: 66.625px 48.908px;" cx="66.625" cy="50.78" rx="5.768" ry="5.768"/>
  <ellipse style="fill: rgb(216, 216, 216); stroke: rgb(0, 0, 0); fill-opacity: 0; paint-order: stroke; transform-origin: 58.319px 46.715px;" cx="58.319" cy="48.587" rx="5.768" ry="5.768"/>
  <ellipse style="fill: rgb(216, 216, 216); stroke: rgb(0, 0, 0); fill-opacity: 0; paint-order: stroke; transform-origin: 51.408px 41.531px;" cx="51.408" cy="43.403" rx="5.768" ry="5.768"/>
  <path d="M 38.915 70.197 L 39.92 72.43 L 37.909 72.43 L 38.915 70.197 Z" style="fill: rgb(216, 216, 216); stroke: rgb(0, 0, 0);" transform="matrix(0.9999999999999999, 0, 0, 0.9999999999999999, -1.7763568394002505e-15, -3.552713678800501e-15)"/>
</svg>