<?xml version="1.0" encoding="utf-8"?>
<svg viewBox="0 0 53.701 56.601" width="53.701px" height="56.601px" xmlns="http://www.w3.org/2000/svg">
  <ellipse style="fill: rgb(216, 216, 216); fill-opacity: 0; paint-order: stroke; stroke: rgb(33, 61, 186);" cx="9.932" cy="11.684" rx="6.107" ry="5.514" transform="matrix(1, 0, 0, 1, 1.7763568394002505e-15, 0)"/>
  <ellipse style="fill: rgb(216, 216, 216); fill-opacity: 0; paint-order: stroke; stroke: rgb(33, 61, 186);" cx="13.436" cy="9.088" rx="6.107" ry="5.514" transform="matrix(1, 0, 0, 1, 1.7763568394002505e-15, 0)"/>
  <ellipse style="fill: rgb(216, 216, 216); fill-opacity: 0; paint-order: stroke; stroke: rgb(33, 61, 186);" cx="18.694" cy="6.815" rx="6.107" ry="5.514" transform="matrix(1, 0, 0, 1, 1.7763568394002505e-15, 0)"/>
  <ellipse style="fill: rgb(216, 216, 216); fill-opacity: 0; paint-order: stroke; stroke: rgb(33, 61, 186);" cx="25.315" cy="6.101" rx="6.107" ry="5.514" transform="matrix(1, 0, 0, 1, 1.7763568394002505e-15, 0)"/>
  <ellipse style="fill: rgb(216, 216, 216); fill-opacity: 0; paint-order: stroke; stroke: rgb(33, 61, 186);" cx="30.767" cy="6.75" rx="6.107" ry="5.514" transform="matrix(1, 0, 0, 1, 1.7763568394002505e-15, 0)"/>
  <ellipse style="fill: rgb(216, 216, 216); fill-opacity: 0; paint-order: stroke; stroke: rgb(33, 61, 186);" cx="37.583" cy="9.964" rx="6.431" ry="5.806" transform="matrix(1, 0, 0, 1, 1.7763568394002505e-15, 0)"/>
  <ellipse style="fill: rgb(216, 216, 216); fill-opacity: 0; paint-order: stroke; stroke: rgb(33, 61, 186);" cx="41.672" cy="13.956" rx="6.79" ry="6.131" transform="matrix(1, 0, 0, 1, 1.7763568394002505e-15, 0)"/>
  <ellipse style="fill: rgb(216, 216, 216); fill-opacity: 0; paint-order: stroke; stroke: rgb(33, 61, 186);" cx="44.694" cy="19.473" rx="7.078" ry="6.391" transform="matrix(1, 0, 0, 1, 1.7763568394002505e-15, 0)"/>
  <ellipse style="fill: rgb(216, 216, 216); fill-opacity: 0; paint-order: stroke; stroke: rgb(33, 61, 186);" cx="46.021" cy="24.926" rx="7.078" ry="6.391" transform="matrix(1, 0, 0, 1, 1.7763568394002505e-15, 0)"/>
  <ellipse style="fill: rgb(216, 216, 216); fill-opacity: 0; paint-order: stroke; stroke: rgb(33, 61, 186);" cx="45.696" cy="32.779" rx="7.078" ry="6.391" transform="matrix(1, 0, 0, 1, 1.7763568394002505e-15, 0)"/>
  <ellipse style="fill: rgb(216, 216, 216); fill-opacity: 0; paint-order: stroke; stroke: rgb(33, 61, 186);" cx="44.528" cy="38.037" rx="7.078" ry="6.391" transform="matrix(1, 0, 0, 1, 1.7763568394002505e-15, 0)"/>
  <ellipse style="fill: rgb(216, 216, 216); fill-opacity: 0; paint-order: stroke; stroke: rgb(33, 61, 186);" cx="41.628" cy="43.165" rx="6.862" ry="6.196" transform="matrix(1, 0, 0, 1, 1.7763568394002505e-15, 0)"/>
  <ellipse style="fill: rgb(216, 216, 216); fill-opacity: 0; paint-order: stroke; stroke: rgb(33, 61, 186);" cx="37.078" cy="47.189" rx="6.718" ry="6.066" transform="matrix(1, 0, 0, 1, 1.7763568394002505e-15, 0)"/>
  <ellipse style="fill: rgb(216, 216, 216); fill-opacity: 0; paint-order: stroke; stroke: rgb(33, 61, 186);" cx="31.726" cy="49.652" rx="6.538" ry="5.904" transform="matrix(1, 0, 0, 1, 1.7763568394002505e-15, 0)"/>
  <ellipse style="fill: rgb(216, 216, 216); fill-opacity: 0; paint-order: stroke; stroke: rgb(33, 61, 186);" cx="23.984" cy="50.65" rx="6.116" ry="5.523" transform="matrix(1, 0, 0, 1, 1.7763568394002505e-15, 0)"/>
  <ellipse style="fill: rgb(216, 216, 216); fill-opacity: 0; paint-order: stroke; stroke: rgb(33, 61, 186);" cx="18.109" cy="49.786" rx="6.116" ry="5.523" transform="matrix(1, 0, 0, 1, 1.7763568394002505e-15, 0)"/>
  <ellipse style="fill: rgb(216, 216, 216); fill-opacity: 0; paint-order: stroke; stroke: rgb(33, 61, 186);" cx="12.787" cy="47.189" rx="6.116" ry="5.523" transform="matrix(1, 0, 0, 1, 1.7763568394002505e-15, 0)"/>
  <ellipse style="fill: rgb(216, 216, 216); fill-opacity: 0; paint-order: stroke; stroke: rgb(33, 61, 186);" cx="9.477" cy="44.463" rx="6.116" ry="5.523" transform="matrix(1, 0, 0, 1, 1.7763568394002505e-15, 0)"/>
  <path d="M 27.421 23.054 L 28.929 26.405 L 25.911 26.405 L 27.421 23.054 Z" style="fill: rgb(216, 216, 216); stroke: rgb(0, 0, 0);" transform="matrix(1, 0, 0, 1, 1.7763568394002505e-15, 0)"/>
</svg>