<?xml version="1.0" encoding="utf-8"?>
<svg viewBox="0 0 53.701 56.601" width="53.701px" height="56.601px" xmlns="http://www.w3.org/2000/svg">
  <g id="svgGroup" stroke-linecap="round" fill-rule="nonzero" font-size="9pt" stroke="#000" stroke-width="0.25mm" fill="none" style="stroke:#000;stroke-width:0.25mm;fill:none" transform="matrix(1, 0, 0, 1, 1.7763568394002505e-15, 0)">
    <path d="M 0 42.601 L 11.4 36.501 A 20.092 20.092 0 0 0 14.473 40.596 A 12.944 12.944 0 0 0 24 44.601 A 16.038 16.038 0 0 0 28.752 43.929 A 12.701 12.701 0 0 0 34.55 40.201 A 14.836 14.836 0 0 0 37.873 33.785 Q 38.5 31.289 38.5 28.301 A 24.054 24.054 0 0 0 38.022 23.363 Q 37.36 20.206 35.78 17.78 A 14.192 14.192 0 0 0 34.8 16.451 A 11.931 11.931 0 0 0 26.123 12.04 A 15.848 15.848 0 0 0 25 12.001 A 16.247 16.247 0 0 0 19.651 12.868 A 15.136 15.136 0 0 0 18 13.551 A 11.921 11.921 0 0 0 15.6 15.128 Q 14.538 16.01 13.475 17.217 A 29.362 29.362 0 0 0 11.6 19.601 L 1.2 13.201 A 20.68 20.68 0 0 1 9.413 4.181 A 25.771 25.771 0 0 1 10.6 3.501 A 29.574 29.574 0 0 1 24.414 0.004 A 34.497 34.497 0 0 1 24.9 0.001 Q 33.4 0.001 39.85 3.551 Q 46.3 7.101 50 13.451 A 26.996 26.996 0 0 1 53.339 23.198 A 34.9 34.9 0 0 1 53.7 28.301 Q 53.7 36.701 50 43.101 Q 46.3 49.501 39.8 53.051 A 29.008 29.008 0 0 1 29.228 56.35 A 36.484 36.484 0 0 1 24.9 56.601 A 31.151 31.151 0 0 1 16.1 55.379 A 28.822 28.822 0 0 1 14.2 54.751 A 29.486 29.486 0 0 1 8.251 51.784 A 25.577 25.577 0 0 1 5.55 49.751 A 22.725 22.725 0 0 1 1.435 45.134 A 20.305 20.305 0 0 1 0 42.601 Z" vector-effect="non-scaling-stroke"/>
  </g>
  <ellipse style="fill: rgb(216, 216, 216); fill-opacity: 0; paint-order: stroke; stroke: rgb(33, 61, 186);" cx="9.932" cy="11.684" rx="6.107" ry="5.514" transform="matrix(1, 0, 0, 1, 1.7763568394002505e-15, 0)"/>
  <ellipse style="fill: rgb(216, 216, 216); fill-opacity: 0; paint-order: stroke; stroke: rgb(33, 61, 186);" cx="13.436" cy="9.088" rx="6.107" ry="5.514" transform="matrix(1, 0, 0, 1, 1.7763568394002505e-15, 0)"/>
  <ellipse style="fill: rgb(216, 216, 216); fill-opacity: 0; paint-order: stroke; stroke: rgb(33, 61, 186);" cx="18.694" cy="6.815" rx="6.107" ry="5.514" transform="matrix(1, 0, 0, 1, 1.7763568394002505e-15, 0)"/>
  <ellipse style="fill: rgb(216, 216, 216); fill-opacity: 0; paint-order: stroke; stroke: rgb(33, 61, 186);" cx="25.315" cy="6.101" rx="6.107" ry="5.514" transform="matrix(1, 0, 0, 1, 1.7763568394002505e-15, 0)"/>
  <ellipse style="fill: rgb(216, 216, 216); fill-opacity: 0; paint-order: stroke; stroke: rgb(33, 61, 186);" cx="30.767" cy="6.75" rx="6.107" ry="5.514" transform="matrix(1, 0, 0, 1, 1.7763568394002505e-15, 0)"/>
  <ellipse style="fill: rgb(216, 216, 216); fill-opacity: 0; paint-order: stroke; stroke: rgb(33, 61, 186);" cx="37.583" cy="9.964" rx="6.431" ry="5.806" transform="matrix(1, 0, 0, 1, 1.7763568394002505e-15, 0)"/>
  <ellipse style="fill: rgb(216, 216, 216); fill-opacity: 0; paint-order: stroke; stroke: rgb(33, 61, 186);" cx="41.672" cy="13.956" rx="6.79" ry="6.131" transform="matrix(1, 0, 0, 1, 1.7763568394002505e-15, 0)"/>
  <ellipse style="fill: rgb(216, 216, 216); fill-opacity: 0; paint-order: stroke; stroke: rgb(33, 61, 186);" cx="44.694" cy="19.473" rx="7.078" ry="6.391" transform="matrix(1, 0, 0, 1, 1.7763568394002505e-15, 0)"/>
  <ellipse style="fill: rgb(216, 216, 216); fill-opacity: 0; paint-order: stroke; stroke: rgb(33, 61, 186);" cx="46.021" cy="24.926" rx="7.078" ry="6.391" transform="matrix(1, 0, 0, 1, 1.7763568394002505e-15, 0)"/>
  <ellipse style="fill: rgb(216, 216, 216); fill-opacity: 0; paint-order: stroke; stroke: rgb(33, 61, 186);" cx="45.696" cy="32.779" rx="7.078" ry="6.391" transform="matrix(1, 0, 0, 1, 1.7763568394002505e-15, 0)"/>
  <ellipse style="fill: rgb(216, 216, 216); fill-opacity: 0; paint-order: stroke; stroke: rgb(33, 61, 186);" cx="44.528" cy="38.037" rx="7.078" ry="6.391" transform="matrix(1, 0, 0, 1, 1.7763568394002505e-15, 0)"/>
  <ellipse style="fill: rgb(216, 216, 216); fill-opacity: 0; paint-order: stroke; stroke: rgb(33, 61, 186);" cx="41.628" cy="43.165" rx="6.862" ry="6.196" transform="matrix(1, 0, 0, 1, 1.7763568394002505e-15, 0)"/>
  <ellipse style="fill: rgb(216, 216, 216); fill-opacity: 0; paint-order: stroke; stroke: rgb(33, 61, 186);" cx="37.078" cy="47.189" rx="6.718" ry="6.066" transform="matrix(1, 0, 0, 1, 1.7763568394002505e-15, 0)"/>
  <ellipse style="fill: rgb(216, 216, 216); fill-opacity: 0; paint-order: stroke; stroke: rgb(33, 61, 186);" cx="31.726" cy="49.652" rx="6.538" ry="5.904" transform="matrix(1, 0, 0, 1, 1.7763568394002505e-15, 0)"/>
  <ellipse style="fill: rgb(216, 216, 216); fill-opacity: 0; paint-order: stroke; stroke: rgb(33, 61, 186);" cx="23.984" cy="50.65" rx="6.116" ry="5.523" transform="matrix(1, 0, 0, 1, 1.7763568394002505e-15, 0)"/>
  <ellipse style="fill: rgb(216, 216, 216); fill-opacity: 0; paint-order: stroke; stroke: rgb(33, 61, 186);" cx="18.109" cy="49.786" rx="6.116" ry="5.523" transform="matrix(1, 0, 0, 1, 1.7763568394002505e-15, 0)"/>
  <ellipse style="fill: rgb(216, 216, 216); fill-opacity: 0; paint-order: stroke; stroke: rgb(33, 61, 186);" cx="12.787" cy="47.189" rx="6.116" ry="5.523" transform="matrix(1, 0, 0, 1, 1.7763568394002505e-15, 0)"/>
  <ellipse style="fill: rgb(216, 216, 216); fill-opacity: 0; paint-order: stroke; stroke: rgb(33, 61, 186);" cx="9.477" cy="44.463" rx="6.116" ry="5.523" transform="matrix(1, 0, 0, 1, 1.7763568394002505e-15, 0)"/>
  <path d="M 27.421 23.054 L 28.929 26.405 L 25.911 26.405 L 27.421 23.054 Z" style="fill: rgb(216, 216, 216); stroke: rgb(0, 0, 0);" transform="matrix(1, 0, 0, 1, 1.7763568394002505e-15, 0)"/>
</svg>