<?xml version="1.0" encoding="utf-8"?>
<svg viewBox="0 0 60.703 56.601" width="60.703px" height="56.601px" xmlns="http://www.w3.org/2000/svg">

  <ellipse style="fill: rgb(216, 216, 216); stroke: rgb(0, 0, 0); fill-opacity: 0; paint-order: stroke;" cx="13.275" cy="10.716" rx="6.845" ry="6.845" transform="matrix(1, 0, 0, 1, 3.552713678800501e-15, 0)"/>
  <ellipse style="fill: rgb(216, 216, 216); stroke: rgb(0, 0, 0); fill-opacity: 0; paint-order: stroke;" cx="8.783" cy="19.452" rx="7.141" ry="7.141" transform="matrix(1, 0, 0, 1, 3.552713678800501e-15, 0)"/>
  <ellipse style="fill: rgb(216, 216, 216); stroke: rgb(0, 0, 0); fill-opacity: 0; paint-order: stroke;" cx="7.5" cy="29.324" rx="7.141" ry="7.141" transform="matrix(1, 0, 0, 1, 3.552713678800501e-15, 0)"/>
  <ellipse style="fill: rgb(216, 216, 216); stroke: rgb(0, 0, 0); fill-opacity: 0; paint-order: stroke;" cx="9.77" cy="39.294" rx="7.141" ry="7.141" transform="matrix(1, 0, 0, 1, 3.552713678800501e-15, 0)"/>
  <ellipse style="fill: rgb(216, 216, 216); stroke: rgb(0, 0, 0); fill-opacity: 0; paint-order: stroke;" cx="16.532" cy="46.649" rx="6.401" ry="6.401" transform="matrix(1, 0, 0, 1, 3.552713678800501e-15, 0)"/>
  <ellipse style="fill: rgb(216, 216, 216); stroke: rgb(0, 0, 0); fill-opacity: 0; paint-order: stroke;" cx="24.43" cy="49.907" rx="5.957" ry="5.957" transform="matrix(1, 0, 0, 1, 3.552713678800501e-15, 0)"/>
  <ellipse style="fill: rgb(216, 216, 216); stroke: rgb(0, 0, 0); fill-opacity: 0; paint-order: stroke;" cx="30.55" cy="50.598" rx="5.513" ry="5.513" transform="matrix(1, 0, 0, 1, 3.552713678800501e-15, 0)"/>
  <path d="M 25.368 15.177 L 26.373 17.41 L 24.362 17.41 L 25.368 15.177 Z" style="fill: rgb(216, 216, 216); stroke: rgb(0, 0, 0);" transform="matrix(1, 0, 0, 1, 3.552713678800501e-15, 0)"/>
  <ellipse style="fill: rgb(216, 216, 216); stroke: rgb(0, 0, 0); fill-opacity: 0; paint-order: stroke;" cx="43.384" cy="7.952" rx="6.006" ry="6.006" transform="matrix(1, 0, 0, 1, 3.552713678800501e-15, 0)"/>
  <ellipse style="fill: rgb(216, 216, 216); stroke: rgb(0, 0, 0); fill-opacity: 0; paint-order: stroke;" cx="50.441" cy="13.728" rx="5.513" ry="5.513" transform="matrix(1, 0, 0, 1, 3.552713678800501e-15, 0)"/>
  <ellipse style="fill: rgb(216, 216, 216); stroke: rgb(0, 0, 0); fill-opacity: 0; paint-order: stroke;" cx="53.799" cy="21.921" rx="5.513" ry="5.513" transform="matrix(1, 0, 0, 1, 3.552713678800501e-15, 0)"/>
  <ellipse style="fill: rgb(216, 216, 216); stroke: rgb(0, 0, 0); fill-opacity: 0; paint-order: stroke;" cx="54.439" cy="30.756" rx="5.76" ry="5.76" transform="matrix(1, 0, 0, 1, 3.552713678800501e-15, 0)"/>
  <ellipse style="fill: rgb(216, 216, 216); stroke: rgb(0, 0, 0); fill-opacity: 0; paint-order: stroke;" cx="51.528" cy="39.69" rx="5.859" ry="5.859" transform="matrix(1, 0, 0, 1, 3.552713678800501e-15, 0)"/>
  <ellipse style="fill: rgb(216, 216, 216); stroke: rgb(0, 0, 0); fill-opacity: 0; paint-order: stroke;" cx="45.901" cy="45.613" rx="5.859" ry="5.859" transform="matrix(1, 0, 0, 1, 3.552713678800501e-15, 0)"/>
  <ellipse style="fill: rgb(216, 216, 216); stroke: rgb(0, 0, 0); fill-opacity: 0; paint-order: stroke;" cx="39.188" cy="49.266" rx="5.859" ry="5.859" transform="matrix(1, 0, 0, 1, 3.552713678800501e-15, 0)"/>
  <ellipse style="fill: rgb(216, 216, 216); stroke: rgb(0, 0, 0); fill-opacity: 0; paint-order: stroke;" cx="33.413" cy="50.401" rx="5.612" ry="5.612" transform="matrix(1, 0, 0, 1, 3.552713678800501e-15, 0)"/>
  <path d="M 27.047 8.168 L 28.052 10.401 L 26.041 10.401 L 27.047 8.168 Z" style="fill: rgb(216, 216, 216); stroke: rgb(0, 0, 0);" transform="matrix(1, 0, 0, 1, 3.552713678800501e-15, 0)"/>
  <ellipse style="fill: rgb(216, 216, 216); stroke: rgb(0, 0, 0); fill-opacity: 0; paint-order: stroke;" cx="39.682" cy="11.358" rx="5.019" ry="5.019" transform="matrix(1, 0, 0, 1, 3.552713678800501e-15, 0)"/>
  <ellipse style="fill: rgb(216, 216, 216); stroke: rgb(0, 0, 0); fill-opacity: 0; paint-order: stroke;" cx="35.684" cy="17.428" rx="4.575" ry="4.575" transform="matrix(1, 0, 0, 1, 3.552713678800501e-15, 0)"/>
  <ellipse style="fill: rgb(216, 216, 216); stroke: rgb(0, 0, 0); fill-opacity: 0; paint-order: stroke;" cx="34.302" cy="23.747" rx="4.328" ry="4.328" transform="matrix(1, 0, 0, 1, 3.552713678800501e-15, 0)"/>
  <ellipse style="fill: rgb(216, 216, 216); stroke: rgb(0, 0, 0); fill-opacity: 0; paint-order: stroke;" cx="34.352" cy="29.917" rx="4.328" ry="4.328" transform="matrix(1, 0, 0, 1, 3.552713678800501e-15, 0)"/>
  <ellipse style="fill: rgb(216, 216, 216); stroke: rgb(0, 0, 0); fill-opacity: 0; paint-order: stroke;" cx="35.832" cy="35.74" rx="4.328" ry="4.328" transform="matrix(1, 0, 0, 1, 3.552713678800501e-15, 0)"/>
  <ellipse style="fill: rgb(216, 216, 216); stroke: rgb(0, 0, 0); fill-opacity: 0; paint-order: stroke;" cx="38.103" cy="41.269" rx="4.328" ry="4.328" transform="matrix(1, 0, 0, 1, 3.552713678800501e-15, 0)"/>
  <ellipse style="fill: rgb(216, 216, 216); stroke: rgb(0, 0, 0); fill-opacity: 0; paint-order: stroke;" cx="40.866" cy="45.415" rx="4.328" ry="4.328" transform="matrix(1, 0, 0, 1, 3.552713678800501e-15, 0)"/>
  <path d="M 23.197 23.173 L 24.202 25.406 L 22.191 25.406 L 23.197 23.173 Z" style="fill: rgb(216, 216, 216); stroke: rgb(0, 0, 0);" transform="matrix(1, 0, 0, 1, 3.552713678800501e-15, 0)"/>
</svg>