<?xml version="1.0" encoding="utf-8"?>
<svg viewBox="0 0 68.601 102.201" width="68.601px" height="102.201px" xmlns="http://www.w3.org/2000/svg">

  <ellipse style="fill: rgb(216, 216, 216); stroke: rgb(0, 0, 0); fill-opacity: 0; paint-order: stroke;" cx="7.941" cy="24.604" rx="5.916" ry="5.916" transform="matrix(1, 0, 0, 1, 7.105427357601002e-15, 0)"/>
  <ellipse style="fill: rgb(216, 216, 216); stroke: rgb(0, 0, 0); fill-opacity: 0; paint-order: stroke;" cx="15.464" cy="26.214" rx="3.991" ry="3.991" transform="matrix(1, 0, 0, 1, 7.105427357601002e-15, 0)"/>
  <ellipse style="fill: rgb(216, 216, 216); stroke: rgb(0, 0, 0); fill-opacity: 0; paint-order: stroke;" cx="21.148" cy="28.496" rx="3.991" ry="3.991" transform="matrix(1, 0, 0, 1, 7.105427357601002e-15, 0)"/>
  <ellipse style="fill: rgb(216, 216, 216); stroke: rgb(0, 0, 0); fill-opacity: 0; paint-order: stroke;" cx="26.339" cy="31.807" rx="3.991" ry="3.991" transform="matrix(1, 0, 0, 1, 7.105427357601002e-15, 0)"/>
  <ellipse style="fill: rgb(216, 216, 216); stroke: rgb(0, 0, 0); fill-opacity: 0; paint-order: stroke;" cx="30.322" cy="36.506" rx="4.125" ry="4.125" transform="matrix(1, 0, 0, 1, 7.105427357601002e-15, 0)"/>
  <ellipse style="fill: rgb(216, 216, 216); stroke: rgb(0, 0, 0); fill-opacity: 0; paint-order: stroke;" cx="32.963" cy="41.653" rx="4.125" ry="4.125" transform="matrix(1, 0, 0, 1, 7.105427357601002e-15, 0)"/>
  <ellipse style="fill: rgb(216, 216, 216); stroke: rgb(0, 0, 0); fill-opacity: 0; paint-order: stroke;" cx="32.739" cy="50.38" rx="5.602" ry="5.602" transform="matrix(1, 0, 0, 1, 7.105427357601002e-15, 0)"/>
  <ellipse style="fill: rgb(216, 216, 216); stroke: rgb(0, 0, 0); fill-opacity: 0; paint-order: stroke;" cx="23.655" cy="50.335" rx="5.602" ry="5.602" transform="matrix(1, 0, 0, 1, 7.105427357601002e-15, 0)"/>
  <ellipse style="fill: rgb(216, 216, 216); stroke: rgb(0, 0, 0); fill-opacity: 0; paint-order: stroke;" cx="15.867" cy="47.292" rx="5.602" ry="5.602" transform="matrix(1, 0, 0, 1, 7.105427357601002e-15, 0)"/>
  <ellipse style="fill: rgb(216, 216, 216); stroke: rgb(0, 0, 0); fill-opacity: 0; paint-order: stroke;" cx="9.96" cy="41.742" rx="5.602" ry="5.602" transform="matrix(1, 0, 0, 1, 7.105427357601002e-15, 0)"/>
  <ellipse style="fill: rgb(216, 216, 216); stroke: rgb(0, 0, 0); fill-opacity: 0; paint-order: stroke;" cx="6.649" cy="34.851" rx="5.602" ry="5.602" transform="matrix(1, 0, 0, 1, 7.105427357601002e-15, 0)"/>
  <ellipse style="fill: rgb(216, 216, 216); stroke: rgb(0, 0, 0); fill-opacity: 0; paint-order: stroke;" cx="6.157" cy="25.945" rx="5.647" ry="5.647" transform="matrix(1, 0, 0, 1, 7.105427357601002e-15, 0)"/>
  <ellipse style="fill: rgb(216, 216, 216); stroke: rgb(0, 0, 0); fill-opacity: 0; paint-order: stroke;" cx="7.901" cy="17.666" rx="5.647" ry="5.647" transform="matrix(1, 0, 0, 1, 7.105427357601002e-15, 0)"/>
  <ellipse style="fill: rgb(216, 216, 216); stroke: rgb(0, 0, 0); fill-opacity: 0; paint-order: stroke;" cx="12.959" cy="11.176" rx="5.513" ry="5.513" transform="matrix(1, 0, 0, 1, 7.105427357601002e-15, 0)"/>
  <ellipse style="fill: rgb(216, 216, 216); stroke: rgb(0, 0, 0); fill-opacity: 0; paint-order: stroke;" cx="20.611" cy="7.015" rx="5.513" ry="5.513" transform="matrix(1, 0, 0, 1, 7.105427357601002e-15, 0)"/>
  <ellipse style="fill: rgb(216, 216, 216); stroke: rgb(0, 0, 0); fill-opacity: 0; paint-order: stroke;" cx="29.115" cy="5.851" rx="5.692" ry="5.692" transform="matrix(1, 0, 0, 1, 7.105427357601002e-15, 0)"/>
  <ellipse style="fill: rgb(216, 216, 216); stroke: rgb(0, 0, 0); fill-opacity: 0; paint-order: stroke;" cx="37.974" cy="8.129" rx="6.05" ry="6.05" transform="matrix(1, 0, 0, 1, 7.105427357601002e-15, 0)"/>
  <ellipse style="fill: rgb(216, 216, 216); stroke: rgb(0, 0, 0); fill-opacity: 0; paint-order: stroke;" cx="45.404" cy="13.858" rx="6.498" ry="6.498" transform="matrix(1, 0, 0, 1, 7.105427357601002e-15, 0)"/>
  <ellipse style="fill: rgb(216, 216, 216); stroke: rgb(0, 0, 0); fill-opacity: 0; paint-order: stroke;" cx="49.611" cy="23.793" rx="6.946" ry="6.946" transform="matrix(1, 0, 0, 1, 7.105427357601002e-15, 0)"/>
  <ellipse style="fill: rgb(216, 216, 216); stroke: rgb(0, 0, 0); fill-opacity: 0; paint-order: stroke;" cx="50.195" cy="34.475" rx="6.946" ry="6.946" transform="matrix(1, 0, 0, 1, 7.105427357601002e-15, 0)"/>
  <ellipse style="fill: rgb(216, 216, 216); stroke: rgb(0, 0, 0); fill-opacity: 0; paint-order: stroke;" cx="50.09" cy="45.654" rx="6.946" ry="6.946" transform="matrix(1, 0, 0, 1, 7.105427357601002e-15, 0)"/>
  <ellipse style="fill: rgb(216, 216, 216); stroke: rgb(0, 0, 0); fill-opacity: 0; paint-order: stroke;" cx="50.195" cy="56.27" rx="6.946" ry="6.946" transform="matrix(1, 0, 0, 1, 7.105427357601002e-15, 0)"/>
  <ellipse style="fill: rgb(216, 216, 216); stroke: rgb(0, 0, 0); fill-opacity: 0; paint-order: stroke;" cx="50.406" cy="66.758" rx="6.946" ry="6.946" transform="matrix(1, 0, 0, 1, 7.105427357601002e-15, 0)"/>
  <ellipse style="fill: rgb(216, 216, 216); stroke: rgb(0, 0, 0); fill-opacity: 0; paint-order: stroke;" cx="50.407" cy="77.199" rx="6.946" ry="6.946" transform="matrix(1, 0, 0, 1, 7.105427357601002e-15, 0)"/>
  <ellipse style="fill: rgb(216, 216, 216); stroke: rgb(0, 0, 0); fill-opacity: 0; paint-order: stroke;" cx="50.3" cy="87.487" rx="6.946" ry="6.946" transform="matrix(1, 0, 0, 1, 7.105427357601002e-15, 0)"/>
  <ellipse style="fill: rgb(216, 216, 216); stroke: rgb(0, 0, 0); fill-opacity: 0; paint-order: stroke;" cx="49.443" cy="95.337" rx="6.685" ry="6.685" transform="matrix(1, 0, 0, 1, 7.105427357601002e-15, 0)"/>
  <ellipse style="fill: rgb(216, 216, 216); stroke: rgb(0, 0, 0); fill-opacity: 0; paint-order: stroke;" cx="56.762" cy="96.035" rx="5.552" ry="5.552" transform="matrix(1, 0, 0, 1, 7.105427357601002e-15, 0)"/>
  <ellipse style="fill: rgb(216, 216, 216); stroke: rgb(0, 0, 0); fill-opacity: 0; paint-order: stroke;" cx="63.557" cy="96.383" rx="5.116" ry="5.116" transform="matrix(1, 0, 0, 1, 7.105427357601002e-15, 0)"/>
  <path d="M 11.721 70.96 L 12.726 73.193 L 10.715 73.193 L 11.721 70.96 Z" style="fill: rgb(216, 216, 216); stroke: rgb(0, 0, 0);" transform="matrix(1, 0, 0, 1, 7.105427357601002e-15, 0)"/>
</svg>