<?xml version="1.0" encoding="utf-8"?>
<svg viewBox="0 0 102.601 56.601" width="102.601px" height="56.601px" xmlns="http://www.w3.org/2000/svg">

  <ellipse style="fill: rgb(216, 216, 216); stroke: rgb(0, 0, 0); fill-opacity: 0; paint-order: stroke;" cx="10.419" cy="11.637" rx="5.893" ry="5.893" transform="matrix(1, 0, 0, 1, 0, -1.4210854715202004e-14)"/>
  <ellipse style="fill: rgb(216, 216, 216); stroke: rgb(0, 0, 0); fill-opacity: 0; paint-order: stroke;" cx="17.973" cy="7.25" rx="5.71" ry="5.71" transform="matrix(1, 0, 0, 1, 0, -1.4210854715202004e-14)"/>
  <ellipse style="fill: rgb(216, 216, 216); stroke: rgb(0, 0, 0); fill-opacity: 0; paint-order: stroke;" cx="26.564" cy="5.971" rx="5.71" ry="5.71" transform="matrix(1, 0, 0, 1, 0, -1.4210854715202004e-14)"/>
  <ellipse style="fill: rgb(216, 216, 216); stroke: rgb(0, 0, 0); fill-opacity: 0; paint-order: stroke;" cx="35.339" cy="7.677" rx="5.832" ry="5.832" transform="matrix(1, 0, 0, 1, 0, -1.4210854715202004e-14)"/>
  <ellipse style="fill: rgb(216, 216, 216); stroke: rgb(0, 0, 0); fill-opacity: 0; paint-order: stroke;" cx="43.259" cy="12.551" rx="6.563" ry="6.563" transform="matrix(1, 0, 0, 1, 0, -1.4210854715202004e-14)"/>
  <ellipse style="fill: rgb(216, 216, 216); stroke: rgb(0, 0, 0); fill-opacity: 0; paint-order: stroke;" cx="48.071" cy="21.629" rx="6.989" ry="6.989" transform="matrix(1, 0, 0, 1, 0, -1.4210854715202004e-14)"/>
  <ellipse style="fill: rgb(216, 216, 216); stroke: rgb(0, 0, 0); fill-opacity: 0; paint-order: stroke;" cx="48.803" cy="31.134" rx="7.172" ry="7.172" transform="matrix(1, 0, 0, 1, 0, -1.4210854715202004e-14)"/>
  <ellipse style="fill: rgb(216, 216, 216); stroke: rgb(0, 0, 0); fill-opacity: 0; paint-order: stroke;" cx="46.411" cy="40.487" rx="7.172" ry="7.172" transform="matrix(1, 0, 0, 1, 0, -1.4210854715202004e-14)"/>
  <ellipse style="fill: rgb(216, 216, 216); stroke: rgb(0, 0, 0); fill-opacity: 0; paint-order: stroke;" cx="38.567" cy="47.462" rx="6.38" ry="6.38" transform="matrix(1, 0, 0, 1, 0, -1.4210854715202004e-14)"/>
  <ellipse style="fill: rgb(216, 216, 216); stroke: rgb(0, 0, 0); fill-opacity: 0; paint-order: stroke;" cx="30.585" cy="50.447" rx="5.771" ry="5.771" transform="matrix(1, 0, 0, 1, 0, -1.4210854715202004e-14)"/>
  <ellipse style="fill: rgb(216, 216, 216); stroke: rgb(0, 0, 0); fill-opacity: 0; paint-order: stroke;" cx="21.69" cy="50.204" rx="5.771" ry="5.771" transform="matrix(1, 0, 0, 1, 0, -1.4210854715202004e-14)"/>
  <ellipse style="fill: rgb(216, 216, 216); stroke: rgb(0, 0, 0); fill-opacity: 0; paint-order: stroke;" cx="13.891" cy="47.767" rx="5.771" ry="5.771" transform="matrix(1, 0, 0, 1, 0, -1.4210854715202004e-14)"/>
  <ellipse style="fill: rgb(216, 216, 216); stroke: rgb(0, 0, 0); fill-opacity: 0; paint-order: stroke;" cx="9.139" cy="44.477" rx="5.649" ry="5.649" transform="matrix(1, 0, 0, 1, 0, -1.4210854715202004e-14)"/>
  <path d="M 23.518 32.15 L 24.523 34.383 L 22.512 34.383 L 23.518 32.15 Z" style="fill: rgb(216, 216, 216); stroke: rgb(0, 0, 0);" transform="matrix(1, 0, 0, 1, 0, -1.4210854715202004e-14)"/>
  <ellipse style="fill: rgb(216, 216, 216); stroke: rgb(0, 0, 0); fill-opacity: 0; paint-order: stroke;" cx="69.06" cy="6.884" rx="5.893" ry="5.893" transform="matrix(1, 0, 0, 1, 0, -1.4210854715202004e-14)"/>
  <ellipse style="fill: rgb(216, 216, 216); stroke: rgb(0, 0, 0); fill-opacity: 0; paint-order: stroke;" cx="77.682" cy="6.452" rx="5.946" ry="5.946" transform="matrix(1, 0, 0, 1, 0, -1.4210854715202004e-14)"/>
  <ellipse style="fill: rgb(216, 216, 216); stroke: rgb(0, 0, 0); fill-opacity: 0; paint-order: stroke;" cx="87.183" cy="9.975" rx="6.64" ry="6.64" transform="matrix(1, 0, 0, 1, 0, -1.4210854715202004e-14)"/>
  <ellipse style="fill: rgb(216, 216, 216); stroke: rgb(0, 0, 0); fill-opacity: 0; paint-order: stroke;" cx="93.041" cy="18.514" rx="6.907" ry="6.907" transform="matrix(1, 0, 0, 1, 0, -1.4210854715202004e-14)"/>
  <ellipse style="fill: rgb(216, 216, 216); stroke: rgb(0, 0, 0); fill-opacity: 0; paint-order: stroke;" cx="95.016" cy="28.708" rx="7.227" ry="7.227" transform="matrix(1, 0, 0, 1, 0, -1.4210854715202004e-14)"/>
  <ellipse style="fill: rgb(216, 216, 216); stroke: rgb(0, 0, 0); fill-opacity: 0; paint-order: stroke;" cx="92.187" cy="40.076" rx="6.853" ry="6.853" transform="matrix(1, 0, 0, 1, 0, -1.4210854715202004e-14)"/>
  <ellipse style="fill: rgb(216, 216, 216); stroke: rgb(0, 0, 0); fill-opacity: 0; paint-order: stroke;" cx="85.355" cy="47.121" rx="6.266" ry="6.266" transform="matrix(1, 0, 0, 1, 0, -1.4210854715202004e-14)"/>
  <ellipse style="fill: rgb(216, 216, 216); stroke: rgb(0, 0, 0); fill-opacity: 0; paint-order: stroke;" cx="77.137" cy="50.323" rx="5.892" ry="5.892" transform="matrix(1, 0, 0, 1, 0, -1.4210854715202004e-14)"/>
  <ellipse style="fill: rgb(216, 216, 216); stroke: rgb(0, 0, 0); fill-opacity: 0; paint-order: stroke;" cx="67.584" cy="50.376" rx="5.465" ry="5.465" transform="matrix(1, 0, 0, 1, 0, -1.4210854715202004e-14)"/>
  <ellipse style="fill: rgb(216, 216, 216); stroke: rgb(0, 0, 0); fill-opacity: 0; paint-order: stroke;" cx="59.044" cy="47.281" rx="5.572" ry="5.572" transform="matrix(1, 0, 0, 1, 0, -1.4210854715202004e-14)"/>
  <ellipse style="fill: rgb(216, 216, 216); stroke: rgb(0, 0, 0); fill-opacity: 0; paint-order: stroke;" cx="52.8" cy="41.783" rx="5.732" ry="5.732" transform="matrix(1, 0, 0, 1, 0, -1.4210854715202004e-14)"/>
  <path d="M 67.788 23.926 L 68.793 26.159 L 66.782 26.159 L 67.788 23.926 Z" style="fill: rgb(216, 216, 216); stroke: rgb(0, 0, 0);" transform="matrix(1, 0, 0, 1, 0, -1.4210854715202004e-14)"/>
</svg>