<?xml version="1.0" encoding="utf-8"?>
<svg viewBox="0 0 60.801 56.601" width="60.801px" height="56.601px" xmlns="http://www.w3.org/2000/svg">

  <ellipse style="fill: rgb(216, 216, 216); stroke: rgb(0, 0, 0); fill-opacity: 0; paint-order: stroke;" cx="9.551" cy="16.123" rx="5.585" ry="5.585"/>
  <ellipse style="fill: rgb(216, 216, 216); stroke: rgb(0, 0, 0); fill-opacity: 0; paint-order: stroke;" cx="6.279" cy="23.579" rx="5.585" ry="5.585"/>
  <ellipse style="fill: rgb(216, 216, 216); stroke: rgb(0, 0, 0); fill-opacity: 0; paint-order: stroke;" cx="6.217" cy="32.115" rx="5.772" ry="5.772"/>
  <ellipse style="fill: rgb(216, 216, 216); stroke: rgb(0, 0, 0); fill-opacity: 0; paint-order: stroke;" cx="9.27" cy="39.652" rx="5.772" ry="5.772"/>
  <ellipse style="fill: rgb(216, 216, 216); stroke: rgb(0, 0, 0); fill-opacity: 0; paint-order: stroke;" cx="15.251" cy="46.63" rx="5.772" ry="5.772"/>
  <ellipse style="fill: rgb(216, 216, 216); stroke: rgb(0, 0, 0); fill-opacity: 0; paint-order: stroke;" cx="23.599" cy="49.995" rx="5.772" ry="5.772"/>
  <ellipse style="fill: rgb(216, 216, 216); stroke: rgb(0, 0, 0); fill-opacity: 0; paint-order: stroke;" cx="32.321" cy="50.618" rx="5.772" ry="5.772"/>
  <ellipse style="fill: rgb(216, 216, 216); stroke: rgb(0, 0, 0); fill-opacity: 0; paint-order: stroke;" cx="41.231" cy="48.189" rx="5.959" ry="5.959"/>
  <ellipse style="fill: rgb(216, 216, 216); stroke: rgb(0, 0, 0); fill-opacity: 0; paint-order: stroke;" cx="48.955" cy="41.833" rx="6.395" ry="6.395"/>
  <ellipse style="fill: rgb(216, 216, 216); stroke: rgb(0, 0, 0); fill-opacity: 0; paint-order: stroke;" cx="52.757" cy="32.799" rx="7.143" ry="7.143"/>
  <ellipse style="fill: rgb(216, 216, 216); stroke: rgb(0, 0, 0); fill-opacity: 0; paint-order: stroke;" cx="52.632" cy="22.956" rx="7.143" ry="7.143"/>
  <ellipse style="fill: rgb(216, 216, 216); stroke: rgb(0, 0, 0); fill-opacity: 0; paint-order: stroke;" cx="48.769" cy="14.857" rx="7.143" ry="7.143"/>
  <ellipse style="fill: rgb(216, 216, 216); stroke: rgb(0, 0, 0); fill-opacity: 0; paint-order: stroke;" cx="41.542" cy="8.502" rx="6.271" ry="6.395"/>
  <ellipse style="fill: rgb(216, 216, 216); stroke: rgb(0, 0, 0); fill-opacity: 0; paint-order: stroke;" cx="31.636" cy="6.083" rx="5.71" ry="5.823"/>
  <ellipse style="fill: rgb(216, 216, 216); stroke: rgb(0, 0, 0); fill-opacity: 0; paint-order: stroke;" cx="23.599" cy="7.007" rx="5.71" ry="5.823"/>
  <ellipse style="fill: rgb(216, 216, 216); stroke: rgb(0, 0, 0); fill-opacity: 0; paint-order: stroke;" cx="15.874" cy="9.374" rx="5.71" ry="5.823"/>
  <ellipse style="fill: rgb(216, 216, 216); stroke: rgb(0, 0, 0); fill-opacity: 0; paint-order: stroke;" cx="12.011" cy="12.614" rx="5.71" ry="5.823"/>
  <path d="M 36.434 21.092 L 37.439 23.325 L 35.428 23.325 L 36.434 21.092 Z" style="fill: rgb(216, 216, 216); stroke: rgb(0, 0, 0);"/>
  <ellipse style="fill: rgb(216, 216, 216); stroke: rgb(0, 0, 0); fill-opacity: 0; paint-order: stroke;" cx="20.733" cy="10.87" rx="5.71" ry="5.823"/>
  <ellipse style="fill: rgb(216, 216, 216); stroke: rgb(0, 0, 0); fill-opacity: 0; paint-order: stroke;" cx="24.801" cy="19.031" rx="4.794" ry="4.888"/>
  <ellipse style="fill: rgb(216, 216, 216); stroke: rgb(0, 0, 0); fill-opacity: 0; paint-order: stroke;" cx="27.213" cy="26.32" rx="4.794" ry="4.888"/>
  <ellipse style="fill: rgb(216, 216, 216); stroke: rgb(0, 0, 0); fill-opacity: 0; paint-order: stroke;" cx="26.341" cy="33.423" rx="4.794" ry="4.888"/>
  <ellipse style="fill: rgb(216, 216, 216); stroke: rgb(0, 0, 0); fill-opacity: 0; paint-order: stroke;" cx="24.472" cy="39.902" rx="4.794" ry="4.888"/>
  <ellipse style="fill: rgb(216, 216, 216); stroke: rgb(0, 0, 0); fill-opacity: 0; paint-order: stroke;" cx="20.982" cy="45.26" rx="4.794" ry="4.888"/>
  <path d="M 38.303 28.693 L 39.308 30.926 L 37.297 30.926 L 38.303 28.693 Z" style="fill: rgb(216, 216, 216); stroke: rgb(0, 0, 0);"/>
</svg>