<?xml version="1.0" encoding="utf-8"?>
<svg viewBox="0 0 60.702 103.302" width="60.702px" height="103.302px" xmlns="http://www.w3.org/2000/svg">
  <g id="svgGroup" stroke-linecap="round" fill-rule="nonzero" font-size="9pt" stroke="#000" stroke-width="0.25mm" fill="none" style="stroke:#000;stroke-width:0.25mm;fill:none" transform="matrix(1, 0, 0, 1, 0, 1.7763568394002505e-15)">
    <path d="M 0.001 73.501 L 0.001 29.801 Q 0.001 18.522 4.916 11.318 A 23.676 23.676 0 0 1 7.901 7.751 A 25.862 25.862 0 0 1 19.533 1.282 Q 24.288 0.001 30.101 0.001 Q 40.994 0.001 48.149 4.172 A 23.826 23.826 0 0 1 52.801 7.701 Q 60.2 14.912 60.669 27.912 A 49.553 49.553 0 0 1 60.701 29.701 L 60.701 30.101 L 46.101 30.101 L 46.101 29.801 A 29.866 29.866 0 0 0 45.725 24.886 Q 45.291 22.294 44.358 20.247 A 12.657 12.657 0 0 0 41.801 16.501 A 14.413 14.413 0 0 0 33.776 12.47 A 20.364 20.364 0 0 0 30.401 12.201 A 19.978 19.978 0 0 0 25.415 12.79 A 14.202 14.202 0 0 0 18.901 16.401 A 12.647 12.647 0 0 0 15.924 21.133 Q 14.601 24.698 14.601 29.801 L 14.601 73.501 A 32.746 32.746 0 0 0 14.925 78.281 Q 15.288 80.731 16.056 82.688 A 12.46 12.46 0 0 0 18.701 86.901 A 12.957 12.957 0 0 0 24.138 90.163 Q 27.073 91.101 30.901 91.101 Q 35.401 91.101 38.851 89.301 A 14.221 14.221 0 0 0 42.519 86.603 A 12.82 12.82 0 0 0 44.201 84.451 A 12.641 12.641 0 0 0 46.099 77.838 A 15.06 15.06 0 0 0 46.101 77.601 A 4.691 4.691 0 0 0 45.994 76.575 A 3.456 3.456 0 0 0 45.501 75.401 A 1.919 1.919 0 0 0 44.369 74.607 Q 44.031 74.514 43.62 74.503 A 4.199 4.199 0 0 0 43.501 74.501 Q 42.414 74.501 40.957 74.778 A 26.234 26.234 0 0 0 39.501 75.101 Q 37.101 75.701 33.301 75.701 A 20.202 20.202 0 0 1 28.26 75.104 A 14.652 14.652 0 0 1 21.951 71.751 A 13.064 13.064 0 0 1 17.707 63.199 A 18.288 18.288 0 0 1 17.601 61.201 A 17.091 17.091 0 0 1 18.199 56.563 A 12.763 12.763 0 0 1 21.851 50.551 A 14.42 14.42 0 0 1 28.947 46.997 A 20.78 20.78 0 0 1 33.101 46.601 A 19.991 19.991 0 0 1 38.797 47.366 A 14.414 14.414 0 0 1 47.101 53.701 L 39.201 60.201 A 81.068 81.068 0 0 0 37.729 58.907 A 71.849 71.849 0 0 0 37.251 58.501 A 2.995 2.995 0 0 0 36.28 57.968 Q 35.841 57.818 35.301 57.752 A 7.454 7.454 0 0 0 34.401 57.701 Q 33.201 57.701 32.051 58.551 A 2.751 2.751 0 0 0 30.965 60.348 A 4.24 4.24 0 0 0 30.901 61.101 A 3.815 3.815 0 0 0 31.143 62.48 A 3.459 3.459 0 0 0 32.001 63.751 A 3.753 3.753 0 0 0 34.651 64.801 A 4.84 4.84 0 0 0 34.701 64.801 Q 36.001 64.801 38.351 64.451 Q 40.701 64.101 43.101 63.751 A 52.265 52.265 0 0 1 44.232 63.598 Q 45.453 63.447 46.31 63.412 A 11.971 11.971 0 0 1 46.801 63.401 A 16.139 16.139 0 0 1 51.228 63.978 A 12.083 12.083 0 0 1 56.951 67.501 A 14.208 14.208 0 0 1 60.677 76.652 A 18.499 18.499 0 0 1 60.701 77.601 A 27.706 27.706 0 0 1 59.833 84.676 A 22.44 22.44 0 0 1 57.001 91.151 A 23.734 23.734 0 0 1 48.909 98.811 A 29.458 29.458 0 0 1 46.451 100.101 Q 39.827 103.196 30.724 103.298 A 55.631 55.631 0 0 1 30.101 103.301 A 42.153 42.153 0 0 1 21.216 102.421 Q 13.147 100.681 7.901 95.501 Q 0.387 88.082 0.02 74.873 A 49.396 49.396 0 0 1 0.001 73.501 Z" vector-effect="non-scaling-stroke"/>
  </g>
  <ellipse style="fill: rgb(216, 216, 216); fill-opacity: 0; paint-order: stroke; stroke: rgb(33, 61, 186); transform-origin: 38.721px 56.107px;" cx="39.046" cy="53.449" rx="5.595" ry="5.051"/>
  <ellipse style="fill: rgb(216, 216, 216); fill-opacity: 0; paint-order: stroke; stroke: rgb(33, 61, 186); transform-origin: 27.954px 56.393px;" cx="28.298" cy="53.58" rx="5.921" ry="5.345"/>
  <ellipse style="fill: rgb(216, 216, 216); fill-opacity: 0; paint-order: stroke; stroke: rgb(33, 61, 186); transform-origin: 23.882px 64.567px;" cx="24.226" cy="61.754" rx="5.921" ry="5.345"/>
  <ellipse style="fill: rgb(216, 216, 216); fill-opacity: 0; paint-order: stroke; stroke: rgb(33, 61, 186); transform-origin: 25.568px 69.363px;" cx="25.936" cy="66.357" rx="6.328" ry="5.713"/>
  <ellipse style="fill: rgb(216, 216, 216); fill-opacity: 0; paint-order: stroke; stroke: rgb(33, 61, 186); transform-origin: 32.816px 72.904px;" cx="33.184" cy="69.898" rx="6.328" ry="5.713"/>
  <ellipse style="fill: rgb(216, 216, 216); fill-opacity: 0; paint-order: stroke; stroke: rgb(33, 61, 186); transform-origin: 41.936px 72.578px;" cx="42.304" cy="69.572" rx="6.328" ry="5.713"/>
  <ellipse style="fill: rgb(216, 216, 216); fill-opacity: 0; paint-order: stroke; stroke: rgb(33, 61, 186); transform-origin: 48.287px 73.229px;" cx="48.655" cy="70.223" rx="6.328" ry="5.713"/>
  <ellipse style="fill: rgb(216, 216, 216); fill-opacity: 0; paint-order: stroke; stroke: rgb(33, 61, 186); transform-origin: 53.142px 82.606px;" cx="53.541" cy="79.343" rx="6.869" ry="6.202"/>
  <ellipse style="fill: rgb(216, 216, 216); fill-opacity: 0; paint-order: stroke; stroke: rgb(33, 61, 186); transform-origin: 50.211px 91.238px;" cx="50.61" cy="87.975" rx="6.869" ry="6.202"/>
  <ellipse style="fill: rgb(216, 216, 216); fill-opacity: 0; paint-order: stroke; stroke: rgb(33, 61, 186); transform-origin: 41.904px 97.915px;" cx="42.303" cy="94.652" rx="6.869" ry="6.202"/>
  <ellipse style="fill: rgb(216, 216, 216); fill-opacity: 0; paint-order: stroke; stroke: rgb(33, 61, 186); transform-origin: 30.179px 100.52px;" cx="30.578" cy="97.257" rx="6.869" ry="6.202"/>
  <ellipse style="fill: rgb(216, 216, 216); fill-opacity: 0; paint-order: stroke; stroke: rgb(33, 61, 186); transform-origin: 19.43px 98.403px;" cx="19.829" cy="95.14" rx="6.869" ry="6.202"/>
  <ellipse style="fill: rgb(216, 216, 216); fill-opacity: 0; paint-order: stroke; stroke: rgb(33, 61, 186); transform-origin: 10.636px 91.401px;" cx="11.035" cy="88.138" rx="6.869" ry="6.202"/>
  <ellipse style="fill: rgb(216, 216, 216); fill-opacity: 0; paint-order: stroke; stroke: rgb(33, 61, 186); transform-origin: 7.379px 79.675px;" cx="7.778" cy="76.412" rx="6.869" ry="6.202"/>
  <ellipse style="fill: rgb(216, 216, 216); fill-opacity: 0; paint-order: stroke; stroke: rgb(33, 61, 186); transform-origin: 7.053px 73.323px;" cx="7.452" cy="70.06" rx="6.869" ry="6.202"/>
  <ellipse style="fill: rgb(216, 216, 216); fill-opacity: 0; paint-order: stroke; stroke: rgb(33, 61, 186); transform-origin: 6.891px 65.995px;" cx="7.29" cy="62.732" rx="6.869" ry="6.202"/>
  <ellipse style="fill: rgb(216, 216, 216); fill-opacity: 0; paint-order: stroke; stroke: rgb(33, 61, 186); transform-origin: 7.216px 57.526px;" cx="7.615" cy="54.263" rx="6.869" ry="6.202"/>
  <ellipse style="fill: rgb(216, 216, 216); fill-opacity: 0; paint-order: stroke; stroke: rgb(33, 61, 186); transform-origin: 7.216px 49.546px;" cx="7.615" cy="46.283" rx="6.869" ry="6.202"/>
  <ellipse style="fill: rgb(216, 216, 216); fill-opacity: 0; paint-order: stroke; stroke: rgb(33, 61, 186); transform-origin: 7.379px 41.729px;" cx="7.778" cy="38.466" rx="6.869" ry="6.202"/>
  <ellipse style="fill: rgb(216, 216, 216); fill-opacity: 0; paint-order: stroke; stroke: rgb(33, 61, 186); transform-origin: 7.053px 33.749px;" cx="7.452" cy="30.486" rx="6.869" ry="6.202"/>
  <ellipse style="fill: rgb(216, 216, 216); fill-opacity: 0; paint-order: stroke; stroke: rgb(33, 61, 186); transform-origin: 7.868px 25.769px;" cx="8.267" cy="22.506" rx="6.869" ry="6.202"/>
  <ellipse style="fill: rgb(216, 216, 216); fill-opacity: 0; paint-order: stroke; stroke: rgb(33, 61, 186); transform-origin: 10.799px 18.115px;" cx="11.198" cy="14.852" rx="6.869" ry="6.202"/>
  <ellipse style="fill: rgb(216, 216, 216); fill-opacity: 0; paint-order: stroke; stroke: rgb(33, 61, 186); transform-origin: 17.802px 11.438px;" cx="18.201" cy="8.175" rx="6.869" ry="6.202"/>
  <ellipse style="fill: rgb(216, 216, 216); fill-opacity: 0; paint-order: stroke; stroke: rgb(33, 61, 186); transform-origin: 26.624px 9.299px;" cx="26.994" cy="6.268" rx="6.38" ry="5.761"/>
  <ellipse style="fill: rgb(216, 216, 216); fill-opacity: 0; paint-order: stroke; stroke: rgb(33, 61, 186); transform-origin: 36.224px 9.523px;" cx="36.604" cy="6.415" rx="6.543" ry="5.908"/>
  <ellipse style="fill: rgb(216, 216, 216); fill-opacity: 0; paint-order: stroke; stroke: rgb(33, 61, 186); transform-origin: 45.651px 14.207px;" cx="46.05" cy="10.944" rx="6.869" ry="6.202"/>
  <ellipse style="fill: rgb(216, 216, 216); fill-opacity: 0; paint-order: stroke; stroke: rgb(33, 61, 186); transform-origin: 51.024px 20.883px;" cx="51.423" cy="17.62" rx="6.869" ry="6.202"/>
  <ellipse style="fill: rgb(216, 216, 216); fill-opacity: 0; paint-order: stroke; stroke: rgb(33, 61, 186); transform-origin: 53.135px 27.148px;" cx="53.524" cy="23.971" rx="6.689" ry="6.039"/>
  <path d="M 30.824 23.643 L 34.204 26.106 L 27.44 27.884 L 30.824 23.643 Z" style="fill: rgb(216, 216, 216); stroke: rgb(0, 0, 0);" transform="matrix(1, 0, 0, 1, 0, 1.7763568394002505e-15)"/>
</svg>