<?xml version="1.0" encoding="utf-8"?>
<svg viewBox="0 0 101.901 56.601" width="101.901px" height="56.601px" xmlns="http://www.w3.org/2000/svg">
  <g id="svgGroup" stroke-linecap="round" fill-rule="nonzero" font-size="9pt" stroke="#000" stroke-width="0.25mm" fill="none" style="stroke:#000;stroke-width:0.25mm;fill:none" transform="matrix(1, 0, 0, 1, 4.440892098500626e-16, 0)">
    <path d="M 61.501 53.401 L 66.501 42.301 Q 68.605 43.11 69.89 43.461 A 12.163 12.163 0 0 0 70.451 43.601 A 10.556 10.556 0 0 0 71.479 43.771 Q 72.557 43.901 74.001 43.901 A 12.528 12.528 0 0 0 78.567 43.097 A 11.306 11.306 0 0 0 83.201 39.701 Q 86.289 35.995 86.652 29.876 A 28.263 28.263 0 0 0 86.701 28.201 A 20.973 20.973 0 0 0 86.016 22.713 A 16.145 16.145 0 0 0 82.851 16.551 A 12.513 12.513 0 0 0 73.696 11.941 A 17.184 17.184 0 0 0 72.501 11.901 A 19.562 19.562 0 0 0 67.936 12.408 A 14.558 14.558 0 0 0 62.751 14.751 A 19.784 19.784 0 0 0 58.575 18.762 A 17.642 17.642 0 0 0 56.801 21.601 A 35.772 35.772 0 0 1 57.39 27.376 A 40.149 40.149 0 0 1 57.401 28.301 A 34.502 34.502 0 0 1 56.497 36.355 A 28 28 0 0 1 54.001 43.001 Q 50.601 49.401 44.351 53.001 A 26.475 26.475 0 0 1 35.62 56.094 A 35.499 35.499 0 0 1 29.501 56.601 Q 21.001 56.601 14.351 53.001 Q 7.701 49.401 3.851 43.051 Q 0.001 36.701 0.001 28.301 A 31.086 31.086 0 0 1 1.056 20.055 A 25.96 25.96 0 0 1 3.851 13.501 Q 7.701 7.101 14.351 3.551 Q 21.001 0.001 29.501 0.001 A 36.487 36.487 0 0 1 35.783 0.517 A 27.302 27.302 0 0 1 42.001 2.351 A 24.545 24.545 0 0 1 48.528 6.456 A 22.44 22.44 0 0 1 50.901 8.901 Q 53.597 5.554 58.324 3.028 A 35.202 35.202 0 0 1 59.051 2.651 A 22.772 22.772 0 0 1 64.373 0.793 Q 67.926 0.001 72.301 0.001 A 40.128 40.128 0 0 1 80.098 0.723 A 29.916 29.916 0 0 1 87.951 3.401 Q 94.601 6.801 98.251 13.151 A 27.026 27.026 0 0 1 101.429 22.251 A 36.104 36.104 0 0 1 101.901 28.201 A 31.965 31.965 0 0 1 100.762 36.872 A 27.427 27.427 0 0 1 98.301 42.851 Q 94.701 49.301 88.501 52.951 Q 82.301 56.601 74.401 56.601 A 20.069 20.069 0 0 1 72.831 56.535 Q 72.065 56.474 71.21 56.359 A 38.587 38.587 0 0 1 70.151 56.201 Q 67.701 55.801 65.401 55.101 A 20.068 20.068 0 0 1 63.522 54.431 Q 62.401 53.963 61.501 53.401 Z M 29.401 44.601 A 16.433 16.433 0 0 0 33.894 44.019 A 11.944 11.944 0 0 0 39.951 40.101 Q 43.701 35.601 43.701 28.301 A 23.972 23.972 0 0 0 43.231 23.41 Q 42.595 20.358 41.097 18.008 A 13.833 13.833 0 0 0 39.901 16.401 Q 36.101 12.001 29.401 12.001 A 13.497 13.497 0 0 0 23.381 13.327 A 13.599 13.599 0 0 0 19.251 16.501 A 15.418 15.418 0 0 0 15.616 23.911 A 22.089 22.089 0 0 0 15.201 28.301 A 21.21 21.21 0 0 0 15.811 33.521 A 15.493 15.493 0 0 0 19.201 40.051 A 12.88 12.88 0 0 0 28.587 44.581 A 16.323 16.323 0 0 0 29.401 44.601 Z" vector-effect="non-scaling-stroke"/>
  </g>
  <ellipse style="fill: rgb(216, 216, 216); fill-opacity: 0; paint-order: stroke; stroke: rgb(33, 61, 186);" cx="28.766" cy="50.523" rx="5.491" ry="5.491" transform="matrix(1, 0, 0, 1, 4.440892098500626e-16, 0)"/>
  <ellipse style="fill: rgb(216, 216, 216); fill-opacity: 0; paint-order: stroke; stroke: rgb(33, 61, 186);" cx="20.982" cy="49.098" rx="5.715" ry="5.715" transform="matrix(1, 0, 0, 1, 4.440892098500626e-16, 0)"/>
  <ellipse style="fill: rgb(216, 216, 216); fill-opacity: 0; paint-order: stroke; stroke: rgb(33, 61, 186);" cx="14.122" cy="44.474" rx="6.237" ry="6.237" transform="matrix(1, 0, 0, 1, 4.440892098500626e-16, 0)"/>
  <ellipse style="fill: rgb(216, 216, 216); fill-opacity: 0; paint-order: stroke; stroke: rgb(33, 61, 186);" cx="9.005" cy="36.869" rx="6.945" ry="6.945" transform="matrix(1, 0, 0, 1, 4.440892098500626e-16, 0)"/>
  <ellipse style="fill: rgb(216, 216, 216); fill-opacity: 0; paint-order: stroke; stroke: rgb(33, 61, 186);" cx="7.7" cy="29.298" rx="7.169" ry="7.169" transform="matrix(1, 0, 0, 1, 4.440892098500626e-16, 0)"/>
  <ellipse style="fill: rgb(216, 216, 216); fill-opacity: 0; paint-order: stroke; stroke: rgb(33, 61, 186);" cx="9.117" cy="19.903" rx="7.169" ry="7.169" transform="matrix(1, 0, 0, 1, 4.440892098500626e-16, 0)"/>
  <ellipse style="fill: rgb(216, 216, 216); fill-opacity: 0; paint-order: stroke; stroke: rgb(33, 61, 186);" cx="13.926" cy="12.185" rx="6.311" ry="6.311" transform="matrix(1, 0, 0, 1, 4.440892098500626e-16, 0)"/>
  <ellipse style="fill: rgb(216, 216, 216); fill-opacity: 0; paint-order: stroke; stroke: rgb(33, 61, 186);" cx="20.974" cy="7.524" rx="5.863" ry="5.863" transform="matrix(1, 0, 0, 1, 4.440892098500626e-16, 0)"/>
  <ellipse style="fill: rgb(216, 216, 216); fill-opacity: 0; paint-order: stroke; stroke: rgb(33, 61, 186);" cx="29.177" cy="5.883" rx="5.863" ry="5.863" transform="matrix(1, 0, 0, 1, 4.440892098500626e-16, 0)"/>
  <ellipse style="fill: rgb(216, 216, 216); fill-opacity: 0; paint-order: stroke; stroke: rgb(33, 61, 186);" cx="37.455" cy="7.225" rx="5.863" ry="5.863" transform="matrix(1, 0, 0, 1, 4.440892098500626e-16, 0)"/>
  <ellipse style="fill: rgb(216, 216, 216); fill-opacity: 0; paint-order: stroke; stroke: rgb(33, 61, 186);" cx="44.724" cy="11.886" rx="5.9" ry="5.9" transform="matrix(1, 0, 0, 1, 4.440892098500626e-16, 0)"/>
  <ellipse style="fill: rgb(216, 216, 216); fill-opacity: 0; paint-order: stroke; stroke: rgb(33, 61, 186);" cx="49.274" cy="17.479" rx="6.907" ry="6.907" transform="matrix(1, 0, 0, 1, 4.440892098500626e-16, 0)"/>
  <ellipse style="fill: rgb(216, 216, 216); fill-opacity: 0; paint-order: stroke; stroke: rgb(33, 61, 186);" cx="50.541" cy="26.279" rx="6.571" ry="6.571" transform="matrix(1, 0, 0, 1, 4.440892098500626e-16, 0)"/>
  <ellipse style="fill: rgb(216, 216, 216); fill-opacity: 0; paint-order: stroke; stroke: rgb(33, 61, 186);" cx="49.573" cy="35.451" rx="6.385" ry="6.385" transform="matrix(1, 0, 0, 1, 4.440892098500626e-16, 0)"/>
  <ellipse style="fill: rgb(216, 216, 216); fill-opacity: 0; paint-order: stroke; stroke: rgb(33, 61, 186);" cx="45.955" cy="43.095" rx="6.385" ry="6.385" transform="matrix(1, 0, 0, 1, 4.440892098500626e-16, 0)"/>
  <ellipse style="fill: rgb(216, 216, 216); fill-opacity: 0; paint-order: stroke; stroke: rgb(33, 61, 186);" cx="39.617" cy="48.514" rx="5.639" ry="5.639" transform="matrix(1, 0, 0, 1, 4.440892098500626e-16, 0)"/>
  <ellipse style="fill: rgb(216, 216, 216); fill-opacity: 0; paint-order: stroke; stroke: rgb(64, 186, 33);" cx="30.979" cy="50.261" rx="5.639" ry="5.639" transform="matrix(1, 0, 0, 1, 4.440892098500626e-16, 0)"/>
  <path d="M 27.313 23.02 L 28.318 25.253 L 26.307 25.253 L 27.313 23.02 Z" style="fill: rgb(216, 216, 216); stroke: rgb(0, 0, 0);" transform="matrix(1, 0, 0, 1, 4.440892098500626e-16, 0)"/>
  <ellipse style="fill: rgb(216, 216, 216); fill-opacity: 0; paint-order: stroke; stroke: rgb(186, 165, 33);" cx="49.715" cy="18.078" rx="6.907" ry="6.907" transform="matrix(1, 0, 0, 1, 4.440892098500626e-16, 0)"/>
  <ellipse style="fill: rgb(216, 216, 216); fill-opacity: 0; paint-order: stroke; stroke: rgb(186, 165, 33);" cx="56.3" cy="12.171" rx="5.722" ry="5.722" transform="matrix(1, 0, 0, 1, 4.440892098500626e-16, 0)"/>
  <ellipse style="fill: rgb(216, 216, 216); fill-opacity: 0; paint-order: stroke; stroke: rgb(186, 165, 33);" cx="62.94" cy="7.59" rx="5.722" ry="5.722" transform="matrix(1, 0, 0, 1, 4.440892098500626e-16, 0)"/>
  <ellipse style="fill: rgb(216, 216, 216); fill-opacity: 0; paint-order: stroke; stroke: rgb(186, 165, 33);" cx="70.68" cy="6.125" rx="5.722" ry="5.722" transform="matrix(1, 0, 0, 1, 4.440892098500626e-16, 0)"/>
  <ellipse style="fill: rgb(216, 216, 216); fill-opacity: 0; paint-order: stroke; stroke: rgb(186, 165, 33);" cx="79.744" cy="7.031" rx="5.722" ry="5.722" transform="matrix(1, 0, 0, 1, 4.440892098500626e-16, 0)"/>
  <ellipse style="fill: rgb(216, 216, 216); fill-opacity: 0; paint-order: stroke; stroke: rgb(186, 165, 33);" cx="86.996" cy="10.589" rx="6.419" ry="6.419" transform="matrix(1, 0, 0, 1, 4.440892098500626e-16, 0)"/>
  <ellipse style="fill: rgb(216, 216, 216); fill-opacity: 0; paint-order: stroke; stroke: rgb(186, 165, 33);" cx="91.842" cy="16.659" rx="6.942" ry="6.942" transform="matrix(1, 0, 0, 1, 4.440892098500626e-16, 0)"/>
  <ellipse style="fill: rgb(216, 216, 216); fill-opacity: 0; paint-order: stroke; stroke: rgb(186, 165, 33);" cx="94.109" cy="25.37" rx="6.942" ry="6.942" transform="matrix(1, 0, 0, 1, 4.440892098500626e-16, 0)"/>
  <ellipse style="fill: rgb(216, 216, 216); fill-opacity: 0; paint-order: stroke; stroke: rgb(186, 165, 33);" cx="93.621" cy="34.233" rx="7.151" ry="7.151" transform="matrix(1, 0, 0, 1, 4.440892098500626e-16, 0)"/>
  <ellipse style="fill: rgb(216, 216, 216); fill-opacity: 0; paint-order: stroke; stroke: rgb(186, 165, 33);" cx="90.692" cy="42.058" rx="6.733" ry="6.733" transform="matrix(1, 0, 0, 1, 4.440892098500626e-16, 0)"/>
  <ellipse style="fill: rgb(216, 216, 216); fill-opacity: 0; paint-order: stroke; stroke: rgb(186, 165, 33);" cx="84.207" cy="47.777" rx="6.245" ry="6.245" transform="matrix(1, 0, 0, 1, 4.440892098500626e-16, 0)"/>
  <ellipse style="fill: rgb(216, 216, 216); fill-opacity: 0; paint-order: stroke; stroke: rgb(186, 165, 33);" cx="76.398" cy="49.783" rx="6.245" ry="6.245" transform="matrix(1, 0, 0, 1, 4.440892098500626e-16, 0)"/>
  <ellipse style="fill: rgb(216, 216, 216); fill-opacity: 0; paint-order: stroke; stroke: rgb(186, 165, 33);" cx="70.355" cy="49.574" rx="6.245" ry="6.245" transform="matrix(1, 0, 0, 1, 4.440892098500626e-16, 0)"/>
  <path d="M 64.786 34.622 L 65.791 36.855 L 63.78 36.855 L 64.786 34.622 Z" style="fill: rgb(216, 216, 216); stroke: rgb(0, 0, 0);" transform="matrix(1, 0, 0, 1, 4.440892098500626e-16, 0)"/>
</svg>