<?xml version="1.0" encoding="utf-8"?>
<svg viewBox="0 0 102.001 56.601" width="102.001px" height="56.601px" xmlns="http://www.w3.org/2000/svg">
  <g id="svgGroup" stroke-linecap="round" fill-rule="nonzero" font-size="9pt" stroke="#000" stroke-width="0.25mm" fill="none" style="stroke:#000;stroke-width:0.25mm;fill:none" transform="matrix(1.0000000000000002, 0, 0, 1.0000000000000002, 0, 0)">
    <path d="M 29.501 56.601 Q 21.001 56.601 14.351 53.001 Q 7.701 49.401 3.851 43.051 Q 0.001 36.701 0.001 28.301 A 31.086 31.086 0 0 1 1.056 20.055 A 25.96 25.96 0 0 1 3.851 13.501 Q 7.701 7.101 14.351 3.551 Q 21.001 0.001 29.501 0.001 Q 36.401 0.001 41.801 2.401 Q 47.201 4.801 50.801 9.001 Q 54.801 4.301 60.401 2.151 A 32.8 32.8 0 0 1 70.491 0.053 A 38.085 38.085 0 0 1 72.501 0.001 Q 81.201 0.001 87.851 3.551 Q 94.501 7.101 98.251 13.501 Q 102.001 19.901 102.001 28.301 A 32.873 32.873 0 0 1 101.166 35.869 A 25.837 25.837 0 0 1 98.201 43.251 Q 94.401 49.601 87.701 53.101 A 30.397 30.397 0 0 1 78.213 56.149 A 39.862 39.862 0 0 1 72.101 56.601 A 33.409 33.409 0 0 1 63.75 55.584 A 29.653 29.653 0 0 1 60.251 54.451 Q 54.801 52.301 50.901 47.601 Q 47.201 51.901 41.751 54.251 A 28.706 28.706 0 0 1 33.644 56.368 A 35.973 35.973 0 0 1 29.501 56.601 Z M 57.105 33.79 A 33.413 33.413 0 0 1 56.901 35.001 Q 58.901 39.101 62.451 41.851 Q 66.001 44.601 72.101 44.601 A 15.517 15.517 0 0 0 77.172 43.806 A 13.057 13.057 0 0 0 82.751 40.051 A 15.732 15.732 0 0 0 86.471 32.191 A 22.043 22.043 0 0 0 86.801 28.301 Q 86.801 20.701 82.701 16.351 A 13.632 13.632 0 0 0 74.256 12.154 A 19.098 19.098 0 0 0 71.801 12.001 Q 67.06 12.001 63.823 13.771 A 11.567 11.567 0 0 0 62.451 14.651 A 18.467 18.467 0 0 0 57.348 20.551 A 21.881 21.881 0 0 0 56.801 21.601 A 30.974 30.974 0 0 1 57.495 27.647 A 34.585 34.585 0 0 1 57.501 28.301 A 37.044 37.044 0 0 1 57.105 33.79 Z M 29.401 44.601 A 16.436 16.436 0 0 0 33.799 44.044 A 11.779 11.779 0 0 0 39.901 40.101 Q 43.509 35.712 43.598 28.659 A 28.402 28.402 0 0 0 43.601 28.301 A 23.972 23.972 0 0 0 43.131 23.41 Q 42.495 20.358 40.997 18.008 A 13.833 13.833 0 0 0 39.801 16.401 A 12.468 12.468 0 0 0 31.593 12.131 A 17.813 17.813 0 0 0 29.401 12.001 A 13.497 13.497 0 0 0 23.381 13.327 A 13.599 13.599 0 0 0 19.251 16.501 A 15.418 15.418 0 0 0 15.616 23.911 A 22.089 22.089 0 0 0 15.201 28.301 A 21.21 21.21 0 0 0 15.811 33.521 A 15.493 15.493 0 0 0 19.201 40.051 A 12.88 12.88 0 0 0 28.587 44.581 A 16.323 16.323 0 0 0 29.401 44.601 Z" vector-effect="non-scaling-stroke"/>
  </g>
  <ellipse style="fill: rgb(216, 216, 216); fill-opacity: 0; paint-order: stroke; stroke: rgb(33, 61, 186);" cx="28.486" cy="50.801" rx="5.491" ry="5.491" transform="matrix(1.0000000000000002, 0, 0, 1.0000000000000002, 0, 0)"/>
  <ellipse style="fill: rgb(216, 216, 216); fill-opacity: 0; paint-order: stroke; stroke: rgb(33, 61, 186);" cx="20.702" cy="49.376" rx="5.715" ry="5.715" transform="matrix(1.0000000000000002, 0, 0, 1.0000000000000002, 0, 0)"/>
  <ellipse style="fill: rgb(216, 216, 216); fill-opacity: 0; paint-order: stroke; stroke: rgb(33, 61, 186);" cx="13.842" cy="44.752" rx="6.237" ry="6.237" transform="matrix(1.0000000000000002, 0, 0, 1.0000000000000002, 0, 0)"/>
  <ellipse style="fill: rgb(216, 216, 216); fill-opacity: 0; paint-order: stroke; stroke: rgb(33, 61, 186);" cx="8.725" cy="37.147" rx="6.945" ry="6.945" transform="matrix(1.0000000000000002, 0, 0, 1.0000000000000002, 0, 0)"/>
  <ellipse style="fill: rgb(216, 216, 216); fill-opacity: 0; paint-order: stroke; stroke: rgb(33, 61, 186);" cx="7.42" cy="29.576" rx="7.169" ry="7.169" transform="matrix(1.0000000000000002, 0, 0, 1.0000000000000002, 0, 0)"/>
  <ellipse style="fill: rgb(216, 216, 216); fill-opacity: 0; paint-order: stroke; stroke: rgb(33, 61, 186);" cx="8.837" cy="20.181" rx="7.169" ry="7.169" transform="matrix(1.0000000000000002, 0, 0, 1.0000000000000002, 0, 0)"/>
  <ellipse style="fill: rgb(216, 216, 216); fill-opacity: 0; paint-order: stroke; stroke: rgb(33, 61, 186);" cx="13.646" cy="12.463" rx="6.311" ry="6.311" transform="matrix(1.0000000000000002, 0, 0, 1.0000000000000002, 0, 0)"/>
  <ellipse style="fill: rgb(216, 216, 216); fill-opacity: 0; paint-order: stroke; stroke: rgb(33, 61, 186);" cx="20.694" cy="7.802" rx="5.863" ry="5.863" transform="matrix(1.0000000000000002, 0, 0, 1.0000000000000002, 0, 0)"/>
  <ellipse style="fill: rgb(216, 216, 216); fill-opacity: 0; paint-order: stroke; stroke: rgb(33, 61, 186);" cx="28.897" cy="6.161" rx="5.863" ry="5.863" transform="matrix(1.0000000000000002, 0, 0, 1.0000000000000002, 0, 0)"/>
  <ellipse style="fill: rgb(216, 216, 216); fill-opacity: 0; paint-order: stroke; stroke: rgb(33, 61, 186);" cx="37.175" cy="7.503" rx="5.863" ry="5.863" transform="matrix(1.0000000000000002, 0, 0, 1.0000000000000002, 0, 0)"/>
  <ellipse style="fill: rgb(216, 216, 216); fill-opacity: 0; paint-order: stroke; stroke: rgb(33, 61, 186);" cx="44.444" cy="12.164" rx="5.9" ry="5.9" transform="matrix(1.0000000000000002, 0, 0, 1.0000000000000002, 0, 0)"/>
  <ellipse style="fill: rgb(216, 216, 216); fill-opacity: 0; paint-order: stroke; stroke: rgb(33, 61, 186);" cx="48.994" cy="17.757" rx="6.907" ry="6.907" transform="matrix(1.0000000000000002, 0, 0, 1.0000000000000002, 0, 0)"/>
  <ellipse style="fill: rgb(216, 216, 216); fill-opacity: 0; paint-order: stroke; stroke: rgb(33, 61, 186);" cx="50.261" cy="26.557" rx="6.571" ry="6.571" transform="matrix(1.0000000000000002, 0, 0, 1.0000000000000002, 0, 0)"/>
  <ellipse style="fill: rgb(216, 216, 216); fill-opacity: 0; paint-order: stroke; stroke: rgb(33, 61, 186);" cx="49.293" cy="35.729" rx="6.385" ry="6.385" transform="matrix(1.0000000000000002, 0, 0, 1.0000000000000002, 0, 0)"/>
  <ellipse style="fill: rgb(216, 216, 216); fill-opacity: 0; paint-order: stroke; stroke: rgb(33, 61, 186);" cx="45.675" cy="43.373" rx="6.385" ry="6.385" transform="matrix(1.0000000000000002, 0, 0, 1.0000000000000002, 0, 0)"/>
  <ellipse style="fill: rgb(216, 216, 216); fill-opacity: 0; paint-order: stroke; stroke: rgb(33, 61, 186);" cx="39.337" cy="48.792" rx="5.639" ry="5.639" transform="matrix(1.0000000000000002, 0, 0, 1.0000000000000002, 0, 0)"/>
  <ellipse style="fill: rgb(216, 216, 216); fill-opacity: 0; paint-order: stroke; stroke: rgb(64, 186, 33);" cx="29.388" cy="50.616" rx="5.639" ry="5.639" transform="matrix(1.0000000000000002, 0, 0, 1.0000000000000002, 0, 0)"/>
  <path d="M 27.033 23.298 L 28.038 25.531 L 26.027 25.531 L 27.033 23.298 Z" style="fill: rgb(216, 216, 216); stroke: rgb(0, 0, 0);" transform="matrix(1.0000000000000002, 0, 0, 1.0000000000000002, 0, 0)"/>
  <ellipse style="fill: rgb(216, 216, 216); fill-opacity: 0; paint-order: stroke; stroke: rgb(33, 61, 186);" cx="72.457" cy="50.689" rx="5.491" ry="5.491" transform="matrix(1.0000000000000002, 0, 0, 1.0000000000000002, 0, 0)"/>
  <ellipse style="fill: rgb(216, 216, 216); fill-opacity: 0; paint-order: stroke; stroke: rgb(33, 61, 186);" cx="64.673" cy="49.264" rx="5.715" ry="5.715" transform="matrix(1.0000000000000002, 0, 0, 1.0000000000000002, 0, 0)"/>
  <ellipse style="fill: rgb(216, 216, 216); fill-opacity: 0; paint-order: stroke; stroke: rgb(33, 61, 186);" cx="57.813" cy="44.64" rx="6.237" ry="6.237" transform="matrix(1.0000000000000002, 0, 0, 1.0000000000000002, 0, 0)"/>
  <ellipse style="fill: rgb(216, 216, 216); fill-opacity: 0; paint-order: stroke; stroke: rgb(33, 61, 186);" cx="52.696" cy="37.035" rx="6.945" ry="6.945" transform="matrix(1.0000000000000002, 0, 0, 1.0000000000000002, 0, 0)"/>
  <ellipse style="fill: rgb(216, 216, 216); fill-opacity: 0; paint-order: stroke; stroke: rgb(33, 61, 186);" cx="51.391" cy="29.464" rx="7.169" ry="7.169" transform="matrix(1.0000000000000002, 0, 0, 1.0000000000000002, 0, 0)"/>
  <ellipse style="fill: rgb(216, 216, 216); fill-opacity: 0; paint-order: stroke; stroke: rgb(33, 61, 186);" cx="52.808" cy="20.069" rx="7.169" ry="7.169" transform="matrix(1.0000000000000002, 0, 0, 1.0000000000000002, 0, 0)"/>
  <ellipse style="fill: rgb(216, 216, 216); fill-opacity: 0; paint-order: stroke; stroke: rgb(33, 61, 186);" cx="57.617" cy="12.351" rx="6.311" ry="6.311" transform="matrix(1.0000000000000002, 0, 0, 1.0000000000000002, 0, 0)"/>
  <ellipse style="fill: rgb(216, 216, 216); fill-opacity: 0; paint-order: stroke; stroke: rgb(33, 61, 186);" cx="64.665" cy="7.69" rx="5.863" ry="5.863" transform="matrix(1.0000000000000002, 0, 0, 1.0000000000000002, 0, 0)"/>
  <ellipse style="fill: rgb(216, 216, 216); fill-opacity: 0; paint-order: stroke; stroke: rgb(33, 61, 186);" cx="72.868" cy="6.049" rx="5.863" ry="5.863" transform="matrix(1.0000000000000002, 0, 0, 1.0000000000000002, 0, 0)"/>
  <ellipse style="fill: rgb(216, 216, 216); fill-opacity: 0; paint-order: stroke; stroke: rgb(33, 61, 186);" cx="81.146" cy="7.391" rx="5.863" ry="5.863" transform="matrix(1.0000000000000002, 0, 0, 1.0000000000000002, 0, 0)"/>
  <ellipse style="fill: rgb(216, 216, 216); fill-opacity: 0; paint-order: stroke; stroke: rgb(33, 61, 186);" cx="88.415" cy="12.052" rx="5.9" ry="5.9" transform="matrix(1.0000000000000002, 0, 0, 1.0000000000000002, 0, 0)"/>
  <ellipse style="fill: rgb(216, 216, 216); fill-opacity: 0; paint-order: stroke; stroke: rgb(33, 61, 186);" cx="92.259" cy="18.069" rx="6.907" ry="6.907" transform="matrix(1.0000000000000002, 0, 0, 1.0000000000000002, 0, 0)"/>
  <ellipse style="fill: rgb(216, 216, 216); fill-opacity: 0; paint-order: stroke; stroke: rgb(33, 61, 186);" cx="94.232" cy="26.445" rx="6.571" ry="6.571" transform="matrix(1.0000000000000002, 0, 0, 1.0000000000000002, 0, 0)"/>
  <ellipse style="fill: rgb(216, 216, 216); fill-opacity: 0; paint-order: stroke; stroke: rgb(33, 61, 186);" cx="93.264" cy="35.617" rx="6.385" ry="6.385" transform="matrix(1.0000000000000002, 0, 0, 1.0000000000000002, 0, 0)"/>
  <ellipse style="fill: rgb(216, 216, 216); fill-opacity: 0; paint-order: stroke; stroke: rgb(33, 61, 186);" cx="89.646" cy="43.261" rx="6.385" ry="6.385" transform="matrix(1.0000000000000002, 0, 0, 1.0000000000000002, 0, 0)"/>
  <ellipse style="fill: rgb(216, 216, 216); fill-opacity: 0; paint-order: stroke; stroke: rgb(33, 61, 186);" cx="83.308" cy="48.68" rx="5.639" ry="5.639" transform="matrix(1.0000000000000002, 0, 0, 1.0000000000000002, 0, 0)"/>
  <ellipse style="fill: rgb(216, 216, 216); fill-opacity: 0; paint-order: stroke; stroke: rgb(64, 186, 33);" cx="73.359" cy="50.504" rx="5.639" ry="5.639" transform="matrix(1.0000000000000002, 0, 0, 1.0000000000000002, 0, 0)"/>
  <path d="M 71.004 23.186 L 72.009 25.419 L 69.998 25.419 L 71.004 23.186 Z" style="fill: rgb(216, 216, 216); stroke: rgb(0, 0, 0);" transform="matrix(1.0000000000000002, 0, 0, 1.0000000000000002, 0, 0)"/>
</svg>