<?xml version="1.0" encoding="utf-8"?>
<svg viewBox="0 0 53.701 102.201" width="53.701px" height="102.201px" xmlns="http://www.w3.org/2000/svg">
  <g id="svgGroup" stroke-linecap="round" fill-rule="nonzero" font-size="9pt" stroke="#000" stroke-width="0.25mm" fill="none" style="stroke:#000;stroke-width:0.25mm;fill:none" transform="matrix(0.9999999999999999, 0, 0, 0.9999999999999999, 0, 0)">
    <path d="M 47.5 102.201 L 32.1 102.201 L 0 42.601 L 11.4 36.501 A 20.092 20.092 0 0 0 14.473 40.596 A 12.944 12.944 0 0 0 24 44.601 A 16.209 16.209 0 0 0 28.752 43.937 A 12.717 12.717 0 0 0 34.55 40.251 Q 38.5 35.901 38.5 28.301 A 23.745 23.745 0 0 0 38.016 23.363 Q 37.328 20.126 35.662 17.659 A 14.198 14.198 0 0 0 34.75 16.451 A 12.02 12.02 0 0 0 26.015 12.034 A 15.438 15.438 0 0 0 25 12.001 A 16.247 16.247 0 0 0 19.651 12.868 A 15.136 15.136 0 0 0 18 13.551 A 11.921 11.921 0 0 0 15.6 15.128 Q 14.538 16.01 13.475 17.217 A 29.362 29.362 0 0 0 11.6 19.601 L 1.2 13.201 A 20.68 20.68 0 0 1 9.413 4.181 A 25.771 25.771 0 0 1 10.6 3.501 A 29.574 29.574 0 0 1 24.414 0.004 A 34.497 34.497 0 0 1 24.9 0.001 Q 33.4 0.001 39.85 3.551 Q 46.3 7.101 50 13.451 A 26.996 26.996 0 0 1 53.339 23.198 A 34.9 34.9 0 0 1 53.7 28.301 Q 53.7 36.701 50 43.101 Q 46.3 49.501 39.8 53.051 A 29.008 29.008 0 0 1 29.228 56.35 A 36.484 36.484 0 0 1 24.9 56.601 A 20.056 20.056 0 0 1 23.559 56.558 Q 22.906 56.515 22.343 56.425 A 9.539 9.539 0 0 1 21.7 56.301 Q 24.4 60.401 26.55 63.901 A 183.268 183.268 0 0 1 30.669 70.963 A 199.003 199.003 0 0 1 30.8 71.201 L 47.5 102.201 Z" vector-effect="non-scaling-stroke"/>
  </g>
  <ellipse style="fill: rgb(216, 216, 216); fill-opacity: 0; paint-order: stroke; stroke: rgb(33, 61, 186); transform-origin: 9.359px 14.449px;" cx="9.728" cy="11.449" rx="6.321" ry="5.705"/>
  <ellipse style="fill: rgb(216, 216, 216); fill-opacity: 0; paint-order: stroke; stroke: rgb(33, 61, 186); transform-origin: 20.376px 9.797px;" cx="20.745" cy="6.797" rx="6.321" ry="5.705"/>
  <ellipse style="fill: rgb(216, 216, 216); fill-opacity: 0; paint-order: stroke; stroke: rgb(33, 61, 186); transform-origin: 32.33px 10.149px;" cx="32.699" cy="7.149" rx="6.321" ry="5.705"/>
  <ellipse style="fill: rgb(216, 216, 216); fill-opacity: 0; paint-order: stroke; stroke: rgb(33, 61, 186); transform-origin: 38.467px 14.304px;" cx="38.853" cy="11.164" rx="6.614" ry="5.969"/>
  <ellipse style="fill: rgb(216, 216, 216); fill-opacity: 0; paint-order: stroke; stroke: rgb(33, 61, 186); transform-origin: 43.096px 19.548px;" cx="43.482" cy="16.408" rx="6.614" ry="5.969"/>
  <ellipse style="fill: rgb(216, 216, 216); fill-opacity: 0; paint-order: stroke; stroke: rgb(33, 61, 186); transform-origin: 45.048px 25.18px;" cx="45.449" cy="21.916" rx="6.874" ry="6.203"/>
  <ellipse style="fill: rgb(216, 216, 216); fill-opacity: 0; paint-order: stroke; stroke: rgb(33, 61, 186); transform-origin: 45.532px 37.101px;" cx="45.943" cy="33.754" rx="7.05" ry="6.362"/>
  <ellipse style="fill: rgb(216, 216, 216); fill-opacity: 0; paint-order: stroke; stroke: rgb(33, 61, 186); transform-origin: 41.783px 45.774px;" cx="42.194" cy="42.427" rx="7.05" ry="6.362"/>
  <ellipse style="fill: rgb(216, 216, 216); fill-opacity: 0; paint-order: stroke; stroke: rgb(33, 61, 186); transform-origin: 32.854px 52.154px;" cx="33.227" cy="49.113" rx="6.405" ry="5.78"/>
  <ellipse style="fill: rgb(216, 216, 216); fill-opacity: 0; paint-order: stroke; stroke: rgb(33, 61, 186); transform-origin: 26.407px 53.442px;" cx="26.781" cy="50.401" rx="6.406" ry="5.78"/>
  <ellipse style="fill: rgb(216, 216, 216); fill-opacity: 0; paint-order: stroke; stroke: rgb(33, 61, 186); transform-origin: 18.613px 53.086px;" cx="18.987" cy="50.045" rx="6.406" ry="5.78"/>
  <ellipse style="fill: rgb(216, 216, 216); fill-opacity: 0; paint-order: stroke; stroke: rgb(33, 61, 186); transform-origin: 8.885px 47.461px;" cx="9.259" cy="44.42" rx="6.406" ry="5.78"/>
  <ellipse style="fill: rgb(216, 216, 216); fill-opacity: 0; paint-order: stroke; stroke: rgb(33, 61, 186); transform-origin: 11.881px 53.823px;" cx="12.267" cy="50.69" rx="6.601" ry="5.956"/>
  <ellipse style="fill: rgb(216, 216, 216); fill-opacity: 0; paint-order: stroke; stroke: rgb(33, 61, 186); transform-origin: 15.106px 60.43px;" cx="15.471" cy="57.464" rx="6.249" ry="5.639"/>
  <ellipse style="fill: rgb(216, 216, 216); fill-opacity: 0; paint-order: stroke; stroke: rgb(33, 61, 186); transform-origin: 18.036px 66.256px;" cx="18.401" cy="63.29" rx="6.249" ry="5.639"/>
  <ellipse style="fill: rgb(216, 216, 216); fill-opacity: 0; paint-order: stroke; stroke: rgb(33, 61, 186); transform-origin: 21.083px 71.413px;" cx="21.448" cy="68.447" rx="6.249" ry="5.639"/>
  <ellipse style="fill: rgb(216, 216, 216); fill-opacity: 0; paint-order: stroke; stroke: rgb(33, 61, 186); transform-origin: 24.716px 77.52px;" cx="25.081" cy="74.554" rx="6.249" ry="5.639"/>
  <ellipse style="fill: rgb(216, 216, 216); fill-opacity: 0; paint-order: stroke; stroke: rgb(33, 61, 186); transform-origin: 28.115px 83.614px;" cx="28.48" cy="80.648" rx="6.249" ry="5.639"/>
  <ellipse style="fill: rgb(216, 216, 216); fill-opacity: 0; paint-order: stroke; stroke: rgb(33, 61, 186); transform-origin: 30.928px 89.592px;" cx="31.293" cy="86.626" rx="6.249" ry="5.639"/>
  <ellipse style="fill: rgb(216, 216, 216); fill-opacity: 0; paint-order: stroke; stroke: rgb(33, 61, 186); transform-origin: 34.093px 94.983px;" cx="34.458" cy="92.017" rx="6.249" ry="5.639"/>
  <ellipse style="fill: rgb(216, 216, 216); fill-opacity: 0; paint-order: stroke; stroke: rgb(33, 61, 186); transform-origin: 36.202px 99.659px;" cx="36.567" cy="96.693" rx="6.249" ry="5.639"/>
  <path d="M 13.948 24.044 L 15.456 27.395 L 12.438 27.395 L 13.948 24.044 Z" style="fill: rgb(216, 216, 216); stroke: rgb(0, 0, 0);" transform="matrix(0.9999999999999999, 0, 0, 0.9999999999999999, 0, 0)"/>
</svg>