<?xml version="1.0" encoding="utf-8"?>
<svg viewBox="0 0 63.301 102.201" width="63.301px" height="102.201px" xmlns="http://www.w3.org/2000/svg">
  <g id="svgGroup" stroke-linecap="round" fill-rule="nonzero" font-size="9pt" stroke="#000" stroke-width="0.25mm" fill="none" style="stroke:#000;stroke-width:0.25mm;fill:none">
    <path d="M 52.601 13.101 L 42.101 19.601 A 14.431 14.431 0 0 0 39.392 15.927 A 12.758 12.758 0 0 0 36.651 13.901 Q 33.201 12.001 28.701 12.001 A 13.539 13.539 0 0 0 23.981 12.793 A 11.9 11.9 0 0 0 18.901 16.451 A 15.334 15.334 0 0 0 15.859 22.582 Q 15.201 25.179 15.201 28.301 A 22.599 22.599 0 0 0 15.762 33.473 A 15.887 15.887 0 0 0 18.951 40.051 Q 22.701 44.601 29.701 44.601 A 14.688 14.688 0 0 0 34.478 43.842 A 13.271 13.271 0 0 0 37.201 42.551 Q 40.501 40.501 42.301 36.501 L 53.701 42.601 L 53.701 65.201 A 46.588 46.588 0 0 1 45.567 69.238 A 56.304 56.304 0 0 1 41.401 70.651 Q 34.501 72.701 27.101 72.701 Q 24.601 72.701 22.151 72.551 Q 19.701 72.401 17.201 72.001 L 17.201 78.101 A 42.748 42.748 0 0 0 19.577 78.503 A 54.966 54.966 0 0 0 21.601 78.751 A 40.778 40.778 0 0 0 23.555 78.903 Q 24.434 78.952 25.421 78.976 A 84.225 84.225 0 0 0 27.501 79.001 Q 34.401 79.001 41.051 77.301 Q 47.701 75.601 53.701 72.601 L 53.701 90.201 L 63.301 90.201 L 63.301 102.201 L 38.701 102.201 L 38.701 88.601 Q 33.101 90.001 27.101 90.001 Q 20.601 90.001 14.401 89.201 Q 8.201 88.401 2.201 86.301 L 2.201 55.601 A 32.113 32.113 0 0 0 6.093 57.654 Q 8.137 58.57 10.539 59.364 A 59.701 59.701 0 0 0 12.251 59.901 A 44.208 44.208 0 0 0 24.166 61.694 A 49.432 49.432 0 0 0 25.001 61.701 A 57.326 57.326 0 0 0 28.44 61.604 Q 30.051 61.507 31.435 61.312 A 25.467 25.467 0 0 0 33.451 60.951 A 34.708 34.708 0 0 0 35.403 60.457 Q 37.394 59.888 38.701 59.201 L 38.701 53.201 Q 35.801 54.901 32.951 55.751 A 20.758 20.758 0 0 1 27.695 56.587 A 23.615 23.615 0 0 1 26.901 56.601 Q 18.701 56.601 12.651 52.851 Q 6.601 49.101 3.301 42.651 A 30.337 30.337 0 0 1 0.081 30.734 A 36.288 36.288 0 0 1 0.001 28.301 A 32.118 32.118 0 0 1 1.031 20.018 A 26.796 26.796 0 0 1 3.651 13.601 Q 7.301 7.201 13.801 3.601 Q 20.301 0.001 28.801 0.001 A 34.774 34.774 0 0 1 36.192 0.75 A 26.138 26.138 0 0 1 43.801 3.651 Q 50.101 7.301 52.601 13.101 Z" vector-effect="non-scaling-stroke"/>
  </g>
  <ellipse style="fill: rgb(216, 216, 216); fill-opacity: 0; paint-order: stroke; stroke: rgb(33, 61, 186);" cx="43.737" cy="11.275" rx="5.717" ry="5.717"/>
  <ellipse style="fill: rgb(216, 216, 216); fill-opacity: 0; paint-order: stroke; stroke: rgb(33, 61, 186);" cx="36.024" cy="7.158" rx="5.717" ry="5.717"/>
  <ellipse style="fill: rgb(216, 216, 216); fill-opacity: 0; paint-order: stroke; stroke: rgb(33, 61, 186);" cx="26.231" cy="6.031" rx="5.717" ry="5.717"/>
  <ellipse style="fill: rgb(216, 216, 216); fill-opacity: 0; paint-order: stroke; stroke: rgb(33, 61, 186);" cx="18.519" cy="8.285" rx="5.717" ry="5.717"/>
  <ellipse style="fill: rgb(216, 216, 216); fill-opacity: 0; paint-order: stroke; stroke: rgb(33, 61, 186);" cx="12.236" cy="13.673" rx="6.54" ry="6.54"/>
  <ellipse style="fill: rgb(216, 216, 216); fill-opacity: 0; paint-order: stroke; stroke: rgb(33, 61, 186);" cx="8.381" cy="22.265" rx="7.06" ry="7.06"/>
  <ellipse style="fill: rgb(216, 216, 216); fill-opacity: 0; paint-order: stroke; stroke: rgb(33, 61, 186);" cx="8.035" cy="32.192" rx="7.06" ry="7.06"/>
  <ellipse style="fill: rgb(216, 216, 216); fill-opacity: 0; paint-order: stroke; stroke: rgb(33, 61, 186);" cx="10.634" cy="40.655" rx="7.06" ry="7.06"/>
  <ellipse style="fill: rgb(216, 216, 216); fill-opacity: 0; paint-order: stroke; stroke: rgb(33, 61, 186);" cx="16.57" cy="47.227" rx="6.41" ry="6.41"/>
  <ellipse style="fill: rgb(216, 216, 216); fill-opacity: 0; paint-order: stroke; stroke: rgb(33, 61, 186);" cx="25.971" cy="50.301" rx="5.716" ry="5.716"/>
  <ellipse style="fill: rgb(216, 216, 216); fill-opacity: 0; paint-order: stroke; stroke: rgb(33, 61, 186);" cx="36.11" cy="48.396" rx="4.849" ry="4.849"/>
  <ellipse style="fill: rgb(216, 216, 216); fill-opacity: 0; paint-order: stroke; stroke: rgb(33, 61, 186);" cx="41.483" cy="46.143" rx="4.849" ry="4.849"/>
  <ellipse style="fill: rgb(216, 216, 216); fill-opacity: 0; paint-order: stroke; stroke: rgb(33, 61, 186);" cx="46.076" cy="44.41" rx="4.849" ry="4.849"/>
  <ellipse style="fill: rgb(216, 216, 216); fill-opacity: 0; paint-order: stroke; stroke: rgb(33, 61, 186);" cx="46.136" cy="51.051" rx="4.849" ry="4.849"/>
  <ellipse style="fill: rgb(216, 216, 216); fill-opacity: 0; paint-order: stroke; stroke: rgb(33, 61, 186);" cx="45.896" cy="57.319" rx="4.849" ry="4.849"/>
  <ellipse style="fill: rgb(216, 216, 216); fill-opacity: 0; paint-order: stroke; stroke: rgb(33, 61, 186);" cx="45.784" cy="63.381" rx="4.849" ry="4.849"/>
  <ellipse style="fill: rgb(216, 216, 216); fill-opacity: 0; paint-order: stroke; stroke: rgb(33, 61, 186);" cx="38.206" cy="65.458" rx="5.13" ry="5.13"/>
  <ellipse style="fill: rgb(216, 216, 216); fill-opacity: 0; paint-order: stroke; stroke: rgb(33, 61, 186);" cx="29.953" cy="67.199" rx="4.849" ry="4.849"/>
  <ellipse style="fill: rgb(216, 216, 216); fill-opacity: 0; paint-order: stroke; stroke: rgb(33, 61, 186);" cx="22.207" cy="66.974" rx="4.849" ry="4.849"/>
  <ellipse style="fill: rgb(216, 216, 216); fill-opacity: 0; paint-order: stroke; stroke: rgb(33, 61, 186);" cx="15.358" cy="66.637" rx="4.849" ry="4.849"/>
  <ellipse style="fill: rgb(216, 216, 216); fill-opacity: 0; paint-order: stroke; stroke: rgb(33, 61, 186);" cx="8.903" cy="65.233" rx="5.578" ry="5.578"/>
  <ellipse style="fill: rgb(216, 216, 216); fill-opacity: 0; paint-order: stroke; stroke: rgb(33, 61, 186);" cx="8.51" cy="73.348" rx="5.578" ry="5.578"/>
  <ellipse style="fill: rgb(216, 216, 216); fill-opacity: 0; paint-order: stroke; stroke: rgb(33, 61, 186);" cx="8.172" cy="81.769" rx="5.578" ry="5.578"/>
  <ellipse style="fill: rgb(216, 216, 216); fill-opacity: 0; paint-order: stroke; stroke: rgb(33, 61, 186);" cx="16.424" cy="83.958" rx="4.961" ry="4.961"/>
  <ellipse style="fill: rgb(216, 216, 216); fill-opacity: 0; paint-order: stroke; stroke: rgb(33, 61, 186);" cx="24.901" cy="84.576" rx="4.961" ry="4.961"/>
  <ellipse style="fill: rgb(216, 216, 216); fill-opacity: 0; paint-order: stroke; stroke: rgb(33, 61, 186);" cx="32.985" cy="84.464" rx="4.961" ry="4.961"/>
  <ellipse style="fill: rgb(216, 216, 216); fill-opacity: 0; paint-order: stroke; stroke: rgb(33, 61, 186);" cx="40.507" cy="83.117" rx="4.961" ry="4.961"/>
  <ellipse style="fill: rgb(216, 216, 216); fill-opacity: 0; paint-order: stroke; stroke: rgb(33, 61, 186);" cx="46.346" cy="81.096" rx="4.961" ry="4.961"/>
  <ellipse style="fill: rgb(216, 216, 216); fill-opacity: 0; paint-order: stroke; stroke: rgb(33, 61, 186);" cx="46.346" cy="88.73" rx="4.961" ry="4.961"/>
  <ellipse style="fill: rgb(216, 216, 216); fill-opacity: 0; paint-order: stroke; stroke: rgb(33, 61, 186);" cx="46.345" cy="96.589" rx="4.961" ry="4.961"/>
  <ellipse style="fill: rgb(216, 216, 216); fill-opacity: 0; paint-order: stroke; stroke: rgb(33, 61, 186);" cx="52.296" cy="96.702" rx="4.961" ry="4.961"/>
  <ellipse style="fill: rgb(216, 216, 216); fill-opacity: 0; paint-order: stroke; stroke: rgb(33, 61, 186);" cx="58.134" cy="96.814" rx="4.961" ry="4.961"/>
  <path d="M 57.91 70.66 L 58.915 72.893 L 56.904 72.893 L 57.91 70.66 Z" style="fill: rgb(216, 216, 216); stroke: rgb(0, 0, 0);"/>
</svg>