<?xml version="1.0" encoding="utf-8"?>
<svg viewBox="0 0 53.704 102.203" width="53.704px" height="102.203px" xmlns="http://www.w3.org/2000/svg">
  <g id="svgGroup" stroke-linecap="round" fill-rule="nonzero" font-size="9pt" stroke="#000" stroke-width="0.25mm" fill="none" style="stroke:#000;stroke-width:0.25mm;fill:none" transform="matrix(1, 0, 0, 1, 0, 3.552713678800501e-15)">
    <path d="M 52.601 13.101 L 42.101 19.601 A 14.431 14.431 0 0 0 39.392 15.927 A 12.758 12.758 0 0 0 36.651 13.901 Q 33.201 12.001 28.701 12.001 A 13.539 13.539 0 0 0 23.981 12.793 A 11.9 11.9 0 0 0 18.901 16.451 A 15.334 15.334 0 0 0 15.859 22.582 Q 15.201 25.179 15.201 28.301 A 22.599 22.599 0 0 0 15.762 33.473 A 15.887 15.887 0 0 0 18.951 40.051 Q 22.701 44.601 29.701 44.601 A 14.688 14.688 0 0 0 34.478 43.842 A 13.271 13.271 0 0 0 37.201 42.551 Q 40.501 40.501 42.301 36.501 L 53.701 42.601 L 53.701 80.701 Q 53.701 97.761 40.037 101.284 A 32.253 32.253 0 0 1 32.001 102.201 L 21.401 102.201 Q 14.556 102.201 9.754 100.271 A 18.235 18.235 0 0 1 5.651 98.001 A 13.628 13.628 0 0 1 0.199 88.601 A 20.379 20.379 0 0 1 0.001 85.701 A 16.239 16.239 0 0 1 0.647 81.039 A 13.837 13.837 0 0 1 2.301 77.451 Q 4.601 73.901 8.451 71.901 A 17.948 17.948 0 0 1 15.839 69.932 A 21.376 21.376 0 0 1 17.001 69.901 Q 21.141 69.901 24.233 70.581 A 19.67 19.67 0 0 1 26.151 71.101 A 26.434 26.434 0 0 1 31.01 73.239 A 23.414 23.414 0 0 1 32.701 74.301 L 25.901 84.501 Q 24.401 83.601 22.901 83.051 A 9.161 9.161 0 0 0 19.912 82.503 A 10.396 10.396 0 0 0 19.701 82.501 Q 17.528 82.501 16.45 83.218 A 2.564 2.564 0 0 0 16.151 83.451 A 3.156 3.156 0 0 0 15.331 84.587 A 3.142 3.142 0 0 0 15.101 85.801 A 3.819 3.819 0 0 0 15.291 87.044 Q 15.663 88.128 16.759 88.71 A 4.197 4.197 0 0 0 17.051 88.851 Q 19.001 89.701 21.201 89.701 L 32.401 89.701 Q 34.99 89.701 36.502 88.408 A 4.835 4.835 0 0 0 37.251 87.601 A 7.125 7.125 0 0 0 38.31 85.438 Q 38.801 83.838 38.801 81.701 L 38.801 54.801 L 38.901 54.701 A 21.378 21.378 0 0 1 35.19 55.935 A 18.073 18.073 0 0 1 33.001 56.301 Q 30.101 56.601 26.901 56.601 Q 18.701 56.601 12.651 52.851 Q 6.601 49.101 3.301 42.651 A 30.337 30.337 0 0 1 0.081 30.734 A 36.288 36.288 0 0 1 0.001 28.301 A 32.118 32.118 0 0 1 1.031 20.018 A 26.796 26.796 0 0 1 3.651 13.601 Q 7.301 7.201 13.801 3.601 Q 20.301 0.001 28.801 0.001 A 34.774 34.774 0 0 1 36.192 0.75 A 26.138 26.138 0 0 1 43.801 3.651 Q 50.101 7.301 52.601 13.101 Z" vector-effect="non-scaling-stroke"/>
  </g>
  <ellipse style="fill: rgb(216, 216, 216); fill-opacity: 0; paint-order: stroke; stroke: rgb(33, 61, 186);" cx="43.648" cy="11.222" rx="5.839" ry="5.839" transform="matrix(1, 0, 0, 1, 0, 3.552713678800501e-15)"/>
  <ellipse style="fill: rgb(216, 216, 216); fill-opacity: 0; paint-order: stroke; stroke: rgb(33, 61, 186);" cx="35.585" cy="6.784" rx="5.573" ry="5.573" transform="matrix(1, 0, 0, 1, 0, 3.552713678800501e-15)"/>
  <ellipse style="fill: rgb(216, 216, 216); fill-opacity: 0; paint-order: stroke; stroke: rgb(33, 61, 186);" cx="27.494" cy="6.015" rx="5.456" ry="5.456" transform="matrix(1, 0, 0, 1, 0, 3.552713678800501e-15)"/>
  <ellipse style="fill: rgb(216, 216, 216); fill-opacity: 0; paint-order: stroke; stroke: rgb(33, 61, 186);" cx="20.053" cy="7.669" rx="5.663" ry="5.663" transform="matrix(1, 0, 0, 1, 0, 3.552713678800501e-15)"/>
  <ellipse style="fill: rgb(216, 216, 216); fill-opacity: 0; paint-order: stroke; stroke: rgb(33, 61, 186);" cx="13.97" cy="11.862" rx="6.224" ry="6.224" transform="matrix(1, 0, 0, 1, 0, 3.552713678800501e-15)"/>
  <ellipse style="fill: rgb(216, 216, 216); fill-opacity: 0; paint-order: stroke; stroke: rgb(33, 61, 186);" cx="8.941" cy="19.882" rx="6.774" ry="6.774" transform="matrix(1, 0, 0, 1, 0, 3.552713678800501e-15)"/>
  <ellipse style="fill: rgb(216, 216, 216); fill-opacity: 0; paint-order: stroke; stroke: rgb(33, 61, 186);" cx="7.659" cy="28.568" rx="7.018" ry="7.018" transform="matrix(1, 0, 0, 1, 0, 3.552713678800501e-15)"/>
  <ellipse style="fill: rgb(216, 216, 216); fill-opacity: 0; paint-order: stroke; stroke: rgb(33, 61, 186);" cx="9.37" cy="38.183" rx="7.018" ry="7.018" transform="matrix(1, 0, 0, 1, 0, 3.552713678800501e-15)"/>
  <ellipse style="fill: rgb(216, 216, 216); fill-opacity: 0; paint-order: stroke; stroke: rgb(33, 61, 186);" cx="14.075" cy="45.278" rx="6.59" ry="6.59" transform="matrix(1, 0, 0, 1, 0, 3.552713678800501e-15)"/>
  <ellipse style="fill: rgb(216, 216, 216); fill-opacity: 0; paint-order: stroke; stroke: rgb(33, 61, 186);" cx="21.959" cy="49.618" rx="5.979" ry="5.979" transform="matrix(1, 0, 0, 1, 0, 3.552713678800501e-15)"/>
  <ellipse style="fill: rgb(216, 216, 216); fill-opacity: 0; paint-order: stroke; stroke: rgb(33, 61, 186);" cx="31.003" cy="50.718" rx="5.612" ry="5.612" transform="matrix(1, 0, 0, 1, 0, 3.552713678800501e-15)"/>
  <ellipse style="fill: rgb(216, 216, 216); fill-opacity: 0; paint-order: stroke; stroke: rgb(33, 61, 186);" cx="37.726" cy="49.25" rx="5.612" ry="5.612" transform="matrix(1, 0, 0, 1, 0, 3.552713678800501e-15)"/>
  <ellipse style="fill: rgb(216, 216, 216); fill-opacity: 0; paint-order: stroke; stroke: rgb(33, 61, 186);" cx="45.549" cy="45.095" rx="5.612" ry="5.612" transform="matrix(1, 0, 0, 1, 0, 3.552713678800501e-15)"/>
  <ellipse style="fill: rgb(216, 216, 216); fill-opacity: 0; paint-order: stroke; stroke: rgb(33, 61, 186);" cx="45.548" cy="54.099" rx="5.612" ry="5.612" transform="matrix(1, 0, 0, 1, 0, 3.552713678800501e-15)"/>
  <ellipse style="fill: rgb(216, 216, 216); fill-opacity: 0; paint-order: stroke; stroke: rgb(33, 61, 186);" cx="45.548" cy="62.831" rx="5.612" ry="5.612" transform="matrix(1, 0, 0, 1, 0, 3.552713678800501e-15)"/>
  <ellipse style="fill: rgb(216, 216, 216); fill-opacity: 0; paint-order: stroke; stroke: rgb(33, 61, 186);" cx="45.304" cy="71.455" rx="5.612" ry="5.612" transform="matrix(1, 0, 0, 1, 0, 3.552713678800501e-15)"/>
  <ellipse style="fill: rgb(216, 216, 216); fill-opacity: 0; paint-order: stroke; stroke: rgb(33, 61, 186);" cx="45.181" cy="80.948" rx="5.612" ry="5.612" transform="matrix(1, 0, 0, 1, 0, 3.552713678800501e-15)"/>
  <ellipse style="fill: rgb(216, 216, 216); fill-opacity: 0; paint-order: stroke; stroke: rgb(33, 61, 186);" cx="44.937" cy="89.382" rx="5.612" ry="5.612" transform="matrix(1, 0, 0, 1, 0, 3.552713678800501e-15)"/>
  <ellipse style="fill: rgb(216, 216, 216); fill-opacity: 0; paint-order: stroke; stroke: rgb(33, 61, 186);" cx="42.004" cy="93.537" rx="5.612" ry="5.612" transform="matrix(1, 0, 0, 1, 0, 3.552713678800501e-15)"/>
  <ellipse style="fill: rgb(216, 216, 216); fill-opacity: 0; paint-order: stroke; stroke: rgb(33, 61, 186);" cx="33.326" cy="95.806" rx="5.612" ry="5.612" transform="matrix(1, 0, 0, 1, 0, 3.552713678800501e-15)"/>
  <ellipse style="fill: rgb(216, 216, 216); fill-opacity: 0; paint-order: stroke; stroke: rgb(33, 61, 186);" cx="24.158" cy="96.008" rx="5.612" ry="5.612" transform="matrix(1, 0, 0, 1, 0, 3.552713678800501e-15)"/>
  <ellipse style="fill: rgb(216, 216, 216); fill-opacity: 0; paint-order: stroke; stroke: rgb(33, 61, 186);" cx="15.358" cy="95.276" rx="5.612" ry="5.612" transform="matrix(1, 0, 0, 1, 0, 3.552713678800501e-15)"/>
  <ellipse style="fill: rgb(216, 216, 216); fill-opacity: 0; paint-order: stroke; stroke: rgb(33, 61, 186);" cx="8.636" cy="90.265" rx="5.612" ry="5.612" transform="matrix(1, 0, 0, 1, 0, 3.552713678800501e-15)"/>
  <ellipse style="fill: rgb(216, 216, 216); fill-opacity: 0; paint-order: stroke; stroke: rgb(33, 61, 186);" cx="6.925" cy="83.909" rx="5.612" ry="5.612" transform="matrix(1, 0, 0, 1, 0, 3.552713678800501e-15)"/>
  <ellipse style="fill: rgb(216, 216, 216); fill-opacity: 0; paint-order: stroke; stroke: rgb(33, 61, 186);" cx="10.713" cy="78.653" rx="5.612" ry="5.612" transform="matrix(1, 0, 0, 1, 0, 3.552713678800501e-15)"/>
  <ellipse style="fill: rgb(216, 216, 216); fill-opacity: 0; paint-order: stroke; stroke: rgb(33, 61, 186);" cx="17.07" cy="76.331" rx="5.612" ry="5.612" transform="matrix(1, 0, 0, 1, 0, 3.552713678800501e-15)"/>
  <ellipse style="fill: rgb(216, 216, 216); fill-opacity: 0; paint-order: stroke; stroke: rgb(33, 61, 186);" cx="22.204" cy="76.209" rx="5.612" ry="5.612" transform="matrix(1, 0, 0, 1, 0, 3.552713678800501e-15)"/>
  <ellipse style="fill: rgb(216, 216, 216); fill-opacity: 0; paint-order: stroke; stroke: rgb(33, 61, 186);" cx="26.481" cy="77.553" rx="5.612" ry="5.612" transform="matrix(1, 0, 0, 1, 0, 3.552713678800501e-15)"/>
  <path d="M 34.426 65.409 L 35.431 67.642 L 33.42 67.642 L 34.426 65.409 Z" style="fill: rgb(216, 216, 216); stroke: rgb(0, 0, 0);" transform="matrix(1, 0, 0, 1, 0, 3.552713678800501e-15)"/>
</svg>