<?xml version="1.0" encoding="utf-8"?>
<svg viewBox="0 0 60.801 56.601" width="60.801px" height="56.601px" xmlns="http://www.w3.org/2000/svg">
  <g id="svgGroup" stroke-linecap="round" fill-rule="nonzero" font-size="9pt" stroke="#000" stroke-width="0.25mm" fill="none" style="stroke:#000;stroke-width:0.25mm;fill:none" transform="matrix(0.9999999999999999, 0, 0, 0.9999999999999999, 0, 0)">
    <path d="M 22.069 55.708 A 30.171 30.171 0 0 1 14.651 53.001 Q 7.801 49.401 3.901 43.051 Q 0.001 36.701 0.001 28.301 Q 0.001 19.901 3.901 13.501 Q 7.801 7.101 14.651 3.551 A 31.338 31.338 0 0 1 24.567 0.42 A 40.583 40.583 0 0 1 30.501 0.001 A 38.528 38.528 0 0 1 38.583 0.81 A 29.32 29.32 0 0 1 46.501 3.701 Q 53.301 7.401 57.051 13.801 A 27.474 27.474 0 0 1 60.709 25.811 A 33.376 33.376 0 0 1 60.801 28.301 Q 60.801 36.701 56.951 43.051 Q 53.101 49.401 46.251 53.001 A 31.186 31.186 0 0 1 35.863 56.249 A 39.712 39.712 0 0 1 30.501 56.601 A 38.162 38.162 0 0 1 22.069 55.708 Z M 30.401 44.601 A 17.593 17.593 0 0 0 35.243 43.968 A 13.202 13.202 0 0 0 41.501 40.101 Q 45.601 35.601 45.601 28.301 A 21.676 21.676 0 0 0 45.058 23.31 A 14.684 14.684 0 0 0 41.401 16.401 A 14.012 14.012 0 0 0 32.462 12.108 A 19.279 19.279 0 0 0 30.401 12.001 A 17.145 17.145 0 0 0 25.43 12.687 A 13.393 13.393 0 0 0 19.351 16.501 A 15.352 15.352 0 0 0 15.567 24.213 A 21.833 21.833 0 0 0 15.201 28.301 Q 15.201 35.501 19.301 40.051 A 13.519 13.519 0 0 0 27.827 44.434 A 19.212 19.212 0 0 0 30.401 44.601 Z" vector-effect="non-scaling-stroke"/>
  </g>
  <ellipse style="fill: rgb(216, 216, 216); fill-opacity: 0; paint-order: stroke; stroke: rgb(33, 61, 186);" cx="30.703" cy="50.612" rx="5.199" ry="5.199" transform="matrix(0.9999999999999999, 0, 0, 0.9999999999999999, 0, 0)"/>
  <ellipse style="fill: rgb(216, 216, 216); fill-opacity: 0; paint-order: stroke; stroke: rgb(33, 61, 186);" cx="22.182" cy="49.197" rx="5.488" ry="5.488" transform="matrix(0.9999999999999999, 0, 0, 0.9999999999999999, 0, 0)"/>
  <ellipse style="fill: rgb(216, 216, 216); fill-opacity: 0; paint-order: stroke; stroke: rgb(33, 61, 186);" cx="14.248" cy="44.569" rx="6.232" ry="6.232" transform="matrix(0.9999999999999999, 0, 0, 0.9999999999999999, 0, 0)"/>
  <ellipse style="fill: rgb(216, 216, 216); fill-opacity: 0; paint-order: stroke; stroke: rgb(33, 61, 186);" cx="9.124" cy="36.552" rx="6.976" ry="6.976" transform="matrix(0.9999999999999999, 0, 0, 0.9999999999999999, 0, 0)"/>
  <ellipse style="fill: rgb(216, 216, 216); fill-opacity: 0; paint-order: stroke; stroke: rgb(33, 61, 186);" cx="7.595" cy="28.576" rx="7.1" ry="7.1" transform="matrix(0.9999999999999999, 0, 0, 0.9999999999999999, 0, 0)"/>
  <ellipse style="fill: rgb(216, 216, 216); fill-opacity: 0; paint-order: stroke; stroke: rgb(33, 61, 186);" cx="9.496" cy="18.576" rx="6.893" ry="6.893" transform="matrix(0.9999999999999999, 0, 0, 0.9999999999999999, 0, 0)"/>
  <ellipse style="fill: rgb(216, 216, 216); fill-opacity: 0; paint-order: stroke; stroke: rgb(33, 61, 186);" cx="13.668" cy="12.419" rx="6.397" ry="6.397" transform="matrix(0.9999999999999999, 0, 0, 0.9999999999999999, 0, 0)"/>
  <ellipse style="fill: rgb(216, 216, 216); fill-opacity: 0; paint-order: stroke; stroke: rgb(33, 61, 186);" cx="20.116" cy="7.956" rx="5.736" ry="5.736" transform="matrix(0.9999999999999999, 0, 0, 0.9999999999999999, 0, 0)"/>
  <ellipse style="fill: rgb(216, 216, 216); fill-opacity: 0; paint-order: stroke; stroke: rgb(33, 61, 186);" cx="27.388" cy="6.137" rx="5.571" ry="5.571" transform="matrix(0.9999999999999999, 0, 0, 0.9999999999999999, 0, 0)"/>
  <ellipse style="fill: rgb(216, 216, 216); fill-opacity: 0; paint-order: stroke; stroke: rgb(33, 61, 186);" cx="34.827" cy="6.385" rx="5.571" ry="5.571" transform="matrix(0.9999999999999999, 0, 0, 0.9999999999999999, 0, 0)"/>
  <ellipse style="fill: rgb(216, 216, 216); fill-opacity: 0; paint-order: stroke; stroke: rgb(33, 61, 186);" cx="42.142" cy="8.823" rx="5.943" ry="5.943" transform="matrix(0.9999999999999999, 0, 0, 0.9999999999999999, 0, 0)"/>
  <ellipse style="fill: rgb(216, 216, 216); fill-opacity: 0; paint-order: stroke; stroke: rgb(33, 61, 186);" cx="47.554" cy="12.832" rx="6.356" ry="6.356" transform="matrix(0.9999999999999999, 0, 0, 0.9999999999999999, 0, 0)"/>
  <ellipse style="fill: rgb(216, 216, 216); fill-opacity: 0; paint-order: stroke; stroke: rgb(33, 61, 186);" cx="51.729" cy="19.732" rx="6.811" ry="6.811" transform="matrix(0.9999999999999999, 0, 0, 0.9999999999999999, 0, 0)"/>
  <ellipse style="fill: rgb(216, 216, 216); fill-opacity: 0; paint-order: stroke; stroke: rgb(33, 61, 186);" cx="53.01" cy="27.028" rx="7.142" ry="7.142" transform="matrix(0.9999999999999999, 0, 0, 0.9999999999999999, 0, 0)"/>
  <ellipse style="fill: rgb(216, 216, 216); fill-opacity: 0; paint-order: stroke; stroke: rgb(33, 61, 186);" cx="52.472" cy="34.04" rx="7.101" ry="7.101" transform="matrix(0.9999999999999999, 0, 0, 0.9999999999999999, 0, 0)"/>
  <ellipse style="fill: rgb(216, 216, 216); fill-opacity: 0; paint-order: stroke; stroke: rgb(33, 61, 186);" cx="49.828" cy="40.817" rx="6.605" ry="6.605" transform="matrix(0.9999999999999999, 0, 0, 0.9999999999999999, 0, 0)"/>
  <ellipse style="fill: rgb(216, 216, 216); fill-opacity: 0; paint-order: stroke; stroke: rgb(33, 61, 186);" cx="44.662" cy="46.148" rx="6.192" ry="6.192" transform="matrix(0.9999999999999999, 0, 0, 0.9999999999999999, 0, 0)"/>
  <ellipse style="fill: rgb(216, 216, 216); fill-opacity: 0; paint-order: stroke; stroke: rgb(33, 61, 186);" cx="38.895" cy="49.206" rx="5.678" ry="5.678" transform="matrix(0.9999999999999999, 0, 0, 0.9999999999999999, 0, 0)"/>
  <ellipse style="fill: rgb(216, 216, 216); fill-opacity: 0; paint-order: stroke; stroke: rgb(33, 61, 186);" cx="30.536" cy="50.621" rx="5.199" ry="5.199" transform="matrix(0.9999999999999999, 0, 0, 0.9999999999999999, 0, 0)"/>
  <path d="M 28.354 25.731 L 29.359 27.964 L 27.348 27.964 L 28.354 25.731 Z" style="fill: rgb(216, 216, 216); stroke: rgb(0, 0, 0);" transform="matrix(0.9999999999999999, 0, 0, 0.9999999999999999, 0, 0)"/>
</svg>