<?xml version="1.0" encoding="utf-8"?>
<svg viewBox="0 0 102.101 56.601" width="102.101px" height="56.601px" xmlns="http://www.w3.org/2000/svg">
  <g id="svgGroup" stroke-linecap="round" fill-rule="nonzero" font-size="9pt" stroke="#000" stroke-width="0.25mm" fill="none" style="stroke:#000;stroke-width:0.25mm;fill:none" transform="matrix(0.9999999999999999, 0, 0, 0.9999999999999999, 0, -7.105427357601002e-15)">
    <path d="M 14.801 0.001 A 27.072 27.072 0 0 0 9.284 4.228 A 32.23 32.23 0 0 0 4.201 10.851 A 26.481 26.481 0 0 0 3.876 11.419 Q 0.001 18.407 0.001 28.301 A 34.852 34.852 0 0 0 0.262 32.622 A 27.513 27.513 0 0 0 3.701 43.101 Q 7.401 49.501 13.951 53.051 Q 20.501 56.601 29.101 56.601 A 40.343 40.343 0 0 0 35.427 56.129 A 29.217 29.217 0 0 0 42.051 54.301 Q 47.601 52.001 51.201 47.801 Q 52.922 49.879 55.455 51.657 A 31.843 31.843 0 0 0 59.301 53.951 A 20.28 20.28 0 0 0 61.68 54.973 Q 66.23 56.601 72.501 56.601 Q 81.501 56.601 88.151 53.201 Q 94.801 49.801 98.451 43.451 A 26.454 26.454 0 0 0 101.325 35.922 A 34.824 34.824 0 0 0 102.101 28.401 A 35.266 35.266 0 0 0 101.875 24.369 A 28.06 28.06 0 0 0 98.501 13.701 Q 94.901 7.301 88.701 3.651 A 25.582 25.582 0 0 0 83.167 1.221 A 29.213 29.213 0 0 0 74.601 0.001 A 19.18 19.18 0 0 0 74.055 0.009 Q 73.221 0.032 72.289 0.127 A 34.158 34.158 0 0 0 70.251 0.401 Q 67.801 0.801 65.451 1.501 A 22.696 22.696 0 0 0 64.805 1.704 Q 63.858 2.017 63.044 2.383 A 12.939 12.939 0 0 0 61.501 3.201 L 66.501 14.301 A 67.787 67.787 0 0 1 67.648 13.887 Q 68.838 13.47 69.71 13.225 A 14.687 14.687 0 0 1 70.601 13.001 A 11.145 11.145 0 0 1 71.538 12.845 Q 72.112 12.772 72.783 12.736 A 26.588 26.588 0 0 1 74.201 12.701 A 14.917 14.917 0 0 1 75.164 12.731 A 11.299 11.299 0 0 1 83.401 16.851 A 12.881 12.881 0 0 1 85.05 19.358 Q 86.066 21.368 86.524 23.894 A 25.285 25.285 0 0 1 86.901 28.401 A 22.499 22.499 0 0 1 86.645 31.854 A 16.57 16.57 0 0 1 83.051 40.051 A 12.317 12.317 0 0 1 77.545 43.933 A 14.641 14.641 0 0 1 72.701 44.701 A 20.475 20.475 0 0 1 69.148 44.405 A 15.108 15.108 0 0 1 63.051 41.951 A 21.099 21.099 0 0 1 62.312 41.413 A 17.732 17.732 0 0 1 57.101 35.201 A 35.413 35.413 0 0 0 57.273 34.162 A 39.157 39.157 0 0 0 57.701 28.301 Q 57.701 17.801 53.751 10.751 A 32.72 32.72 0 0 0 52.856 9.249 A 27.071 27.071 0 0 0 43.301 0.001 L 35.801 12.001 A 21.569 21.569 0 0 1 38.575 14.331 A 16.095 16.095 0 0 1 42.101 19.501 Q 43.901 23.801 43.901 28.301 A 27.686 27.686 0 0 1 43.898 28.653 Q 43.865 31.284 43.329 33.534 A 15.193 15.193 0 0 1 40.001 40.151 A 12.497 12.497 0 0 1 34.245 43.922 A 15.796 15.796 0 0 1 29.501 44.601 A 15.856 15.856 0 0 1 29.245 44.599 A 13.195 13.195 0 0 1 22.151 42.501 A 14.17 14.17 0 0 1 20.61 41.351 A 14.79 14.79 0 0 1 17.051 36.751 Q 15.201 33.101 15.201 28.301 Q 15.201 23.601 16.751 19.651 A 15.606 15.606 0 0 1 17.126 18.774 Q 18.746 15.289 22.301 12.001 L 14.801 0.001 Z" vector-effect="non-scaling-stroke"/>
  </g>
  <ellipse style="fill: rgb(216, 216, 216); fill-opacity: 0; paint-order: stroke; stroke: rgb(33, 61, 186);" cx="13.315" cy="9.888" rx="5.995" ry="5.995" transform="matrix(0.9999999999999999, 0, 0, 0.9999999999999999, 0, -7.105427357601002e-15)"/>
  <ellipse style="fill: rgb(216, 216, 216); fill-opacity: 0; paint-order: stroke; stroke: rgb(33, 61, 186);" cx="12.115" cy="12.039" rx="5.995" ry="5.995" transform="matrix(0.9999999999999999, 0, 0, 0.9999999999999999, 0, -7.105427357601002e-15)"/>
  <ellipse style="fill: rgb(216, 216, 216); fill-opacity: 0; paint-order: stroke; stroke: rgb(33, 61, 186);" cx="9.145" cy="18.043" rx="6.83" ry="6.83" transform="matrix(0.9999999999999999, 0, 0, 0.9999999999999999, 0, -7.105427357601002e-15)"/>
  <ellipse style="fill: rgb(216, 216, 216); fill-opacity: 0; paint-order: stroke; stroke: rgb(33, 61, 186);" cx="7.937" cy="24.397" rx="6.843" ry="6.843" transform="matrix(0.9999999999999999, 0, 0, 0.9999999999999999, 0, -7.105427357601002e-15)"/>
  <ellipse style="fill: rgb(216, 216, 216); fill-opacity: 0; paint-order: stroke; stroke: rgb(33, 61, 186);" cx="8.562" cy="32.94" rx="6.614" ry="6.614" transform="matrix(0.9999999999999999, 0, 0, 0.9999999999999999, 0, -7.105427357601002e-15)"/>
  <ellipse style="fill: rgb(216, 216, 216); fill-opacity: 0; paint-order: stroke; stroke: rgb(33, 61, 186);" cx="10.041" cy="38.899" rx="6.841" ry="6.841" transform="matrix(0.9999999999999999, 0, 0, 0.9999999999999999, 0, -7.105427357601002e-15)"/>
  <ellipse style="fill: rgb(216, 216, 216); fill-opacity: 0; paint-order: stroke; stroke: rgb(33, 61, 186);" cx="15.005" cy="45.294" rx="6.169" ry="6.169" transform="matrix(0.9999999999999999, 0, 0, 0.9999999999999999, 0, -7.105427357601002e-15)"/>
  <ellipse style="fill: rgb(216, 216, 216); fill-opacity: 0; paint-order: stroke; stroke: rgb(33, 61, 186);" cx="21.457" cy="49.416" rx="5.55" ry="5.55" transform="matrix(0.9999999999999999, 0, 0, 0.9999999999999999, 0, -7.105427357601002e-15)"/>
  <ellipse style="fill: rgb(216, 216, 216); fill-opacity: 0; paint-order: stroke; stroke: rgb(33, 61, 186);" cx="27.013" cy="50.26" rx="5.395" ry="5.395" transform="matrix(0.9999999999999999, 0, 0, 0.9999999999999999, 0, -7.105427357601002e-15)"/>
  <path d="M 68.093 20.718 L 69.098 22.951 L 67.087 22.951 L 68.093 20.718 Z" style="fill: rgb(216, 216, 216); stroke: rgb(0, 0, 0);" transform="matrix(0.9999999999999999, 0, 0, 0.9999999999999999, 0, -7.105427357601002e-15)"/>
  <ellipse style="fill: rgb(216, 216, 216); fill-opacity: 0; paint-order: stroke; stroke: rgb(0, 169, 89);" cx="45.08" cy="10.486" rx="6.438" ry="6.438" transform="matrix(0.9999999999999999, 0, 0, 0.9999999999999999, 0, -7.105427357601002e-15)"/>
  <ellipse style="fill: rgb(216, 216, 216); fill-opacity: 0; paint-order: stroke; stroke: rgb(0, 169, 89);" cx="47.891" cy="14.512" rx="6.438" ry="6.438" transform="matrix(0.9999999999999999, 0, 0, 0.9999999999999999, 0, -7.105427357601002e-15)"/>
  <ellipse style="fill: rgb(216, 216, 216); fill-opacity: 0; paint-order: stroke; stroke: rgb(0, 169, 89);" cx="50.027" cy="21.095" rx="6.438" ry="6.438" transform="matrix(0.9999999999999999, 0, 0, 0.9999999999999999, 0, -7.105427357601002e-15)"/>
  <ellipse style="fill: rgb(216, 216, 216); fill-opacity: 0; paint-order: stroke; stroke: rgb(0, 169, 89);" cx="50.75" cy="27.547" rx="6.438" ry="6.438" transform="matrix(0.9999999999999999, 0, 0, 0.9999999999999999, 0, -7.105427357601002e-15)"/>
  <ellipse style="fill: rgb(216, 216, 216); fill-opacity: 0; paint-order: stroke; stroke: rgb(0, 169, 89);" cx="50.887" cy="33.046" rx="6.438" ry="6.438" transform="matrix(0.9999999999999999, 0, 0, 0.9999999999999999, 0, -7.105427357601002e-15)"/>
  <ellipse style="fill: rgb(216, 216, 216); fill-opacity: 0; paint-order: stroke; stroke: rgb(0, 169, 89);" cx="48.407" cy="40.278" rx="6.438" ry="6.438" transform="matrix(0.9999999999999999, 0, 0, 0.9999999999999999, 0, -7.105427357601002e-15)"/>
  <ellipse style="fill: rgb(216, 216, 216); fill-opacity: 0; paint-order: stroke; stroke: rgb(0, 169, 89);" cx="43.333" cy="46.15" rx="6.025" ry="6.025" transform="matrix(0.9999999999999999, 0, 0, 0.9999999999999999, 0, -7.105427357601002e-15)"/>
  <ellipse style="fill: rgb(216, 216, 216); fill-opacity: 0; paint-order: stroke; stroke: rgb(0, 169, 89);" cx="36.234" cy="49.686" rx="5.302" ry="5.302" transform="matrix(0.9999999999999999, 0, 0, 0.9999999999999999, 0, -7.105427357601002e-15)"/>
  <ellipse style="fill: rgb(216, 216, 216); fill-opacity: 0; paint-order: stroke; stroke: rgb(0, 169, 89);" cx="27.228" cy="50.322" rx="5.611" ry="5.611" transform="matrix(0.9999999999999999, 0, 0, 0.9999999999999999, 0, -7.105427357601002e-15)"/>
  <path d="M 74.576 23.48 L 75.581 25.713 L 73.57 25.713 L 74.576 23.48 Z" style="fill: rgb(216, 216, 216); stroke: rgb(0, 0, 0);" transform="matrix(0.9999999999999999, 0, 0, 0.9999999999999999, 0, -7.105427357601002e-15)"/>
  <ellipse style="fill: rgb(216, 216, 216); fill-opacity: 0; paint-order: stroke; stroke: rgb(169, 0, 137);" cx="70.031" cy="6.985" rx="5.718" ry="5.718" transform="matrix(0.9999999999999999, 0, 0, 0.9999999999999999, 0, -7.105427357601002e-15)"/>
  <ellipse style="fill: rgb(216, 216, 216); fill-opacity: 0; paint-order: stroke; stroke: rgb(169, 0, 137);" cx="76.435" cy="6.237" rx="5.718" ry="5.718" transform="matrix(0.9999999999999999, 0, 0, 0.9999999999999999, 0, -7.105427357601002e-15)"/>
  <ellipse style="fill: rgb(216, 216, 216); fill-opacity: 0; paint-order: stroke; stroke: rgb(169, 0, 137);" cx="83.688" cy="8.583" rx="5.718" ry="5.718" transform="matrix(0.9999999999999999, 0, 0, 0.9999999999999999, 0, -7.105427357601002e-15)"/>
  <ellipse style="fill: rgb(216, 216, 216); fill-opacity: 0; paint-order: stroke; stroke: rgb(169, 0, 137);" cx="89.438" cy="13.503" rx="6.258" ry="6.258" transform="matrix(0.9999999999999999, 0, 0, 0.9999999999999999, 0, -7.105427357601002e-15)"/>
  <ellipse style="fill: rgb(216, 216, 216); fill-opacity: 0; paint-order: stroke; stroke: rgb(169, 0, 137);" cx="93.579" cy="20.97" rx="6.558" ry="6.558" transform="matrix(0.9999999999999999, 0, 0, 0.9999999999999999, 0, -7.105427357601002e-15)"/>
  <ellipse style="fill: rgb(216, 216, 216); fill-opacity: 0; paint-order: stroke; stroke: rgb(169, 0, 137);" cx="94.554" cy="29.293" rx="6.919" ry="6.919" transform="matrix(0.9999999999999999, 0, 0, 0.9999999999999999, 0, -7.105427357601002e-15)"/>
  <ellipse style="fill: rgb(216, 216, 216); fill-opacity: 0; paint-order: stroke; stroke: rgb(169, 0, 137);" cx="93.236" cy="37.35" rx="6.658" ry="6.658" transform="matrix(0.9999999999999999, 0, 0, 0.9999999999999999, 0, -7.105427357601002e-15)"/>
  <ellipse style="fill: rgb(216, 216, 216); fill-opacity: 0; paint-order: stroke; stroke: rgb(169, 0, 137);" cx="88.24" cy="44.963" rx="6.504" ry="6.504" transform="matrix(0.9999999999999999, 0, 0, 0.9999999999999999, 0, -7.105427357601002e-15)"/>
  <ellipse style="fill: rgb(216, 216, 216); fill-opacity: 0; paint-order: stroke; stroke: rgb(169, 0, 137);" cx="79.854" cy="49.524" rx="5.604" ry="5.604" transform="matrix(0.9999999999999999, 0, 0, 0.9999999999999999, 0, -7.105427357601002e-15)"/>
  <ellipse style="fill: rgb(216, 216, 216); fill-opacity: 0; paint-order: stroke; stroke: rgb(169, 0, 137);" cx="70.779" cy="50.552" rx="5.418" ry="5.418" transform="matrix(0.9999999999999999, 0, 0, 0.9999999999999999, 0, -7.105427357601002e-15)"/>
  <ellipse style="fill: rgb(216, 216, 216); fill-opacity: 0; paint-order: stroke; stroke: rgb(169, 0, 137);" cx="62.57" cy="48.556" rx="5.418" ry="5.418" transform="matrix(0.9999999999999999, 0, 0, 0.9999999999999999, 0, -7.105427357601002e-15)"/>
  <ellipse style="fill: rgb(216, 216, 216); fill-opacity: 0; paint-order: stroke; stroke: rgb(169, 0, 137);" cx="56.807" cy="44.353" rx="5.418" ry="5.418" transform="matrix(0.9999999999999999, 0, 0, 0.9999999999999999, 0, -7.105427357601002e-15)"/>
  <ellipse style="fill: rgb(216, 216, 216); fill-opacity: 0; paint-order: stroke; stroke: rgb(169, 0, 137);" cx="50.563" cy="39.431" rx="5.418" ry="5.418" transform="matrix(0.9999999999999999, 0, 0, 0.9999999999999999, 0, -7.105427357601002e-15)"/>
  <path d="M 64.371 31.644 L 65.376 33.877 L 63.365 33.877 L 64.371 31.644 Z" style="fill: rgb(216, 216, 216); stroke: rgb(0, 0, 0);" transform="matrix(0.9999999999999999, 0, 0, 0.9999999999999999, 0, -7.105427357601002e-15)"/>
</svg>