<?xml version="1.0" encoding="utf-8"?>
<svg viewBox="0 0 79.202 103.202" width="79.202px" height="103.202px" xmlns="http://www.w3.org/2000/svg">
  <g id="svgGroup" stroke-linecap="round" fill-rule="nonzero" font-size="9pt" stroke="#000" stroke-width="0.25mm" fill="none" style="stroke:#000;stroke-width:0.25mm;fill:none" transform="matrix(0.9999999999999999, 0, 0, 0.9999999999999999, 0, 0)">
    <path d="M 47.801 50.501 L 47.801 74.501 Q 47.801 81.467 49.111 85.243 A 11.288 11.288 0 0 0 49.751 86.751 A 7.298 7.298 0 0 0 51.5 88.999 Q 52.96 90.231 55.053 90.452 A 9.01 9.01 0 0 0 56.001 90.501 Q 59.904 90.501 61.83 87.37 A 8.72 8.72 0 0 0 62.201 86.701 A 13.515 13.515 0 0 0 63.161 84.03 Q 63.876 81.251 64.047 77.127 A 65.933 65.933 0 0 0 64.101 74.401 L 64.101 0.901 L 79.201 0.901 L 79.201 77.001 Q 79.201 89.101 72.951 96.151 A 20.48 20.48 0 0 1 60.596 102.813 A 29.685 29.685 0 0 1 55.701 103.201 A 26.293 26.293 0 0 1 48.333 102.221 A 19.693 19.693 0 0 1 38.851 96.201 Q 32.701 89.201 32.701 76.801 L 32.701 56.401 Q 30.901 56.601 29.001 56.601 A 32.144 32.144 0 0 1 19.488 55.229 A 28.593 28.593 0 0 1 14.201 53.001 Q 7.601 49.401 3.801 43.051 A 26.753 26.753 0 0 1 0.246 32.434 A 33.994 33.994 0 0 1 0.001 28.301 A 31.538 31.538 0 0 1 1.011 20.17 A 26.162 26.162 0 0 1 3.801 13.501 Q 7.601 7.101 14.201 3.551 A 30.009 30.009 0 0 1 26.477 0.087 A 36.249 36.249 0 0 1 29.001 0.001 A 35.965 35.965 0 0 1 36.31 0.709 A 26.662 26.662 0 0 1 44.301 3.701 Q 50.701 7.401 54.101 13.801 A 29.213 29.213 0 0 1 57.326 24.718 A 36.052 36.052 0 0 1 57.501 28.301 A 34.01 34.01 0 0 1 56.705 35.796 A 28.073 28.073 0 0 1 54.951 41.101 A 25.25 25.25 0 0 1 49.454 49.043 A 24.202 24.202 0 0 1 47.801 50.501 Z M 26.901 44.601 A 21.394 21.394 0 0 0 31.39 44.159 Q 35.75 43.223 38.401 40.301 A 14.194 14.194 0 0 0 41.5 34.581 Q 42.126 32.4 42.262 29.794 A 28.482 28.482 0 0 0 42.301 28.301 A 23.443 23.443 0 0 0 41.81 23.363 Q 41.099 20.063 39.359 17.562 A 14.214 14.214 0 0 0 38.501 16.451 A 12.32 12.32 0 0 0 31.43 12.372 A 18.683 18.683 0 0 0 27.601 12.001 A 17.959 17.959 0 0 0 26.215 12.052 A 15.478 15.478 0 0 0 25.701 12.101 A 43.35 43.35 0 0 1 28.347 18.23 A 48.743 48.743 0 0 1 28.751 19.451 A 26.174 26.174 0 0 1 29.759 24.209 A 34.901 34.901 0 0 1 30.001 28.401 A 33.914 33.914 0 0 1 29.591 33.772 A 28.397 28.397 0 0 1 28.951 36.751 A 33.367 33.367 0 0 1 27.189 41.622 A 41.006 41.006 0 0 1 25.701 44.601 L 26.901 44.601 Z M 11.701 28.301 A 20.457 20.457 0 0 0 12.029 32.05 A 15.642 15.642 0 0 0 13.101 35.551 A 15.843 15.843 0 0 0 14.96 38.73 A 13.193 13.193 0 0 0 16.801 40.701 A 28.707 28.707 0 0 0 19.156 35.453 A 26.53 26.53 0 0 0 19.301 35.001 A 18.437 18.437 0 0 0 19.916 32.233 Q 20.121 30.849 20.178 29.268 A 34.836 34.836 0 0 0 20.201 28.001 A 25.814 25.814 0 0 0 20.019 24.857 Q 19.814 23.192 19.38 21.756 A 15.344 15.344 0 0 0 19.251 21.351 Q 18.301 18.501 16.901 16.001 A 15.635 15.635 0 0 0 13.372 20.809 A 18.155 18.155 0 0 0 13.101 21.401 A 16.965 16.965 0 0 0 11.702 28.063 A 19.431 19.431 0 0 0 11.701 28.301 Z" vector-effect="non-scaling-stroke"/>
  </g>
  <ellipse style="fill: rgb(216, 216, 216); fill-opacity: 0; paint-order: stroke; stroke: rgb(33, 61, 186);" cx="19.014" cy="7.948" rx="5.266" ry="5.266" transform="matrix(0.9999999999999999, 0, 0, 0.9999999999999999, 0, 0)"/>
  <ellipse style="fill: rgb(216, 216, 216); fill-opacity: 0; paint-order: stroke; stroke: rgb(33, 61, 186);" cx="26.495" cy="6.123" rx="5.266" ry="5.266" transform="matrix(0.9999999999999999, 0, 0, 0.9999999999999999, 0, 0)"/>
  <ellipse style="fill: rgb(216, 216, 216); fill-opacity: 0; paint-order: stroke; stroke: rgb(33, 61, 186);" cx="35.089" cy="6.83" rx="5.675" ry="5.675" transform="matrix(0.9999999999999999, 0, 0, 0.9999999999999999, 0, 0)"/>
  <ellipse style="fill: rgb(216, 216, 216); fill-opacity: 0; paint-order: stroke; stroke: rgb(33, 61, 186);" cx="41.079" cy="9.471" rx="6.047" ry="6.047" transform="matrix(0.9999999999999999, 0, 0, 0.9999999999999999, 0, 0)"/>
  <ellipse style="fill: rgb(216, 216, 216); fill-opacity: 0; paint-order: stroke; stroke: rgb(33, 61, 186);" cx="46.325" cy="14.866" rx="6.679" ry="6.679" transform="matrix(0.9999999999999999, 0, 0, 0.9999999999999999, 0, 0)"/>
  <ellipse style="fill: rgb(216, 216, 216); fill-opacity: 0; paint-order: stroke; stroke: rgb(33, 61, 186);" cx="49.637" cy="23.311" rx="7.051" ry="7.051" transform="matrix(0.9999999999999999, 0, 0, 0.9999999999999999, 0, 0)"/>
  <ellipse style="fill: rgb(216, 216, 216); fill-opacity: 0; paint-order: stroke; stroke: rgb(33, 61, 186);" cx="49.934" cy="30.852" rx="7.051" ry="7.051" transform="matrix(0.9999999999999999, 0, 0, 0.9999999999999999, 0, 0)"/>
  <ellipse style="fill: rgb(216, 216, 216); fill-opacity: 0; paint-order: stroke; stroke: rgb(33, 61, 186);" cx="47.964" cy="38.594" rx="6.791" ry="6.791" transform="matrix(0.9999999999999999, 0, 0, 0.9999999999999999, 0, 0)"/>
  <ellipse style="fill: rgb(216, 216, 216); fill-opacity: 0; paint-order: stroke; stroke: rgb(33, 61, 186);" cx="43.944" cy="44.67" rx="6.456" ry="6.456" transform="matrix(0.9999999999999999, 0, 0, 0.9999999999999999, 0, 0)"/>
  <ellipse style="fill: rgb(216, 216, 216); fill-opacity: 0; paint-order: stroke; stroke: rgb(33, 61, 186);" cx="36.912" cy="48.873" rx="5.786" ry="5.786" transform="matrix(0.9999999999999999, 0, 0, 0.9999999999999999, 0, 0)"/>
  <ellipse style="fill: rgb(216, 216, 216); fill-opacity: 0; paint-order: stroke; stroke: rgb(33, 61, 186);" cx="29.546" cy="50.421" rx="5.637" ry="5.637" transform="matrix(0.9999999999999999, 0, 0, 0.9999999999999999, 0, 0)"/>
  <ellipse style="fill: rgb(216, 216, 216); fill-opacity: 0; paint-order: stroke; stroke: rgb(33, 61, 186);" cx="20.841" cy="49.528" rx="5.19" ry="5.19" transform="matrix(0.9999999999999999, 0, 0, 0.9999999999999999, 0, 0)"/>
  <ellipse style="fill: rgb(216, 216, 216); fill-opacity: 0; paint-order: stroke; stroke: rgb(33, 61, 186);" cx="13.696" cy="45.659" rx="5.19" ry="5.19" transform="matrix(0.9999999999999999, 0, 0, 0.9999999999999999, 0, 0)"/>
  <ellipse style="fill: rgb(216, 216, 216); fill-opacity: 0; paint-order: stroke; stroke: rgb(33, 61, 186);" cx="8.547" cy="39.689" rx="5.264" ry="5.264" transform="matrix(0.9999999999999999, 0, 0, 0.9999999999999999, 0, 0)"/>
  <ellipse style="fill: rgb(216, 216, 216); fill-opacity: 0; paint-order: stroke; stroke: rgb(33, 61, 186);" cx="6.167" cy="32.471" rx="5.264" ry="5.264" transform="matrix(0.9999999999999999, 0, 0, 0.9999999999999999, 0, 0)"/>
  <ellipse style="fill: rgb(216, 216, 216); fill-opacity: 0; paint-order: stroke; stroke: rgb(33, 61, 186);" cx="6.093" cy="25.246" rx="5.264" ry="5.264" transform="matrix(0.9999999999999999, 0, 0, 0.9999999999999999, 0, 0)"/>
  <ellipse style="fill: rgb(216, 216, 216); fill-opacity: 0; paint-order: stroke; stroke: rgb(33, 61, 186);" cx="7.73" cy="18.846" rx="5.264" ry="5.264" transform="matrix(0.9999999999999999, 0, 0, 0.9999999999999999, 0, 0)"/>
  <ellipse style="fill: rgb(216, 216, 216); fill-opacity: 0; paint-order: stroke; stroke: rgb(33, 61, 186);" cx="11.227" cy="13.324" rx="5.264" ry="5.264" transform="matrix(0.9999999999999999, 0, 0, 0.9999999999999999, 0, 0)"/>
  <ellipse style="fill: rgb(216, 216, 216); fill-opacity: 0; paint-order: stroke; stroke: rgb(33, 61, 186);" cx="14.873" cy="10.124" rx="5.264" ry="5.264" transform="matrix(0.9999999999999999, 0, 0, 0.9999999999999999, 0, 0)"/>
  <ellipse style="fill: rgb(216, 216, 216); fill-opacity: 0; paint-order: stroke; stroke: rgb(33, 61, 186);" cx="19.337" cy="8.115" rx="5.264" ry="5.264" transform="matrix(0.9999999999999999, 0, 0, 0.9999999999999999, 0, 0)"/>
  <ellipse style="fill: rgb(216, 216, 216); fill-opacity: 0; paint-order: stroke; stroke: rgb(33, 61, 186);" cx="21.533" cy="14.6" rx="4.186" ry="4.186" transform="matrix(0.9999999999999999, 0, 0, 0.9999999999999999, 0, 0)"/>
  <ellipse style="fill: rgb(216, 216, 216); fill-opacity: 0; paint-order: stroke; stroke: rgb(33, 61, 186);" cx="23.877" cy="20.029" rx="4.186" ry="4.186" transform="matrix(0.9999999999999999, 0, 0, 0.9999999999999999, 0, 0)"/>
  <ellipse style="fill: rgb(216, 216, 216); fill-opacity: 0; paint-order: stroke; stroke: rgb(33, 61, 186);" cx="25.067" cy="26.022" rx="4.335" ry="4.335" transform="matrix(0.9999999999999999, 0, 0, 0.9999999999999999, 0, 0)"/>
  <ellipse style="fill: rgb(216, 216, 216); fill-opacity: 0; paint-order: stroke; stroke: rgb(33, 61, 186);" cx="24.844" cy="31.306" rx="4.335" ry="4.335" transform="matrix(0.9999999999999999, 0, 0, 0.9999999999999999, 0, 0)"/>
  <ellipse style="fill: rgb(216, 216, 216); fill-opacity: 0; paint-order: stroke; stroke: rgb(33, 61, 186);" cx="23.951" cy="36.564" rx="4.335" ry="4.335" transform="matrix(0.9999999999999999, 0, 0, 0.9999999999999999, 0, 0)"/>
  <ellipse style="fill: rgb(216, 216, 216); fill-opacity: 0; paint-order: stroke; stroke: rgb(33, 61, 186);" cx="22.016" cy="41.665" rx="4.335" ry="4.335" transform="matrix(0.9999999999999999, 0, 0, 0.9999999999999999, 0, 0)"/>
  <ellipse style="fill: rgb(216, 216, 216); fill-opacity: 0; paint-order: stroke; stroke: rgb(33, 61, 186);" cx="19.933" cy="47.394" rx="4.335" ry="4.335" transform="matrix(0.9999999999999999, 0, 0, 0.9999999999999999, 0, 0)"/>
  <path d="M 36.675 29.429 L 37.68 31.662 L 35.669 31.662 L 36.675 29.429 Z" style="fill: rgb(216, 216, 216); stroke: rgb(0, 0, 0);" transform="matrix(0.9999999999999999, 0, 0, 0.9999999999999999, 0, 0)"/>
  <ellipse style="fill: rgb(216, 216, 216); fill-opacity: 0; paint-order: stroke; stroke: rgb(186, 179, 33);" cx="39.651" cy="48.189" rx="6.456" ry="6.456" transform="matrix(0.9999999999999999, 0, 0, 0.9999999999999999, 0, 0)"/>
  <ellipse style="fill: rgb(216, 216, 216); fill-opacity: 0; paint-order: stroke; stroke: rgb(186, 179, 33);" cx="40.023" cy="57.432" rx="6.456" ry="6.456" transform="matrix(0.9999999999999999, 0, 0, 0.9999999999999999, 0, 0)"/>
  <ellipse style="fill: rgb(216, 216, 216); fill-opacity: 0; paint-order: stroke; stroke: rgb(186, 179, 33);" cx="40.172" cy="68.379" rx="6.456" ry="6.456" transform="matrix(0.9999999999999999, 0, 0, 0.9999999999999999, 0, 0)"/>
  <ellipse style="fill: rgb(216, 216, 216); fill-opacity: 0; paint-order: stroke; stroke: rgb(186, 179, 33);" cx="40.172" cy="78.795" rx="6.456" ry="6.456" transform="matrix(0.9999999999999999, 0, 0, 0.9999999999999999, 0, 0)"/>
  <ellipse style="fill: rgb(216, 216, 216); fill-opacity: 0; paint-order: stroke; stroke: rgb(186, 179, 33);" cx="41.741" cy="87.693" rx="6.456" ry="6.456" transform="matrix(0.9999999999999999, 0, 0, 0.9999999999999999, 0, 0)"/>
  <path d="M 18.004 75.322 L 19.009 77.555 L 16.998 77.555 L 18.004 75.322 Z" style="fill: rgb(216, 216, 216); stroke: rgb(0, 0, 0);" transform="matrix(0.9999999999999999, 0, 0, 0.9999999999999999, 0, 0)"/>
  <ellipse style="fill: rgb(216, 216, 216); fill-opacity: 0; paint-order: stroke; stroke: rgb(33, 186, 60);" cx="71.654" cy="6.796" rx="6.88" ry="6.88" transform="matrix(0.9999999999999999, 0, 0, 0.9999999999999999, 0, 0)"/>
  <ellipse style="fill: rgb(216, 216, 216); fill-opacity: 0; paint-order: stroke; stroke: rgb(33, 186, 60);" cx="71.594" cy="17.957" rx="6.88" ry="6.88" transform="matrix(0.9999999999999999, 0, 0, 0.9999999999999999, 0, 0)"/>
  <ellipse style="fill: rgb(216, 216, 216); fill-opacity: 0; paint-order: stroke; stroke: rgb(33, 186, 60);" cx="71.837" cy="28.102" rx="6.88" ry="6.88" transform="matrix(0.9999999999999999, 0, 0, 0.9999999999999999, 0, 0)"/>
  <ellipse style="fill: rgb(216, 216, 216); fill-opacity: 0; paint-order: stroke; stroke: rgb(33, 186, 60);" cx="71.716" cy="38.233" rx="6.88" ry="6.88" transform="matrix(0.9999999999999999, 0, 0, 0.9999999999999999, 0, 0)"/>
  <ellipse style="fill: rgb(216, 216, 216); fill-opacity: 0; paint-order: stroke; stroke: rgb(33, 186, 60);" cx="71.352" cy="48.269" rx="6.88" ry="6.88" transform="matrix(0.9999999999999999, 0, 0, 0.9999999999999999, 0, 0)"/>
  <ellipse style="fill: rgb(216, 216, 216); fill-opacity: 0; paint-order: stroke; stroke: rgb(33, 186, 60);" cx="71.473" cy="58.75" rx="6.88" ry="6.88" transform="matrix(0.9999999999999999, 0, 0, 0.9999999999999999, 0, 0)"/>
  <ellipse style="fill: rgb(216, 216, 216); fill-opacity: 0; paint-order: stroke; stroke: rgb(33, 186, 60);" cx="71.594" cy="69.231" rx="6.88" ry="6.88" transform="matrix(0.9999999999999999, 0, 0, 0.9999999999999999, 0, 0)"/>
  <ellipse style="fill: rgb(216, 216, 216); fill-opacity: 0; paint-order: stroke; stroke: rgb(33, 186, 60);" cx="71.473" cy="79.537" rx="6.88" ry="6.88" transform="matrix(0.9999999999999999, 0, 0, 0.9999999999999999, 0, 0)"/>
  <ellipse style="fill: rgb(216, 216, 216); fill-opacity: 0; paint-order: stroke; stroke: rgb(33, 186, 60);" cx="68.805" cy="89.29" rx="6.88" ry="6.88" transform="matrix(0.9999999999999999, 0, 0, 0.9999999999999999, 0, 0)"/>
  <ellipse style="fill: rgb(216, 216, 216); fill-opacity: 0; paint-order: stroke; stroke: rgb(33, 186, 60);" cx="65.592" cy="93.5" rx="6.395" ry="6.395" transform="matrix(0.9999999999999999, 0, 0, 0.9999999999999999, 0, 0)"/>
  <ellipse style="fill: rgb(216, 216, 216); fill-opacity: 0; paint-order: stroke; stroke: rgb(33, 186, 60);" cx="58.996" cy="96.657" rx="5.811" ry="5.811" transform="matrix(0.9999999999999999, 0, 0, 0.9999999999999999, 0, 0)"/>
  <ellipse style="fill: rgb(216, 216, 216); fill-opacity: 0; paint-order: stroke; stroke: rgb(33, 186, 60);" cx="52.407" cy="96.541" rx="5.958" ry="5.958" transform="matrix(0.9999999999999999, 0, 0, 0.9999999999999999, 0, 0)"/>
  <ellipse style="fill: rgb(216, 216, 216); fill-opacity: 0; paint-order: stroke; stroke: rgb(33, 186, 60);" cx="46.32" cy="93.663" rx="6.3" ry="6.3" transform="matrix(0.9999999999999999, 0, 0, 0.9999999999999999, 0, 0)"/>
  <ellipse style="fill: rgb(216, 216, 216); fill-opacity: 0; paint-order: stroke; stroke: rgb(33, 186, 60);" cx="43.464" cy="90.422" rx="6.517" ry="6.517" transform="matrix(0.9999999999999999, 0, 0, 0.9999999999999999, 0, 0)"/>
  <path d="M 23.217 88.214 L 24.222 90.447 L 22.211 90.447 L 23.217 88.214 Z" style="fill: rgb(216, 216, 216); stroke: rgb(0, 0, 0);" transform="matrix(0.9999999999999999, 0, 0, 0.9999999999999999, 0, 0)"/>
  <ellipse style="fill: rgb(216, 216, 216); fill-opacity: 0; paint-order: stroke; stroke: rgb(186, 179, 33);" cx="47.443" cy="94.689" rx="6.456" ry="6.456" transform="matrix(0.9999999999999999, 0, 0, 0.9999999999999999, 0, 0)"/>
</svg>