<?xml version="1.0" encoding="utf-8"?>
<svg viewBox="0 0 57.501 56.601" width="57.501px" height="56.601px" xmlns="http://www.w3.org/2000/svg">
  <g id="svgGroup" stroke-linecap="round" fill-rule="evenodd" font-size="9pt" stroke="#000" stroke-width="0.25mm" fill="none" style="stroke:#000;stroke-width:0.25mm;fill:none">
    <path d="M 28.801 56.601 Q 20.401 56.601 13.901 53.051 Q 7.401 49.501 3.701 43.151 A 26.996 26.996 0 0 1 0.362 33.403 A 34.9 34.9 0 0 1 0.001 28.301 A 33.013 33.013 0 0 1 0.869 20.571 A 26.226 26.226 0 0 1 3.701 13.451 Q 7.401 7.101 13.901 3.551 A 29.008 29.008 0 0 1 24.472 0.251 A 36.484 36.484 0 0 1 28.801 0.001 A 34.574 34.574 0 0 1 36.463 0.814 A 26.92 26.92 0 0 1 43.951 3.701 Q 50.401 7.401 53.951 13.751 Q 57.501 20.101 57.501 28.301 Q 57.501 36.701 53.801 43.101 Q 50.101 49.501 43.651 53.051 Q 37.201 56.601 28.801 56.601 Z M 28.701 44.601 A 14.108 14.108 0 0 0 33.326 43.874 A 11.85 11.85 0 0 0 38.601 40.201 Q 42.301 35.801 42.301 28.301 A 24.599 24.599 0 0 0 41.843 23.41 Q 41.244 20.455 39.858 18.159 A 13.836 13.836 0 0 0 38.601 16.401 A 12.069 12.069 0 0 0 29.748 12.033 A 16.607 16.607 0 0 0 28.701 12.001 A 12.963 12.963 0 0 0 23.609 12.973 A 12.223 12.223 0 0 0 18.951 16.501 Q 15.201 21.001 15.201 28.301 Q 15.201 35.1 18.411 39.47 A 14.612 14.612 0 0 0 18.901 40.101 A 11.888 11.888 0 0 0 27.578 44.561 A 15.672 15.672 0 0 0 28.701 44.601 Z" vector-effect="non-scaling-stroke"/>
  </g>
  <ellipse style="fill: rgb(216, 216, 216); fill-opacity: 0; paint-order: stroke; stroke: rgb(33, 61, 186);" cx="27.716" cy="50.513" rx="6.107" ry="5.514"/>
  <ellipse style="fill: rgb(216, 216, 216); fill-opacity: 0; paint-order: stroke; stroke: rgb(33, 61, 186);" cx="20.771" cy="49.482" rx="6.107" ry="5.514"/>
  <ellipse style="fill: rgb(216, 216, 216); fill-opacity: 0; paint-order: stroke; stroke: rgb(33, 61, 186);" cx="14.871" cy="45.587" rx="6.432" ry="5.807"/>
  <ellipse style="fill: rgb(216, 216, 216); fill-opacity: 0; paint-order: stroke; stroke: rgb(33, 61, 186);" cx="9.961" cy="39.069" rx="6.863" ry="6.196"/>
  <ellipse style="fill: rgb(216, 216, 216); fill-opacity: 0; paint-order: stroke; stroke: rgb(33, 61, 186);" cx="8.08" cy="32.739" rx="7.187" ry="6.489"/>
  <ellipse style="fill: rgb(216, 216, 216); fill-opacity: 0; paint-order: stroke; stroke: rgb(33, 61, 186);" cx="7.796" cy="25.243" rx="7.187" ry="6.489"/>
  <ellipse style="fill: rgb(216, 216, 216); fill-opacity: 0; paint-order: stroke; stroke: rgb(33, 61, 186);" cx="9.16" cy="18.798" rx="6.992" ry="6.313"/>
  <ellipse style="fill: rgb(216, 216, 216); fill-opacity: 0; paint-order: stroke; stroke: rgb(33, 61, 186);" cx="13.314" cy="12.434" rx="6.538" ry="5.903"/>
  <ellipse style="fill: rgb(216, 216, 216); fill-opacity: 0; paint-order: stroke; stroke: rgb(33, 61, 186);" cx="18.878" cy="8.262" rx="6.246" ry="5.639"/>
  <ellipse style="fill: rgb(216, 216, 216); fill-opacity: 0; paint-order: stroke; stroke: rgb(33, 61, 186);" cx="26.635" cy="6.058" rx="6.246" ry="5.639"/>
  <ellipse style="fill: rgb(216, 216, 216); fill-opacity: 0; paint-order: stroke; stroke: rgb(33, 61, 186);" cx="33.904" cy="6.642" rx="6.246" ry="5.639"/>
  <ellipse style="fill: rgb(216, 216, 216); fill-opacity: 0; paint-order: stroke; stroke: rgb(33, 61, 186);" cx="39.811" cy="8.784" rx="6.246" ry="5.639"/>
  <ellipse style="fill: rgb(216, 216, 216); fill-opacity: 0; paint-order: stroke; stroke: rgb(33, 61, 186);" cx="45.718" cy="14.322" rx="6.7" ry="6.049"/>
  <ellipse style="fill: rgb(216, 216, 216); fill-opacity: 0; paint-order: stroke; stroke: rgb(33, 61, 186); transform-origin: 48.3831px 23.1167px;" cx="48.783" cy="19.851" rx="6.88" ry="6.211"/>
  <ellipse style="fill: rgb(216, 216, 216); fill-opacity: 0; paint-order: stroke; stroke: rgb(33, 61, 186); transform-origin: 49.495px 29.865px;" cx="49.905" cy="26.521" rx="7.042" ry="6.357"/>
  <ellipse style="fill: rgb(216, 216, 216); fill-opacity: 0; paint-order: stroke; stroke: rgb(33, 61, 186); transform-origin: 49.137px 36.21px;" cx="49.547" cy="32.866" rx="7.042" ry="6.357"/>
  <ellipse style="fill: rgb(216, 216, 216); fill-opacity: 0; paint-order: stroke; stroke: rgb(33, 61, 186); transform-origin: 47.19px 42.765px;" cx="47.6" cy="39.421" rx="7.042" ry="6.357"/>
  <ellipse style="fill: rgb(216, 216, 216); fill-opacity: 0; paint-order: stroke; stroke: rgb(33, 61, 186); transform-origin: 44.059px 47.499px;" cx="44.452" cy="44.294" rx="6.75" ry="6.093"/>
  <ellipse style="fill: rgb(216, 216, 216); fill-opacity: 0; paint-order: stroke; stroke: rgb(33, 61, 186); transform-origin: 37.562px 51.917px;" cx="37.929" cy="48.928" rx="6.296" ry="5.683"/>
  <ellipse style="fill: rgb(216, 216, 216); fill-opacity: 0; paint-order: stroke; stroke: rgb(33, 61, 186); transform-origin: 32.853px 52.781px;" cx="33.19" cy="50.038" rx="5.777" ry="5.214"/>
  <path d="M 27.738 25.114 L 28.743 27.347 L 26.732 27.347 L 27.738 25.114 Z" style="fill: rgb(216, 216, 216); stroke: rgb(0, 0, 0);"/>
</svg>