<svg width="61.101" height="56.601" viewBox="0 0 61.101 56.601" xmlns="http://www.w3.org/2000/svg"><g id="svgGroup" stroke-linecap="round" fill-rule="nonzero" font-size="9pt" stroke="#000" stroke-width="0.25mm" fill="none" style="stroke:#000;stroke-width:0.25mm;fill:none"><path d="M 6.9 17.401 A 79.217 79.217 0 0 1 11.681 15.029 A 60.498 60.498 0 0 1 17.15 12.851 A 29.617 29.617 0 0 1 21.247 11.782 A 35.588 35.588 0 0 1 27.8 11.201 A 31.809 31.809 0 0 1 29.763 11.26 Q 36.957 11.704 41.15 15.501 A 12.861 12.861 0 0 1 43.396 18.171 Q 45.9 22.129 45.9 28.301 L 45.9 29.601 Q 37.7 26.101 28.7 26.101 Q 24.3 26.101 20.05 26.701 A 40.906 40.906 0 0 0 15.945 27.505 A 52.913 52.913 0 0 0 11 29.001 Q 8 30.063 4.453 31.711 A 120.093 120.093 0 0 0 0 33.901 A 31.054 31.054 0 0 0 0.511 36.459 A 25.466 25.466 0 0 0 5 46.001 Q 8.9 51.101 15 53.851 A 29.886 29.886 0 0 0 21.308 55.869 A 37.792 37.792 0 0 0 28.9 56.601 A 47.613 47.613 0 0 0 36.247 56.056 A 35.985 35.985 0 0 0 45.65 53.301 A 30.945 30.945 0 0 0 45.876 53.197 A 25.92 25.92 0 0 0 57 43.651 A 24.764 24.764 0 0 0 60.315 35.668 A 32.989 32.989 0 0 0 61.1 28.301 A 34.658 34.658 0 0 0 60.685 22.844 A 26.279 26.279 0 0 0 57.25 13.251 A 25.061 25.061 0 0 0 54.607 9.65 A 26.249 26.249 0 0 0 46.35 3.451 A 32.873 32.873 0 0 0 37.612 0.661 A 45.165 45.165 0 0 0 29.7 0.001 A 82.697 82.697 0 0 0 28.629 0.007 Q 24.907 0.056 21.57 0.441 A 50.013 50.013 0 0 0 14.5 1.751 A 65.601 65.601 0 0 0 13.624 1.989 A 71.018 71.018 0 0 0 1.4 6.701 L 6.9 17.401 Z M 14.3 39.401 Q 16 41.901 20.25 43.551 Q 24.5 45.201 29.2 45.201 A 24.523 24.523 0 0 0 34.34 44.699 Q 40.085 43.466 43 39.201 A 57.69 57.69 0 0 0 38.134 37.382 A 50.447 50.447 0 0 0 36.55 36.901 Q 33.4 36.001 30.1 36.001 Q 22.3 36.001 14.3 39.401 Z" vector-effect="non-scaling-stroke"/></g></svg>