<?xml version="1.0" encoding="utf-8"?>
<svg viewBox="0 0 60.801 56.601" width="60.801px" height="56.601px" xmlns="http://www.w3.org/2000/svg">
  <ellipse style="fill: rgb(216, 216, 216); fill-opacity: 0; paint-order: stroke; stroke: rgb(33, 61, 186);" cx="28.842" cy="50.781" rx="5.064" ry="5.064" transform="matrix(1, 0, 0, 1, -8.881784197001252e-16, -3.774758283725532e-15)"/>
  <ellipse style="fill: rgb(216, 216, 216); fill-opacity: 0; paint-order: stroke; stroke: rgb(33, 61, 186);" cx="24.528" cy="50.336" rx="5.064" ry="5.064" transform="matrix(1, 0, 0, 1, -8.881784197001252e-16, -3.774758283725532e-15)"/>
  <ellipse style="fill: rgb(216, 216, 216); fill-opacity: 0; paint-order: stroke; stroke: rgb(33, 61, 186);" cx="19.756" cy="49.069" rx="5.064" ry="5.064" transform="matrix(1, 0, 0, 1, -8.881784197001252e-16, -3.774758283725532e-15)"/>
  <ellipse style="fill: rgb(216, 216, 216); fill-opacity: 0; paint-order: stroke; stroke: rgb(33, 61, 186);" cx="16.001" cy="46.963" rx="5.064" ry="5.064" transform="matrix(1, 0, 0, 1, -8.881784197001252e-16, -3.774758283725532e-15)"/>
  <ellipse style="fill: rgb(216, 216, 216); fill-opacity: 0; paint-order: stroke; stroke: rgb(33, 61, 186);" cx="13.114" cy="44.157" rx="5.593" ry="5.593" transform="matrix(1, 0, 0, 1, -8.881784197001252e-16, -3.774758283725532e-15)"/>
  <ellipse style="fill: rgb(216, 216, 216); fill-opacity: 0; paint-order: stroke; stroke: rgb(33, 61, 186);" cx="10.592" cy="40.903" rx="5.837" ry="5.837" transform="matrix(1, 0, 0, 1, -8.881784197001252e-16, -3.774758283725532e-15)"/>
  <ellipse style="fill: rgb(216, 216, 216); fill-opacity: 0; paint-order: stroke; stroke: rgb(33, 61, 186);" cx="9.047" cy="36.754" rx="6.569" ry="6.569" transform="matrix(1, 0, 0, 1, -8.881784197001252e-16, -3.774758283725532e-15)"/>
  <ellipse style="fill: rgb(216, 216, 216); fill-opacity: 0; paint-order: stroke; stroke: rgb(33, 61, 186);" cx="7.623" cy="32.916" rx="6.569" ry="6.569" transform="matrix(1, 0, 0, 1, -8.881784197001252e-16, -3.774758283725532e-15)"/>
  <ellipse style="fill: rgb(216, 216, 216); fill-opacity: 0; paint-order: stroke; stroke: rgb(33, 61, 186);" cx="7.297" cy="29.5" rx="6.569" ry="6.569" transform="matrix(1, 0, 0, 1, -8.881784197001252e-16, -3.774758283725532e-15)"/>
  <ellipse style="fill: rgb(216, 216, 216); fill-opacity: 0; paint-order: stroke; stroke: rgb(33, 61, 186);" cx="7.46" cy="25.866" rx="6.569" ry="6.569" transform="matrix(1, 0, 0, 1, -8.881784197001252e-16, -3.774758283725532e-15)"/>
  <ellipse style="fill: rgb(216, 216, 216); fill-opacity: 0; paint-order: stroke; stroke: rgb(33, 61, 186);" cx="8.111" cy="22.124" rx="6.569" ry="6.569" transform="matrix(1, 0, 0, 1, -8.881784197001252e-16, -3.774758283725532e-15)"/>
  <ellipse style="fill: rgb(216, 216, 216); fill-opacity: 0; paint-order: stroke; stroke: rgb(33, 61, 186);" cx="9.249" cy="18.057" rx="6.488" ry="6.488" transform="matrix(1, 0, 0, 1, -8.881784197001252e-16, -3.774758283725532e-15)"/>
  <ellipse style="fill: rgb(216, 216, 216); fill-opacity: 0; paint-order: stroke; stroke: rgb(33, 61, 186);" cx="11.69" cy="14.721" rx="6" ry="6" transform="matrix(1, 0, 0, 1, -8.881784197001252e-16, -3.774758283725532e-15)"/>
  <ellipse style="fill: rgb(216, 216, 216); fill-opacity: 0; paint-order: stroke; stroke: rgb(33, 61, 186);" cx="13.926" cy="11.942" rx="6.04" ry="6.04" transform="matrix(1, 0, 0, 1, -8.881784197001252e-16, -3.774758283725532e-15)"/>
  <ellipse style="fill: rgb(216, 216, 216); fill-opacity: 0; paint-order: stroke; stroke: rgb(33, 61, 186);" cx="17.018" cy="9.502" rx="5.796" ry="5.796" transform="matrix(1, 0, 0, 1, -8.881784197001252e-16, -3.774758283725532e-15)"/>
  <ellipse style="fill: rgb(216, 216, 216); fill-opacity: 0; paint-order: stroke; stroke: rgb(33, 61, 186);" cx="20.842" cy="7.386" rx="5.715" ry="5.715" transform="matrix(1, 0, 0, 1, -8.881784197001252e-16, -3.774758283725532e-15)"/>
  <ellipse style="fill: rgb(216, 216, 216); fill-opacity: 0; paint-order: stroke; stroke: rgb(33, 61, 186);" cx="24.176" cy="6.492" rx="5.633" ry="5.633" transform="matrix(1, 0, 0, 1, -8.881784197001252e-16, -3.774758283725532e-15)"/>
  <ellipse style="fill: rgb(216, 216, 216); fill-opacity: 0; paint-order: stroke; stroke: rgb(33, 61, 186);" cx="27.869" cy="6.081" rx="5.661" ry="5.661" transform="matrix(1, 0, 0, 1, -8.881784197001252e-16, -3.774758283725532e-15)"/>
  <ellipse style="fill: rgb(216, 216, 216); fill-opacity: 0; paint-order: stroke; stroke: rgb(33, 61, 186);" cx="31.591" cy="5.859" rx="5.384" ry="5.384" transform="matrix(1, 0, 0, 1, -8.881784197001252e-16, -3.774758283725532e-15)"/>
  <ellipse style="fill: rgb(216, 216, 216); fill-opacity: 0; paint-order: stroke; stroke: rgb(33, 61, 186);" cx="35.461" cy="6.412" rx="5.384" ry="5.384" transform="matrix(1, 0, 0, 1, -8.881784197001252e-16, -3.774758283725532e-15)"/>
  <ellipse style="fill: rgb(216, 216, 216); fill-opacity: 0; paint-order: stroke; stroke: rgb(33, 61, 186);" cx="39.686" cy="7.479" rx="5.502" ry="5.502" transform="matrix(1, 0, 0, 1, -8.881784197001252e-16, -3.774758283725532e-15)"/>
  <ellipse style="fill: rgb(216, 216, 216); fill-opacity: 0; paint-order: stroke; stroke: rgb(33, 61, 186);" cx="42.964" cy="9.176" rx="5.502" ry="5.502" transform="matrix(1, 0, 0, 1, -8.881784197001252e-16, -3.774758283725532e-15)"/>
  <ellipse style="fill: rgb(216, 216, 216); fill-opacity: 0; paint-order: stroke; stroke: rgb(33, 61, 186);" cx="46.36" cy="11.071" rx="5.66" ry="5.66" transform="matrix(1, 0, 0, 1, -8.881784197001252e-16, -3.774758283725532e-15)"/>
  <ellipse style="fill: rgb(216, 216, 216); fill-opacity: 0; paint-order: stroke; stroke: rgb(33, 61, 186);" cx="48.492" cy="13.264" rx="5.976" ry="5.976" transform="matrix(1, 0, 0, 1, -8.881784197001252e-16, -3.774758283725532e-15)"/>
  <ellipse style="fill: rgb(216, 216, 216); fill-opacity: 0; paint-order: stroke; stroke: rgb(33, 61, 186);" cx="50.783" cy="16.547" rx="5.976" ry="5.976" transform="matrix(1, 0, 0, 1, -8.881784197001252e-16, -3.774758283725532e-15)"/>
  <ellipse style="fill: rgb(216, 216, 216); fill-opacity: 0; paint-order: stroke; stroke: rgb(33, 61, 186);" cx="52.283" cy="20.004" rx="6.292" ry="6.292" transform="matrix(1, 0, 0, 1, -8.881784197001252e-16, -3.774758283725532e-15)"/>
  <ellipse style="fill: rgb(216, 216, 216); fill-opacity: 0; paint-order: stroke; stroke: rgb(33, 61, 186);" cx="53.152" cy="23.137" rx="6.292" ry="6.292" transform="matrix(1, 0, 0, 1, -8.881784197001252e-16, -3.774758283725532e-15)"/>
  <ellipse style="fill: rgb(216, 216, 216); fill-opacity: 0; paint-order: stroke; stroke: rgb(33, 61, 186);" cx="53.468" cy="26.278" rx="6.292" ry="6.292" transform="matrix(1, 0, 0, 1, -8.881784197001252e-16, -3.774758283725532e-15)"/>
  <ellipse style="fill: rgb(216, 216, 216); fill-opacity: 0; paint-order: stroke; stroke: rgb(33, 61, 186);" cx="53.666" cy="29.555" rx="6.411" ry="6.411" transform="matrix(1, 0, 0, 1, -8.881784197001252e-16, -3.774758283725532e-15)"/>
  <ellipse style="fill: rgb(216, 216, 216); fill-opacity: 0; paint-order: stroke; stroke: rgb(33, 61, 186);" cx="52.994" cy="33.123" rx="6.411" ry="6.411" transform="matrix(1, 0, 0, 1, -8.881784197001252e-16, -3.774758283725532e-15)"/>
  <ellipse style="fill: rgb(216, 216, 216); fill-opacity: 0; paint-order: stroke; stroke: rgb(33, 61, 186);" cx="52.283" cy="36.958" rx="6.411" ry="6.411" transform="matrix(1, 0, 0, 1, -8.881784197001252e-16, -3.774758283725532e-15)"/>
  <ellipse style="fill: rgb(216, 216, 216); fill-opacity: 0; paint-order: stroke; stroke: rgb(33, 61, 186);" cx="50.506" cy="40.471" rx="5.819" ry="5.819" transform="matrix(1, 0, 0, 1, -8.881784197001252e-16, -3.774758283725532e-15)"/>
  <ellipse style="fill: rgb(216, 216, 216); fill-opacity: 0; paint-order: stroke; stroke: rgb(33, 61, 186);" cx="48.571" cy="43.355" rx="5.819" ry="5.819" transform="matrix(1, 0, 0, 1, -8.881784197001252e-16, -3.774758283725532e-15)"/>
  <ellipse style="fill: rgb(216, 216, 216); fill-opacity: 0; paint-order: stroke; stroke: rgb(33, 61, 186);" cx="45.728" cy="45.952" rx="5.345" ry="5.345" transform="matrix(1, 0, 0, 1, -8.881784197001252e-16, -3.774758283725532e-15)"/>
  <ellipse style="fill: rgb(216, 216, 216); fill-opacity: 0; paint-order: stroke; stroke: rgb(33, 61, 186);" cx="42.964" cy="47.768" rx="5.345" ry="5.345" transform="matrix(1, 0, 0, 1, -8.881784197001252e-16, -3.774758283725532e-15)"/>
  <ellipse style="fill: rgb(216, 216, 216); fill-opacity: 0; paint-order: stroke; stroke: rgb(152, 185, 114);" cx="40.358" cy="49.085" rx="5.345" ry="5.345" transform="matrix(1, 0, 0, 1, -8.881784197001252e-16, -3.774758283725532e-15)"/>
  <ellipse style="fill: rgb(216, 216, 216); fill-opacity: 0; paint-order: stroke; stroke: rgb(152, 185, 114);" cx="36.686" cy="50.229" rx="5.069" ry="5.069" transform="matrix(1, 0, 0, 1, -8.881784197001252e-16, -3.774758283725532e-15)"/>
  <ellipse style="fill: rgb(216, 216, 216); fill-opacity: 0; paint-order: stroke; stroke: rgb(152, 185, 114);" cx="31.908" cy="50.822" rx="5.069" ry="5.069" transform="matrix(1, 0, 0, 1, -8.881784197001252e-16, -3.774758283725532e-15)"/>
  <ellipse style="fill: rgb(216, 216, 216); fill-opacity: 0; paint-order: stroke; stroke: rgb(152, 185, 114);" cx="28.196" cy="50.901" rx="5.069" ry="5.069" transform="matrix(1, 0, 0, 1, -8.881784197001252e-16, -3.774758283725532e-15)"/>
  <ellipse style="fill: rgb(216, 216, 216); fill-opacity: 0; paint-order: stroke; stroke: rgb(152, 185, 114);" cx="24.484" cy="50.427" rx="5.069" ry="5.069" transform="matrix(1, 0, 0, 1, -8.881784197001252e-16, -3.774758283725532e-15)"/>
  <ellipse style="fill: rgb(216, 216, 216); fill-opacity: 0; paint-order: stroke; stroke: rgb(152, 185, 114);" cx="21.719" cy="49.796" rx="5.069" ry="5.069" transform="matrix(1, 0, 0, 1, -8.881784197001252e-16, -3.774758283725532e-15)"/>
  <ellipse style="fill: rgb(216, 216, 216); fill-opacity: 0; paint-order: stroke; stroke: rgb(152, 185, 114);" cx="18.008" cy="47.9" rx="5.069" ry="5.069" transform="matrix(1, 0, 0, 1, -8.881784197001252e-16, -3.774758283725532e-15)"/>
  <ellipse style="fill: rgb(216, 216, 216); fill-opacity: 0; paint-order: stroke; stroke: rgb(152, 185, 114);" cx="15.322" cy="46.4" rx="5.069" ry="5.069" transform="matrix(1, 0, 0, 1, -8.881784197001252e-16, -3.774758283725532e-15)"/>
  <ellipse style="fill: rgb(216, 216, 216); fill-opacity: 0; paint-order: stroke; stroke: rgb(152, 185, 114);" cx="12.794" cy="44.11" rx="5.305" ry="5.305" transform="matrix(1, 0, 0, 1, -8.881784197001252e-16, -3.774758283725532e-15)"/>
  <ellipse style="fill: rgb(216, 216, 216); fill-opacity: 0; paint-order: stroke; stroke: rgb(152, 185, 114);" cx="10.9" cy="41.898" rx="5.542" ry="5.542" transform="matrix(1, 0, 0, 1, -8.881784197001252e-16, -3.774758283725532e-15)"/>
  <ellipse style="fill: rgb(216, 216, 216); fill-opacity: 0; paint-order: stroke; stroke: rgb(152, 185, 114);" cx="9.005" cy="36.844" rx="4.594" ry="4.594" transform="matrix(1, 0, 0, 1, -8.881784197001252e-16, -3.774758283725532e-15)"/>
  <ellipse style="fill: rgb(216, 216, 216); fill-opacity: 0; paint-order: stroke; stroke: rgb(152, 185, 114);" cx="11.69" cy="35.658" rx="4.594" ry="4.594" transform="matrix(1, 0, 0, 1, -8.881784197001252e-16, -3.774758283725532e-15)"/>
  <ellipse style="fill: rgb(216, 216, 216); fill-opacity: 0; paint-order: stroke; stroke: rgb(152, 185, 114);" cx="15.995" cy="34.434" rx="4.16" ry="4.16" transform="matrix(1, 0, 0, 1, -8.881784197001252e-16, -3.774758283725532e-15)"/>
  <ellipse style="fill: rgb(216, 216, 216); fill-opacity: 0; paint-order: stroke; stroke: rgb(152, 185, 114);" cx="20.061" cy="32.895" rx="4.16" ry="4.16" transform="matrix(1, 0, 0, 1, -8.881784197001252e-16, -3.774758283725532e-15)"/>
  <ellipse style="fill: rgb(216, 216, 216); fill-opacity: 0; paint-order: stroke; stroke: rgb(152, 185, 114);" cx="22.983" cy="31.868" rx="4.16" ry="4.16" transform="matrix(1, 0, 0, 1, -8.881784197001252e-16, -3.774758283725532e-15)"/>
  <ellipse style="fill: rgb(216, 216, 216); fill-opacity: 0; paint-order: stroke; stroke: rgb(152, 185, 114);" cx="26.459" cy="31.316" rx="4.16" ry="4.16" transform="matrix(1, 0, 0, 1, -8.881784197001252e-16, -3.774758283725532e-15)"/>
  <ellipse style="fill: rgb(216, 216, 216); fill-opacity: 0; paint-order: stroke; stroke: rgb(152, 185, 114);" cx="29.538" cy="31" rx="4.16" ry="4.16" transform="matrix(1, 0, 0, 1, -8.881784197001252e-16, -3.774758283725532e-15)"/>
  <ellipse style="fill: rgb(216, 216, 216); fill-opacity: 0; paint-order: stroke; stroke: rgb(152, 185, 114);" cx="32.145" cy="31.078" rx="4.16" ry="4.16" transform="matrix(1, 0, 0, 1, -8.881784197001252e-16, -3.774758283725532e-15)"/>
  <ellipse style="fill: rgb(216, 216, 216); fill-opacity: 0; paint-order: stroke; stroke: rgb(152, 185, 114);" cx="34.909" cy="31.158" rx="4.16" ry="4.16" transform="matrix(1, 0, 0, 1, -8.881784197001252e-16, -3.774758283725532e-15)"/>
  <ellipse style="fill: rgb(216, 216, 216); fill-opacity: 0; paint-order: stroke; stroke: rgb(152, 185, 114);" cx="37.91" cy="31.71" rx="4.16" ry="4.16" transform="matrix(1, 0, 0, 1, -8.881784197001252e-16, -3.774758283725532e-15)"/>
  <ellipse style="fill: rgb(216, 216, 216); fill-opacity: 0; paint-order: stroke; stroke: rgb(152, 185, 114);" cx="41.068" cy="32.815" rx="4.16" ry="4.16" transform="matrix(1, 0, 0, 1, -8.881784197001252e-16, -3.774758283725532e-15)"/>
  <ellipse style="fill: rgb(216, 216, 216); fill-opacity: 0; paint-order: stroke; stroke: rgb(152, 185, 114);" cx="43.437" cy="33.605" rx="4.16" ry="4.16" transform="matrix(1, 0, 0, 1, -8.881784197001252e-16, -3.774758283725532e-15)"/>
  <ellipse style="fill: rgb(216, 216, 216); fill-opacity: 0; paint-order: stroke; stroke: rgb(152, 185, 114);" cx="46.202" cy="34.475" rx="4.16" ry="4.16" transform="matrix(1, 0, 0, 1, -8.881784197001252e-16, -3.774758283725532e-15)"/>
  <ellipse style="fill: rgb(216, 216, 216); fill-opacity: 0; paint-order: stroke; stroke: rgb(152, 185, 114);" cx="48.413" cy="35.264" rx="4.16" ry="4.16" transform="matrix(1, 0, 0, 1, -8.881784197001252e-16, -3.774758283725532e-15)"/>
  <path d="M 31.379 17.44 L 32.384 19.673 L 30.373 19.673 L 31.379 17.44 Z" style="fill: rgb(216, 216, 216); stroke: rgb(0, 0, 0);" transform="matrix(1, 0, 0, 1, -8.881784197001252e-16, -3.774758283725532e-15)"/>
</svg>