<svg width="94.601" height="56.601" viewBox="0 0 94.601 56.601" xmlns="http://www.w3.org/2000/svg"><g id="svgGroup" stroke-linecap="round" fill-rule="nonzero" font-size="9pt" stroke="#000" stroke-width="0.25mm" fill="none" style="stroke:#000;stroke-width:0.25mm;fill:none"><path d="M 0 40.001 L 10.7 34.101 A 25.222 25.222 0 0 0 14.068 39.093 A 21.117 21.117 0 0 0 17.3 42.101 A 14.353 14.353 0 0 0 22.559 44.526 Q 24.9 45.101 27.7 45.101 A 13.191 13.191 0 0 0 31.629 44.534 A 11.394 11.394 0 0 0 34.55 43.151 A 7.401 7.401 0 0 0 36.23 41.662 A 5.627 5.627 0 0 0 37.5 38.001 A 5.511 5.511 0 0 0 37.188 36.099 Q 36.663 34.66 35.251 33.777 A 6.152 6.152 0 0 0 34.95 33.601 Q 32.4 32.201 27.9 32.201 L 25.9 32.201 L 25.9 21.701 L 27.3 21.701 A 20.108 20.108 0 0 0 29.641 21.574 Q 32.391 21.251 33.9 20.101 A 5.826 5.826 0 0 0 35.177 18.792 A 4.616 4.616 0 0 0 36 16.101 A 4.614 4.614 0 0 0 35.697 14.388 Q 35.139 12.979 33.55 12.201 A 9.743 9.743 0 0 0 31.623 11.517 Q 29.687 11.034 26.977 11.003 A 32.786 32.786 0 0 0 26.6 11.001 A 21.588 21.588 0 0 0 22.539 11.368 A 17.736 17.736 0 0 0 19.85 12.101 A 7.096 7.096 0 0 0 18.552 12.71 Q 17.854 13.137 17.434 13.683 A 3.057 3.057 0 0 0 16.8 15.601 A 7.723 7.723 0 0 0 16.824 16.228 Q 16.884 16.969 17.1 17.401 A 3.912 3.912 0 0 0 17.294 17.738 Q 17.533 18.116 17.95 18.646 A 25.385 25.385 0 0 0 18.4 19.201 L 8.2 25.001 Q 6.1 23.201 5.05 20.701 Q 4 18.201 4 15.601 A 13.094 13.094 0 0 1 8.357 5.563 A 17.258 17.258 0 0 1 9.9 4.301 A 20.366 20.366 0 0 1 16.171 1.287 Q 18.884 0.483 22.124 0.181 A 44.035 44.035 0 0 1 26.2 0.001 Q 33.6 0.001 38.45 1.501 A 23.401 23.401 0 0 1 41.74 2.779 Q 44.265 4.003 45.9 5.701 A 38.824 38.824 0 0 1 50.426 3.303 A 49.857 49.857 0 0 1 54.45 1.701 A 29.163 29.163 0 0 1 60.012 0.374 A 39.825 39.825 0 0 1 65.6 0.001 Q 74.2 0.001 80.75 3.601 Q 87.3 7.201 90.95 13.601 Q 94.6 20.001 94.6 28.301 Q 94.6 36.701 90.95 43.101 Q 87.3 49.501 80.8 53.051 Q 74.3 56.601 65.8 56.601 Q 60.4 56.601 55.2 55.001 A 57.748 57.748 0 0 1 55.956 46.169 Q 57.369 37.826 61.4 32.351 A 24.312 24.312 0 0 1 68.958 25.752 Q 74.12 22.771 81.5 21.201 A 14.334 14.334 0 0 0 75.616 14.51 A 17.502 17.502 0 0 0 75.6 14.501 A 16.248 16.248 0 0 0 70.732 12.568 Q 68.255 12.001 65.3 12.001 A 29.806 29.806 0 0 0 56.916 13.231 A 33.057 33.057 0 0 0 56.85 13.251 Q 52.6 14.501 49.3 16.801 Q 48.53 24.022 39.786 26.701 A 26.059 26.059 0 0 1 39.1 26.901 L 39.1 27.401 A 26.872 26.872 0 0 1 43.508 28.579 Q 45.936 29.469 47.823 30.796 A 15.481 15.481 0 0 1 48.75 31.501 A 9.58 9.58 0 0 1 51.949 36.653 Q 52.365 38.255 52.397 40.173 A 19.326 19.326 0 0 1 52.4 40.501 A 14.259 14.259 0 0 1 50.992 46.892 Q 49.611 49.694 46.874 51.841 A 18.343 18.343 0 0 1 46.4 52.201 A 18.835 18.835 0 0 1 41.235 54.795 Q 35.872 56.601 27.8 56.601 Q 17.4 56.601 10.3 52.301 Q 3.2 48.001 0 40.001 Z M 66.3 44.801 L 66.6 44.801 A 19.203 19.203 0 0 0 71.942 44.09 A 15.214 15.214 0 0 0 77.75 40.951 A 13.743 13.743 0 0 0 81.943 34.277 A 20.441 20.441 0 0 0 82.7 29.901 A 23.054 23.054 0 0 0 77.1 31.478 A 18.395 18.395 0 0 0 72.1 34.651 A 18.084 18.084 0 0 0 67.554 41.059 A 24.132 24.132 0 0 0 66.3 44.801 Z" vector-effect="non-scaling-stroke"/></g></svg>