<svg width="60.801" height="56.801" viewBox="0 0 60.801 56.801" xmlns="http://www.w3.org/2000/svg"><g id="svgGroup" stroke-linecap="round" fill-rule="nonzero" font-size="9pt" stroke="#000" stroke-width="0.25mm" fill="none" style="stroke:#000;stroke-width:0.25mm;fill:none"><path d="M 10.9 0.2 L 21.9 6.3 A 2.707 2.707 0 0 0 21.658 6.816 A 2.155 2.155 0 0 0 21.55 7.3 Q 21.5 7.8 21.5 8.3 A 6.167 6.167 0 0 0 23.483 12.949 A 7.956 7.956 0 0 0 24 13.4 A 8.823 8.823 0 0 0 27.578 15.089 Q 28.838 15.381 30.304 15.399 A 15.781 15.781 0 0 0 30.5 15.4 A 12.562 12.562 0 0 0 33.433 15.074 A 9.263 9.263 0 0 0 36.85 13.5 Q 39.4 11.6 39.4 8.3 L 39.4 7.15 A 3.379 3.379 0 0 0 39.314 6.407 A 4.213 4.213 0 0 0 39.2 6 L 50.1 0 Q 54.351 3.346 57.211 9.554 A 39.81 39.81 0 0 1 57.8 10.9 A 36.275 36.275 0 0 1 59.929 18.217 Q 60.8 22.894 60.8 28.5 Q 60.8 36.9 57.1 43.25 Q 53.4 49.6 46.6 53.2 Q 39.8 56.8 30.5 56.8 A 41.093 41.093 0 0 1 22.575 56.071 A 30.581 30.581 0 0 1 14.35 53.25 Q 7.5 49.7 3.75 43.3 Q 0 36.9 0 28.5 A 57.042 57.042 0 0 1 0.493 20.792 Q 1.236 15.351 3.1 11.05 Q 6.2 3.9 10.9 0.2 Z M 30.5 27.9 Q 26.2 27.9 22.45 26.2 Q 18.7 24.5 15.9 21.6 A 27.901 27.901 0 0 0 15.335 25.306 A 36.562 36.562 0 0 0 15.2 28.5 A 20.144 20.144 0 0 0 15.88 33.865 A 15.232 15.232 0 0 0 19.4 40.25 A 13.942 13.942 0 0 0 28.938 44.745 A 19.117 19.117 0 0 0 30.4 44.8 A 16.451 16.451 0 0 0 35.706 43.978 A 13.862 13.862 0 0 0 41.35 40.35 A 15.006 15.006 0 0 0 45.206 32.736 A 21.668 21.668 0 0 0 45.6 28.5 A 37.618 37.618 0 0 0 45.416 24.691 A 29.45 29.45 0 0 0 45 21.9 Q 42.2 24.7 38.45 26.3 Q 34.7 27.9 30.5 27.9 Z" vector-effect="non-scaling-stroke"/></g></svg>