<svg width="102.301" height="56.601" viewBox="0 0 102.301 56.601" xmlns="http://www.w3.org/2000/svg"><g id="svgGroup" stroke-linecap="round" fill-rule="nonzero" font-size="9pt" stroke="#000" stroke-width="0.25mm" fill="none" style="stroke:#000;stroke-width:0.25mm;fill:none"><path d="M 0 42.501 L 11.4 36.401 Q 15.1 41.301 18.5 42.901 Q 21.9 44.501 25.7 44.501 Q 33.1 44.501 37.6 40.101 A 14.66 14.66 0 0 0 41.801 31.917 A 20.958 20.958 0 0 0 42.1 28.301 A 20.144 20.144 0 0 0 41.42 22.936 A 15.232 15.232 0 0 0 37.9 16.551 Q 33.7 12.001 26.8 12.001 Q 22.6 12.001 18.9 13.601 A 14.66 14.66 0 0 0 15.701 15.537 Q 14.367 16.579 13.061 18.004 A 29.908 29.908 0 0 0 11.7 19.601 L 1.3 13.201 Q 3.4 9.101 7.2 6.151 Q 11 3.201 16 1.601 Q 21 0.001 26.5 0.001 A 36.457 36.457 0 0 1 34.491 0.847 A 30.771 30.771 0 0 1 39.45 2.401 A 27.808 27.808 0 0 1 46.288 6.369 A 24.839 24.839 0 0 1 49.2 9.101 A 25.518 25.518 0 0 1 54.963 4.38 A 32.223 32.223 0 0 1 58.45 2.551 A 28.104 28.104 0 0 1 65.601 0.454 A 37.943 37.943 0 0 1 71.6 0.001 A 40.508 40.508 0 0 1 79.759 0.785 A 30.596 30.596 0 0 1 87.8 3.601 Q 94.7 7.201 98.5 13.601 A 27.153 27.153 0 0 1 102.118 24.76 A 33.754 33.754 0 0 1 102.3 28.301 Q 102.3 36.501 98.75 42.901 Q 95.2 49.301 88.95 52.951 A 26.865 26.865 0 0 1 77.638 56.472 A 33.063 33.063 0 0 1 74.7 56.601 A 31.653 31.653 0 0 1 72 56.477 Q 70.683 56.364 69.216 56.147 A 60.658 60.658 0 0 1 67.4 55.851 A 26.395 26.395 0 0 1 63.974 55.013 Q 62.187 54.439 60.714 53.635 A 15.618 15.618 0 0 1 60.3 53.401 L 65.3 42.301 Q 67.626 43.016 69.231 43.412 A 36.289 36.289 0 0 0 69.6 43.501 A 15.302 15.302 0 0 0 72.495 43.887 A 17.533 17.533 0 0 0 73.2 43.901 A 17.111 17.111 0 0 0 77.402 43.415 A 11.352 11.352 0 0 0 83.55 39.601 A 14.961 14.961 0 0 0 86.536 33.45 Q 87.065 31.237 87.098 28.648 A 27.215 27.215 0 0 0 87.1 28.301 A 21.432 21.432 0 0 0 86.551 23.31 A 14.63 14.63 0 0 0 82.85 16.401 Q 78.6 12.001 71.5 12.001 A 20.552 20.552 0 0 0 67.028 12.463 A 14.722 14.722 0 0 0 61.65 14.801 A 21.429 21.429 0 0 0 57.656 18.425 A 18.294 18.294 0 0 0 55.6 21.401 A 32.863 32.863 0 0 1 56.294 27.628 A 36.601 36.601 0 0 1 56.3 28.301 A 32.118 32.118 0 0 1 55.27 36.583 A 26.796 26.796 0 0 1 52.65 43.001 Q 49 49.401 42.35 52.951 A 29.35 29.35 0 0 1 33.682 55.892 A 40.421 40.421 0 0 1 26.5 56.501 A 35.787 35.787 0 0 1 17.145 55.319 A 30.206 30.206 0 0 1 10.3 52.551 A 29.214 29.214 0 0 1 4.75 48.606 A 22.275 22.275 0 0 1 0 42.501 Z" vector-effect="non-scaling-stroke"/></g></svg>