<svg width="59.702" height="56.601" viewBox="0 0 59.702 56.601" xmlns="http://www.w3.org/2000/svg"><g id="svgGroup" stroke-linecap="round" fill-rule="nonzero" font-size="9pt" stroke="#000" stroke-width="0.25mm" fill="none" style="stroke:#000;stroke-width:0.25mm;fill:none"><path d="M 0 40 L 10.7 34.1 Q 13.9 39.3 19.15 42.25 Q 23.867 44.901 30.723 45.17 A 40.209 40.209 0 0 0 32.3 45.2 A 21.738 21.738 0 0 0 36.713 44.772 A 16.681 16.681 0 0 0 41.05 43.25 A 9.744 9.744 0 0 0 42.778 42.126 Q 43.741 41.328 44.246 40.376 A 4.784 4.784 0 0 0 44.8 38.1 A 4.366 4.366 0 0 0 44.136 35.686 Q 43.596 34.847 42.617 34.236 A 7.487 7.487 0 0 0 41.45 33.65 A 15.378 15.378 0 0 0 38.85 32.885 Q 36.049 32.3 32.1 32.3 L 29.5 32.3 L 29.5 21.7 L 31.3 21.7 A 27.62 27.62 0 0 0 35.355 21.417 A 20.053 20.053 0 0 0 39.4 20.4 A 7.539 7.539 0 0 0 40.972 19.617 Q 41.921 18.982 42.403 18.12 A 4.068 4.068 0 0 0 42.9 16.1 Q 42.9 14.118 41.317 13.069 A 4.693 4.693 0 0 0 40.95 12.85 A 11.45 11.45 0 0 0 38.951 12.021 Q 37.985 11.717 36.864 11.52 A 20.885 20.885 0 0 0 36.1 11.4 A 43.642 43.642 0 0 0 30.487 11.002 A 47.764 47.764 0 0 0 30.1 11 A 36.833 36.833 0 0 0 25.255 11.33 A 41.668 41.668 0 0 0 24.1 11.5 A 25.614 25.614 0 0 0 21.916 11.946 Q 20.771 12.234 19.803 12.611 A 13.458 13.458 0 0 0 18.9 13 Q 17.76 13.543 17.239 14.263 A 2.229 2.229 0 0 0 16.8 15.6 A 7.723 7.723 0 0 0 16.824 16.228 Q 16.884 16.969 17.1 17.4 A 3.912 3.912 0 0 0 17.294 17.738 Q 17.533 18.116 17.95 18.646 A 25.385 25.385 0 0 0 18.4 19.2 L 8.2 25 Q 6.1 23.2 5.05 20.7 Q 4 18.2 4 15.6 A 12.228 12.228 0 0 1 8.522 5.944 A 18.626 18.626 0 0 1 10.85 4.25 A 25.113 25.113 0 0 1 17.388 1.46 Q 20.499 0.593 24.221 0.241 A 57.21 57.21 0 0 1 29.6 0 Q 41.66 0 48.293 3.119 A 19.33 19.33 0 0 1 49.7 3.85 Q 56.365 7.68 56.4 14.826 A 15.413 15.413 0 0 1 56.4 14.9 A 11.852 11.852 0 0 1 55.902 18.413 A 9.605 9.605 0 0 1 53.6 22.3 A 12.322 12.322 0 0 1 51.072 24.268 Q 48.487 25.825 44.5 26.9 L 44.5 27.4 A 34.119 34.119 0 0 1 49.288 28.5 Q 52.956 29.644 55.55 31.55 A 9.895 9.895 0 0 1 59.529 38.285 A 15.014 15.014 0 0 1 59.7 40.6 A 12.693 12.693 0 0 1 55.091 50.592 A 18.684 18.684 0 0 1 52.85 52.25 A 22.468 22.468 0 0 1 47.396 54.682 Q 41.163 56.6 31.6 56.6 Q 19.8 56.6 11.65 52.3 A 26.21 26.21 0 0 1 3.781 46.092 A 24.595 24.595 0 0 1 0 40 Z" vector-effect="non-scaling-stroke"/></g></svg>