<svg width="61.1" height="102.301" viewBox="0 0 61.1 102.301" xmlns="http://www.w3.org/2000/svg"><g id="svgGroup" stroke-linecap="round" fill-rule="nonzero" font-size="9pt" stroke="#000" stroke-width="0.25mm" fill="none" style="stroke:#000;stroke-width:0.25mm;fill:none"><path d="M 15 54.301 L 15 61.201 A 18.485 18.485 0 0 0 16.329 61.561 Q 17.719 61.888 19.616 62.162 A 62.884 62.884 0 0 0 20.25 62.251 Q 22.527 62.556 25.612 62.654 A 97.527 97.527 0 0 0 28.7 62.701 A 40.119 40.119 0 0 0 39.126 61.373 A 36.805 36.805 0 0 0 41.5 60.651 Q 47.5 58.601 51.5 55.801 L 51.5 90.301 L 61.1 90.301 L 61.1 102.301 L 36.5 102.301 L 36.5 74.801 Q 34 75.201 31.55 75.351 Q 29.1 75.501 26.6 75.501 Q 19.3 75.501 12.35 74.151 Q 5.4 72.801 0 70.601 L 0 42.601 L 11.4 36.501 A 14.926 14.926 0 0 0 13.535 39.966 A 12.295 12.295 0 0 0 16.5 42.551 A 13.697 13.697 0 0 0 23.092 44.576 A 16.633 16.633 0 0 0 24 44.601 A 17.206 17.206 0 0 0 28.428 44.063 A 11.957 11.957 0 0 0 34.75 40.051 A 15.988 15.988 0 0 0 38.016 33.133 A 22.901 22.901 0 0 0 38.5 28.301 A 24.373 24.373 0 0 0 38.029 23.363 Q 37.188 19.301 34.85 16.451 Q 31.2 12.001 25 12.001 A 18.109 18.109 0 0 0 20.639 12.506 A 14.746 14.746 0 0 0 17.05 13.901 A 13.183 13.183 0 0 0 12.14 18.653 A 16.282 16.282 0 0 0 11.6 19.601 L 1.1 13.101 Q 3.6 7.301 9.9 3.651 A 26.588 26.588 0 0 1 18.713 0.514 A 35.779 35.779 0 0 1 24.9 0.001 A 34.753 34.753 0 0 1 32.727 0.845 A 27.349 27.349 0 0 1 39.95 3.601 Q 46.4 7.201 50.05 13.601 Q 53.7 20.001 53.7 28.301 Q 53.7 36.201 50.5 42.651 Q 47.3 49.101 41.35 52.851 A 23.987 23.987 0 0 1 32.529 56.158 A 31.993 31.993 0 0 1 27.1 56.601 A 42.703 42.703 0 0 1 23.551 56.46 A 32.897 32.897 0 0 1 20.7 56.101 Q 17.8 55.601 15 54.301 Z" vector-effect="non-scaling-stroke"/></g></svg>