<svg width="60.801" height="56.601" viewBox="0 0 60.801 56.601" xmlns="http://www.w3.org/2000/svg"><g id="svgGroup" stroke-linecap="round" fill-rule="nonzero" font-size="9pt" stroke="#000" stroke-width="0.25mm" fill="none" style="stroke:#000;stroke-width:0.25mm;fill:none"><path d="M 22.069 55.708 A 30.171 30.171 0 0 1 14.651 53.001 Q 7.801 49.401 3.901 43.051 Q 0.001 36.701 0.001 28.301 Q 0.001 19.901 3.901 13.501 Q 7.801 7.101 14.651 3.551 A 31.338 31.338 0 0 1 24.567 0.42 A 40.583 40.583 0 0 1 30.501 0.001 A 38.528 38.528 0 0 1 38.583 0.81 A 29.32 29.32 0 0 1 46.501 3.701 Q 53.301 7.401 57.051 13.801 A 27.474 27.474 0 0 1 60.709 25.811 A 33.376 33.376 0 0 1 60.801 28.301 Q 60.801 36.701 56.951 43.051 Q 53.101 49.401 46.251 53.001 A 31.186 31.186 0 0 1 35.863 56.249 A 39.712 39.712 0 0 1 30.501 56.601 A 38.162 38.162 0 0 1 22.069 55.708 Z M 14.401 28.301 A 17.959 17.959 0 0 0 14.452 29.686 A 15.478 15.478 0 0 0 14.501 30.201 A 40.407 40.407 0 0 1 19.362 28.102 A 48.36 48.36 0 0 1 21.801 27.301 A 28.04 28.04 0 0 1 26.868 26.299 A 35.86 35.86 0 0 1 30.701 26.101 A 34.005 34.005 0 0 1 35.429 26.417 A 27.644 27.644 0 0 1 38.801 27.101 A 34.771 34.771 0 0 1 43.936 28.948 A 41.45 41.45 0 0 1 46.301 30.101 Q 46.401 29.201 46.401 28.301 Q 46.401 20.801 41.951 16.401 Q 37.501 12.001 30.401 12.001 A 19.203 19.203 0 0 0 25.341 12.633 A 14.167 14.167 0 0 0 18.751 16.501 A 15.223 15.223 0 0 0 14.673 24.826 A 21.363 21.363 0 0 0 14.401 28.301 Z M 37.609 43.932 A 13.194 13.194 0 0 0 38.551 43.501 Q 41.901 41.801 43.801 38.801 Q 40.801 37.501 37.751 36.751 A 23.341 23.341 0 0 0 35.05 36.265 Q 33.714 36.1 32.193 36.038 A 46.532 46.532 0 0 0 30.301 36.001 Q 26.569 36.001 23.705 36.711 A 18.561 18.561 0 0 0 23.001 36.901 Q 19.901 37.801 17.101 39.101 Q 19.001 42.001 22.251 43.601 A 14.506 14.506 0 0 0 25.638 44.749 Q 27.751 45.201 30.301 45.201 Q 34.533 45.201 37.609 43.932 Z" vector-effect="non-scaling-stroke"/></g></svg>