<svg width="57.501" height="56.601" viewBox="0 0 57.501 56.601" xmlns="http://www.w3.org/2000/svg"><g id="svgGroup" stroke-linecap="round" fill-rule="nonzero" font-size="9pt" stroke="#000" stroke-width="0.25mm" fill="none" style="stroke:#000;stroke-width:0.25mm;fill:none"><path d="M 43.501 56.601 L 36.001 44.601 A 25.574 25.574 0 0 0 38.801 41.106 A 18.597 18.597 0 0 0 40.951 36.751 Q 42.301 32.701 42.301 28.301 Q 42.301 20.501 38.401 16.251 Q 34.501 12.001 27.601 12.001 Q 26.101 12.001 24.701 12.301 Q 29.501 21.101 29.501 29.801 Q 29.501 38.101 26.351 44.551 A 49.471 49.471 0 0 1 18.662 55.875 A 55.598 55.598 0 0 1 18.001 56.601 Q 9.801 53.101 4.901 45.601 A 30.213 30.213 0 0 1 0.098 31.011 A 37.373 37.373 0 0 1 0.001 28.301 A 33.89 33.89 0 0 1 0.845 20.571 A 26.654 26.654 0 0 1 3.601 13.451 Q 7.201 7.101 13.651 3.551 A 28.241 28.241 0 0 1 22.838 0.459 A 37.341 37.341 0 0 1 28.801 0.001 A 36.613 36.613 0 0 1 36.283 0.729 A 27.294 27.294 0 0 1 44.001 3.551 Q 50.401 7.101 53.951 13.501 Q 57.501 19.901 57.501 28.301 A 45.382 45.382 0 0 1 56.857 36.149 Q 56.049 40.752 54.225 44.535 A 27.301 27.301 0 0 1 53.601 45.751 A 30.654 30.654 0 0 1 48.888 52.291 A 25.484 25.484 0 0 1 43.501 56.601 Z M 12.201 28.601 A 26.762 26.762 0 0 0 12.572 33.136 A 22.585 22.585 0 0 0 13.151 35.651 A 15.825 15.825 0 0 0 14.86 39.457 A 20.976 20.976 0 0 0 16.701 42.001 Q 18.401 39.401 19.451 36.551 Q 20.416 33.93 20.494 30.422 A 28.044 28.044 0 0 0 20.501 29.801 A 23.955 23.955 0 0 0 19.33 22.555 Q 18.423 19.687 16.813 16.724 A 40.107 40.107 0 0 0 16.801 16.701 A 14.956 14.956 0 0 0 13.594 21.522 A 17.287 17.287 0 0 0 13.401 22.001 Q 12.201 25.101 12.201 28.601 Z" vector-effect="non-scaling-stroke"/></g></svg>