<svg width="59.901" height="56.601" viewBox="0 0 59.901 56.601" xmlns="http://www.w3.org/2000/svg"><g id="svgGroup" stroke-linecap="round" fill-rule="nonzero" font-size="9pt" stroke="#000" stroke-width="0.25mm" fill="none" style="stroke:#000;stroke-width:0.25mm;fill:none"><path d="M 22.101 44.601 L 14.601 56.601 Q 8.201 52.901 4.101 45.751 A 29.84 29.84 0 0 1 0.8 36.78 Q 0.051 33.093 0.004 28.867 A 51.103 51.103 0 0 1 0.001 28.301 A 32.516 32.516 0 0 1 0.909 20.454 A 25.995 25.995 0 0 1 3.751 13.451 Q 7.501 7.101 14.251 3.551 A 30.484 30.484 0 0 1 23.823 0.459 A 40.128 40.128 0 0 1 30.001 0.001 Q 39.101 0.001 45.801 3.551 Q 52.501 7.101 56.201 13.451 A 26.996 26.996 0 0 1 59.539 23.198 A 34.9 34.9 0 0 1 59.901 28.301 A 43.224 43.224 0 0 1 59.224 36.149 Q 58.235 41.505 55.801 45.751 A 31.19 31.19 0 0 1 50.628 52.539 A 26.517 26.517 0 0 1 45.301 56.601 L 37.801 44.601 Q 41.701 40.801 43.201 36.851 A 23.357 23.357 0 0 0 44.66 29.792 A 27.278 27.278 0 0 0 44.701 28.301 Q 44.701 20.901 40.601 16.451 A 13.603 13.603 0 0 0 31.141 12.041 A 18.566 18.566 0 0 0 29.901 12.001 A 15.517 15.517 0 0 0 24.829 12.795 A 13.057 13.057 0 0 0 19.251 16.551 A 15.732 15.732 0 0 0 15.53 24.41 A 22.043 22.043 0 0 0 15.201 28.301 A 25.645 25.645 0 0 0 15.729 33.6 A 21.576 21.576 0 0 0 16.701 36.901 A 17.954 17.954 0 0 0 18.717 40.655 Q 20.09 42.641 22.101 44.601 Z" vector-effect="non-scaling-stroke"/></g></svg>