<svg width="103.401" height="56.701" viewBox="0 0 103.401 56.701" xmlns="http://www.w3.org/2000/svg"><g id="svgGroup" stroke-linecap="round" fill-rule="nonzero" font-size="9pt" stroke="#000" stroke-width="0.25mm" fill="none" style="stroke:#000;stroke-width:0.25mm;fill:none"><path d="M 7.5 16.1 L 0 8.4 Q 2.8 4.2 6.8 2.1 Q 10.8 0 15.4 0 Q 20.393 0 23.707 1.807 A 11.129 11.129 0 0 1 26.1 3.551 A 11.873 11.873 0 0 1 29.762 11.584 A 16.055 16.055 0 0 1 29.8 12.701 A 15.34 15.34 0 0 1 29.258 16.852 A 12.888 12.888 0 0 1 27.85 20.101 A 21.793 21.793 0 0 1 25.21 23.558 A 29.311 29.311 0 0 1 22.4 26.201 A 34.047 34.047 0 0 0 20.81 27.559 Q 19.283 28.955 18.454 30.136 A 8.216 8.216 0 0 0 18.15 30.601 A 7.744 7.744 0 0 0 17.19 33.139 A 10.675 10.675 0 0 0 17 35.2 A 8.013 8.013 0 0 0 19.36 40.9 A 11.659 11.659 0 0 0 20.45 41.901 A 12.299 12.299 0 0 0 26.031 44.42 A 17.146 17.146 0 0 0 29.2 44.701 A 20.579 20.579 0 0 0 34.171 44.134 A 14.081 14.081 0 0 0 41 40.301 Q 45.3 35.9 45.3 28.5 Q 45.3 23.9 43.55 19.7 A 16.22 16.22 0 0 0 40.711 15.229 Q 39.269 13.588 37.3 12.1 L 44.7 0.1 A 28.515 28.515 0 0 1 53.356 8.192 A 34.715 34.715 0 0 1 54.95 10.651 A 26.684 26.684 0 0 1 57.789 17.71 Q 59 22.485 59 28.5 Q 59 32.1 58.4 35.3 A 17.732 17.732 0 0 0 63.612 41.513 A 21.099 21.099 0 0 0 64.35 42.05 A 15.108 15.108 0 0 0 70.448 44.504 A 20.475 20.475 0 0 0 74 44.801 A 14.641 14.641 0 0 0 78.844 44.033 A 12.317 12.317 0 0 0 84.35 40.15 A 16.57 16.57 0 0 0 87.944 31.954 A 22.499 22.499 0 0 0 88.2 28.5 A 25.285 25.285 0 0 0 87.823 23.994 Q 87.365 21.468 86.35 19.458 A 12.881 12.881 0 0 0 84.7 16.95 A 11.299 11.299 0 0 0 76.463 12.831 A 14.917 14.917 0 0 0 75.5 12.8 A 26.588 26.588 0 0 0 74.082 12.836 Q 73.411 12.872 72.837 12.944 A 11.145 11.145 0 0 0 71.9 13.1 A 14.687 14.687 0 0 0 71.01 13.325 Q 70.137 13.57 68.947 13.987 A 67.787 67.787 0 0 0 67.8 14.401 L 62.8 3.3 A 12.939 12.939 0 0 1 64.344 2.483 Q 65.157 2.116 66.104 1.803 A 22.696 22.696 0 0 1 66.75 1.6 Q 69.1 0.9 71.55 0.5 A 34.158 34.158 0 0 1 73.588 0.227 Q 74.521 0.132 75.355 0.108 A 19.18 19.18 0 0 1 75.9 0.1 A 29.213 29.213 0 0 1 84.466 1.32 A 25.582 25.582 0 0 1 90 3.751 Q 96.2 7.4 99.8 13.8 A 28.06 28.06 0 0 1 103.175 24.468 A 35.266 35.266 0 0 1 103.4 28.5 A 34.774 34.774 0 0 1 102.651 35.892 A 26.138 26.138 0 0 1 99.75 43.5 Q 96.1 49.8 89.45 53.25 A 30.003 30.003 0 0 1 80.725 56.131 A 40.33 40.33 0 0 1 73.8 56.701 A 39.096 39.096 0 0 1 68.187 56.321 Q 65.26 55.896 62.819 54.994 A 20.412 20.412 0 0 1 60.55 54.001 A 32.703 32.703 0 0 1 56.672 51.675 Q 54.68 50.272 53.193 48.696 A 18.527 18.527 0 0 1 52.4 47.8 A 25.594 25.594 0 0 1 39.865 55.342 Q 35.722 56.488 30.764 56.667 A 51.658 51.658 0 0 1 28.9 56.701 A 41.761 41.761 0 0 1 21.669 56.102 A 31.738 31.738 0 0 1 14.9 54.15 Q 8.8 51.6 5.35 46.95 Q 1.9 42.3 1.9 36.1 A 18.713 18.713 0 0 1 2.339 31.958 A 14.651 14.651 0 0 1 3.9 27.901 Q 5.9 24.4 9.3 21.5 Q 11.855 19.358 13.493 18.132 A 36.775 36.775 0 0 1 14.15 17.65 A 5.577 5.577 0 0 0 15.015 16.899 Q 15.484 16.39 15.704 15.832 A 2.784 2.784 0 0 0 15.9 14.801 A 1.756 1.756 0 0 0 15.733 14.008 Q 15.366 13.272 14.192 13.133 A 5.041 5.041 0 0 0 13.6 13.101 Q 12 13.1 10.4 14.05 Q 8.8 15 7.5 16.1 Z" vector-effect="non-scaling-stroke"/></g></svg>