<svg width="101.901" height="56.601" viewBox="0 0 101.901 56.601" xmlns="http://www.w3.org/2000/svg"><g id="svgGroup" stroke-linecap="round" fill-rule="nonzero" font-size="9pt" stroke="#000" stroke-width="0.25mm" fill="none" style="stroke:#000;stroke-width:0.25mm;fill:none"><path d="M 14.301 0.001 L 21.701 12.001 A 24.239 24.239 0 0 0 17.232 18.334 A 22.944 22.944 0 0 0 16.901 19.051 Q 15.333 22.6 15.211 27.466 A 33.173 33.173 0 0 0 15.201 28.301 Q 15.201 35.501 19.051 40.051 A 12.394 12.394 0 0 0 28.099 44.57 A 16.146 16.146 0 0 0 29.101 44.601 A 14.065 14.065 0 0 0 34.338 43.655 A 12.886 12.886 0 0 0 39.251 40.151 A 15.152 15.152 0 0 0 42.645 33.436 Q 43.192 31.113 43.2 28.387 A 27.632 27.632 0 0 0 43.201 28.301 Q 43.201 22.901 41.651 19.201 A 20.629 20.629 0 0 0 39.321 15.101 A 27.945 27.945 0 0 0 36.701 12.001 L 44.201 0.001 Q 46.801 1.501 48.901 3.551 Q 51.001 5.601 52.601 8.001 Q 54.763 5.173 58.861 3.107 A 29.785 29.785 0 0 1 60.601 2.301 Q 66.001 0.001 72.701 0.001 Q 81.401 0.001 88.001 3.601 Q 94.601 7.201 98.251 13.601 Q 101.901 20.001 101.901 28.301 A 33.817 33.817 0 0 1 100.941 36.505 A 28.029 28.029 0 0 1 98.501 42.901 Q 95.101 49.301 89.251 52.951 A 24.245 24.245 0 0 1 77.147 56.578 A 29.294 29.294 0 0 1 76.001 56.601 A 47.318 47.318 0 0 1 72.478 56.477 Q 70.06 56.296 68.101 55.851 Q 64.801 55.101 61.901 53.401 L 67.001 42.301 Q 68.376 42.782 69.514 43.145 A 60.092 60.092 0 0 0 70.501 43.451 A 9.129 9.129 0 0 0 71.695 43.716 Q 72.334 43.817 73.083 43.863 A 21.658 21.658 0 0 0 74.401 43.901 Q 80.301 43.901 83.501 39.551 A 15.756 15.756 0 0 0 86.088 33.85 Q 86.624 31.636 86.691 29.048 A 28.871 28.871 0 0 0 86.701 28.301 A 22.221 22.221 0 0 0 86.161 23.264 A 15.113 15.113 0 0 0 82.701 16.451 A 13.192 13.192 0 0 0 74.028 12.109 A 18.418 18.418 0 0 0 72.001 12.001 A 17.147 17.147 0 0 0 67.991 12.446 A 12.527 12.527 0 0 0 63.201 14.701 Q 59.701 17.401 57.801 21.401 Q 58.401 24.801 58.401 28.301 Q 58.401 36.701 54.851 43.101 Q 51.301 49.501 44.751 53.051 A 28.675 28.675 0 0 1 36.109 56.015 A 38.943 38.943 0 0 1 29.201 56.601 Q 20.301 56.601 13.751 53.051 Q 7.201 49.501 3.601 43.101 A 27.964 27.964 0 0 1 0.285 32.867 A 35.628 35.628 0 0 1 0.001 28.301 Q 0.001 18.67 3.542 11.793 A 26.858 26.858 0 0 1 4.051 10.851 A 32.094 32.094 0 0 1 8.799 4.394 A 26.284 26.284 0 0 1 14.301 0.001 Z" vector-effect="non-scaling-stroke"/></g></svg>