<svg width="102.001" height="56.602" viewBox="0 0 102.001 56.602" xmlns="http://www.w3.org/2000/svg"><g id="svgGroup" stroke-linecap="round" fill-rule="nonzero" font-size="9pt" stroke="#000" stroke-width="0.25mm" fill="none" style="stroke:#000;stroke-width:0.25mm;fill:none"><path d="M 65.501 14.301 L 60.301 3.201 A 18.512 18.512 0 0 1 63.707 1.663 A 25.274 25.274 0 0 1 67.251 0.751 A 44.798 44.798 0 0 1 72.65 0.075 A 38.215 38.215 0 0 1 75.001 0.001 A 35.553 35.553 0 0 1 83.127 0.876 Q 89.519 2.375 93.929 6.448 A 22.501 22.501 0 0 1 94.901 7.401 A 24.138 24.138 0 0 1 100.642 17.656 Q 102.001 22.395 102.001 28.301 A 32.122 32.122 0 0 1 100.708 37.536 A 28.445 28.445 0 0 1 98.651 42.601 Q 95.301 49.001 89.201 52.751 A 24.93 24.93 0 0 1 80.281 56.038 A 33.451 33.451 0 0 1 74.601 56.501 A 36.496 36.496 0 0 1 66.611 55.675 Q 60.854 54.384 56.609 51.076 A 23.018 23.018 0 0 1 55.901 50.501 Q 49.577 45.157 45.792 35.372 A 58.712 58.712 0 0 1 44.901 32.901 Q 42.329 25.188 39.661 20.848 A 27.76 27.76 0 0 0 39.601 20.751 A 26.099 26.099 0 0 0 37.703 18.062 Q 36.662 16.78 35.573 15.845 A 12.067 12.067 0 0 0 33.851 14.601 A 13.057 13.057 0 0 0 27.707 12.817 A 15.617 15.617 0 0 0 27.001 12.801 A 12.1 12.1 0 0 0 23.194 13.369 A 9.554 9.554 0 0 0 18.201 17.201 A 16.621 16.621 0 0 0 15.755 22.968 Q 15.244 25.23 15.204 27.854 A 29.414 29.414 0 0 0 15.201 28.301 A 22.958 22.958 0 0 0 15.652 32.993 Q 16.25 35.857 17.641 38.069 A 13.165 13.165 0 0 0 18.851 39.701 A 11.986 11.986 0 0 0 27.296 43.851 A 16.618 16.618 0 0 0 28.601 43.901 A 23.017 23.017 0 0 0 30.288 43.843 Q 31.079 43.785 31.759 43.668 A 10.556 10.556 0 0 0 32.751 43.451 A 73.267 73.267 0 0 0 34.066 43.078 Q 34.646 42.909 35.279 42.714 A 131.662 131.662 0 0 0 36.601 42.301 L 41.701 53.401 Q 39.07 54.998 35.337 55.757 A 28.534 28.534 0 0 1 34.851 55.851 A 44.241 44.241 0 0 1 28.675 56.565 A 39.375 39.375 0 0 1 27.001 56.601 A 34.789 34.789 0 0 1 18.757 55.68 A 23.363 23.363 0 0 1 7.151 49.151 Q 0.566 42.29 0.045 30.384 A 47.662 47.662 0 0 1 0.001 28.301 A 32.336 32.336 0 0 1 1.191 19.393 A 28.104 28.104 0 0 1 3.401 13.901 Q 6.801 7.501 12.951 3.751 A 25.421 25.421 0 0 1 22.44 0.372 A 33.378 33.378 0 0 1 27.501 0.001 A 37.637 37.637 0 0 1 35.07 0.718 Q 39.698 1.668 43.294 3.879 A 21.633 21.633 0 0 1 45.951 5.801 A 30.54 30.54 0 0 1 51.456 12.044 Q 54.682 16.807 57.101 23.501 A 112.731 112.731 0 0 0 58.836 28.044 Q 60.668 32.527 62.433 35.505 A 33.093 33.093 0 0 0 62.551 35.701 Q 65.201 40.101 68.201 41.951 A 12.517 12.517 0 0 0 74.281 43.784 A 15.158 15.158 0 0 0 75.001 43.801 A 11.286 11.286 0 0 0 79.232 43.036 Q 81.851 41.987 83.701 39.501 Q 86.678 35.5 86.885 29.249 A 28.614 28.614 0 0 0 86.901 28.301 A 20.589 20.589 0 0 0 86.231 22.928 A 16.011 16.011 0 0 0 83.401 17.201 A 11.382 11.382 0 0 0 75.546 12.834 A 16.738 16.738 0 0 0 73.401 12.701 Q 70.901 12.701 69.251 13.101 A 24.898 24.898 0 0 0 67.721 13.528 Q 66.942 13.77 66.082 14.084 A 44.832 44.832 0 0 0 65.501 14.301 Z" vector-effect="non-scaling-stroke"/></g></svg>