<svg width="60.801" height="56.601" viewBox="0 0 60.801 56.601" xmlns="http://www.w3.org/2000/svg"><g id="svgGroup" stroke-linecap="round" fill-rule="nonzero" font-size="9pt" stroke="#000" stroke-width="0.25mm" fill="none" style="stroke:#000;stroke-width:0.25mm;fill:none"><path d="M 14.801 0 A 27.072 27.072 0 0 0 9.284 4.227 A 32.23 32.23 0 0 0 4.201 10.85 A 26.481 26.481 0 0 0 3.876 11.419 Q 0.001 18.406 0.001 28.3 Q 0.001 36.7 3.751 43.1 Q 7.501 49.5 14.351 53.05 A 30.581 30.581 0 0 0 22.576 55.871 A 41.093 41.093 0 0 0 30.501 56.6 Q 39.801 56.6 46.601 53 Q 53.401 49.4 57.101 43.05 Q 60.801 36.7 60.801 28.3 A 50.493 50.493 0 0 0 60.798 27.739 Q 60.751 23.55 60.006 19.89 A 29.647 29.647 0 0 0 56.651 10.85 A 34.24 34.24 0 0 0 55.012 8.29 A 27.828 27.828 0 0 0 46.001 0 L 38.501 12 Q 42.901 15.7 44.601 19.75 Q 46.301 23.8 46.301 28.3 L 46.301 30 A 44.583 44.583 0 0 0 44.64 29.212 A 38.679 38.679 0 0 0 38.751 27.1 A 28.221 28.221 0 0 0 36.292 26.562 A 32.744 32.744 0 0 0 30.701 26.1 A 35.55 35.55 0 0 0 26.806 26.306 A 27.325 27.325 0 0 0 21.851 27.3 A 48.67 48.67 0 0 0 19.68 28.015 A 41.355 41.355 0 0 0 14.601 30.2 A 15.478 15.478 0 0 1 14.552 29.686 A 17.959 17.959 0 0 1 14.501 28.3 A 24.35 24.35 0 0 1 14.543 26.85 A 20.66 20.66 0 0 1 16.251 19.65 Q 17.303 17.274 19.279 14.988 A 28.874 28.874 0 0 1 22.301 12 L 14.801 0 Z M 23.705 36.711 A 18.561 18.561 0 0 0 23.001 36.9 Q 19.901 37.8 17.101 39.1 Q 20.924 45.179 29.939 45.298 A 27.429 27.429 0 0 0 30.301 45.3 A 23.236 23.236 0 0 0 34.371 44.959 A 17.467 17.467 0 0 0 38.401 43.75 Q 41.901 42.2 43.801 38.9 Q 40.901 37.5 37.801 36.75 Q 34.701 36 30.301 36 Q 26.568 36 23.705 36.711 Z" vector-effect="non-scaling-stroke"/></g></svg>