<svg width="50.901" height="102.306" viewBox="0 0 50.901 102.306" xmlns="http://www.w3.org/2000/svg"><g id="svgGroup" stroke-linecap="round" fill-rule="nonzero" font-size="9pt" stroke="#000" stroke-width="0.25mm" fill="none" style="stroke:#000;stroke-width:0.25mm;fill:none"><path d="M 30.401 102.306 L 19.501 102.306 L 19.501 56.406 A 49.492 49.492 0 0 1 14.251 55.944 Q 8.952 55.168 5.775 53.215 A 11.98 11.98 0 0 1 4.551 52.356 A 12.151 12.151 0 0 1 1.22 48.334 Q 0.001 45.908 0.001 42.906 A 10.349 10.349 0 0 1 3.315 35.246 A 14.15 14.15 0 0 1 3.901 34.706 Q 7.801 31.306 14.101 31.306 Q 19.401 31.306 23.651 34.806 A 14.22 14.22 0 0 1 27.006 38.925 Q 28.051 40.802 28.781 43.18 A 31.43 31.43 0 0 1 29.501 46.006 Q 32.189 45.418 34.031 44.3 A 9.823 9.823 0 0 0 34.701 43.856 A 4.672 4.672 0 0 0 36.661 40.441 A 6.633 6.633 0 0 0 36.701 39.706 A 5.568 5.568 0 0 0 35.011 35.666 A 7.212 7.212 0 0 0 34.901 35.556 A 13.989 13.989 0 0 0 33.086 34.082 Q 32.138 33.428 30.984 32.822 A 26.318 26.318 0 0 0 30.051 32.356 Q 27.001 30.906 23.201 29.306 A 49.791 49.791 0 0 1 19.302 27.445 Q 15.547 25.433 13.45 23.274 A 13.509 13.509 0 0 1 13.151 22.956 A 11.563 11.563 0 0 1 10.257 16.667 A 15.8 15.8 0 0 1 10.101 14.406 A 13.007 13.007 0 0 1 11.068 9.359 A 12.391 12.391 0 0 1 12.401 6.956 A 15.169 15.169 0 0 1 17.457 2.468 A 18.458 18.458 0 0 1 18.651 1.856 A 19.386 19.386 0 0 1 24.184 0.245 A 25.032 25.032 0 0 1 27.701 0.006 Q 38.901 0.006 46.701 7.506 L 39.001 16.106 Q 37.001 13.706 33.951 12.406 A 20.811 20.811 0 0 0 31.976 11.673 Q 31.007 11.372 30.144 11.231 A 8.968 8.968 0 0 0 28.701 11.106 A 5.817 5.817 0 0 0 26.62 11.472 A 5.432 5.432 0 0 0 25.651 11.956 A 2.731 2.731 0 0 0 24.344 13.923 A 3.765 3.765 0 0 0 24.301 14.506 Q 24.301 16.413 26.404 17.719 A 8.681 8.681 0 0 0 27.101 18.106 Q 29.507 19.309 32.652 20.586 A 115.776 115.776 0 0 0 33.701 21.006 A 86.551 86.551 0 0 1 37.708 22.663 Q 39.657 23.53 41.315 24.404 A 43.766 43.766 0 0 1 43.201 25.456 A 18.304 18.304 0 0 1 46.493 27.913 A 14.411 14.411 0 0 1 48.951 30.956 A 12.499 12.499 0 0 1 50.309 34.29 Q 50.707 35.833 50.837 37.657 A 25.94 25.94 0 0 1 50.901 39.506 A 17.169 17.169 0 0 1 50.02 45.057 A 15.764 15.764 0 0 1 48.951 47.506 A 12.979 12.979 0 0 1 45.763 51.318 Q 44.346 52.492 42.501 53.456 A 20.896 20.896 0 0 1 38.69 54.958 Q 35.151 55.994 30.401 56.306 L 30.401 102.306 Z M 10.803 45.297 A 5.057 5.057 0 0 0 11.551 45.656 A 11.333 11.333 0 0 0 13.23 46.145 Q 14.983 46.527 17.498 46.654 A 49.18 49.18 0 0 0 19.001 46.706 Q 18.401 42.806 17.001 40.706 Q 15.601 38.606 12.901 38.606 Q 11.301 38.606 10.201 39.656 A 3.497 3.497 0 0 0 9.311 40.98 A 3.512 3.512 0 0 0 9.101 42.206 Q 9.101 44.29 10.803 45.297 Z" vector-effect="non-scaling-stroke"/></g></svg>