<svg width="57.301" height="56.501" viewBox="0 0 57.301 56.501" xmlns="http://www.w3.org/2000/svg"><g id="svgGroup" stroke-linecap="round" fill-rule="nonzero" font-size="9pt" stroke="#000" stroke-width="0.25mm" fill="none" style="stroke:#000;stroke-width:0.25mm;fill:none"><path d="M 56.001 13.2 L 45.601 19.6 A 25.522 25.522 0 0 0 43.057 16.747 Q 41.591 15.346 40.066 14.429 A 13.145 13.145 0 0 0 38.451 13.6 Q 34.701 12 30.501 12 A 16.958 16.958 0 0 0 25.385 12.737 A 13.566 13.566 0 0 0 19.401 16.55 Q 15.201 21.1 15.201 28.3 A 19.703 19.703 0 0 0 15.834 33.428 A 14.365 14.365 0 0 0 19.701 40.1 A 15.148 15.148 0 0 0 27.874 44.19 A 21.453 21.453 0 0 0 31.601 44.5 Q 35.401 44.5 38.801 42.9 A 12.623 12.623 0 0 0 41.174 41.41 Q 43.473 39.616 45.901 36.4 L 57.301 42.5 A 22.784 22.784 0 0 1 51.24 49.727 A 30.533 30.533 0 0 1 47.001 52.55 A 31.42 31.42 0 0 1 34.822 56.298 A 39.044 39.044 0 0 1 30.801 56.5 Q 21.701 56.5 14.751 52.95 Q 7.801 49.4 3.901 43 Q 0.001 36.6 0.001 28.3 Q 0.001 19.9 3.901 13.5 Q 7.801 7.1 14.751 3.55 Q 21.701 0 30.801 0 Q 36.301 0 41.301 1.6 A 29.788 29.788 0 0 1 48.089 4.719 A 26.864 26.864 0 0 1 50.151 6.15 Q 54.001 9.1 56.001 13.2 Z" vector-effect="non-scaling-stroke"/></g></svg>