<svg width="60.702" height="103.302" viewBox="0 0 60.702 103.302" xmlns="http://www.w3.org/2000/svg"><g id="svgGroup" stroke-linecap="round" fill-rule="nonzero" font-size="9pt" stroke="#000" stroke-width="0.25mm" fill="none" style="stroke:#000;stroke-width:0.25mm;fill:none"><path d="M 0.001 73.501 L 0.001 29.801 Q 0.001 15.601 7.901 7.801 A 25.82 25.82 0 0 1 19.539 1.288 Q 24.292 0.001 30.101 0.001 A 47.317 47.317 0 0 1 37.776 0.591 Q 42.097 1.302 45.711 2.867 A 28.759 28.759 0 0 1 46.451 3.201 Q 53.301 6.401 57.001 12.151 A 23.185 23.185 0 0 1 60.455 21.815 A 29.859 29.859 0 0 1 60.701 25.701 A 15.851 15.851 0 0 1 59.835 31.028 A 13.884 13.884 0 0 1 56.951 35.801 A 12.386 12.386 0 0 1 49.338 39.725 A 17.662 17.662 0 0 1 46.801 39.901 Q 44.624 39.901 41.851 39.41 A 44.788 44.788 0 0 1 40.751 39.201 Q 37.301 38.501 34.701 38.501 Q 33.101 38.501 32.001 39.551 A 3.489 3.489 0 0 0 30.902 42.095 A 4.576 4.576 0 0 0 30.901 42.201 A 3.574 3.574 0 0 0 31.063 43.302 A 2.86 2.86 0 0 0 32.051 44.701 Q 33.201 45.601 34.401 45.601 A 6.921 6.921 0 0 0 35.44 45.528 Q 35.969 45.447 36.396 45.278 A 2.977 2.977 0 0 0 37.151 44.851 Q 38.101 44.101 39.201 43.101 L 47.101 49.601 A 14.644 14.644 0 0 1 36.488 56.451 A 22.041 22.041 0 0 1 33.101 56.701 Q 26.101 56.701 21.851 52.751 A 13.065 13.065 0 0 1 17.805 44.9 A 18.57 18.57 0 0 1 17.601 42.101 A 16.209 16.209 0 0 1 18.265 37.349 A 12.717 12.717 0 0 1 21.951 31.551 A 14.915 14.915 0 0 1 29.378 27.949 A 21.137 21.137 0 0 1 33.301 27.601 A 26.924 26.924 0 0 1 37.806 27.967 A 23.994 23.994 0 0 1 39.001 28.201 Q 41.701 28.801 43.501 28.801 A 3.409 3.409 0 0 0 44.253 28.723 Q 44.729 28.615 45.072 28.357 A 1.854 1.854 0 0 0 45.501 27.901 A 3.504 3.504 0 0 0 46.023 26.584 A 4.811 4.811 0 0 0 46.101 25.701 Q 46.101 21.901 44.151 18.851 A 13.877 13.877 0 0 0 39.117 14.172 A 16.392 16.392 0 0 0 38.801 14.001 A 15.328 15.328 0 0 0 33.865 12.413 A 19.955 19.955 0 0 0 30.901 12.201 A 24.859 24.859 0 0 0 26.229 12.611 Q 23.599 13.115 21.558 14.238 A 12.159 12.159 0 0 0 18.701 16.401 A 12.579 12.579 0 0 0 15.972 20.834 Q 14.601 24.482 14.601 29.801 L 14.601 73.501 A 30.535 30.535 0 0 0 14.96 78.356 Q 15.371 80.9 16.252 82.915 A 12.497 12.497 0 0 0 18.901 86.851 Q 23.201 91.101 30.401 91.101 A 19.031 19.031 0 0 0 35.427 90.47 A 14.103 14.103 0 0 0 41.801 86.801 A 13.212 13.212 0 0 0 44.87 81.787 Q 46.101 78.317 46.101 73.501 L 46.101 73.201 L 60.701 73.201 L 60.701 73.601 A 41.941 41.941 0 0 1 59.851 82.324 Q 58.708 87.696 56.029 91.757 A 23.147 23.147 0 0 1 52.801 95.651 A 25.509 25.509 0 0 1 42.188 101.703 Q 38.196 102.901 33.393 103.201 A 52.887 52.887 0 0 1 30.101 103.301 Q 15.801 103.301 7.901 95.451 Q 0.001 87.601 0.001 73.501 Z" vector-effect="non-scaling-stroke"/></g></svg>