<svg width="126.401" height="56.502" viewBox="0 0 126.401 56.502" xmlns="http://www.w3.org/2000/svg"><g id="svgGroup" stroke-linecap="round" fill-rule="nonzero" font-size="9pt" stroke="#000" stroke-width="0.25mm" fill="none" style="stroke:#000;stroke-width:0.25mm;fill:none"><path d="M 34.801 42.801 L 38.301 54.801 Q 35.801 55.801 33.151 56.151 A 36.137 36.137 0 0 1 31.016 56.364 Q 29.827 56.45 28.477 56.482 A 70.676 70.676 0 0 1 26.801 56.501 A 27.394 27.394 0 0 1 18.239 55.197 A 24.505 24.505 0 0 1 13.051 52.801 Q 7.001 49.101 3.501 42.701 A 28.762 28.762 0 0 1 0.095 30.883 A 34.88 34.88 0 0 1 0.001 28.301 A 31.256 31.256 0 0 1 0.975 20.342 A 25.416 25.416 0 0 1 3.901 13.451 Q 7.801 7.101 14.601 3.551 Q 21.401 0.001 30.201 0.001 A 35.693 35.693 0 0 1 39.056 1.047 A 26.718 26.718 0 0 1 49.301 6.101 A 27.084 27.084 0 0 1 52.104 3.641 Q 53.689 2.442 55.286 1.667 A 15.974 15.974 0 0 1 55.751 1.451 A 16.31 16.31 0 0 1 59.859 0.259 A 21.967 21.967 0 0 1 63.301 0.001 Q 68.001 0.001 71.301 1.801 A 22.735 22.735 0 0 1 75.201 4.465 A 19.674 19.674 0 0 1 76.901 6.101 A 27.856 27.856 0 0 1 89.851 0.497 A 37.919 37.919 0 0 1 96.101 0.001 Q 105.001 0.001 111.801 3.651 Q 118.601 7.301 122.501 13.701 A 26.82 26.82 0 0 1 126.306 25.782 A 32.818 32.818 0 0 1 126.401 28.301 A 31.459 31.459 0 0 1 125.167 37.237 A 27.643 27.643 0 0 1 122.901 42.701 Q 119.401 49.101 113.351 52.801 A 25.34 25.34 0 0 1 101.5 56.443 A 30.827 30.827 0 0 1 99.601 56.501 Q 96.786 56.501 94.637 56.27 A 26.9 26.9 0 0 1 93.351 56.101 Q 90.801 55.701 88.001 54.701 L 91.401 42.701 Q 93.101 43.401 94.601 43.601 Q 96.004 43.788 97.757 43.8 A 35.372 35.372 0 0 0 98.001 43.801 A 12.671 12.671 0 0 0 103.501 42.624 A 12.589 12.589 0 0 0 107.351 39.751 A 13.237 13.237 0 0 0 110.304 34.411 Q 110.902 32.387 111.051 29.962 A 27.017 27.017 0 0 0 111.101 28.301 A 22.237 22.237 0 0 0 110.593 23.403 Q 109.623 19.106 106.801 16.251 A 14.475 14.475 0 0 0 97.589 11.989 A 19.705 19.705 0 0 0 95.701 11.901 A 19.515 19.515 0 0 0 90.618 12.528 A 14.081 14.081 0 0 0 83.851 16.551 A 15.619 15.619 0 0 0 80.063 23.843 A 23.23 23.23 0 0 0 79.501 29.101 A 26.391 26.391 0 0 0 79.837 33.376 A 23.09 23.09 0 0 0 80.151 34.951 A 24.294 24.294 0 0 1 80.731 38.849 A 29.433 29.433 0 0 1 80.801 40.901 Q 80.801 48.101 76.001 52.251 A 16.421 16.421 0 0 1 69.015 55.755 Q 66.357 56.401 63.201 56.401 A 24.847 24.847 0 0 1 57.698 55.824 A 17.056 17.056 0 0 1 50.401 52.301 A 13.382 13.382 0 0 1 45.673 43.526 A 19.317 19.317 0 0 1 45.501 40.901 A 30.037 30.037 0 0 1 45.732 37.1 A 24.806 24.806 0 0 1 46.101 34.951 Q 46.701 32.201 46.701 29.101 A 22.894 22.894 0 0 0 46.133 23.851 A 15.348 15.348 0 0 0 42.301 16.601 A 14.686 14.686 0 0 0 33.145 12.143 A 20.422 20.422 0 0 0 30.701 12.001 A 17.628 17.628 0 0 0 25.524 12.727 A 14.039 14.039 0 0 0 19.501 16.401 A 14.681 14.681 0 0 0 15.664 23.713 A 21.559 21.559 0 0 0 15.201 28.301 Q 15.201 35.501 19.001 39.651 A 12.52 12.52 0 0 0 23.921 43.035 A 12.828 12.828 0 0 0 28.401 43.801 Q 30.201 43.801 31.701 43.651 A 9.48 9.48 0 0 0 33.615 43.249 A 11.927 11.927 0 0 0 34.801 42.801 Z M 57.701 38.701 A 7.181 7.181 0 0 0 57.866 40.29 Q 58.118 41.399 58.752 42.208 A 4.368 4.368 0 0 0 59.101 42.601 Q 60.501 44.001 63.301 44.001 A 7.957 7.957 0 0 0 65.405 43.747 Q 67.812 43.086 68.461 40.698 A 7.626 7.626 0 0 0 68.701 38.701 A 37.045 37.045 0 0 0 68.671 37.179 Q 68.611 35.72 68.427 34.695 A 10.523 10.523 0 0 0 68.401 34.551 Q 68.101 33.001 67.801 31.401 Q 67.597 30.314 67.532 28.81 A 34.861 34.861 0 0 1 67.501 27.301 A 31.432 31.432 0 0 1 68.347 19.887 A 26.771 26.771 0 0 1 69.901 15.301 A 4.633 4.633 0 0 0 67.704 13.095 A 6.231 6.231 0 0 0 67.151 12.851 Q 65.201 12.101 63.301 12.101 Q 58.001 12.101 56.401 15.301 Q 58.801 20.701 58.801 27.301 Q 58.801 29.609 58.631 31.034 A 12.368 12.368 0 0 1 58.551 31.601 Q 58.301 33.101 58.001 34.551 A 11.267 11.267 0 0 0 57.846 35.551 Q 57.729 36.575 57.706 37.991 A 44.152 44.152 0 0 0 57.701 38.701 Z" vector-effect="non-scaling-stroke"/></g></svg>