<svg width="95.405" height="102.204" viewBox="0 0 95.405 102.204" xmlns="http://www.w3.org/2000/svg"><g id="svgGroup" stroke-linecap="round" fill-rule="nonzero" font-size="9pt" stroke="#000" stroke-width="0.25mm" fill="none" style="stroke:#000;stroke-width:0.25mm;fill:none"><path d="M 15.002 53.601 L 15.002 81.701 A 16.459 16.459 0 0 0 15.133 83.855 Q 15.446 86.216 16.508 87.523 A 4.37 4.37 0 0 0 16.852 87.901 Q 18.702 89.701 21.602 89.701 L 74.002 89.701 Q 76.591 89.701 78.103 88.408 A 4.835 4.835 0 0 0 78.852 87.601 A 7.125 7.125 0 0 0 79.912 85.438 Q 80.402 83.838 80.402 81.701 L 80.402 77.701 L 95.402 77.701 L 95.402 80.201 A 32.264 32.264 0 0 1 94.364 88.773 Q 91.655 98.581 81.879 101.225 A 31.372 31.372 0 0 1 73.702 102.201 L 21.802 102.201 Q 0.002 102.201 0.002 80.401 L 0.002 42.501 L 11.402 36.401 Q 13.082 38.551 14.491 40.069 A 29.212 29.212 0 0 0 15.802 41.401 A 13.175 13.175 0 0 0 17.414 42.715 Q 18.525 43.475 19.652 43.851 A 12.301 12.301 0 0 0 21.95 44.367 A 16.599 16.599 0 0 0 24.102 44.501 A 15.336 15.336 0 0 0 29.075 43.726 A 12.964 12.964 0 0 0 34.502 40.151 A 14.566 14.566 0 0 0 37.88 33.728 Q 38.502 31.26 38.502 28.301 A 24.054 24.054 0 0 0 38.025 23.363 Q 37.362 20.206 35.783 17.78 A 14.192 14.192 0 0 0 34.802 16.451 A 11.785 11.785 0 0 0 26.289 12.04 A 14.872 14.872 0 0 0 25.202 12.001 A 18.352 18.352 0 0 0 22.004 12.265 Q 19.824 12.651 18.102 13.601 Q 15.202 15.201 11.702 19.601 L 1.302 13.201 Q 4.402 7.101 10.552 3.551 A 26.3 26.3 0 0 1 19.978 0.347 A 33.898 33.898 0 0 1 24.902 0.001 A 35.78 35.78 0 0 1 32.859 0.848 A 28.183 28.183 0 0 1 40.002 3.501 Q 46.502 7.001 50.102 13.351 A 27.345 27.345 0 0 1 53.275 22.639 A 36.124 36.124 0 0 1 53.702 28.301 A 30.3 30.3 0 0 1 52.21 37.915 A 27.549 27.549 0 0 1 50.152 42.601 Q 46.602 49.001 40.552 52.751 A 25.151 25.151 0 0 1 28.467 56.456 A 30.561 30.561 0 0 1 26.802 56.501 Q 23.702 56.501 20.752 55.701 Q 17.802 54.901 15.002 53.601 Z" vector-effect="non-scaling-stroke"/></g></svg>