<svg width="96.403" height="102.205" viewBox="0 0 96.403 102.205" xmlns="http://www.w3.org/2000/svg"><g id="svgGroup" stroke-linecap="round" fill-rule="nonzero" font-size="9pt" stroke="#000" stroke-width="0.25mm" fill="none" style="stroke:#000;stroke-width:0.25mm;fill:none"><path d="M 15.002 53.602 L 15.002 81.702 A 16.459 16.459 0 0 0 15.133 83.856 Q 15.446 86.217 16.508 87.524 A 4.37 4.37 0 0 0 16.852 87.902 Q 18.702 89.702 21.602 89.702 L 74.002 89.702 Q 76.591 89.702 78.103 88.409 A 4.835 4.835 0 0 0 78.852 87.602 A 7.125 7.125 0 0 0 79.912 85.439 Q 80.402 83.839 80.402 81.702 L 80.402 77.702 L 95.402 77.702 L 95.402 80.202 A 32.264 32.264 0 0 1 94.364 88.774 Q 91.655 98.582 81.879 101.226 A 31.372 31.372 0 0 1 73.702 102.202 L 21.802 102.202 Q 0.002 102.202 0.002 80.402 L 0.002 42.502 L 11.402 36.402 Q 13.082 38.552 14.491 40.07 A 29.212 29.212 0 0 0 15.802 41.402 A 13.175 13.175 0 0 0 17.414 42.716 Q 18.525 43.476 19.652 43.852 A 12.301 12.301 0 0 0 21.95 44.368 A 16.599 16.599 0 0 0 24.102 44.502 A 15.336 15.336 0 0 0 29.075 43.727 A 12.964 12.964 0 0 0 34.502 40.152 A 14.566 14.566 0 0 0 37.88 33.729 Q 38.502 31.261 38.502 28.302 A 24.054 24.054 0 0 0 38.025 23.364 Q 37.362 20.207 35.783 17.781 A 14.192 14.192 0 0 0 34.802 16.452 A 11.785 11.785 0 0 0 26.289 12.041 A 14.872 14.872 0 0 0 25.202 12.002 A 18.352 18.352 0 0 0 22.004 12.266 Q 19.824 12.652 18.102 13.602 Q 15.202 15.202 11.702 19.602 L 1.302 13.202 Q 4.402 7.102 10.552 3.552 A 26.3 26.3 0 0 1 19.978 0.348 A 33.898 33.898 0 0 1 24.902 0.002 A 35.78 35.78 0 0 1 32.859 0.849 A 28.183 28.183 0 0 1 40.002 3.502 Q 46.502 7.002 50.102 13.352 A 27.345 27.345 0 0 1 53.275 22.64 A 36.124 36.124 0 0 1 53.702 28.302 Q 53.702 31.702 53.002 35.002 A 19.384 19.384 0 0 0 56.854 40.519 A 23.042 23.042 0 0 0 58.052 41.652 A 11.48 11.48 0 0 0 63.227 44.221 A 16.784 16.784 0 0 0 66.902 44.602 A 15.588 15.588 0 0 0 71.596 43.929 A 12.301 12.301 0 0 0 77.352 40.102 A 15.572 15.572 0 0 0 80.694 33.236 A 22.691 22.691 0 0 0 81.202 28.302 A 25.213 25.213 0 0 0 80.801 23.662 Q 80.303 21.005 79.188 18.889 A 13.676 13.676 0 0 0 77.952 16.952 Q 74.807 12.839 69.648 12.706 A 13.463 13.463 0 0 0 69.302 12.702 A 21.914 21.914 0 0 0 67.683 12.758 Q 66.914 12.815 66.254 12.93 A 10.282 10.282 0 0 0 65.452 13.102 A 16.718 16.718 0 0 0 63.661 13.678 A 21.286 21.286 0 0 0 62.202 14.302 L 57.102 3.202 Q 59.702 1.502 63.552 0.752 A 40.814 40.814 0 0 1 68.455 0.09 A 34.456 34.456 0 0 1 70.902 0.002 Q 78.002 0.002 83.752 3.652 A 26.531 26.531 0 0 1 92.679 13.16 A 31.235 31.235 0 0 1 92.952 13.652 A 28.333 28.333 0 0 1 96.098 23.545 A 36.152 36.152 0 0 1 96.402 28.302 Q 96.402 36.702 92.752 43.052 Q 89.102 49.402 82.652 53.002 A 28.27 28.27 0 0 1 72.569 56.284 A 36.242 36.242 0 0 1 67.702 56.602 A 34.085 34.085 0 0 1 61.54 56.07 A 25.252 25.252 0 0 1 55.302 54.102 A 24.271 24.271 0 0 1 49.876 50.643 A 20.87 20.87 0 0 1 46.802 47.402 Q 43.202 51.602 38.052 54.052 A 25.604 25.604 0 0 1 27.75 56.487 A 29.837 29.837 0 0 1 26.802 56.502 Q 23.702 56.502 20.752 55.702 Q 17.802 54.902 15.002 53.602 Z" vector-effect="non-scaling-stroke"/></g></svg>