<svg width="60.801" height="56.601" viewBox="0 0 60.801 56.601" xmlns="http://www.w3.org/2000/svg"><g id="svgGroup" stroke-linecap="round" fill-rule="nonzero" font-size="9pt" stroke="#000" stroke-width="0.25mm" fill="none" style="stroke:#000;stroke-width:0.25mm;fill:none"><path d="M 14.801 0 A 27.072 27.072 0 0 0 9.284 4.227 A 32.23 32.23 0 0 0 4.201 10.85 A 26.481 26.481 0 0 0 3.876 11.419 Q 0.001 18.406 0.001 28.3 Q 0.001 36.7 3.751 43.1 Q 7.501 49.5 14.351 53.05 A 30.581 30.581 0 0 0 22.576 55.871 A 41.093 41.093 0 0 0 30.501 56.6 Q 39.801 56.6 46.601 53 Q 53.401 49.4 57.101 43.05 Q 60.801 36.7 60.801 28.3 A 50.493 50.493 0 0 0 60.798 27.739 Q 60.751 23.55 60.006 19.89 A 29.647 29.647 0 0 0 56.651 10.85 A 34.24 34.24 0 0 0 55.012 8.29 A 27.828 27.828 0 0 0 46.001 0 L 38.501 12 Q 42.601 15.7 44.101 19.75 Q 45.601 23.8 45.601 28.3 A 21.668 21.668 0 0 1 45.206 32.536 A 15.006 15.006 0 0 1 41.351 40.15 A 13.862 13.862 0 0 1 35.706 43.778 A 16.451 16.451 0 0 1 30.401 44.6 A 19.117 19.117 0 0 1 28.938 44.545 A 13.942 13.942 0 0 1 19.401 40.05 A 15.232 15.232 0 0 1 15.881 33.665 A 20.144 20.144 0 0 1 15.201 28.3 Q 15.201 23.6 16.751 19.65 A 15.606 15.606 0 0 1 17.126 18.774 Q 18.746 15.288 22.301 12 L 14.801 0 Z" vector-effect="non-scaling-stroke"/></g></svg>