<svg width="60.703" height="56.601" viewBox="0 0 60.703 56.601" xmlns="http://www.w3.org/2000/svg"><g id="svgGroup" stroke-linecap="round" fill-rule="nonzero" font-size="9pt" stroke="#000" stroke-width="0.25mm" fill="none" style="stroke:#000;stroke-width:0.25mm;fill:none"><path d="M 14.801 0 L 22.301 12 A 25.91 25.91 0 0 0 19.362 15.184 Q 17.821 17.183 16.941 19.276 A 15.766 15.766 0 0 0 16.751 19.75 Q 15.201 23.8 15.201 28.3 A 21.673 21.673 0 0 0 15.721 33.192 Q 16.574 36.875 18.826 39.477 A 13.55 13.55 0 0 0 19.601 40.3 A 14.681 14.681 0 0 0 26.912 44.137 A 21.559 21.559 0 0 0 31.501 44.6 A 14.351 14.351 0 0 0 33.749 44.417 A 16.489 16.489 0 0 0 34.401 44.3 Q 32.101 40.3 30.851 35.95 A 32.774 32.774 0 0 1 29.605 27.398 A 36.545 36.545 0 0 1 29.601 26.8 Q 29.601 18.5 32.901 12.1 A 49.488 49.488 0 0 1 39.088 2.894 A 57.857 57.857 0 0 1 41.701 0 A 31.443 31.443 0 0 1 51.674 6.466 A 29.612 29.612 0 0 1 55.651 11.25 Q 60.701 18.8 60.701 28.3 A 31.936 31.936 0 0 1 59.704 36.431 A 26.354 26.354 0 0 1 56.951 43.1 Q 53.201 49.5 46.401 53.05 A 30.542 30.542 0 0 1 37.444 56.014 A 41.639 41.639 0 0 1 30.301 56.6 A 40.383 40.383 0 0 1 22.386 55.861 A 29.908 29.908 0 0 1 14.201 53 Q 7.401 49.4 3.701 43.05 Q 0.001 36.7 0.001 28.3 Q 0.001 18.406 3.876 11.419 A 26.481 26.481 0 0 1 4.201 10.85 A 32.23 32.23 0 0 1 9.284 4.227 A 27.072 27.072 0 0 1 14.801 0 Z M 38.601 26.8 Q 38.601 30.3 39.801 33.5 Q 41.001 36.7 43.101 39.9 Q 45.501 37.6 47.001 34.55 Q 48.501 31.5 48.501 28 A 22.114 22.114 0 0 0 48.005 23.249 A 19.264 19.264 0 0 0 47.351 20.95 Q 46.27 17.897 43.469 14.976 A 25.213 25.213 0 0 0 43.101 14.6 Q 41.101 17.1 39.851 19.9 A 13.369 13.369 0 0 0 38.964 22.757 Q 38.601 24.59 38.601 26.8 Z" vector-effect="non-scaling-stroke"/></g></svg>