<svg width="68.601" height="102.201" viewBox="0 0 68.601 102.201" xmlns="http://www.w3.org/2000/svg"><g id="svgGroup" stroke-linecap="round" fill-rule="nonzero" font-size="9pt" stroke="#000" stroke-width="0.25mm" fill="none" style="stroke:#000;stroke-width:0.25mm;fill:none"><path d="M 68.601 102.201 L 42.601 102.201 L 42.601 28.301 A 20.961 20.961 0 0 0 41.983 23.08 A 15.428 15.428 0 0 0 38.551 16.551 A 13.297 13.297 0 0 0 30.461 12.234 A 19.266 19.266 0 0 0 27.401 12.001 A 18.277 18.277 0 0 0 23.151 12.471 A 13.655 13.655 0 0 0 18.451 14.551 Q 14.801 17.101 13.101 21.201 Q 20.652 22.87 25.835 25.929 A 27.775 27.775 0 0 1 28.351 27.601 Q 34.101 31.901 36.701 38.701 A 38.078 38.078 0 0 1 38.589 45.669 Q 39.193 49.083 39.35 52.982 A 68.218 68.218 0 0 1 39.401 55.001 A 31.666 31.666 0 0 1 34.917 56.1 A 28.344 28.344 0 0 1 33.901 56.251 A 42.689 42.689 0 0 1 30.643 56.551 A 35.322 35.322 0 0 1 28.801 56.601 Q 20.401 56.601 13.901 53.051 Q 7.401 49.501 3.701 43.101 A 27.513 27.513 0 0 1 0.262 32.622 A 34.852 34.852 0 0 1 0.001 28.301 Q 0.001 19.901 3.651 13.501 Q 7.301 7.101 13.801 3.551 Q 20.301 0.001 28.801 0.001 A 34.574 34.574 0 0 1 36.462 0.814 A 26.92 26.92 0 0 1 43.951 3.701 Q 50.401 7.401 53.951 13.751 Q 57.501 20.101 57.501 28.301 L 57.501 90.201 L 68.601 90.201 L 68.601 102.201 Z M 29.001 44.801 L 29.301 44.801 Q 25.844 33.913 15.219 30.79 A 28.769 28.769 0 0 0 11.701 30.001 A 15.699 15.699 0 0 0 13.534 36.407 A 15.3 15.3 0 0 0 17.001 40.651 A 16.9 16.9 0 0 0 26.148 44.626 A 22.651 22.651 0 0 0 29.001 44.801 Z" vector-effect="non-scaling-stroke"/></g></svg>