<svg width="102.601" height="56.601" viewBox="0 0 102.601 56.601" xmlns="http://www.w3.org/2000/svg"><g id="svgGroup" stroke-linecap="round" fill-rule="nonzero" font-size="9pt" stroke="#000" stroke-width="0.25mm" fill="none" style="stroke:#000;stroke-width:0.25mm;fill:none"><path d="M 0 42.601 L 11.4 36.501 A 20.277 20.277 0 0 0 15.42 41.092 A 15.202 15.202 0 0 0 25.4 44.601 A 19.872 19.872 0 0 0 30.472 43.988 A 14.208 14.208 0 0 0 37.15 40.151 A 14.958 14.958 0 0 0 41.156 32.232 A 21.45 21.45 0 0 0 41.5 28.301 Q 41.5 21.101 37.4 16.551 A 13.547 13.547 0 0 0 28.259 12.081 A 18.826 18.826 0 0 0 26.5 12.001 A 19.988 19.988 0 0 0 20.42 12.91 A 18.476 18.476 0 0 0 18.7 13.551 A 13.548 13.548 0 0 0 15.792 15.297 Q 13.678 16.929 11.6 19.601 L 1.2 13.201 A 20.951 20.951 0 0 1 8.746 4.908 A 26.904 26.904 0 0 1 11.2 3.501 A 32.764 32.764 0 0 1 25.725 0.005 A 38.105 38.105 0 0 1 26.3 0.001 A 38.701 38.701 0 0 1 34.701 0.875 A 30.454 30.454 0 0 1 42.15 3.551 Q 49 7.101 52.85 13.501 A 26.914 26.914 0 0 1 56.489 24.473 A 33.847 33.847 0 0 1 56.7 28.301 Q 56.7 31.801 56 35.101 A 15.538 15.538 0 0 0 59.25 39.58 A 20.747 20.747 0 0 0 61.9 41.751 Q 66 44.601 71.4 44.601 A 19.646 19.646 0 0 0 76.371 44.007 A 13.743 13.743 0 0 0 83.15 40.001 Q 87.4 35.401 87.4 28.301 A 22.433 22.433 0 0 0 86.929 23.566 Q 86.246 20.403 84.574 18.013 A 13.534 13.534 0 0 0 83.75 16.951 A 11.974 11.974 0 0 0 75.41 12.767 A 16.785 16.785 0 0 0 73.9 12.701 A 27.464 27.464 0 0 0 72.488 12.735 Q 71.031 12.81 70 13.051 Q 68.5 13.401 65.9 14.301 L 60.7 3.201 A 18.512 18.512 0 0 1 64.106 1.663 A 25.274 25.274 0 0 1 67.65 0.751 A 44.798 44.798 0 0 1 73.05 0.074 A 38.215 38.215 0 0 1 75.4 0.001 A 27.2 27.2 0 0 1 85.371 1.805 A 25.669 25.669 0 0 1 89.15 3.651 Q 95.3 7.301 98.95 13.651 Q 102.6 20.001 102.6 28.301 A 29.782 29.782 0 0 1 101.331 37.125 A 26.074 26.074 0 0 1 98.75 42.901 Q 94.9 49.301 88.05 52.951 A 30.749 30.749 0 0 1 78.09 56.17 A 40.184 40.184 0 0 1 72.1 56.601 A 38.073 38.073 0 0 1 65.477 56.052 A 28.183 28.183 0 0 1 58.95 54.101 Q 53.3 51.601 49.9 47.501 A 24.965 24.965 0 0 1 44.405 52.031 A 32.159 32.159 0 0 1 40.55 54.051 A 27.741 27.741 0 0 1 34.599 55.881 Q 31.832 56.421 28.66 56.556 A 50.825 50.825 0 0 1 26.5 56.601 A 37.383 37.383 0 0 1 19.389 55.949 A 31.133 31.133 0 0 1 14.95 54.751 Q 9.7 52.901 5.85 49.701 Q 2 46.501 0 42.601 Z" vector-effect="non-scaling-stroke"/></g></svg>