<svg width="102.401" height="56.601" viewBox="0 0 102.401 56.601" xmlns="http://www.w3.org/2000/svg"><g id="svgGroup" stroke-linecap="round" fill-rule="nonzero" font-size="9pt" stroke="#000" stroke-width="0.25mm" fill="none" style="stroke:#000;stroke-width:0.25mm;fill:none"><path d="M 8.3 16.601 A 59.534 59.534 0 0 1 11.156 15.008 Q 12.929 14.085 14.542 13.421 A 26.983 26.983 0 0 1 17.8 12.301 Q 21.9 11.201 27 11.201 A 19.67 19.67 0 0 1 29.791 11.392 A 14.05 14.05 0 0 1 38.1 15.501 A 12.782 12.782 0 0 1 40.381 18.729 Q 42.3 22.555 42.3 28.301 L 42.3 29.501 Q 38.7 27.801 34.9 26.951 Q 31.1 26.101 27.4 26.101 Q 23 26.101 19.1 26.701 Q 15.2 27.301 10.7 29.001 Q 7.888 30.063 4.411 31.712 A 146.517 146.517 0 0 0 0 33.901 A 31.054 31.054 0 0 0 0.511 36.459 A 25.466 25.466 0 0 0 5 46.001 Q 8.9 51.101 15 53.851 A 29.886 29.886 0 0 0 21.308 55.869 A 37.792 37.792 0 0 0 28.9 56.601 A 35.359 35.359 0 0 0 34.769 56.134 A 24.196 24.196 0 0 0 49.5 48.101 A 24.955 24.955 0 0 0 51.772 50.212 A 27.303 27.303 0 0 0 58.8 54.351 Q 61.894 55.616 65.589 56.17 A 41.258 41.258 0 0 0 71.7 56.601 A 40.654 40.654 0 0 0 77.125 56.249 A 31.963 31.963 0 0 0 87.65 53.001 Q 94.6 49.401 98.5 43.051 Q 102.4 36.701 102.4 28.301 A 33.164 33.164 0 0 0 102.333 26.179 A 27.299 27.299 0 0 0 98.6 13.801 A 26.683 26.683 0 0 0 96.789 11.13 A 27.384 27.384 0 0 0 87.9 3.701 A 30.04 30.04 0 0 0 79.891 0.814 A 39.424 39.424 0 0 0 71.7 0.001 A 40.033 40.033 0 0 0 65.919 0.401 A 30.025 30.025 0 0 0 58.95 2.251 A 31.293 31.293 0 0 0 56.849 3.192 A 26.239 26.239 0 0 0 49.6 8.401 Q 46.1 4.401 41.05 2.201 A 25.376 25.376 0 0 0 36.217 0.659 A 31.06 31.06 0 0 0 29.7 0.001 Q 24 0.001 20 0.601 Q 16 1.201 12.2 2.701 A 49.675 49.675 0 0 0 10.353 3.475 Q 8.759 4.18 6.981 5.083 A 101.126 101.126 0 0 0 3.4 7.001 L 8.3 16.601 Z M 55.704 33.79 A 33.413 33.413 0 0 1 55.5 35.001 Q 57.5 39.101 61.4 41.851 A 13.963 13.963 0 0 0 65.788 43.869 Q 67.617 44.372 69.773 44.529 A 27.905 27.905 0 0 0 71.8 44.601 A 17.692 17.692 0 0 0 76.849 43.914 A 13.775 13.775 0 0 0 83.05 40.101 A 15.287 15.287 0 0 0 86.982 32.083 A 21.591 21.591 0 0 0 87.3 28.301 A 21.193 21.193 0 0 0 86.745 23.31 A 14.578 14.578 0 0 0 83 16.401 A 14.336 14.336 0 0 0 74.919 12.276 A 20.402 20.402 0 0 0 71.5 12.001 Q 66.708 12.001 63.373 13.514 A 12.464 12.464 0 0 0 61.3 14.701 Q 57.5 17.401 55.5 21.601 A 35.772 35.772 0 0 1 56.089 27.376 A 40.149 40.149 0 0 1 56.1 28.301 A 37.044 37.044 0 0 1 55.704 33.79 Z M 14.3 39.401 A 8.383 8.383 0 0 0 16.161 41.525 Q 17.058 42.271 18.237 42.91 A 17.742 17.742 0 0 0 19.55 43.551 Q 23.3 45.201 27.4 45.201 Q 36.1 45.201 39.8 39.201 A 37.099 37.099 0 0 0 36.234 37.58 A 30.724 30.724 0 0 0 34.15 36.851 A 19.411 19.411 0 0 0 29.076 36.014 A 22.144 22.144 0 0 0 28.3 36.001 Q 21.4 36.001 14.3 39.401 Z" vector-effect="non-scaling-stroke"/></g></svg>