<svg width="60.801" height="56.601" viewBox="0 0 60.801 56.601" xmlns="http://www.w3.org/2000/svg"><g id="svgGroup" stroke-linecap="round" fill-rule="nonzero" font-size="9pt" stroke="#000" stroke-width="0.25mm" fill="none" style="stroke:#000;stroke-width:0.25mm;fill:none"><path d="M 22.069 55.708 A 30.171 30.171 0 0 1 14.651 53.001 Q 7.801 49.401 3.901 43.051 Q 0.001 36.701 0.001 28.301 Q 0.001 19.901 3.901 13.501 Q 7.801 7.101 14.651 3.551 A 31.338 31.338 0 0 1 24.567 0.42 A 40.583 40.583 0 0 1 30.501 0.001 A 38.528 38.528 0 0 1 38.583 0.81 A 29.32 29.32 0 0 1 46.501 3.701 Q 53.301 7.401 57.051 13.801 A 27.474 27.474 0 0 1 60.709 25.811 A 33.376 33.376 0 0 1 60.801 28.301 Q 60.801 36.701 56.951 43.051 Q 53.101 49.401 46.251 53.001 A 31.186 31.186 0 0 1 35.863 56.249 A 39.712 39.712 0 0 1 30.501 56.601 A 38.162 38.162 0 0 1 22.069 55.708 Z M 28.401 44.601 A 24.104 24.104 0 0 0 33.499 44.093 Q 36.931 43.35 39.505 41.522 A 14.389 14.389 0 0 0 41.001 40.301 A 14.086 14.086 0 0 0 45.146 32.807 A 21.131 21.131 0 0 0 45.601 28.301 A 19.707 19.707 0 0 0 44.941 23.067 A 14.554 14.554 0 0 0 41.101 16.451 A 15.096 15.096 0 0 0 32.978 12.333 A 21.623 21.623 0 0 0 29.101 12.001 Q 27.901 12.001 26.701 12.201 A 38.999 38.999 0 0 1 29.817 18.232 A 44.137 44.137 0 0 1 30.301 19.451 Q 31.801 23.401 31.801 28.401 A 28.472 28.472 0 0 1 31.269 33.995 A 24.441 24.441 0 0 1 30.551 36.751 A 29.143 29.143 0 0 1 28.461 41.583 A 36.546 36.546 0 0 1 26.701 44.501 A 16.544 16.544 0 0 0 27.787 44.587 A 13.732 13.732 0 0 0 28.401 44.601 Z M 11.701 28.301 A 16.097 16.097 0 0 0 12.235 32.518 A 13.662 13.662 0 0 0 13.401 35.451 Q 15.101 38.601 17.701 40.801 Q 19.701 38.001 20.851 35.051 A 15.89 15.89 0 0 0 21.695 31.923 Q 22.001 30.115 22.001 28.001 A 20.485 20.485 0 0 0 21.737 24.636 A 15.243 15.243 0 0 0 20.801 21.301 Q 19.601 18.401 17.801 15.901 Q 15.001 18.101 13.351 21.351 Q 11.701 24.601 11.701 28.301 Z" vector-effect="non-scaling-stroke"/></g></svg>