<svg width="55.401" height="103.201" viewBox="0 0 55.401 103.201" xmlns="http://www.w3.org/2000/svg"><g id="svgGroup" stroke-linecap="round" fill-rule="nonzero" font-size="9pt" stroke="#000" stroke-width="0.25mm" fill="none" style="stroke:#000;stroke-width:0.25mm;fill:none"><path d="M 20.401 46.801 A 6.204 6.204 0 0 1 19.955 46.45 Q 18.103 44.852 16.451 41.101 A 18.072 18.072 0 0 1 15.641 38.854 Q 14.601 35.274 14.601 30.401 Q 14.601 25.708 15.724 22.182 A 15.332 15.332 0 0 1 18.551 16.901 A 16.271 16.271 0 0 1 20.244 15.156 A 11.132 11.132 0 0 1 27.801 12.201 A 14.276 14.276 0 0 1 29.112 12.26 A 11.324 11.324 0 0 1 34.601 14.201 A 13.137 13.137 0 0 1 35.725 15.069 A 13.538 13.538 0 0 1 39.101 19.551 A 15.756 15.756 0 0 1 40.208 22.703 A 18.946 18.946 0 0 1 40.701 27.101 Q 40.701 30.101 40.151 32.501 Q 39.601 34.901 38.301 37.551 A 38.3 38.3 0 0 1 37.636 38.839 Q 36.462 41.021 34.701 43.701 A 514.477 514.477 0 0 1 34.589 43.871 Q 32.316 47.326 28.901 52.401 Q 24.801 58.401 21.351 63.251 Q 17.901 68.101 15.801 73.051 A 25.377 25.377 0 0 0 14.259 78.163 A 32.325 32.325 0 0 0 13.701 84.301 Q 13.701 87.855 14.486 90.769 A 15.845 15.845 0 0 0 18.851 98.301 A 17.198 17.198 0 0 0 26.906 102.568 A 25.083 25.083 0 0 0 32.701 103.201 A 26.965 26.965 0 0 0 33.048 103.198 Q 45.886 103.033 52.201 90.601 L 41.301 83.101 Q 39.545 87.518 37.34 89.434 A 5.452 5.452 0 0 1 33.701 90.901 Q 31.601 90.901 30.051 89.351 A 4.682 4.682 0 0 1 29.392 88.523 Q 28.886 87.716 28.668 86.658 A 8.677 8.677 0 0 1 28.501 84.901 Q 28.501 82.201 29.051 79.901 A 16.437 16.437 0 0 1 29.132 79.575 Q 29.696 77.414 30.951 74.951 A 42.743 42.743 0 0 1 31.96 73.093 Q 32.527 72.105 33.218 70.999 A 97.505 97.505 0 0 1 34.801 68.551 A 254.443 254.443 0 0 1 35.053 68.172 Q 37.5 64.517 41.301 59.101 A 218.061 218.061 0 0 0 44.573 54.334 Q 47.778 49.523 49.851 45.751 Q 51.757 42.282 52.96 39.301 A 35.879 35.879 0 0 0 54.151 35.901 A 33.674 33.674 0 0 0 54.912 32.732 A 27.179 27.179 0 0 0 55.401 27.701 A 35.907 35.907 0 0 0 54.999 22.237 A 27.653 27.653 0 0 0 52.001 13.151 Q 48.601 6.901 42.351 3.451 A 26.831 26.831 0 0 0 34.576 0.661 A 36.165 36.165 0 0 0 27.501 0.001 A 31.703 31.703 0 0 0 22.733 0.347 A 24.057 24.057 0 0 0 12.751 4.151 Q 6.601 8.301 3.301 15.201 A 32.483 32.483 0 0 0 1.164 21.071 A 37.812 37.812 0 0 0 0.001 30.601 Q 0.001 34.037 0.477 37.063 A 29.658 29.658 0 0 0 2.151 43.351 A 40.719 40.719 0 0 0 2.298 43.719 Q 3.282 46.143 4.468 48.161 A 24.304 24.304 0 0 0 7.451 52.251 A 31.135 31.135 0 0 0 9.147 53.976 Q 10.221 54.983 11.251 55.723 A 13.322 13.322 0 0 0 13.401 57.001 L 20.401 46.801 Z" vector-effect="non-scaling-stroke"/></g></svg>