<svg width="120.201" height="56.601" viewBox="0 0 120.201 56.601" xmlns="http://www.w3.org/2000/svg"><g id="svgGroup" stroke-linecap="round" fill-rule="nonzero" font-size="9pt" stroke="#000" stroke-width="0.25mm" fill="none" style="stroke:#000;stroke-width:0.25mm;fill:none"><path d="M 0 42.601 L 11.4 36.501 A 20.092 20.092 0 0 0 14.473 40.596 A 12.944 12.944 0 0 0 24 44.601 A 16.038 16.038 0 0 0 28.752 43.929 A 12.701 12.701 0 0 0 34.55 40.201 A 14.836 14.836 0 0 0 37.873 33.785 Q 38.5 31.289 38.5 28.301 A 24.054 24.054 0 0 0 38.022 23.363 Q 37.36 20.206 35.78 17.78 A 14.192 14.192 0 0 0 34.8 16.451 A 11.931 11.931 0 0 0 26.123 12.04 A 15.848 15.848 0 0 0 25 12.001 A 16.247 16.247 0 0 0 19.651 12.868 A 15.136 15.136 0 0 0 18 13.551 A 11.921 11.921 0 0 0 15.6 15.128 Q 14.538 16.01 13.475 17.217 A 29.362 29.362 0 0 0 11.6 19.601 L 1.2 13.201 A 20.68 20.68 0 0 1 9.413 4.181 A 25.771 25.771 0 0 1 10.6 3.501 A 29.574 29.574 0 0 1 24.414 0.004 A 34.497 34.497 0 0 1 24.9 0.001 Q 33.4 0.001 39.85 3.551 Q 46.3 7.101 50 13.451 A 26.996 26.996 0 0 1 53.339 23.198 A 34.9 34.9 0 0 1 53.7 28.301 Q 53.7 36.701 50 43.101 Q 46.3 49.501 39.8 53.051 A 29.008 29.008 0 0 1 29.228 56.35 A 36.484 36.484 0 0 1 24.9 56.601 A 31.151 31.151 0 0 1 16.1 55.379 A 28.822 28.822 0 0 1 14.2 54.751 A 29.486 29.486 0 0 1 8.251 51.784 A 25.577 25.577 0 0 1 5.55 49.751 A 22.725 22.725 0 0 1 1.435 45.134 A 20.305 20.305 0 0 1 0 42.601 Z M 91.5 56.601 Q 83.1 56.601 76.6 53.051 Q 70.1 49.501 66.4 43.151 A 26.996 26.996 0 0 1 63.061 33.403 A 34.9 34.9 0 0 1 62.7 28.301 A 33.013 33.013 0 0 1 63.568 20.571 A 26.226 26.226 0 0 1 66.4 13.451 Q 70.1 7.101 76.6 3.551 A 29.008 29.008 0 0 1 87.172 0.251 A 36.484 36.484 0 0 1 91.5 0.001 A 34.574 34.574 0 0 1 99.162 0.814 A 26.92 26.92 0 0 1 106.65 3.701 Q 113.1 7.401 116.65 13.751 Q 120.2 20.101 120.2 28.301 Q 120.2 36.701 116.5 43.101 Q 112.8 49.501 106.35 53.051 Q 99.9 56.601 91.5 56.601 Z M 91.4 44.601 A 14.108 14.108 0 0 0 96.025 43.874 A 11.85 11.85 0 0 0 101.3 40.201 Q 105 35.801 105 28.301 A 24.599 24.599 0 0 0 104.543 23.41 Q 103.943 20.455 102.557 18.159 A 13.836 13.836 0 0 0 101.3 16.401 A 12.069 12.069 0 0 0 92.447 12.033 A 16.607 16.607 0 0 0 91.4 12.001 A 12.963 12.963 0 0 0 86.308 12.973 A 12.223 12.223 0 0 0 81.65 16.501 Q 77.9 21.001 77.9 28.301 Q 77.9 35.1 81.11 39.47 A 14.612 14.612 0 0 0 81.6 40.101 A 11.888 11.888 0 0 0 90.277 44.561 A 15.672 15.672 0 0 0 91.4 44.601 Z" vector-effect="non-scaling-stroke"/></g></svg>