<svg width="102.001" height="56.601" viewBox="0 0 102.001 56.601" xmlns="http://www.w3.org/2000/svg"><g id="svgGroup" stroke-linecap="round" fill-rule="nonzero" font-size="9pt" stroke="#000" stroke-width="0.25mm" fill="none" style="stroke:#000;stroke-width:0.25mm;fill:none"><path d="M 22.001 44.601 L 14.501 56.601 Q 8.201 52.901 4.101 45.751 A 29.84 29.84 0 0 1 0.799 36.78 Q 0.051 33.093 0.004 28.867 A 51.103 51.103 0 0 1 0.001 28.301 Q 0.001 19.901 3.651 13.501 Q 7.301 7.101 13.851 3.551 Q 20.401 0.001 29.101 0.001 A 39.558 39.558 0 0 1 35.571 0.506 A 29.623 29.623 0 0 1 42.001 2.301 A 25.137 25.137 0 0 1 48.219 5.918 A 22.235 22.235 0 0 1 51.201 8.801 Q 55.101 4.301 60.601 2.151 A 31.87 31.87 0 0 1 71.519 0.011 A 36.438 36.438 0 0 1 72.401 0.001 A 36.427 36.427 0 0 1 80.542 0.873 A 28.735 28.735 0 0 1 87.851 3.601 Q 94.501 7.201 98.251 13.601 A 27.405 27.405 0 0 1 101.821 24.76 A 34.2 34.2 0 0 1 102.001 28.301 Q 102.001 36.501 98.501 42.901 Q 95.001 49.301 89.001 52.951 A 25.23 25.23 0 0 1 75.832 56.6 A 29.87 29.87 0 0 1 75.601 56.601 A 38.865 38.865 0 0 1 70.583 56.262 A 46.845 46.845 0 0 1 68.001 55.851 A 23.235 23.235 0 0 1 64.982 55.084 Q 63.422 54.568 62.151 53.855 A 12.937 12.937 0 0 1 61.401 53.401 L 66.401 42.301 Q 67.913 42.851 69.118 43.212 A 28 28 0 0 0 70.151 43.501 A 10.952 10.952 0 0 0 71.425 43.743 Q 72.084 43.832 72.848 43.871 A 24.814 24.814 0 0 0 74.101 43.901 A 13.024 13.024 0 0 0 78.329 43.245 A 10.836 10.836 0 0 0 83.401 39.601 A 15.116 15.116 0 0 0 86.184 33.772 Q 86.801 31.281 86.801 28.301 A 21.676 21.676 0 0 0 86.258 23.31 A 14.684 14.684 0 0 0 82.601 16.401 A 14.012 14.012 0 0 0 73.662 12.108 A 19.279 19.279 0 0 0 71.601 12.001 A 17.761 17.761 0 0 0 67.601 12.428 A 12.618 12.618 0 0 0 62.551 14.801 Q 59.001 17.601 57.101 21.501 A 35.459 35.459 0 0 1 57.661 26.471 A 41.403 41.403 0 0 1 57.701 28.301 A 44.289 44.289 0 0 1 56.951 36.648 A 32.622 32.622 0 0 1 54.051 45.301 Q 50.401 52.501 43.401 56.601 L 35.901 44.601 A 23.508 23.508 0 0 0 39.103 41.714 Q 41.112 39.515 42.151 37.051 Q 43.901 32.901 43.901 28.301 Q 43.901 20.901 39.951 16.451 A 13.023 13.023 0 0 0 30.746 12.043 A 17.953 17.953 0 0 0 29.501 12.001 A 14.791 14.791 0 0 0 24.537 12.802 A 12.743 12.743 0 0 0 19.151 16.501 A 15.487 15.487 0 0 0 15.667 23.613 A 22.36 22.36 0 0 0 15.201 28.301 A 25.645 25.645 0 0 0 15.729 33.6 A 21.576 21.576 0 0 0 16.701 36.901 Q 18.083 40.496 21.421 44.006 A 32.902 32.902 0 0 0 22.001 44.601 Z" vector-effect="non-scaling-stroke"/></g></svg>