<svg width="53.701" height="102.201" viewBox="0 0 53.701 102.201" xmlns="http://www.w3.org/2000/svg"><g id="svgGroup" stroke-linecap="round" fill-rule="nonzero" font-size="9pt" stroke="#000" stroke-width="0.25mm" fill="none" style="stroke:#000;stroke-width:0.25mm;fill:none"><path d="M 47.5 102.201 L 32.1 102.201 L 0 42.601 L 11.4 36.501 A 20.092 20.092 0 0 0 14.473 40.596 A 12.944 12.944 0 0 0 24 44.601 A 16.209 16.209 0 0 0 28.752 43.937 A 12.717 12.717 0 0 0 34.55 40.251 Q 38.5 35.901 38.5 28.301 A 23.745 23.745 0 0 0 38.016 23.363 Q 37.328 20.126 35.662 17.659 A 14.198 14.198 0 0 0 34.75 16.451 A 12.02 12.02 0 0 0 26.015 12.034 A 15.438 15.438 0 0 0 25 12.001 A 16.247 16.247 0 0 0 19.651 12.868 A 15.136 15.136 0 0 0 18 13.551 A 11.921 11.921 0 0 0 15.6 15.128 Q 14.538 16.01 13.475 17.217 A 29.362 29.362 0 0 0 11.6 19.601 L 1.2 13.201 A 20.68 20.68 0 0 1 9.413 4.181 A 25.771 25.771 0 0 1 10.6 3.501 A 29.574 29.574 0 0 1 24.414 0.004 A 34.497 34.497 0 0 1 24.9 0.001 Q 33.4 0.001 39.85 3.551 Q 46.3 7.101 50 13.451 A 26.996 26.996 0 0 1 53.339 23.198 A 34.9 34.9 0 0 1 53.7 28.301 Q 53.7 36.701 50 43.101 Q 46.3 49.501 39.8 53.051 A 29.008 29.008 0 0 1 29.228 56.35 A 36.484 36.484 0 0 1 24.9 56.601 A 20.056 20.056 0 0 1 23.559 56.558 Q 22.906 56.515 22.343 56.425 A 9.539 9.539 0 0 1 21.7 56.301 Q 24.4 60.401 26.55 63.901 A 183.268 183.268 0 0 1 30.669 70.963 A 199.003 199.003 0 0 1 30.8 71.201 L 47.5 102.201 Z" vector-effect="non-scaling-stroke"/></g></svg>