<svg width="63.101" height="56.601" viewBox="0 0 63.101 56.601" xmlns="http://www.w3.org/2000/svg"><g id="svgGroup" stroke-linecap="round" fill-rule="nonzero" font-size="9pt" stroke="#000" stroke-width="0.25mm" fill="none" style="stroke:#000;stroke-width:0.25mm;fill:none"><path d="M 63.101 26.201 L 63.101 38.001 L 59.101 38.001 Q 54.005 38.001 51.445 36.606 A 5.764 5.764 0 0 1 50.301 35.801 A 9.498 9.498 0 0 1 48.244 33.155 A 8.628 8.628 0 0 1 47.401 30.601 Q 46.319 30.896 43.689 30.9 A 47.864 47.864 0 0 1 43.601 30.901 A 17.647 17.647 0 0 1 39.567 30.465 A 12.155 12.155 0 0 1 34.251 27.801 A 10.176 10.176 0 0 1 30.831 21.283 A 14.605 14.605 0 0 1 30.701 19.301 Q 30.701 15.101 33.601 12.001 L 30.501 12.001 A 16.958 16.958 0 0 0 25.385 12.737 A 13.566 13.566 0 0 0 19.401 16.551 Q 15.201 21.101 15.201 28.301 A 19.714 19.714 0 0 0 15.872 33.576 A 14.836 14.836 0 0 0 19.601 40.101 A 13.61 13.61 0 0 0 24.966 43.404 Q 27.118 44.152 29.757 44.432 A 31.684 31.684 0 0 0 33.101 44.601 Q 35.701 44.601 37.801 44.151 Q 39.835 43.715 42.151 42.575 A 26.557 26.557 0 0 0 42.301 42.501 L 51.401 52.201 A 36.371 36.371 0 0 1 46.513 54.47 A 28.202 28.202 0 0 1 42.251 55.701 Q 37.801 56.601 33.101 56.601 A 50.258 50.258 0 0 1 24.392 55.881 A 37.146 37.146 0 0 1 15.751 53.301 A 27.741 27.741 0 0 1 8.067 48.324 A 25.049 25.049 0 0 1 4.151 43.701 Q 0.001 37.401 0.001 28.301 A 30.921 30.921 0 0 1 1.073 20.018 A 26.209 26.209 0 0 1 3.801 13.601 A 25.601 25.601 0 0 1 13.44 4.3 A 31.048 31.048 0 0 1 14.751 3.601 A 32.664 32.664 0 0 1 23.633 0.69 A 44.981 44.981 0 0 1 31.701 0.001 A 46.806 46.806 0 0 1 37.546 0.345 Q 42.101 0.919 45.601 2.451 Q 50.772 4.713 53.598 8.212 A 15.351 15.351 0 0 1 54.051 8.801 A 14.82 14.82 0 0 1 56.374 13.444 A 13.476 13.476 0 0 1 56.901 17.201 Q 56.901 18.611 56.818 19.415 A 6.003 6.003 0 0 1 56.751 19.901 A 6.99 6.99 0 0 0 56.672 20.459 Q 56.611 21.043 56.602 21.835 A 24.542 24.542 0 0 0 56.601 22.101 A 4.571 4.571 0 0 0 56.76 23.346 A 3.095 3.095 0 0 0 58.251 25.251 A 5.895 5.895 0 0 0 59.602 25.801 Q 60.934 26.175 62.836 26.199 A 20.908 20.908 0 0 0 63.101 26.201 Z M 43.301 23.001 A 5.738 5.738 0 0 0 44.953 22.772 A 4.643 4.643 0 0 0 46.651 21.851 A 3.749 3.749 0 0 0 47.992 19.107 A 5.1 5.1 0 0 0 48.001 18.801 Q 48.001 16.801 46.651 15.701 Q 45.301 14.601 43.301 14.601 A 6.004 6.004 0 0 0 41.682 14.809 A 4.715 4.715 0 0 0 39.951 15.701 A 3.585 3.585 0 0 0 38.648 18.08 A 5.244 5.244 0 0 0 38.601 18.801 A 5.357 5.357 0 0 0 38.859 20.539 Q 39.678 22.928 43.092 22.998 A 10.17 10.17 0 0 0 43.301 23.001 Z" vector-effect="non-scaling-stroke"/></g></svg>