<svg width="57.501" height="56.601" viewBox="0 0 57.501 56.601" xmlns="http://www.w3.org/2000/svg"><g id="svgGroup" stroke-linecap="round" fill-rule="evenodd" font-size="9pt" stroke="#000" stroke-width="0.25mm" fill="none" style="stroke:#000;stroke-width:0.25mm;fill:none"><path d="M 28.801 56.601 Q 20.401 56.601 13.901 53.051 Q 7.401 49.501 3.701 43.151 A 26.996 26.996 0 0 1 0.362 33.403 A 34.9 34.9 0 0 1 0.001 28.301 A 33.013 33.013 0 0 1 0.869 20.571 A 26.226 26.226 0 0 1 3.701 13.451 Q 7.401 7.101 13.901 3.551 A 29.008 29.008 0 0 1 24.472 0.251 A 36.484 36.484 0 0 1 28.801 0.001 A 34.574 34.574 0 0 1 36.463 0.814 A 26.92 26.92 0 0 1 43.951 3.701 Q 50.401 7.401 53.951 13.751 Q 57.501 20.101 57.501 28.301 Q 57.501 36.701 53.801 43.101 Q 50.101 49.501 43.651 53.051 Q 37.201 56.601 28.801 56.601 Z M 28.701 44.601 A 14.108 14.108 0 0 0 33.326 43.874 A 11.85 11.85 0 0 0 38.601 40.201 Q 42.301 35.801 42.301 28.301 A 24.599 24.599 0 0 0 41.843 23.41 Q 41.244 20.455 39.858 18.159 A 13.836 13.836 0 0 0 38.601 16.401 A 12.069 12.069 0 0 0 29.748 12.033 A 16.607 16.607 0 0 0 28.701 12.001 A 12.963 12.963 0 0 0 23.609 12.973 A 12.223 12.223 0 0 0 18.951 16.501 Q 15.201 21.001 15.201 28.301 Q 15.201 35.1 18.411 39.47 A 14.612 14.612 0 0 0 18.901 40.101 A 11.888 11.888 0 0 0 27.578 44.561 A 15.672 15.672 0 0 0 28.701 44.601 Z" vector-effect="non-scaling-stroke"/></g></svg>